  0
SECTION
  2
HEADER
  9
$ACADVER
  1
AC1012
  9
$DWGCODEPAGE
  3
ansi_1252
  9
$INSBASE
 10
0.0
 20
0.0
 30
0.0
  9
$EXTMIN
 10
1.000000000000000E+20
 20
1.000000000000000E+20
 30
1.000000000000000E+20
  9
$EXTMAX
 10
-1.000000000000000E+20
 20
-1.000000000000000E+20
 30
-1.000000000000000E+20
  9
$LIMMIN
 10
0.0
 20
0.0
  9
$LIMMAX
 10
12.0
 20
9.0
  9
$ORTHOMODE
 70
     0
  9
$REGENMODE
 70
     1
  9
$FILLMODE
 70
     1
  9
$QTEXTMODE
 70
     0
  9
$MIRRTEXT
 70
     1
  9
$DRAGMODE
 70
     2
  9
$LTSCALE
 40
1.0
  9
$OSMODE
 70
    37
  9
$ATTMODE
 70
     1
  9
$TEXTSIZE
 40
0.2
  9
$TRACEWID
 40
0.05
  9
$TEXTSTYLE
  7
STANDARD
  9
$CLAYER
  8
0
  9
$CELTYPE
  6
BYLAYER
  9
$CECOLOR
 62
   256
  9
$CELTSCALE
 40
1.0
  9
$DELOBJ
 70
     1
  9
$DISPSILH
 70
     0
  9
$DIMSCALE
 40
1.0
  9
$DIMASZ
 40
0.18
  9
$DIMEXO
 40
0.0625
  9
$DIMDLI
 40
0.38
  9
$DIMRND
 40
0.0
  9
$DIMDLE
 40
0.0
  9
$DIMEXE
 40
0.18
  9
$DIMTP
 40
0.0
  9
$DIMTM
 40
0.0
  9
$DIMTXT
 40
0.18
  9
$DIMCEN
 40
0.09
  9
$DIMTSZ
 40
0.0
  9
$DIMTOL
 70
     0
  9
$DIMLIM
 70
     0
  9
$DIMTIH
 70
     1
  9
$DIMTOH
 70
     1
  9
$DIMSE1
 70
     0
  9
$DIMSE2
 70
     0
  9
$DIMTAD
 70
     0
  9
$DIMZIN
 70
     0
  9
$DIMBLK
  1

  9
$DIMASO
 70
     1
  9
$DIMSHO
 70
     1
  9
$DIMPOST
  1

  9
$DIMAPOST
  1

  9
$DIMALT
 70
     0
  9
$DIMALTD
 70
     2
  9
$DIMALTF
 40
25.4
  9
$DIMLFAC
 40
1.0
  9
$DIMTOFL
 70
     0
  9
$DIMTVP
 40
0.0
  9
$DIMTIX
 70
     0
  9
$DIMSOXD
 70
     0
  9
$DIMSAH
 70
     0
  9
$DIMBLK1
  1

  9
$DIMBLK2
  1

  9
$DIMSTYLE
  2
STANDARD
  9
$DIMCLRD
 70
     0
  9
$DIMCLRE
 70
     0
  9
$DIMCLRT
 70
     0
  9
$DIMTFAC
 40
1.0
  9
$DIMGAP
 40
0.09
  9
$DIMJUST
 70
     0
  9
$DIMSD1
 70
     0
  9
$DIMSD2
 70
     0
  9
$DIMTOLJ
 70
     1
  9
$DIMTZIN
 70
     0
  9
$DIMALTZ
 70
     0
  9
$DIMALTTZ
 70
     0
  9
$DIMFIT
 70
     3
  9
$DIMUPT
 70
     0
  9
$DIMUNIT
 70
     2
  9
$DIMDEC
 70
     4
  9
$DIMTDEC
 70
     4
  9
$DIMALTU
 70
     2
  9
$DIMALTTD
 70
     2
  9
$DIMTXSTY
  7
STANDARD
  9
$DIMAUNIT
 70
     0
  9
$LUNITS
 70
     2
  9
$LUPREC
 70
     4
  9
$SKETCHINC
 40
0.1
  9
$FILLETRAD
 40
0.5
  9
$AUNITS
 70
     0
  9
$AUPREC
 70
     0
  9
$MENU
  1
.
  9
$ELEVATION
 40
0.0
  9
$PELEVATION
 40
0.0
  9
$THICKNESS
 40
0.0
  9
$LIMCHECK
 70
     0
  9
$CHAMFERA
 40
0.5
  9
$CHAMFERB
 40
0.5
  9
$CHAMFERC
 40
1.0
  9
$CHAMFERD
 40
0.0
  9
$SKPOLY
 70
     0
  9
$TDCREATE
 40
2457471.905406123
  9
$TDUPDATE
 40
2457471.905406134
  9
$TDINDWG
 40
0.0000000116
  9
$TDUSRTIMER
 40
0.0000000116
  9
$USRTIMER
 70
     1
  9
$ANGBASE
 50
0.0
  9
$ANGDIR
 70
     0
  9
$PDMODE
 70
     0
  9
$PDSIZE
 40
0.0
  9
$PLINEWID
 40
0.0
  9
$COORDS
 70
     1
  9
$SPLFRAME
 70
     0
  9
$SPLINETYPE
 70
     6
  9
$SPLINESEGS
 70
     8
  9
$ATTDIA
 70
     0
  9
$ATTREQ
 70
     1
  9
$HANDLING
 70
     1
  9
$HANDSEED
  5
421
  9
$SURFTAB1
 70
     6
  9
$SURFTAB2
 70
     6
  9
$SURFTYPE
 70
     6
  9
$SURFU
 70
     6
  9
$SURFV
 70
     6
  9
$UCSNAME
  2

  9
$UCSORG
 10
0.0
 20
0.0
 30
0.0
  9
$UCSXDIR
 10
1.0
 20
0.0
 30
0.0
  9
$UCSYDIR
 10
0.0
 20
1.0
 30
0.0
  9
$PUCSNAME
  2

  9
$PUCSORG
 10
0.0
 20
0.0
 30
0.0
  9
$PUCSXDIR
 10
1.0
 20
0.0
 30
0.0
  9
$PUCSYDIR
 10
0.0
 20
1.0
 30
0.0
  9
$USERI1
 70
     0
  9
$USERI2
 70
     0
  9
$USERI3
 70
     0
  9
$USERI4
 70
     0
  9
$USERI5
 70
     0
  9
$USERR1
 40
0.0
  9
$USERR2
 40
0.0
  9
$USERR3
 40
0.0
  9
$USERR4
 40
0.0
  9
$USERR5
 40
0.0
  9
$WORLDVIEW
 70
     1
  9
$SHADEDGE
 70
     3
  9
$SHADEDIF
 70
    70
  9
$TILEMODE
 70
     1
  9
$MAXACTVP
 70
    64
  9
$PINSBASE
 10
0.0
 20
0.0
 30
0.0
  9
$PLIMCHECK
 70
     0
  9
$PEXTMIN
 10
1.000000000000000E+20
 20
1.000000000000000E+20
 30
1.000000000000000E+20
  9
$PEXTMAX
 10
-1.000000000000000E+20
 20
-1.000000000000000E+20
 30
-1.000000000000000E+20
  9
$PLIMMIN
 10
0.0
 20
0.0
  9
$PLIMMAX
 10
12.0
 20
9.0
  9
$UNITMODE
 70
     0
  9
$VISRETAIN
 70
     1
  9
$PLINEGEN
 70
     0
  9
$PSLTSCALE
 70
     1
  9
$TREEDEPTH
 70
  3020
  9
$PICKSTYLE
 70
     1
  9
$CMLSTYLE
  2
STANDARD
  9
$CMLJUST
 70
     0
  9
$CMLSCALE
 40
1.0
  9
$SAVEIMAGES
 70
     1
  0
ENDSEC
  0
SECTION
  2
CLASSES
  0
CLASS
  1
ACDBDICTIONARYWDFLT
  2
AcDbDictionaryWithDefault
  3
ObjectDBX Classes
 90
    32768
280
     0
281
     0
  0
CLASS
  1
VISUALSTYLE
  2
AcDbVisualStyle
  3
ObjectDBX Classes
 90
     4095
280
     0
281
     0
  0
CLASS
  1
XRECORD
  2
AcDbXrecord
  3
AutoCAD 2000
 90
    32768
280
     0
281
     0
  0
CLASS
  1
LWPOLYLINE
  2
AcDbPolyline
  3
AutoCAD 2000
 90
    32768
280
     0
281
     1
  0
CLASS
  1
HATCH
  2
AcDbHatch
  3
AutoCAD 2000
 90
    32768
280
     0
281
     1
  0
CLASS
  1
ACDBPLACEHOLDER
  2
AcDbPlaceHolder
  3
ObjectDBX Classes
 90
        0
280
     0
281
     0
  0
CLASS
  1
LAYOUT
  2
AcDbLayout
  3
ObjectDBX Classes
 90
        0
280
     0
281
     0
  0
ENDSEC
  0
SECTION
  2
TABLES
  0
TABLE
  2
VPORT
  5
8
330
0
100
AcDbSymbolTable
 70
     1
  0
VPORT
  5
29
330
8
100
AcDbSymbolTableRecord
100
AcDbViewportTableRecord
  2
*ACTIVE
 70
     0
 10
0.0
 20
0.0
 11
1.0
 21
1.0
 12
0.0
 22
0.0
 13
0.0
 23
0.0
 14
0.5
 24
0.5
 15
0.5
 25
0.5
 16
0.0
 26
0.0
 36
1.0
 17
400.0005627797742
 27
-300.0004651485242
 37
0.0
 40
600.0009302970484
 41
1.333333141939436
 42
50.0
 43
0.0
 44
0.0
 50
0.0
 51
0.0
 71
     0
 72
   100
 73
     1
 74
     3
 75
     0
 76
     0
 77
     0
 78
     0
  0
ENDTAB
  0
TABLE
  2
LTYPE
  5
5
330
0
100
AcDbSymbolTable
 70
     1
  0
LTYPE
  5
14
330
5
100
AcDbSymbolTableRecord
100
AcDbLinetypeTableRecord
  2
BYBLOCK
 70
     0
  3

 72
    65
 73
     0
 40
0.0
  0
LTYPE
  5
15
330
5
100
AcDbSymbolTableRecord
100
AcDbLinetypeTableRecord
  2
BYLAYER
 70
     0
  3

 72
    65
 73
     0
 40
0.0
  0
LTYPE
  5
16
330
5
100
AcDbSymbolTableRecord
100
AcDbLinetypeTableRecord
  2
CONTINUOUS
 70
     0
  3
Solid line
 72
    65
 73
     0
 40
0.0
  0
ENDTAB
  0
TABLE
  2
LAYER
  5
2
330
0
100
AcDbSymbolTable
 70
     2
  0
LAYER
  5
10
330
2
100
AcDbSymbolTableRecord
100
AcDbLayerTableRecord
  2
0
 70
     0
 62
     7
  6
CONTINUOUS
  0
LAYER
  5
3B
330
2
100
AcDbSymbolTableRecord
100
AcDbLayerTableRecord
  2
CALQUE_1
 70
     0
 62
     7
  6
CONTINUOUS
  0
ENDTAB
  0
TABLE
  2
STYLE
  5
3
330
0
100
AcDbSymbolTable
 70
     1
  0
STYLE
  5
11
330
3
100
AcDbSymbolTableRecord
100
AcDbTextStyleTableRecord
  2
STANDARD
 70
     0
 40
0.0
 41
1.0
 50
0.0
 71
     0
 42
0.2
  3
txt
  4

  0
ENDTAB
  0
TABLE
  2
VIEW
  5
6
330
0
100
AcDbSymbolTable
 70
     0
  0
ENDTAB
  0
TABLE
  2
UCS
  5
7
330
0
100
AcDbSymbolTable
 70
     0
  0
ENDTAB
  0
TABLE
  2
APPID
  5
9
330
0
100
AcDbSymbolTable
 70
     1
  0
APPID
  5
12
330
9
100
AcDbSymbolTableRecord
100
AcDbRegAppTableRecord
  2
ACAD
 70
     0
  0
ENDTAB
  0
TABLE
  2
DIMSTYLE
  5
A
330
0
100
AcDbSymbolTable
 70
     1
  0
DIMSTYLE
105
27
330
A
100
AcDbSymbolTableRecord
100
AcDbDimStyleTableRecord
  2
STANDARD
 70
     0
  3

  4

  5

  6

  7

 40
1.0
 41
0.18
 42
0.0625
 43
0.38
 44
0.18
 45
0.0
 46
0.0
 47
0.0
 48
0.0
140
0.18
141
0.09
142
0.0
143
25.4
144
1.0
145
0.0
146
1.0
147
0.09
 71
     0
 72
     0
 73
     1
 74
     1
 75
     0
 76
     0
 77
     0
 78
     0
170
     0
171
     2
172
     0
173
     0
174
     0
175
     0
176
     0
177
     0
178
     0
270
     2
271
     4
272
     4
273
     2
274
     2
340
11
275
     0
280
     0
281
     0
282
     0
283
     1
284
     0
285
     0
286
     0
287
     3
288
     0
  0
ENDTAB
  0
TABLE
  2
BLOCK_RECORD
  5
1
330
0
100
AcDbSymbolTable
 70
     1
  0
BLOCK_RECORD
  5
1F
330
1
100
AcDbSymbolTableRecord
100
AcDbBlockTableRecord
  2
*MODEL_SPACE
  0
BLOCK_RECORD
  5
1B
330
1
100
AcDbSymbolTableRecord
100
AcDbBlockTableRecord
  2
*PAPER_SPACE
  0
ENDTAB
  0
ENDSEC
  0
SECTION
  2
BLOCKS
  0
BLOCK
  5
20
330
1F
100
AcDbEntity
  8
0
100
AcDbBlockBegin
  2
*MODEL_SPACE
 70
     0
 71
     0
 10
0.0
 20
0.0
 30
0.0
  3
*MODEL_SPACE
  1

  0
ENDBLK
  5
21
330
1F
100
AcDbEntity
  8
0
100
AcDbBlockEnd
  0
BLOCK
  5
1C
330
1B
100
AcDbEntity
 67
     1
  8
0
100
AcDbBlockBegin
  2
*PAPER_SPACE
 70
     0
 71
     0
 10
0.0
 20
0.0
 30
0.0
  3
*PAPER_SPACE
  1

  0
ENDBLK
  5
1D
330
1B
100
AcDbEntity
 67
     1
  8
0
100
AcDbBlockEnd
  0
ENDSEC
  0
SECTION
  2
ENTITIES
  0
POLYLINE
  5
3C
330
1F
100
AcDbEntity
  8
CALQUE_1
 62
     7
100
AcDb2dPolyline
 66
     1
 10
0.0
 20
0.0
 30
0.0
  0
VERTEX
  5
3D
330
3C
100
AcDbEntity
  8
CALQUE_1
 62
     7
100
AcDbVertex
100
AcDb2dVertex
 10
778.5498940110917
 20
-225.6702907421935
 30
0.0
  0
VERTEX
  5
3E
330
3C
100
AcDbEntity
  8
CALQUE_1
 62
     7
100
AcDbVertex
100
AcDb2dVertex
 10
778.5498940110917
 20
-140.6704833632699
 30
0.0
  0
SEQEND
  5
3F
330
3C
100
AcDbEntity
  8
CALQUE_1
  0
POLYLINE
  5
40
330
1F
100
AcDbEntity
  8
CALQUE_1
 62
     7
100
AcDb2dPolyline
 66
     1
 10
0.0
 20
0.0
 30
0.0
  0
VERTEX
  5
41
330
40
100
AcDbEntity
  8
CALQUE_1
 62
     7
100
AcDbVertex
100
AcDb2dVertex
 10
772.5499157139806
 20
-225.6702907421935
 30
0.0
  0
VERTEX
  5
42
330
40
100
AcDbEntity
  8
CALQUE_1
 62
     7
100
AcDbVertex
100
AcDb2dVertex
 10
778.5498940110917
 20
-225.6702907421935
 30
0.0
  0
SEQEND
  5
43
330
40
100
AcDbEntity
  8
CALQUE_1
  0
POLYLINE
  5
44
330
1F
100
AcDbEntity
  8
CALQUE_1
 62
     7
100
AcDb2dPolyline
 66
     1
 10
0.0
 20
0.0
 30
0.0
  0
VERTEX
  5
45
330
44
100
AcDbEntity
  8
CALQUE_1
 62
     7
100
AcDbVertex
100
AcDb2dVertex
 10
772.5499157139806
 20
-140.6704833632699
 30
0.0
  0
VERTEX
  5
46
330
44
100
AcDbEntity
  8
CALQUE_1
 62
     7
100
AcDbVertex
100
AcDb2dVertex
 10
772.5499157139806
 20
-225.6702907421935
 30
0.0
  0
SEQEND
  5
47
330
44
100
AcDbEntity
  8
CALQUE_1
  0
POLYLINE
  5
48
330
1F
100
AcDbEntity
  8
CALQUE_1
 62
     7
100
AcDb2dPolyline
 66
     1
 10
0.0
 20
0.0
 30
0.0
  0
VERTEX
  5
49
330
48
100
AcDbEntity
  8
CALQUE_1
 62
     7
100
AcDbVertex
100
AcDb2dVertex
 10
778.5498940110917
 20
-140.6704833632699
 30
0.0
  0
VERTEX
  5
4A
330
48
100
AcDbEntity
  8
CALQUE_1
 62
     7
100
AcDbVertex
100
AcDb2dVertex
 10
772.5499157139806
 20
-140.6704833632699
 30
0.0
  0
SEQEND
  5
4B
330
48
100
AcDbEntity
  8
CALQUE_1
  0
POLYLINE
  5
4C
330
1F
100
AcDbEntity
  8
CALQUE_1
 62
     7
100
AcDb2dPolyline
 66
     1
 10
0.0
 20
0.0
 30
0.0
  0
VERTEX
  5
4D
330
4C
100
AcDbEntity
  8
CALQUE_1
 62
     7
100
AcDbVertex
100
AcDb2dVertex
 10
778.5498940110917
 20
-515.6705049709088
 30
0.0
  0
VERTEX
  5
4E
330
4C
100
AcDbEntity
  8
CALQUE_1
 62
     7
100
AcDbVertex
100
AcDb2dVertex
 10
778.5498940110917
 20
-430.6703530824366
 30
0.0
  0
SEQEND
  5
4F
330
4C
100
AcDbEntity
  8
CALQUE_1
  0
POLYLINE
  5
50
330
1F
100
AcDbEntity
  8
CALQUE_1
 62
     7
100
AcDb2dPolyline
 66
     1
 10
0.0
 20
0.0
 30
0.0
  0
VERTEX
  5
51
330
50
100
AcDbEntity
  8
CALQUE_1
 62
     7
100
AcDbVertex
100
AcDb2dVertex
 10
772.5499157139806
 20
-515.6705049709088
 30
0.0
  0
VERTEX
  5
52
330
50
100
AcDbEntity
  8
CALQUE_1
 62
     7
100
AcDbVertex
100
AcDb2dVertex
 10
778.5498940110917
 20
-515.6705049709088
 30
0.0
  0
SEQEND
  5
53
330
50
100
AcDbEntity
  8
CALQUE_1
  0
POLYLINE
  5
54
330
1F
100
AcDbEntity
  8
CALQUE_1
 62
     7
100
AcDb2dPolyline
 66
     1
 10
0.0
 20
0.0
 30
0.0
  0
VERTEX
  5
55
330
54
100
AcDbEntity
  8
CALQUE_1
 62
     7
100
AcDbVertex
100
AcDb2dVertex
 10
772.5499157139806
 20
-430.6703530824366
 30
0.0
  0
VERTEX
  5
56
330
54
100
AcDbEntity
  8
CALQUE_1
 62
     7
100
AcDbVertex
100
AcDb2dVertex
 10
772.5499157139806
 20
-515.6705049709088
 30
0.0
  0
SEQEND
  5
57
330
54
100
AcDbEntity
  8
CALQUE_1
  0
POLYLINE
  5
58
330
1F
100
AcDbEntity
  8
CALQUE_1
 62
     7
100
AcDb2dPolyline
 66
     1
 10
0.0
 20
0.0
 30
0.0
  0
VERTEX
  5
59
330
58
100
AcDbEntity
  8
CALQUE_1
 62
     7
100
AcDbVertex
100
AcDb2dVertex
 10
778.5498940110917
 20
-430.6703530824366
 30
0.0
  0
VERTEX
  5
5A
330
58
100
AcDbEntity
  8
CALQUE_1
 62
     7
100
AcDbVertex
100
AcDb2dVertex
 10
772.5499157139806
 20
-430.6703530824366
 30
0.0
  0
SEQEND
  5
5B
330
58
100
AcDbEntity
  8
CALQUE_1
  0
POLYLINE
  5
5C
330
1F
100
AcDbEntity
  8
CALQUE_1
 62
     7
100
AcDb2dPolyline
 66
     1
 10
0.0
 20
0.0
 30
0.0
  0
VERTEX
  5
5D
330
5C
100
AcDbEntity
  8
CALQUE_1
 62
     7
100
AcDbVertex
100
AcDb2dVertex
 10
119.5499809813972
 20
-551.4206053308949
 30
0.0
  0
VERTEX
  5
5E
330
5C
100
AcDbEntity
  8
CALQUE_1
 62
     7
100
AcDbVertex
100
AcDb2dVertex
 10
119.5499809813972
 20
-521.4203693357907
 30
0.0
  0
SEQEND
  5
5F
330
5C
100
AcDbEntity
  8
CALQUE_1
  0
POLYLINE
  5
60
330
1F
100
AcDbEntity
  8
CALQUE_1
 62
     7
100
AcDb2dPolyline
 66
     1
 10
0.0
 20
0.0
 30
0.0
  0
VERTEX
  5
61
330
60
100
AcDbEntity
  8
CALQUE_1
 62
     7
100
AcDbVertex
100
AcDb2dVertex
 10
113.5500026842861
 20
-551.4206053308949
 30
0.0
  0
VERTEX
  5
62
330
60
100
AcDbEntity
  8
CALQUE_1
 62
     7
100
AcDbVertex
100
AcDb2dVertex
 10
119.5499809813972
 20
-551.4206053308949
 30
0.0
  0
SEQEND
  5
63
330
60
100
AcDbEntity
  8
CALQUE_1
  0
POLYLINE
  5
64
330
1F
100
AcDbEntity
  8
CALQUE_1
 62
     7
100
AcDb2dPolyline
 66
     1
 10
0.0
 20
0.0
 30
0.0
  0
VERTEX
  5
65
330
64
100
AcDbEntity
  8
CALQUE_1
 62
     7
100
AcDbVertex
100
AcDb2dVertex
 10
113.5500026842861
 20
-521.4203693357907
 30
0.0
  0
VERTEX
  5
66
330
64
100
AcDbEntity
  8
CALQUE_1
 62
     7
100
AcDbVertex
100
AcDb2dVertex
 10
113.5500026842861
 20
-551.4206053308949
 30
0.0
  0
SEQEND
  5
67
330
64
100
AcDbEntity
  8
CALQUE_1
  0
POLYLINE
  5
68
330
1F
100
AcDbEntity
  8
CALQUE_1
 62
     7
100
AcDb2dPolyline
 66
     1
 10
0.0
 20
0.0
 30
0.0
  0
VERTEX
  5
69
330
68
100
AcDbEntity
  8
CALQUE_1
 62
     7
100
AcDbVertex
100
AcDb2dVertex
 10
119.5499809813972
 20
-521.4203693357907
 30
0.0
  0
VERTEX
  5
6A
330
68
100
AcDbEntity
  8
CALQUE_1
 62
     7
100
AcDbVertex
100
AcDb2dVertex
 10
113.5500026842861
 20
-521.4203693357907
 30
0.0
  0
SEQEND
  5
6B
330
68
100
AcDbEntity
  8
CALQUE_1
  0
POLYLINE
  5
6C
330
1F
100
AcDbEntity
  8
CALQUE_1
 62
     7
100
AcDb2dPolyline
 66
     1
 10
0.0
 20
0.0
 30
0.0
  0
VERTEX
  5
6D
330
6C
100
AcDbEntity
  8
CALQUE_1
 62
     7
100
AcDbVertex
100
AcDb2dVertex
 10
103.5499240192514
 20
-486.4206107724921
 30
0.0
  0
VERTEX
  5
6E
330
6C
100
AcDbEntity
  8
CALQUE_1
 62
     7
100
AcDbVertex
100
AcDb2dVertex
 10
103.5499240192514
 20
-586.4203638941935
 30
0.0
  0
SEQEND
  5
6F
330
6C
100
AcDbEntity
  8
CALQUE_1
  0
POLYLINE
  5
70
330
1F
100
AcDbEntity
  8
CALQUE_1
 62
     7
100
AcDb2dPolyline
 66
     1
 10
0.0
 20
0.0
 30
0.0
  0
VERTEX
  5
71
330
70
100
AcDbEntity
  8
CALQUE_1
 62
     7
100
AcDbVertex
100
AcDb2dVertex
 10
103.5499240192514
 20
-586.4203638941935
 30
0.0
  0
VERTEX
  5
72
330
70
100
AcDbEntity
  8
CALQUE_1
 62
     7
100
AcDbVertex
100
AcDb2dVertex
 10
149.5498724669528
 20
-586.4203638941935
 30
0.0
  0
SEQEND
  5
73
330
70
100
AcDbEntity
  8
CALQUE_1
  0
POLYLINE
  5
74
330
1F
100
AcDbEntity
  8
CALQUE_1
 62
     7
100
AcDb2dPolyline
 66
     1
 10
0.0
 20
0.0
 30
0.0
  0
VERTEX
  5
75
330
74
100
AcDbEntity
  8
CALQUE_1
 62
     7
100
AcDbVertex
100
AcDb2dVertex
 10
149.5498724669528
 20
-586.4203638941935
 30
0.0
  0
VERTEX
  5
76
330
74
100
AcDbEntity
  8
CALQUE_1
 62
     7
100
AcDbVertex
100
AcDb2dVertex
 10
149.5498724669528
 20
-570.4206514415963
 30
0.0
  0
SEQEND
  5
77
330
74
100
AcDbEntity
  8
CALQUE_1
  0
POLYLINE
  5
78
330
1F
100
AcDbEntity
  8
CALQUE_1
 62
     7
100
AcDb2dPolyline
 66
     1
 10
0.0
 20
0.0
 30
0.0
  0
VERTEX
  5
79
330
78
100
AcDbEntity
  8
CALQUE_1
 62
     7
100
AcDbVertex
100
AcDb2dVertex
 10
149.5498724669528
 20
-570.4206514415963
 30
0.0
  0
VERTEX
  5
7A
330
78
100
AcDbEntity
  8
CALQUE_1
 62
     7
100
AcDbVertex
100
AcDb2dVertex
 10
255.7998900727688
 20
-570.4206514415963
 30
0.0
  0
SEQEND
  5
7B
330
78
100
AcDbEntity
  8
CALQUE_1
  0
POLYLINE
  5
7C
330
1F
100
AcDbEntity
  8
CALQUE_1
 62
     7
100
AcDb2dPolyline
 66
     1
 10
0.0
 20
0.0
 30
0.0
  0
VERTEX
  5
7D
330
7C
100
AcDbEntity
  8
CALQUE_1
 62
     7
100
AcDbVertex
100
AcDb2dVertex
 10
255.7998900727688
 20
-570.4206514415963
 30
0.0
  0
VERTEX
  5
7E
330
7C
100
AcDbEntity
  8
CALQUE_1
 62
     7
100
AcDbVertex
100
AcDb2dVertex
 10
255.7998900727688
 20
-576.4206297387074
 30
0.0
  0
SEQEND
  5
7F
330
7C
100
AcDbEntity
  8
CALQUE_1
  0
POLYLINE
  5
80
330
1F
100
AcDbEntity
  8
CALQUE_1
 62
     7
100
AcDb2dPolyline
 66
     1
 10
0.0
 20
0.0
 30
0.0
  0
VERTEX
  5
81
330
80
100
AcDbEntity
  8
CALQUE_1
 62
     7
100
AcDbVertex
100
AcDb2dVertex
 10
255.7998900727688
 20
-576.4206297387074
 30
0.0
  0
VERTEX
  5
82
330
80
100
AcDbEntity
  8
CALQUE_1
 62
     7
100
AcDbVertex
100
AcDb2dVertex
 10
225.7999985872132
 20
-576.4206297387074
 30
0.0
  0
SEQEND
  5
83
330
80
100
AcDbEntity
  8
CALQUE_1
  0
POLYLINE
  5
84
330
1F
100
AcDbEntity
  8
CALQUE_1
 62
     7
100
AcDb2dPolyline
 66
     1
 10
0.0
 20
0.0
 30
0.0
  0
VERTEX
  5
85
330
84
100
AcDbEntity
  8
CALQUE_1
 62
     7
100
AcDbVertex
100
AcDb2dVertex
 10
225.7999985872132
 20
-576.4206297387074
 30
0.0
  0
VERTEX
  5
86
330
84
100
AcDbEntity
  8
CALQUE_1
 62
     7
100
AcDbVertex
100
AcDb2dVertex
 10
225.7999985872132
 20
-586.4203638941935
 30
0.0
  0
SEQEND
  5
87
330
84
100
AcDbEntity
  8
CALQUE_1
  0
POLYLINE
  5
88
330
1F
100
AcDbEntity
  8
CALQUE_1
 62
     7
100
AcDb2dPolyline
 66
     1
 10
0.0
 20
0.0
 30
0.0
  0
VERTEX
  5
89
330
88
100
AcDbEntity
  8
CALQUE_1
 62
     7
100
AcDbVertex
100
AcDb2dVertex
 10
225.7999985872132
 20
-586.4203638941935
 30
0.0
  0
VERTEX
  5
8A
330
88
100
AcDbEntity
  8
CALQUE_1
 62
     7
100
AcDbVertex
100
AcDb2dVertex
 10
301.8000107752445
 20
-586.4203638941935
 30
0.0
  0
SEQEND
  5
8B
330
88
100
AcDbEntity
  8
CALQUE_1
  0
POLYLINE
  5
8C
330
1F
100
AcDbEntity
  8
CALQUE_1
 62
     7
100
AcDb2dPolyline
 66
     1
 10
0.0
 20
0.0
 30
0.0
  0
VERTEX
  5
8D
330
8C
100
AcDbEntity
  8
CALQUE_1
 62
     7
100
AcDbVertex
100
AcDb2dVertex
 10
301.8000107752445
 20
-586.4203638941935
 30
0.0
  0
VERTEX
  5
8E
330
8C
100
AcDbEntity
  8
CALQUE_1
 62
     7
100
AcDbVertex
100
AcDb2dVertex
 10
301.8000107752445
 20
-570.4206514415963
 30
0.0
  0
SEQEND
  5
8F
330
8C
100
AcDbEntity
  8
CALQUE_1
  0
POLYLINE
  5
90
330
1F
100
AcDbEntity
  8
CALQUE_1
 62
     7
100
AcDb2dPolyline
 66
     1
 10
0.0
 20
0.0
 30
0.0
  0
VERTEX
  5
91
330
90
100
AcDbEntity
  8
CALQUE_1
 62
     7
100
AcDbVertex
100
AcDb2dVertex
 10
301.8000107752445
 20
-570.4206514415963
 30
0.0
  0
VERTEX
  5
92
330
90
100
AcDbEntity
  8
CALQUE_1
 62
     7
100
AcDbVertex
100
AcDb2dVertex
 10
408.0498561262862
 20
-570.4206514415963
 30
0.0
  0
SEQEND
  5
93
330
90
100
AcDbEntity
  8
CALQUE_1
  0
POLYLINE
  5
94
330
1F
100
AcDbEntity
  8
CALQUE_1
 62
     7
100
AcDb2dPolyline
 66
     1
 10
0.0
 20
0.0
 30
0.0
  0
VERTEX
  5
95
330
94
100
AcDbEntity
  8
CALQUE_1
 62
     7
100
AcDbVertex
100
AcDb2dVertex
 10
408.0498561262862
 20
-570.4206514415963
 30
0.0
  0
VERTEX
  5
96
330
94
100
AcDbEntity
  8
CALQUE_1
 62
     7
100
AcDbVertex
100
AcDb2dVertex
 10
408.0498561262862
 20
-576.4206297387074
 30
0.0
  0
SEQEND
  5
97
330
94
100
AcDbEntity
  8
CALQUE_1
  0
POLYLINE
  5
98
330
1F
100
AcDbEntity
  8
CALQUE_1
 62
     7
100
AcDb2dPolyline
 66
     1
 10
0.0
 20
0.0
 30
0.0
  0
VERTEX
  5
99
330
98
100
AcDbEntity
  8
CALQUE_1
 62
     7
100
AcDbVertex
100
AcDb2dVertex
 10
408.0498561262862
 20
-576.4206297387074
 30
0.0
  0
VERTEX
  5
9A
330
98
100
AcDbEntity
  8
CALQUE_1
 62
     7
100
AcDbVertex
100
AcDb2dVertex
 10
378.0499646407306
 20
-576.4206297387074
 30
0.0
  0
SEQEND
  5
9B
330
98
100
AcDbEntity
  8
CALQUE_1
  0
POLYLINE
  5
9C
330
1F
100
AcDbEntity
  8
CALQUE_1
 62
     7
100
AcDb2dPolyline
 66
     1
 10
0.0
 20
0.0
 30
0.0
  0
VERTEX
  5
9D
330
9C
100
AcDbEntity
  8
CALQUE_1
 62
     7
100
AcDbVertex
100
AcDb2dVertex
 10
378.0499646407306
 20
-576.4206297387074
 30
0.0
  0
VERTEX
  5
9E
330
9C
100
AcDbEntity
  8
CALQUE_1
 62
     7
100
AcDbVertex
100
AcDb2dVertex
 10
378.0499646407306
 20
-586.4203638941935
 30
0.0
  0
SEQEND
  5
9F
330
9C
100
AcDbEntity
  8
CALQUE_1
  0
POLYLINE
  5
A0
330
1F
100
AcDbEntity
  8
CALQUE_1
 62
     7
100
AcDb2dPolyline
 66
     1
 10
0.0
 20
0.0
 30
0.0
  0
VERTEX
  5
A1
330
A0
100
AcDbEntity
  8
CALQUE_1
 62
     7
100
AcDbVertex
100
AcDb2dVertex
 10
378.0499646407306
 20
-586.4203638941935
 30
0.0
  0
VERTEX
  5
A2
330
A0
100
AcDbEntity
  8
CALQUE_1
 62
     7
100
AcDbVertex
100
AcDb2dVertex
 10
454.0498045739876
 20
-586.4203638941935
 30
0.0
  0
SEQEND
  5
A3
330
A0
100
AcDbEntity
  8
CALQUE_1
  0
POLYLINE
  5
A4
330
1F
100
AcDbEntity
  8
CALQUE_1
 62
     7
100
AcDb2dPolyline
 66
     1
 10
0.0
 20
0.0
 30
0.0
  0
VERTEX
  5
A5
330
A4
100
AcDbEntity
  8
CALQUE_1
 62
     7
100
AcDbVertex
100
AcDb2dVertex
 10
454.0498045739876
 20
-586.4203638941935
 30
0.0
  0
VERTEX
  5
A6
330
A4
100
AcDbEntity
  8
CALQUE_1
 62
     7
100
AcDbVertex
100
AcDb2dVertex
 10
454.0498045739876
 20
-570.4206514415963
 30
0.0
  0
SEQEND
  5
A7
330
A4
100
AcDbEntity
  8
CALQUE_1
  0
POLYLINE
  5
A8
330
1F
100
AcDbEntity
  8
CALQUE_1
 62
     7
100
AcDb2dPolyline
 66
     1
 10
0.0
 20
0.0
 30
0.0
  0
VERTEX
  5
A9
330
A8
100
AcDbEntity
  8
CALQUE_1
 62
     7
100
AcDbVertex
100
AcDb2dVertex
 10
454.0498045739876
 20
-570.4206514415963
 30
0.0
  0
VERTEX
  5
AA
330
A8
100
AcDbEntity
  8
CALQUE_1
 62
     7
100
AcDbVertex
100
AcDb2dVertex
 10
560.2999944345778
 20
-570.4206514415963
 30
0.0
  0
SEQEND
  5
AB
330
A8
100
AcDbEntity
  8
CALQUE_1
  0
POLYLINE
  5
AC
330
1F
100
AcDbEntity
  8
CALQUE_1
 62
     7
100
AcDb2dPolyline
 66
     1
 10
0.0
 20
0.0
 30
0.0
  0
VERTEX
  5
AD
330
AC
100
AcDbEntity
  8
CALQUE_1
 62
     7
100
AcDbVertex
100
AcDb2dVertex
 10
560.2999944345778
 20
-570.4206514415963
 30
0.0
  0
VERTEX
  5
AE
330
AC
100
AcDbEntity
  8
CALQUE_1
 62
     7
100
AcDbVertex
100
AcDb2dVertex
 10
560.2999944345778
 20
-576.4206297387074
 30
0.0
  0
SEQEND
  5
AF
330
AC
100
AcDbEntity
  8
CALQUE_1
  0
POLYLINE
  5
B0
330
1F
100
AcDbEntity
  8
CALQUE_1
 62
     7
100
AcDb2dPolyline
 66
     1
 10
0.0
 20
0.0
 30
0.0
  0
VERTEX
  5
B1
330
B0
100
AcDbEntity
  8
CALQUE_1
 62
     7
100
AcDbVertex
100
AcDb2dVertex
 10
560.2999944345778
 20
-576.4206297387074
 30
0.0
  0
VERTEX
  5
B2
330
B0
100
AcDbEntity
  8
CALQUE_1
 62
     7
100
AcDbVertex
100
AcDb2dVertex
 10
530.3001029490222
 20
-576.4206297387074
 30
0.0
  0
SEQEND
  5
B3
330
B0
100
AcDbEntity
  8
CALQUE_1
  0
POLYLINE
  5
B4
330
1F
100
AcDbEntity
  8
CALQUE_1
 62
     7
100
AcDb2dPolyline
 66
     1
 10
0.0
 20
0.0
 30
0.0
  0
VERTEX
  5
B5
330
B4
100
AcDbEntity
  8
CALQUE_1
 62
     7
100
AcDbVertex
100
AcDb2dVertex
 10
530.3001029490222
 20
-576.4206297387074
 30
0.0
  0
VERTEX
  5
B6
330
B4
100
AcDbEntity
  8
CALQUE_1
 62
     7
100
AcDbVertex
100
AcDb2dVertex
 10
530.3001029490222
 20
-586.4203638941935
 30
0.0
  0
SEQEND
  5
B7
330
B4
100
AcDbEntity
  8
CALQUE_1
  0
POLYLINE
  5
B8
330
1F
100
AcDbEntity
  8
CALQUE_1
 62
     7
100
AcDb2dPolyline
 66
     1
 10
0.0
 20
0.0
 30
0.0
  0
VERTEX
  5
B9
330
B8
100
AcDbEntity
  8
CALQUE_1
 62
     7
100
AcDbVertex
100
AcDb2dVertex
 10
530.3001029490222
 20
-586.4203638941935
 30
0.0
  0
VERTEX
  5
BA
330
B8
100
AcDbEntity
  8
CALQUE_1
 62
     7
100
AcDbVertex
100
AcDb2dVertex
 10
606.2999428822792
 20
-586.4203638941935
 30
0.0
  0
SEQEND
  5
BB
330
B8
100
AcDbEntity
  8
CALQUE_1
  0
POLYLINE
  5
BC
330
1F
100
AcDbEntity
  8
CALQUE_1
 62
     7
100
AcDb2dPolyline
 66
     1
 10
0.0
 20
0.0
 30
0.0
  0
VERTEX
  5
BD
330
BC
100
AcDbEntity
  8
CALQUE_1
 62
     7
100
AcDbVertex
100
AcDb2dVertex
 10
606.2999428822792
 20
-586.4203638941935
 30
0.0
  0
VERTEX
  5
BE
330
BC
100
AcDbEntity
  8
CALQUE_1
 62
     7
100
AcDbVertex
100
AcDb2dVertex
 10
606.2999428822792
 20
-570.4206514415963
 30
0.0
  0
SEQEND
  5
BF
330
BC
100
AcDbEntity
  8
CALQUE_1
  0
POLYLINE
  5
C0
330
1F
100
AcDbEntity
  8
CALQUE_1
 62
     7
100
AcDb2dPolyline
 66
     1
 10
0.0
 20
0.0
 30
0.0
  0
VERTEX
  5
C1
330
C0
100
AcDbEntity
  8
CALQUE_1
 62
     7
100
AcDbVertex
100
AcDb2dVertex
 10
606.2999428822792
 20
-570.4206514415963
 30
0.0
  0
VERTEX
  5
C2
330
C0
100
AcDbEntity
  8
CALQUE_1
 62
     7
100
AcDbVertex
100
AcDb2dVertex
 10
712.5497882333209
 20
-570.4206514415963
 30
0.0
  0
SEQEND
  5
C3
330
C0
100
AcDbEntity
  8
CALQUE_1
  0
POLYLINE
  5
C4
330
1F
100
AcDbEntity
  8
CALQUE_1
 62
     7
100
AcDb2dPolyline
 66
     1
 10
0.0
 20
0.0
 30
0.0
  0
VERTEX
  5
C5
330
C4
100
AcDbEntity
  8
CALQUE_1
 62
     7
100
AcDbVertex
100
AcDb2dVertex
 10
712.5497882333209
 20
-570.4206514415963
 30
0.0
  0
VERTEX
  5
C6
330
C4
100
AcDbEntity
  8
CALQUE_1
 62
     7
100
AcDbVertex
100
AcDb2dVertex
 10
712.5497882333209
 20
-576.4206297387074
 30
0.0
  0
SEQEND
  5
C7
330
C4
100
AcDbEntity
  8
CALQUE_1
  0
POLYLINE
  5
C8
330
1F
100
AcDbEntity
  8
CALQUE_1
 62
     7
100
AcDb2dPolyline
 66
     1
 10
0.0
 20
0.0
 30
0.0
  0
VERTEX
  5
C9
330
C8
100
AcDbEntity
  8
CALQUE_1
 62
     7
100
AcDbVertex
100
AcDb2dVertex
 10
712.5497882333209
 20
-576.4206297387074
 30
0.0
  0
VERTEX
  5
CA
330
C8
100
AcDbEntity
  8
CALQUE_1
 62
     7
100
AcDbVertex
100
AcDb2dVertex
 10
682.5498967477654
 20
-576.4206297387074
 30
0.0
  0
SEQEND
  5
CB
330
C8
100
AcDbEntity
  8
CALQUE_1
  0
POLYLINE
  5
CC
330
1F
100
AcDbEntity
  8
CALQUE_1
 62
     7
100
AcDb2dPolyline
 66
     1
 10
0.0
 20
0.0
 30
0.0
  0
VERTEX
  5
CD
330
CC
100
AcDbEntity
  8
CALQUE_1
 62
     7
100
AcDbVertex
100
AcDb2dVertex
 10
682.5498967477654
 20
-576.4206297387074
 30
0.0
  0
VERTEX
  5
CE
330
CC
100
AcDbEntity
  8
CALQUE_1
 62
     7
100
AcDbVertex
100
AcDb2dVertex
 10
682.5498967477654
 20
-586.4203638941935
 30
0.0
  0
SEQEND
  5
CF
330
CC
100
AcDbEntity
  8
CALQUE_1
  0
POLYLINE
  5
D0
330
1F
100
AcDbEntity
  8
CALQUE_1
 62
     7
100
AcDb2dPolyline
 66
     1
 10
0.0
 20
0.0
 30
0.0
  0
VERTEX
  5
D1
330
D0
100
AcDbEntity
  8
CALQUE_1
 62
     7
100
AcDbVertex
100
AcDb2dVertex
 10
682.5498967477654
 20
-586.4203638941935
 30
0.0
  0
VERTEX
  5
D2
330
D0
100
AcDbEntity
  8
CALQUE_1
 62
     7
100
AcDbVertex
100
AcDb2dVertex
 10
788.5499726761265
 20
-586.4203638941935
 30
0.0
  0
SEQEND
  5
D3
330
D0
100
AcDbEntity
  8
CALQUE_1
  0
POLYLINE
  5
D4
330
1F
100
AcDbEntity
  8
CALQUE_1
 62
     7
100
AcDb2dPolyline
 66
     1
 10
0.0
 20
0.0
 30
0.0
  0
VERTEX
  5
D5
330
D4
100
AcDbEntity
  8
CALQUE_1
 62
     7
100
AcDbVertex
100
AcDb2dVertex
 10
788.5499726761265
 20
-586.4203638941935
 30
0.0
  0
VERTEX
  5
D6
330
D4
100
AcDbEntity
  8
CALQUE_1
 62
     7
100
AcDbVertex
100
AcDb2dVertex
 10
788.5499726761265
 20
-69.92544757366447
 30
0.0
  0
SEQEND
  5
D7
330
D4
100
AcDbEntity
  8
CALQUE_1
  0
POLYLINE
  5
D8
330
1F
100
AcDbEntity
  8
CALQUE_1
 62
     7
100
AcDb2dPolyline
 66
     1
 10
0.0
 20
0.0
 30
0.0
  0
VERTEX
  5
D9
330
D8
100
AcDbEntity
  8
CALQUE_1
 62
     7
100
AcDbVertex
100
AcDb2dVertex
 10
788.5499726761265
 20
-69.92544757366447
 30
0.0
  0
VERTEX
  5
DA
330
D8
100
AcDbEntity
  8
CALQUE_1
 62
     7
100
AcDbVertex
100
AcDb2dVertex
 10
709.0499157298556
 20
-69.92544757366447
 30
0.0
  0
SEQEND
  5
DB
330
D8
100
AcDbEntity
  8
CALQUE_1
  0
POLYLINE
  5
DC
330
1F
100
AcDbEntity
  8
CALQUE_1
 62
     7
100
AcDb2dPolyline
 66
     1
 10
0.0
 20
0.0
 30
0.0
  0
VERTEX
  5
DD
330
DC
100
AcDbEntity
  8
CALQUE_1
 62
     7
100
AcDbVertex
100
AcDb2dVertex
 10
709.0499157298556
 20
-69.92544757366447
 30
0.0
  0
VERTEX
  5
DE
330
DC
100
AcDbEntity
  8
CALQUE_1
 62
     7
100
AcDbVertex
100
AcDb2dVertex
 10
709.0499157298556
 20
-79.92552623869918
 30
0.0
  0
SEQEND
  5
DF
330
DC
100
AcDbEntity
  8
CALQUE_1
  0
POLYLINE
  5
E0
330
1F
100
AcDbEntity
  8
CALQUE_1
 62
     7
100
AcDb2dPolyline
 66
     1
 10
0.0
 20
0.0
 30
0.0
  0
VERTEX
  5
E1
330
E0
100
AcDbEntity
  8
CALQUE_1
 62
     7
100
AcDbVertex
100
AcDb2dVertex
 10
709.0499157298556
 20
-79.92552623869918
 30
0.0
  0
VERTEX
  5
E2
330
E0
100
AcDbEntity
  8
CALQUE_1
 62
     7
100
AcDbVertex
100
AcDb2dVertex
 10
739.0498072154112
 20
-79.92552623869918
 30
0.0
  0
SEQEND
  5
E3
330
E0
100
AcDbEntity
  8
CALQUE_1
  0
POLYLINE
  5
E4
330
1F
100
AcDbEntity
  8
CALQUE_1
 62
     7
100
AcDb2dPolyline
 66
     1
 10
0.0
 20
0.0
 30
0.0
  0
VERTEX
  5
E5
330
E4
100
AcDbEntity
  8
CALQUE_1
 62
     7
100
AcDbVertex
100
AcDb2dVertex
 10
739.0498072154112
 20
-79.92552623869918
 30
0.0
  0
VERTEX
  5
E6
330
E4
100
AcDbEntity
  8
CALQUE_1
 62
     7
100
AcDbVertex
100
AcDb2dVertex
 10
739.0498072154112
 20
-85.92550453581029
 30
0.0
  0
SEQEND
  5
E7
330
E4
100
AcDbEntity
  8
CALQUE_1
  0
POLYLINE
  5
E8
330
1F
100
AcDbEntity
  8
CALQUE_1
 62
     7
100
AcDb2dPolyline
 66
     1
 10
0.0
 20
0.0
 30
0.0
  0
VERTEX
  5
E9
330
E8
100
AcDbEntity
  8
CALQUE_1
 62
     7
100
AcDbVertex
100
AcDb2dVertex
 10
739.0498072154112
 20
-85.92550453581029
 30
0.0
  0
VERTEX
  5
EA
330
E8
100
AcDbEntity
  8
CALQUE_1
 62
     7
100
AcDbVertex
100
AcDb2dVertex
 10
669.0499455792653
 20
-85.92550453581029
 30
0.0
  0
SEQEND
  5
EB
330
E8
100
AcDbEntity
  8
CALQUE_1
  0
POLYLINE
  5
EC
330
1F
100
AcDbEntity
  8
CALQUE_1
 62
     7
100
AcDb2dPolyline
 66
     1
 10
0.0
 20
0.0
 30
0.0
  0
VERTEX
  5
ED
330
EC
100
AcDbEntity
  8
CALQUE_1
 62
     7
100
AcDbVertex
100
AcDb2dVertex
 10
669.0499455792653
 20
-85.92550453581029
 30
0.0
  0
VERTEX
  5
EE
330
EC
100
AcDbEntity
  8
CALQUE_1
 62
     7
100
AcDbVertex
100
AcDb2dVertex
 10
669.0499455792653
 20
-69.92544757366447
 30
0.0
  0
SEQEND
  5
EF
330
EC
100
AcDbEntity
  8
CALQUE_1
  0
POLYLINE
  5
F0
330
1F
100
AcDbEntity
  8
CALQUE_1
 62
     7
100
AcDb2dPolyline
 66
     1
 10
0.0
 20
0.0
 30
0.0
  0
VERTEX
  5
F1
330
F0
100
AcDbEntity
  8
CALQUE_1
 62
     7
100
AcDbVertex
100
AcDb2dVertex
 10
669.0499455792653
 20
-69.92544757366447
 30
0.0
  0
VERTEX
  5
F2
330
F0
100
AcDbEntity
  8
CALQUE_1
 62
     7
100
AcDbVertex
100
AcDb2dVertex
 10
638.5498262292515
 20
-69.92544757366447
 30
0.0
  0
SEQEND
  5
F3
330
F0
100
AcDbEntity
  8
CALQUE_1
  0
POLYLINE
  5
F4
330
1F
100
AcDbEntity
  8
CALQUE_1
 62
     7
100
AcDb2dPolyline
 66
     1
 10
0.0
 20
0.0
 30
0.0
  0
VERTEX
  5
F5
330
F4
100
AcDbEntity
  8
CALQUE_1
 62
     7
100
AcDbVertex
100
AcDb2dVertex
 10
638.5498262292515
 20
-69.92544757366447
 30
0.0
  0
VERTEX
  5
F6
330
F4
100
AcDbEntity
  8
CALQUE_1
 62
     7
100
AcDbVertex
100
AcDb2dVertex
 10
628.5500920737653
 20
-126.5490369692308
 30
0.0
  0
SEQEND
  5
F7
330
F4
100
AcDbEntity
  8
CALQUE_1
  0
POLYLINE
  5
F8
330
1F
100
AcDbEntity
  8
CALQUE_1
 62
     7
100
AcDb2dPolyline
 66
     1
 10
0.0
 20
0.0
 30
0.0
  0
VERTEX
  5
F9
330
F8
100
AcDbEntity
  8
CALQUE_1
 62
     7
100
AcDbVertex
100
AcDb2dVertex
 10
628.5500920737653
 20
-126.5490369692308
 30
0.0
  0
VERTEX
  5
FA
330
F8
100
AcDbEntity
  8
CALQUE_1
 62
     7
100
AcDbVertex
100
AcDb2dVertex
 10
634.4584308309687
 20
-127.592556391713
 30
0.0
  0
SEQEND
  5
FB
330
F8
100
AcDbEntity
  8
CALQUE_1
  0
POLYLINE
  5
FC
330
1F
100
AcDbEntity
  8
CALQUE_1
 62
     7
100
AcDb2dPolyline
 66
     1
 10
0.0
 20
0.0
 30
0.0
  0
VERTEX
  5
FD
330
FC
100
AcDbEntity
  8
CALQUE_1
 62
     7
100
AcDbVertex
100
AcDb2dVertex
 10
634.4584308309687
 20
-127.592556391713
 30
0.0
  0
VERTEX
  5
FE
330
FC
100
AcDbEntity
  8
CALQUE_1
 62
     7
100
AcDbVertex
100
AcDb2dVertex
 10
637.5018281826384
 20
-110.3594997553962
 30
0.0
  0
SEQEND
  5
FF
330
FC
100
AcDbEntity
  8
CALQUE_1
  0
POLYLINE
  5
100
330
1F
100
AcDbEntity
  8
CALQUE_1
 62
     7
100
AcDb2dPolyline
 66
     1
 10
0.0
 20
0.0
 30
0.0
  0
VERTEX
  5
101
330
100
100
AcDbEntity
  8
CALQUE_1
 62
     7
100
AcDbVertex
100
AcDb2dVertex
 10
637.5018281826384
 20
-110.3594997553962
 30
0.0
  0
VERTEX
  5
102
330
100
100
AcDbEntity
  8
CALQUE_1
 62
     7
100
AcDbVertex
100
AcDb2dVertex
 10
643.4105114493905
 20
-111.4026746683299
 30
0.0
  0
SEQEND
  5
103
330
100
100
AcDbEntity
  8
CALQUE_1
  0
POLYLINE
  5
104
330
1F
100
AcDbEntity
  8
CALQUE_1
 62
     7
100
AcDb2dPolyline
 66
     1
 10
0.0
 20
0.0
 30
0.0
  0
VERTEX
  5
105
330
104
100
AcDbEntity
  8
CALQUE_1
 62
     7
100
AcDbVertex
100
AcDb2dVertex
 10
643.4105114493905
 20
-111.4026746683299
 30
0.0
  0
VERTEX
  5
106
330
104
100
AcDbEntity
  8
CALQUE_1
 62
     7
100
AcDbVertex
100
AcDb2dVertex
 10
637.323716746051
 20
-145.8694769600604
 30
0.0
  0
SEQEND
  5
107
330
104
100
AcDbEntity
  8
CALQUE_1
  0
POLYLINE
  5
108
330
1F
100
AcDbEntity
  8
CALQUE_1
 62
     7
100
AcDb2dPolyline
 66
     1
 10
0.0
 20
0.0
 30
0.0
  0
VERTEX
  5
109
330
108
100
AcDbEntity
  8
CALQUE_1
 62
     7
100
AcDbVertex
100
AcDb2dVertex
 10
637.323716746051
 20
-145.8694769600604
 30
0.0
  0
VERTEX
  5
10A
330
108
100
AcDbEntity
  8
CALQUE_1
 62
     7
100
AcDbVertex
100
AcDb2dVertex
 10
625.5063502125471
 20
-143.7824381150961
 30
0.0
  0
SEQEND
  5
10B
330
108
100
AcDbEntity
  8
CALQUE_1
  0
POLYLINE
  5
10C
330
1F
100
AcDbEntity
  8
CALQUE_1
 62
     7
100
AcDb2dPolyline
 66
     1
 10
0.0
 20
0.0
 30
0.0
  0
VERTEX
  5
10D
330
10C
100
AcDbEntity
  8
CALQUE_1
 62
     7
100
AcDbVertex
100
AcDb2dVertex
 10
625.5063502125471
 20
-143.7824381150961
 30
0.0
  0
VERTEX
  5
10E
330
10C
100
AcDbEntity
  8
CALQUE_1
 62
     7
100
AcDbVertex
100
AcDb2dVertex
 10
617.6804713082536
 20
-188.0967013418647
 30
0.0
  0
SEQEND
  5
10F
330
10C
100
AcDbEntity
  8
CALQUE_1
  0
POLYLINE
  5
110
330
1F
100
AcDbEntity
  8
CALQUE_1
 62
     7
100
AcDb2dPolyline
 66
     1
 10
0.0
 20
0.0
 30
0.0
  0
VERTEX
  5
111
330
110
100
AcDbEntity
  8
CALQUE_1
 62
     7
100
AcDbVertex
100
AcDb2dVertex
 10
617.6804713082536
 20
-188.0967013418647
 30
0.0
  0
VERTEX
  5
112
330
110
100
AcDbEntity
  8
CALQUE_1
 62
     7
100
AcDbVertex
100
AcDb2dVertex
 10
623.588810065457
 20
-189.1402207643469
 30
0.0
  0
SEQEND
  5
113
330
110
100
AcDbEntity
  8
CALQUE_1
  0
POLYLINE
  5
114
330
1F
100
AcDbEntity
  8
CALQUE_1
 62
     7
100
AcDb2dPolyline
 66
     1
 10
0.0
 20
0.0
 30
0.0
  0
VERTEX
  5
115
330
114
100
AcDbEntity
  8
CALQUE_1
 62
     7
100
AcDbVertex
100
AcDb2dVertex
 10
623.588810065457
 20
-189.1402207643469
 30
0.0
  0
VERTEX
  5
116
330
114
100
AcDbEntity
  8
CALQUE_1
 62
     7
100
AcDbVertex
100
AcDb2dVertex
 10
626.6325519266752
 20
-171.9068196184816
 30
0.0
  0
SEQEND
  5
117
330
114
100
AcDbEntity
  8
CALQUE_1
  0
POLYLINE
  5
118
330
1F
100
AcDbEntity
  8
CALQUE_1
 62
     7
100
AcDb2dPolyline
 66
     1
 10
0.0
 20
0.0
 30
0.0
  0
VERTEX
  5
119
330
118
100
AcDbEntity
  8
CALQUE_1
 62
     7
100
AcDbVertex
100
AcDb2dVertex
 10
626.6325519266752
 20
-171.9068196184816
 30
0.0
  0
VERTEX
  5
11A
330
118
100
AcDbEntity
  8
CALQUE_1
 62
     7
100
AcDbVertex
100
AcDb2dVertex
 10
632.5408906838787
 20
-172.9503390409638
 30
0.0
  0
SEQEND
  5
11B
330
118
100
AcDbEntity
  8
CALQUE_1
  0
POLYLINE
  5
11C
330
1F
100
AcDbEntity
  8
CALQUE_1
 62
     7
100
AcDb2dPolyline
 66
     1
 10
0.0
 20
0.0
 30
0.0
  0
VERTEX
  5
11D
330
11C
100
AcDbEntity
  8
CALQUE_1
 62
     7
100
AcDbVertex
100
AcDb2dVertex
 10
632.5408906838787
 20
-172.9503390409638
 30
0.0
  0
VERTEX
  5
11E
330
11C
100
AcDbEntity
  8
CALQUE_1
 62
     7
100
AcDbVertex
100
AcDb2dVertex
 10
626.4540959805393
 20
-207.4167968231458
 30
0.0
  0
SEQEND
  5
11F
330
11C
100
AcDbEntity
  8
CALQUE_1
  0
POLYLINE
  5
120
330
1F
100
AcDbEntity
  8
CALQUE_1
 62
     7
100
AcDb2dPolyline
 66
     1
 10
0.0
 20
0.0
 30
0.0
  0
VERTEX
  5
121
330
120
100
AcDbEntity
  8
CALQUE_1
 62
     7
100
AcDbVertex
100
AcDb2dVertex
 10
626.4540959805393
 20
-207.4167968231458
 30
0.0
  0
VERTEX
  5
122
330
120
100
AcDbEntity
  8
CALQUE_1
 62
     7
100
AcDbVertex
100
AcDb2dVertex
 10
614.6370739565838
 20
-205.33010248773
 30
0.0
  0
SEQEND
  5
123
330
120
100
AcDbEntity
  8
CALQUE_1
  0
POLYLINE
  5
124
330
1F
100
AcDbEntity
  8
CALQUE_1
 62
     7
100
AcDb2dPolyline
 66
     1
 10
0.0
 20
0.0
 30
0.0
  0
VERTEX
  5
125
330
124
100
AcDbEntity
  8
CALQUE_1
 62
     7
100
AcDbVertex
100
AcDb2dVertex
 10
614.6370739565838
 20
-205.33010248773
 30
0.0
  0
VERTEX
  5
126
330
124
100
AcDbEntity
  8
CALQUE_1
 62
     7
100
AcDbVertex
100
AcDb2dVertex
 10
606.8108505427417
 20
-249.6443657144986
 30
0.0
  0
SEQEND
  5
127
330
124
100
AcDbEntity
  8
CALQUE_1
  0
POLYLINE
  5
128
330
1F
100
AcDbEntity
  8
CALQUE_1
 62
     7
100
AcDb2dPolyline
 66
     1
 10
0.0
 20
0.0
 30
0.0
  0
VERTEX
  5
129
330
128
100
AcDbEntity
  8
CALQUE_1
 62
     7
100
AcDbVertex
100
AcDb2dVertex
 10
606.8108505427417
 20
-249.6443657144986
 30
0.0
  0
VERTEX
  5
12A
330
128
100
AcDbEntity
  8
CALQUE_1
 62
     7
100
AcDbVertex
100
AcDb2dVertex
 10
612.7195338094938
 20
-250.6878851369808
 30
0.0
  0
SEQEND
  5
12B
330
128
100
AcDbEntity
  8
CALQUE_1
  0
POLYLINE
  5
12C
330
1F
100
AcDbEntity
  8
CALQUE_1
 62
     7
100
AcDb2dPolyline
 66
     1
 10
0.0
 20
0.0
 30
0.0
  0
VERTEX
  5
12D
330
12C
100
AcDbEntity
  8
CALQUE_1
 62
     7
100
AcDbVertex
100
AcDb2dVertex
 10
612.7195338094938
 20
-250.6878851369808
 30
0.0
  0
VERTEX
  5
12E
330
12C
100
AcDbEntity
  8
CALQUE_1
 62
     7
100
AcDbVertex
100
AcDb2dVertex
 10
615.7629311611635
 20
-233.4544839911156
 30
0.0
  0
SEQEND
  5
12F
330
12C
100
AcDbEntity
  8
CALQUE_1
  0
POLYLINE
  5
130
330
1F
100
AcDbEntity
  8
CALQUE_1
 62
     7
100
AcDb2dPolyline
 66
     1
 10
0.0
 20
0.0
 30
0.0
  0
VERTEX
  5
131
330
130
100
AcDbEntity
  8
CALQUE_1
 62
     7
100
AcDbVertex
100
AcDb2dVertex
 10
615.7629311611635
 20
-233.4544839911156
 30
0.0
  0
VERTEX
  5
132
330
130
100
AcDbEntity
  8
CALQUE_1
 62
     7
100
AcDbVertex
100
AcDb2dVertex
 10
621.671269918367
 20
-234.4980034135977
 30
0.0
  0
SEQEND
  5
133
330
130
100
AcDbEntity
  8
CALQUE_1
  0
POLYLINE
  5
134
330
1F
100
AcDbEntity
  8
CALQUE_1
 62
     7
100
AcDb2dPolyline
 66
     1
 10
0.0
 20
0.0
 30
0.0
  0
VERTEX
  5
135
330
134
100
AcDbEntity
  8
CALQUE_1
 62
     7
100
AcDbVertex
100
AcDb2dVertex
 10
621.671269918367
 20
-234.4980034135977
 30
0.0
  0
VERTEX
  5
136
330
134
100
AcDbEntity
  8
CALQUE_1
 62
     7
100
AcDbVertex
100
AcDb2dVertex
 10
615.5844752150275
 20
-268.9644611957797
 30
0.0
  0
SEQEND
  5
137
330
134
100
AcDbEntity
  8
CALQUE_1
  0
POLYLINE
  5
138
330
1F
100
AcDbEntity
  8
CALQUE_1
 62
     7
100
AcDb2dPolyline
 66
     1
 10
0.0
 20
0.0
 30
0.0
  0
VERTEX
  5
139
330
138
100
AcDbEntity
  8
CALQUE_1
 62
     7
100
AcDbVertex
100
AcDb2dVertex
 10
615.5844752150275
 20
-268.9644611957797
 30
0.0
  0
VERTEX
  5
13A
330
138
100
AcDbEntity
  8
CALQUE_1
 62
     7
100
AcDbVertex
100
AcDb2dVertex
 10
603.767453191072
 20
-266.8777668603639
 30
0.0
  0
SEQEND
  5
13B
330
138
100
AcDbEntity
  8
CALQUE_1
  0
POLYLINE
  5
13C
330
1F
100
AcDbEntity
  8
CALQUE_1
 62
     7
100
AcDb2dPolyline
 66
     1
 10
0.0
 20
0.0
 30
0.0
  0
VERTEX
  5
13D
330
13C
100
AcDbEntity
  8
CALQUE_1
 62
     7
100
AcDbVertex
100
AcDb2dVertex
 10
603.767453191072
 20
-266.8777668603639
 30
0.0
  0
VERTEX
  5
13E
330
13C
100
AcDbEntity
  8
CALQUE_1
 62
     7
100
AcDbVertex
100
AcDb2dVertex
 10
598.5498560786612
 20
-296.4204941750268
 30
0.0
  0
SEQEND
  5
13F
330
13C
100
AcDbEntity
  8
CALQUE_1
  0
POLYLINE
  5
140
330
1F
100
AcDbEntity
  8
CALQUE_1
 62
     7
100
AcDb2dPolyline
 66
     1
 10
0.0
 20
0.0
 30
0.0
  0
VERTEX
  5
141
330
140
100
AcDbEntity
  8
CALQUE_1
 62
     7
100
AcDbVertex
100
AcDb2dVertex
 10
598.5498560786612
 20
-296.4204941750268
 30
0.0
  0
VERTEX
  5
142
330
140
100
AcDbEntity
  8
CALQUE_1
 62
     7
100
AcDbVertex
100
AcDb2dVertex
 10
598.5498560786612
 20
-396.4205918062768
 30
0.0
  0
SEQEND
  5
143
330
140
100
AcDbEntity
  8
CALQUE_1
  0
POLYLINE
  5
144
330
1F
100
AcDbEntity
  8
CALQUE_1
 62
     7
100
AcDb2dPolyline
 66
     1
 10
0.0
 20
0.0
 30
0.0
  0
VERTEX
  5
145
330
144
100
AcDbEntity
  8
CALQUE_1
 62
     7
100
AcDbVertex
100
AcDb2dVertex
 10
598.5498560786612
 20
-396.4205918062768
 30
0.0
  0
VERTEX
  5
146
330
144
100
AcDbEntity
  8
CALQUE_1
 62
     7
100
AcDbVertex
100
AcDb2dVertex
 10
550.835972627048
 20
-413.7108370276487
 30
0.0
  0
SEQEND
  5
147
330
144
100
AcDbEntity
  8
CALQUE_1
  0
POLYLINE
  5
148
330
1F
100
AcDbEntity
  8
CALQUE_1
 62
     7
100
AcDb2dPolyline
 66
     1
 10
0.0
 20
0.0
 30
0.0
  0
VERTEX
  5
149
330
148
100
AcDbEntity
  8
CALQUE_1
 62
     7
100
AcDbVertex
100
AcDb2dVertex
 10
550.835972627048
 20
-413.7108370276487
 30
0.0
  0
VERTEX
  5
14A
330
148
100
AcDbEntity
  8
CALQUE_1
 62
     7
100
AcDbVertex
100
AcDb2dVertex
 10
552.8802922879952
 20
-419.3518363751968
 30
0.0
  0
SEQEND
  5
14B
330
148
100
AcDbEntity
  8
CALQUE_1
  0
POLYLINE
  5
14C
330
1F
100
AcDbEntity
  8
CALQUE_1
 62
     7
100
AcDb2dPolyline
 66
     1
 10
0.0
 20
0.0
 30
0.0
  0
VERTEX
  5
14D
330
14C
100
AcDbEntity
  8
CALQUE_1
 62
     7
100
AcDbVertex
100
AcDb2dVertex
 10
552.8802922879952
 20
-419.3518363751968
 30
0.0
  0
VERTEX
  5
14E
330
14C
100
AcDbEntity
  8
CALQUE_1
 62
     7
100
AcDbVertex
100
AcDb2dVertex
 10
576.3848007456608
 20
-410.8345268070136
 30
0.0
  0
SEQEND
  5
14F
330
14C
100
AcDbEntity
  8
CALQUE_1
  0
POLYLINE
  5
150
330
1F
100
AcDbEntity
  8
CALQUE_1
 62
     7
100
AcDb2dPolyline
 66
     1
 10
0.0
 20
0.0
 30
0.0
  0
VERTEX
  5
151
330
150
100
AcDbEntity
  8
CALQUE_1
 62
     7
100
AcDbVertex
100
AcDb2dVertex
 10
576.3848007456608
 20
-410.8345268070136
 30
0.0
  0
VERTEX
  5
152
330
150
100
AcDbEntity
  8
CALQUE_1
 62
     7
100
AcDbVertex
100
AcDb2dVertex
 10
578.4287758970595
 20
-416.4755261545617
 30
0.0
  0
SEQEND
  5
153
330
150
100
AcDbEntity
  8
CALQUE_1
  0
POLYLINE
  5
154
330
1F
100
AcDbEntity
  8
CALQUE_1
 62
     7
100
AcDb2dPolyline
 66
     1
 10
0.0
 20
0.0
 30
0.0
  0
VERTEX
  5
155
330
154
100
AcDbEntity
  8
CALQUE_1
 62
     7
100
AcDbVertex
100
AcDb2dVertex
 10
578.4287758970595
 20
-416.4755261545617
 30
0.0
  0
VERTEX
  5
156
330
154
100
AcDbEntity
  8
CALQUE_1
 62
     7
100
AcDbVertex
100
AcDb2dVertex
 10
526.7192707016535
 20
-435.2137450083841
 30
0.0
  0
SEQEND
  5
157
330
154
100
AcDbEntity
  8
CALQUE_1
  0
POLYLINE
  5
158
330
1F
100
AcDbEntity
  8
CALQUE_1
 62
     7
100
AcDb2dPolyline
 66
     1
 10
0.0
 20
0.0
 30
0.0
  0
VERTEX
  5
159
330
158
100
AcDbEntity
  8
CALQUE_1
 62
     7
100
AcDbVertex
100
AcDb2dVertex
 10
526.7192707016535
 20
-435.2137450083841
 30
0.0
  0
VERTEX
  5
15A
330
158
100
AcDbEntity
  8
CALQUE_1
 62
     7
100
AcDbVertex
100
AcDb2dVertex
 10
522.6309758893076
 20
-423.9317463132879
 30
0.0
  0
SEQEND
  5
15B
330
158
100
AcDbEntity
  8
CALQUE_1
  0
POLYLINE
  5
15C
330
1F
100
AcDbEntity
  8
CALQUE_1
 62
     7
100
AcDb2dPolyline
 66
     1
 10
0.0
 20
0.0
 30
0.0
  0
VERTEX
  5
15D
330
15C
100
AcDbEntity
  8
CALQUE_1
 62
     7
100
AcDbVertex
100
AcDb2dVertex
 10
522.6309758893076
 20
-423.9317463132879
 30
0.0
  0
VERTEX
  5
15E
330
15C
100
AcDbEntity
  8
CALQUE_1
 62
     7
100
AcDbVertex
100
AcDb2dVertex
 10
452.1177950258594
 20
-449.4836750178374
 30
0.0
  0
SEQEND
  5
15F
330
15C
100
AcDbEntity
  8
CALQUE_1
  0
POLYLINE
  5
160
330
1F
100
AcDbEntity
  8
CALQUE_1
 62
     7
100
AcDb2dPolyline
 66
     1
 10
0.0
 20
0.0
 30
0.0
  0
VERTEX
  5
161
330
160
100
AcDbEntity
  8
CALQUE_1
 62
     7
100
AcDbVertex
100
AcDb2dVertex
 10
452.1177950258594
 20
-449.4836750178374
 30
0.0
  0
VERTEX
  5
162
330
160
100
AcDbEntity
  8
CALQUE_1
 62
     7
100
AcDbVertex
100
AcDb2dVertex
 10
454.1621146868067
 20
-455.1246743653855
 30
0.0
  0
SEQEND
  5
163
330
160
100
AcDbEntity
  8
CALQUE_1
  0
POLYLINE
  5
164
330
1F
100
AcDbEntity
  8
CALQUE_1
 62
     7
100
AcDb2dPolyline
 66
     1
 10
0.0
 20
0.0
 30
0.0
  0
VERTEX
  5
165
330
164
100
AcDbEntity
  8
CALQUE_1
 62
     7
100
AcDbVertex
100
AcDb2dVertex
 10
454.1621146868067
 20
-455.1246743653855
 30
0.0
  0
VERTEX
  5
166
330
164
100
AcDbEntity
  8
CALQUE_1
 62
     7
100
AcDbVertex
100
AcDb2dVertex
 10
477.6662786349237
 20
-446.6073647972024
 30
0.0
  0
SEQEND
  5
167
330
164
100
AcDbEntity
  8
CALQUE_1
  0
POLYLINE
  5
168
330
1F
100
AcDbEntity
  8
CALQUE_1
 62
     7
100
AcDb2dPolyline
 66
     1
 10
0.0
 20
0.0
 30
0.0
  0
VERTEX
  5
169
330
168
100
AcDbEntity
  8
CALQUE_1
 62
     7
100
AcDbVertex
100
AcDb2dVertex
 10
477.6662786349237
 20
-446.6073647972024
 30
0.0
  0
VERTEX
  5
16A
330
168
100
AcDbEntity
  8
CALQUE_1
 62
     7
100
AcDbVertex
100
AcDb2dVertex
 10
479.710598295871
 20
-452.2483641447504
 30
0.0
  0
SEQEND
  5
16B
330
168
100
AcDbEntity
  8
CALQUE_1
  0
POLYLINE
  5
16C
330
1F
100
AcDbEntity
  8
CALQUE_1
 62
     7
100
AcDb2dPolyline
 66
     1
 10
0.0
 20
0.0
 30
0.0
  0
VERTEX
  5
16D
330
16C
100
AcDbEntity
  8
CALQUE_1
 62
     7
100
AcDbVertex
100
AcDb2dVertex
 10
479.710598295871
 20
-452.2483641447504
 30
0.0
  0
VERTEX
  5
16E
330
16C
100
AcDbEntity
  8
CALQUE_1
 62
     7
100
AcDbVertex
100
AcDb2dVertex
 10
428.0007485909165
 20
-470.9865829985728
 30
0.0
  0
SEQEND
  5
16F
330
16C
100
AcDbEntity
  8
CALQUE_1
  0
POLYLINE
  5
170
330
1F
100
AcDbEntity
  8
CALQUE_1
 62
     7
100
AcDb2dPolyline
 66
     1
 10
0.0
 20
0.0
 30
0.0
  0
VERTEX
  5
171
330
170
100
AcDbEntity
  8
CALQUE_1
 62
     7
100
AcDbVertex
100
AcDb2dVertex
 10
428.0007485909165
 20
-470.9865829985728
 30
0.0
  0
VERTEX
  5
172
330
170
100
AcDbEntity
  8
CALQUE_1
 62
     7
100
AcDbVertex
100
AcDb2dVertex
 10
423.9127982881191
 20
-459.7045843034767
 30
0.0
  0
SEQEND
  5
173
330
170
100
AcDbEntity
  8
CALQUE_1
  0
POLYLINE
  5
174
330
1F
100
AcDbEntity
  8
CALQUE_1
 62
     7
100
AcDb2dPolyline
 66
     1
 10
0.0
 20
0.0
 30
0.0
  0
VERTEX
  5
175
330
174
100
AcDbEntity
  8
CALQUE_1
 62
     7
100
AcDbVertex
100
AcDb2dVertex
 10
423.9127982881191
 20
-459.7045843034767
 30
0.0
  0
VERTEX
  5
176
330
174
100
AcDbEntity
  8
CALQUE_1
 62
     7
100
AcDbVertex
100
AcDb2dVertex
 10
353.399617424671
 20
-485.2565130080262
 30
0.0
  0
SEQEND
  5
177
330
174
100
AcDbEntity
  8
CALQUE_1
  0
POLYLINE
  5
178
330
1F
100
AcDbEntity
  8
CALQUE_1
 62
     7
100
AcDb2dPolyline
 66
     1
 10
0.0
 20
0.0
 30
0.0
  0
VERTEX
  5
179
330
178
100
AcDbEntity
  8
CALQUE_1
 62
     7
100
AcDbVertex
100
AcDb2dVertex
 10
353.399617424671
 20
-485.2565130080262
 30
0.0
  0
VERTEX
  5
17A
330
178
100
AcDbEntity
  8
CALQUE_1
 62
     7
100
AcDbVertex
100
AcDb2dVertex
 10
355.4437648308439
 20
-490.8975123555742
 30
0.0
  0
SEQEND
  5
17B
330
178
100
AcDbEntity
  8
CALQUE_1
  0
POLYLINE
  5
17C
330
1F
100
AcDbEntity
  8
CALQUE_1
 62
     7
100
AcDb2dPolyline
 66
     1
 10
0.0
 20
0.0
 30
0.0
  0
VERTEX
  5
17D
330
17C
100
AcDbEntity
  8
CALQUE_1
 62
     7
100
AcDbVertex
100
AcDb2dVertex
 10
355.4437648308439
 20
-490.8975123555742
 30
0.0
  0
VERTEX
  5
17E
330
17C
100
AcDbEntity
  8
CALQUE_1
 62
     7
100
AcDbVertex
100
AcDb2dVertex
 10
378.9481010337352
 20
-482.3802027873911
 30
0.0
  0
SEQEND
  5
17F
330
17C
100
AcDbEntity
  8
CALQUE_1
  0
POLYLINE
  5
180
330
1F
100
AcDbEntity
  8
CALQUE_1
 62
     7
100
AcDb2dPolyline
 66
     1
 10
0.0
 20
0.0
 30
0.0
  0
VERTEX
  5
181
330
180
100
AcDbEntity
  8
CALQUE_1
 62
     7
100
AcDbVertex
100
AcDb2dVertex
 10
378.9481010337352
 20
-482.3802027873911
 30
0.0
  0
VERTEX
  5
182
330
180
100
AcDbEntity
  8
CALQUE_1
 62
     7
100
AcDbVertex
100
AcDb2dVertex
 10
380.9922484399082
 20
-488.0212021349392
 30
0.0
  0
SEQEND
  5
183
330
180
100
AcDbEntity
  8
CALQUE_1
  0
POLYLINE
  5
184
330
1F
100
AcDbEntity
  8
CALQUE_1
 62
     7
100
AcDb2dPolyline
 66
     1
 10
0.0
 20
0.0
 30
0.0
  0
VERTEX
  5
185
330
184
100
AcDbEntity
  8
CALQUE_1
 62
     7
100
AcDbVertex
100
AcDb2dVertex
 10
380.9922484399082
 20
-488.0212021349392
 30
0.0
  0
VERTEX
  5
186
330
184
100
AcDbEntity
  8
CALQUE_1
 62
     7
100
AcDbVertex
100
AcDb2dVertex
 10
329.2827432445022
 20
-506.7594209887616
 30
0.0
  0
SEQEND
  5
187
330
184
100
AcDbEntity
  8
CALQUE_1
  0
POLYLINE
  5
188
330
1F
100
AcDbEntity
  8
CALQUE_1
 62
     7
100
AcDb2dPolyline
 66
     1
 10
0.0
 20
0.0
 30
0.0
  0
VERTEX
  5
189
330
188
100
AcDbEntity
  8
CALQUE_1
 62
     7
100
AcDbVertex
100
AcDb2dVertex
 10
329.2827432445022
 20
-506.7594209887616
 30
0.0
  0
VERTEX
  5
18A
330
188
100
AcDbEntity
  8
CALQUE_1
 62
     7
100
AcDbVertex
100
AcDb2dVertex
 10
325.194276177382
 20
-495.4774222936654
 30
0.0
  0
SEQEND
  5
18B
330
188
100
AcDbEntity
  8
CALQUE_1
  0
POLYLINE
  5
18C
330
1F
100
AcDbEntity
  8
CALQUE_1
 62
     7
100
AcDb2dPolyline
 66
     1
 10
0.0
 20
0.0
 30
0.0
  0
VERTEX
  5
18D
330
18C
100
AcDbEntity
  8
CALQUE_1
 62
     7
100
AcDbVertex
100
AcDb2dVertex
 10
325.194276177382
 20
-495.4774222936654
 30
0.0
  0
VERTEX
  5
18E
330
18C
100
AcDbEntity
  8
CALQUE_1
 62
     7
100
AcDbVertex
100
AcDb2dVertex
 10
254.6812675687082
 20
-521.0296955077634
 30
0.0
  0
SEQEND
  5
18F
330
18C
100
AcDbEntity
  8
CALQUE_1
  0
POLYLINE
  5
190
330
1F
100
AcDbEntity
  8
CALQUE_1
 62
     7
100
AcDb2dPolyline
 66
     1
 10
0.0
 20
0.0
 30
0.0
  0
VERTEX
  5
191
330
190
100
AcDbEntity
  8
CALQUE_1
 62
     7
100
AcDbVertex
100
AcDb2dVertex
 10
254.6812675687082
 20
-521.0296955077634
 30
0.0
  0
VERTEX
  5
192
330
190
100
AcDbEntity
  8
CALQUE_1
 62
     7
100
AcDbVertex
100
AcDb2dVertex
 10
256.7254149748812
 20
-526.6706948553115
 30
0.0
  0
SEQEND
  5
193
330
190
100
AcDbEntity
  8
CALQUE_1
  0
POLYLINE
  5
194
330
1F
100
AcDbEntity
  8
CALQUE_1
 62
     7
100
AcDb2dPolyline
 66
     1
 10
0.0
 20
0.0
 30
0.0
  0
VERTEX
  5
195
330
194
100
AcDbEntity
  8
CALQUE_1
 62
     7
100
AcDbVertex
100
AcDb2dVertex
 10
256.7254149748812
 20
-526.6706948553115
 30
0.0
  0
VERTEX
  5
196
330
194
100
AcDbEntity
  8
CALQUE_1
 62
     7
100
AcDbVertex
100
AcDb2dVertex
 10
280.2299234325467
 20
-518.1533852871283
 30
0.0
  0
SEQEND
  5
197
330
194
100
AcDbEntity
  8
CALQUE_1
  0
POLYLINE
  5
198
330
1F
100
AcDbEntity
  8
CALQUE_1
 62
     7
100
AcDb2dPolyline
 66
     1
 10
0.0
 20
0.0
 30
0.0
  0
VERTEX
  5
199
330
198
100
AcDbEntity
  8
CALQUE_1
 62
     7
100
AcDbVertex
100
AcDb2dVertex
 10
280.2299234325467
 20
-518.1533852871283
 30
0.0
  0
VERTEX
  5
19A
330
198
100
AcDbEntity
  8
CALQUE_1
 62
     7
100
AcDbVertex
100
AcDb2dVertex
 10
282.2738985839454
 20
-523.7943846346765
 30
0.0
  0
SEQEND
  5
19B
330
198
100
AcDbEntity
  8
CALQUE_1
  0
POLYLINE
  5
19C
330
1F
100
AcDbEntity
  8
CALQUE_1
 62
     7
100
AcDb2dPolyline
 66
     1
 10
0.0
 20
0.0
 30
0.0
  0
VERTEX
  5
19D
330
19C
100
AcDbEntity
  8
CALQUE_1
 62
     7
100
AcDbVertex
100
AcDb2dVertex
 10
282.2738985839454
 20
-523.7943846346765
 30
0.0
  0
VERTEX
  5
19E
330
19C
100
AcDbEntity
  8
CALQUE_1
 62
     7
100
AcDbVertex
100
AcDb2dVertex
 10
230.5643933885395
 20
-542.5326034884988
 30
0.0
  0
SEQEND
  5
19F
330
19C
100
AcDbEntity
  8
CALQUE_1
  0
POLYLINE
  5
1A0
330
1F
100
AcDbEntity
  8
CALQUE_1
 62
     7
100
AcDb2dPolyline
 66
     1
 10
0.0
 20
0.0
 30
0.0
  0
VERTEX
  5
1A1
330
1A0
100
AcDbEntity
  8
CALQUE_1
 62
     7
100
AcDbVertex
100
AcDb2dVertex
 10
230.5643933885395
 20
-542.5326034884988
 30
0.0
  0
VERTEX
  5
1A2
330
1A0
100
AcDbEntity
  8
CALQUE_1
 62
     7
100
AcDbVertex
100
AcDb2dVertex
 10
226.4760985761935
 20
-531.2502602838541
 30
0.0
  0
SEQEND
  5
1A3
330
1A0
100
AcDbEntity
  8
CALQUE_1
  0
POLYLINE
  5
1A4
330
1F
100
AcDbEntity
  8
CALQUE_1
 62
     7
100
AcDb2dPolyline
 66
     1
 10
0.0
 20
0.0
 30
0.0
  0
VERTEX
  5
1A5
330
1A4
100
AcDbEntity
  8
CALQUE_1
 62
     7
100
AcDbVertex
100
AcDb2dVertex
 10
226.4760985761935
 20
-531.2502602838541
 30
0.0
  0
VERTEX
  5
1A6
330
1A4
100
AcDbEntity
  8
CALQUE_1
 62
     7
100
AcDbVertex
100
AcDb2dVertex
 10
222.4803045776265
 20
-532.6982339163046
 30
0.0
  0
SEQEND
  5
1A7
330
1A4
100
AcDbEntity
  8
CALQUE_1
  0
POLYLINE
  5
1A8
330
1F
100
AcDbEntity
  8
CALQUE_1
 62
     7
100
AcDb2dPolyline
 66
     1
 10
0.0
 20
0.0
 30
0.0
  0
VERTEX
  5
1A9
330
1A8
100
AcDbEntity
  8
CALQUE_1
 62
     7
100
AcDbVertex
100
AcDb2dVertex
 10
222.4803045776265
 20
-532.6982339163046
 30
0.0
  0
VERTEX
  5
1AA
330
1A8
100
AcDbEntity
  8
CALQUE_1
 62
     7
100
AcDbVertex
100
AcDb2dVertex
 10
220.9660128570849
 20
-528.9961343078552
 30
0.0
  0
SEQEND
  5
1AB
330
1A8
100
AcDbEntity
  8
CALQUE_1
  0
POLYLINE
  5
1AC
330
1F
100
AcDbEntity
  8
CALQUE_1
 62
     7
100
AcDb2dPolyline
 66
     1
 10
0.0
 20
0.0
 30
0.0
  0
VERTEX
  5
1AD
330
1AC
100
AcDbEntity
  8
CALQUE_1
 62
     7
100
AcDbVertex
100
AcDb2dVertex
 10
220.9660128570849
 20
-528.9961343078552
 30
0.0
  0
VERTEX
  5
1AE
330
1AC
100
AcDbEntity
  8
CALQUE_1
 62
     7
100
AcDbVertex
100
AcDb2dVertex
 10
215.4125189348622
 20
-531.2678302708289
 30
0.0
  0
SEQEND
  5
1AF
330
1AC
100
AcDbEntity
  8
CALQUE_1
  0
POLYLINE
  5
1B0
330
1F
100
AcDbEntity
  8
CALQUE_1
 62
     7
100
AcDb2dPolyline
 66
     1
 10
0.0
 20
0.0
 30
0.0
  0
VERTEX
  5
1B1
330
1B0
100
AcDbEntity
  8
CALQUE_1
 62
     7
100
AcDbVertex
100
AcDb2dVertex
 10
215.4125189348622
 20
-531.2678302708289
 30
0.0
  0
VERTEX
  5
1B2
330
1B0
100
AcDbEntity
  8
CALQUE_1
 62
     7
100
AcDbVertex
100
AcDb2dVertex
 10
219.1986788731517
 20
-540.5234238015012
 30
0.0
  0
SEQEND
  5
1B3
330
1B0
100
AcDbEntity
  8
CALQUE_1
  0
POLYLINE
  5
1B4
330
1F
100
AcDbEntity
  8
CALQUE_1
 62
     7
100
AcDb2dPolyline
 66
     1
 10
0.0
 20
0.0
 30
0.0
  0
VERTEX
  5
1B5
330
1B4
100
AcDbEntity
  8
CALQUE_1
 62
     7
100
AcDbVertex
100
AcDb2dVertex
 10
219.1986788731517
 20
-540.5234238015012
 30
0.0
  0
VERTEX
  5
1B6
330
1B4
100
AcDbEntity
  8
CALQUE_1
 62
     7
100
AcDbVertex
100
AcDb2dVertex
 10
213.6453572057032
 20
-542.7951197644749
 30
0.0
  0
SEQEND
  5
1B7
330
1B4
100
AcDbEntity
  8
CALQUE_1
  0
POLYLINE
  5
1B8
330
1F
100
AcDbEntity
  8
CALQUE_1
 62
     7
100
AcDb2dPolyline
 66
     1
 10
0.0
 20
0.0
 30
0.0
  0
VERTEX
  5
1B9
330
1B8
100
AcDbEntity
  8
CALQUE_1
 62
     7
100
AcDbVertex
100
AcDb2dVertex
 10
213.6453572057032
 20
-542.7951197644749
 30
0.0
  0
VERTEX
  5
1BA
330
1B8
100
AcDbEntity
  8
CALQUE_1
 62
     7
100
AcDbVertex
100
AcDb2dVertex
 10
206.0732095838984
 20
-524.2839327031304
 30
0.0
  0
SEQEND
  5
1BB
330
1B8
100
AcDbEntity
  8
CALQUE_1
  0
POLYLINE
  5
1BC
330
1F
100
AcDbEntity
  8
CALQUE_1
 62
     7
100
AcDb2dPolyline
 66
     1
 10
0.0
 20
0.0
 30
0.0
  0
VERTEX
  5
1BD
330
1BC
100
AcDbEntity
  8
CALQUE_1
 62
     7
100
AcDbVertex
100
AcDb2dVertex
 10
206.0732095838984
 20
-524.2839327031304
 30
0.0
  0
VERTEX
  5
1BE
330
1BC
100
AcDbEntity
  8
CALQUE_1
 62
     7
100
AcDbVertex
100
AcDb2dVertex
 10
217.1798529187953
 20
-519.7405407771829
 30
0.0
  0
SEQEND
  5
1BF
330
1BC
100
AcDbEntity
  8
CALQUE_1
  0
POLYLINE
  5
1C0
330
1F
100
AcDbEntity
  8
CALQUE_1
 62
     7
100
AcDb2dPolyline
 66
     1
 10
0.0
 20
0.0
 30
0.0
  0
VERTEX
  5
1C1
330
1C0
100
AcDbEntity
  8
CALQUE_1
 62
     7
100
AcDbVertex
100
AcDb2dVertex
 10
217.1798529187953
 20
-519.7405407771829
 30
0.0
  0
VERTEX
  5
1C2
330
1C0
100
AcDbEntity
  8
CALQUE_1
 62
     7
100
AcDbVertex
100
AcDb2dVertex
 10
209.6077052969904
 20
-501.2293537158385
 30
0.0
  0
SEQEND
  5
1C3
330
1C0
100
AcDbEntity
  8
CALQUE_1
  0
POLYLINE
  5
1C4
330
1F
100
AcDbEntity
  8
CALQUE_1
 62
     7
100
AcDb2dPolyline
 66
     1
 10
0.0
 20
0.0
 30
0.0
  0
VERTEX
  5
1C5
330
1C4
100
AcDbEntity
  8
CALQUE_1
 62
     7
100
AcDbVertex
100
AcDb2dVertex
 10
209.6077052969904
 20
-501.2293537158385
 30
0.0
  0
VERTEX
  5
1C6
330
1C4
100
AcDbEntity
  8
CALQUE_1
 62
     7
100
AcDbVertex
100
AcDb2dVertex
 10
204.054383629542
 20
-503.5010496788123
 30
0.0
  0
SEQEND
  5
1C7
330
1C4
100
AcDbEntity
  8
CALQUE_1
  0
POLYLINE
  5
1C8
330
1F
100
AcDbEntity
  8
CALQUE_1
 62
     7
100
AcDb2dPolyline
 66
     1
 10
0.0
 20
0.0
 30
0.0
  0
VERTEX
  5
1C9
330
1C8
100
AcDbEntity
  8
CALQUE_1
 62
     7
100
AcDbVertex
100
AcDb2dVertex
 10
204.054383629542
 20
-503.5010496788123
 30
0.0
  0
VERTEX
  5
1CA
330
1C8
100
AcDbEntity
  8
CALQUE_1
 62
     7
100
AcDbVertex
100
AcDb2dVertex
 10
207.8403713130573
 20
-512.7566432094844
 30
0.0
  0
SEQEND
  5
1CB
330
1C8
100
AcDbEntity
  8
CALQUE_1
  0
POLYLINE
  5
1CC
330
1F
100
AcDbEntity
  8
CALQUE_1
 62
     7
100
AcDb2dPolyline
 66
     1
 10
0.0
 20
0.0
 30
0.0
  0
VERTEX
  5
1CD
330
1CC
100
AcDbEntity
  8
CALQUE_1
 62
     7
100
AcDbVertex
100
AcDb2dVertex
 10
207.8403713130573
 20
-512.7566432094844
 30
0.0
  0
VERTEX
  5
1CE
330
1CC
100
AcDbEntity
  8
CALQUE_1
 62
     7
100
AcDbVertex
100
AcDb2dVertex
 10
202.2870496456088
 20
-515.0283391724582
 30
0.0
  0
SEQEND
  5
1CF
330
1CC
100
AcDbEntity
  8
CALQUE_1
  0
POLYLINE
  5
1D0
330
1F
100
AcDbEntity
  8
CALQUE_1
 62
     7
100
AcDb2dPolyline
 66
     1
 10
0.0
 20
0.0
 30
0.0
  0
VERTEX
  5
1D1
330
1D0
100
AcDbEntity
  8
CALQUE_1
 62
     7
100
AcDbVertex
100
AcDb2dVertex
 10
202.2870496456088
 20
-515.0283391724582
 30
0.0
  0
VERTEX
  5
1D2
330
1D0
100
AcDbEntity
  8
CALQUE_1
 62
     7
100
AcDbVertex
100
AcDb2dVertex
 10
194.7149020238039
 20
-496.5171521111138
 30
0.0
  0
SEQEND
  5
1D3
330
1D0
100
AcDbEntity
  8
CALQUE_1
  0
POLYLINE
  5
1D4
330
1F
100
AcDbEntity
  8
CALQUE_1
 62
     7
100
AcDb2dPolyline
 66
     1
 10
0.0
 20
0.0
 30
0.0
  0
VERTEX
  5
1D5
330
1D4
100
AcDbEntity
  8
CALQUE_1
 62
     7
100
AcDbVertex
100
AcDb2dVertex
 10
194.7149020238039
 20
-496.5171521111138
 30
0.0
  0
VERTEX
  5
1D6
330
1D4
100
AcDbEntity
  8
CALQUE_1
 62
     7
100
AcDbVertex
100
AcDb2dVertex
 10
205.8215453587009
 20
-491.9737601851663
 30
0.0
  0
SEQEND
  5
1D7
330
1D4
100
AcDbEntity
  8
CALQUE_1
  0
POLYLINE
  5
1D8
330
1F
100
AcDbEntity
  8
CALQUE_1
 62
     7
100
AcDb2dPolyline
 66
     1
 10
0.0
 20
0.0
 30
0.0
  0
VERTEX
  5
1D9
330
1D8
100
AcDbEntity
  8
CALQUE_1
 62
     7
100
AcDbVertex
100
AcDb2dVertex
 10
205.8215453587009
 20
-491.9737601851663
 30
0.0
  0
VERTEX
  5
1DA
330
1D8
100
AcDbEntity
  8
CALQUE_1
 62
     7
100
AcDbVertex
100
AcDb2dVertex
 10
203.5500216505014
 20
-486.4206107724921
 30
0.0
  0
SEQEND
  5
1DB
330
1D8
100
AcDbEntity
  8
CALQUE_1
  0
POLYLINE
  5
1DC
330
1F
100
AcDbEntity
  8
CALQUE_1
 62
     7
100
AcDb2dPolyline
 66
     1
 10
0.0
 20
0.0
 30
0.0
  0
VERTEX
  5
1DD
330
1DC
100
AcDbEntity
  8
CALQUE_1
 62
     7
100
AcDbVertex
100
AcDb2dVertex
 10
203.5500216505014
 20
-486.4206107724921
 30
0.0
  0
VERTEX
  5
1DE
330
1DC
100
AcDbEntity
  8
CALQUE_1
 62
     7
100
AcDbVertex
100
AcDb2dVertex
 10
144.0499497795257
 20
-486.4206107724921
 30
0.0
  0
SEQEND
  5
1DF
330
1DC
100
AcDbEntity
  8
CALQUE_1
  0
POLYLINE
  5
1E0
330
1F
100
AcDbEntity
  8
CALQUE_1
 62
     7
100
AcDb2dPolyline
 66
     1
 10
0.0
 20
0.0
 30
0.0
  0
VERTEX
  5
1E1
330
1E0
100
AcDbEntity
  8
CALQUE_1
 62
     7
100
AcDbVertex
100
AcDb2dVertex
 10
144.0499497795257
 20
-486.4206107724921
 30
0.0
  0
VERTEX
  5
1E2
330
1E0
100
AcDbEntity
  8
CALQUE_1
 62
     7
100
AcDbVertex
100
AcDb2dVertex
 10
144.0499497795257
 20
-496.4203449279782
 30
0.0
  0
SEQEND
  5
1E3
330
1E0
100
AcDbEntity
  8
CALQUE_1
  0
POLYLINE
  5
1E4
330
1F
100
AcDbEntity
  8
CALQUE_1
 62
     7
100
AcDb2dPolyline
 66
     1
 10
0.0
 20
0.0
 30
0.0
  0
VERTEX
  5
1E5
330
1E4
100
AcDbEntity
  8
CALQUE_1
 62
     7
100
AcDbVertex
100
AcDb2dVertex
 10
144.0499497795257
 20
-496.4203449279782
 30
0.0
  0
VERTEX
  5
1E6
330
1E4
100
AcDbEntity
  8
CALQUE_1
 62
     7
100
AcDbVertex
100
AcDb2dVertex
 10
164.0499348548209
 20
-496.4203449279782
 30
0.0
  0
SEQEND
  5
1E7
330
1E4
100
AcDbEntity
  8
CALQUE_1
  0
POLYLINE
  5
1E8
330
1F
100
AcDbEntity
  8
CALQUE_1
 62
     7
100
AcDb2dPolyline
 66
     1
 10
0.0
 20
0.0
 30
0.0
  0
VERTEX
  5
1E9
330
1E8
100
AcDbEntity
  8
CALQUE_1
 62
     7
100
AcDbVertex
100
AcDb2dVertex
 10
164.0499348548209
 20
-496.4203449279782
 30
0.0
  0
VERTEX
  5
1EA
330
1E8
100
AcDbEntity
  8
CALQUE_1
 62
     7
100
AcDbVertex
100
AcDb2dVertex
 10
164.0499348548209
 20
-502.4206677346379
 30
0.0
  0
SEQEND
  5
1EB
330
1E8
100
AcDbEntity
  8
CALQUE_1
  0
POLYLINE
  5
1EC
330
1F
100
AcDbEntity
  8
CALQUE_1
 62
     7
100
AcDb2dPolyline
 66
     1
 10
0.0
 20
0.0
 30
0.0
  0
VERTEX
  5
1ED
330
1EC
100
AcDbEntity
  8
CALQUE_1
 62
     7
100
AcDbVertex
100
AcDb2dVertex
 10
164.0499348548209
 20
-502.4206677346379
 30
0.0
  0
VERTEX
  5
1EE
330
1EC
100
AcDbEntity
  8
CALQUE_1
 62
     7
100
AcDbVertex
100
AcDb2dVertex
 10
114.0498860391959
 20
-502.4206677346379
 30
0.0
  0
SEQEND
  5
1EF
330
1EC
100
AcDbEntity
  8
CALQUE_1
  0
POLYLINE
  5
1F0
330
1F
100
AcDbEntity
  8
CALQUE_1
 62
     7
100
AcDb2dPolyline
 66
     1
 10
0.0
 20
0.0
 30
0.0
  0
VERTEX
  5
1F1
330
1F0
100
AcDbEntity
  8
CALQUE_1
 62
     7
100
AcDbVertex
100
AcDb2dVertex
 10
114.0498860391959
 20
-502.4206677346379
 30
0.0
  0
VERTEX
  5
1F2
330
1F0
100
AcDbEntity
  8
CALQUE_1
 62
     7
100
AcDbVertex
100
AcDb2dVertex
 10
114.0498860391959
 20
-486.4206107724921
 30
0.0
  0
SEQEND
  5
1F3
330
1F0
100
AcDbEntity
  8
CALQUE_1
  0
POLYLINE
  5
1F4
330
1F
100
AcDbEntity
  8
CALQUE_1
 62
     7
100
AcDb2dPolyline
 66
     1
 10
0.0
 20
0.0
 30
0.0
  0
VERTEX
  5
1F5
330
1F4
100
AcDbEntity
  8
CALQUE_1
 62
     7
100
AcDbVertex
100
AcDb2dVertex
 10
114.0498860391959
 20
-486.4206107724921
 30
0.0
  0
VERTEX
  5
1F6
330
1F4
100
AcDbEntity
  8
CALQUE_1
 62
     7
100
AcDbVertex
100
AcDb2dVertex
 10
103.5499240192514
 20
-486.4206107724921
 30
0.0
  0
SEQEND
  5
1F7
330
1F4
100
AcDbEntity
  8
CALQUE_1
  0
POLYLINE
  5
1F8
330
1F
100
AcDbEntity
  8
CALQUE_1
 62
     7
100
AcDb2dPolyline
 66
     1
 10
0.0
 20
0.0
 30
0.0
  0
VERTEX
  5
1F9
330
1F8
100
AcDbEntity
  8
CALQUE_1
 62
     7
100
AcDbVertex
100
AcDb2dVertex
 10
610.7499727205765
 20
-321.4205185828393
 30
0.0
  0
VERTEX
  5
1FA
330
1F8
100
AcDbEntity
  8
CALQUE_1
 62
     7
100
AcDbVertex
100
AcDb2dVertex
 10
610.7499727205765
 20
-371.4205673984643
 30
0.0
  0
SEQEND
  5
1FB
330
1F8
100
AcDbEntity
  8
CALQUE_1
  0
POLYLINE
  5
1FC
330
1F
100
AcDbEntity
  8
CALQUE_1
 62
     7
100
AcDb2dPolyline
 66
     1
 10
0.0
 20
0.0
 30
0.0
  0
VERTEX
  5
1FD
330
1FC
100
AcDbEntity
  8
CALQUE_1
 62
     7
100
AcDbVertex
100
AcDb2dVertex
 10
616.7499510176875
 20
-321.4205185828393
 30
0.0
  0
VERTEX
  5
1FE
330
1FC
100
AcDbEntity
  8
CALQUE_1
 62
     7
100
AcDbVertex
100
AcDb2dVertex
 10
610.7499727205765
 20
-321.4205185828393
 30
0.0
  0
SEQEND
  5
1FF
330
1FC
100
AcDbEntity
  8
CALQUE_1
  0
POLYLINE
  5
200
330
1F
100
AcDbEntity
  8
CALQUE_1
 62
     7
100
AcDb2dPolyline
 66
     1
 10
0.0
 20
0.0
 30
0.0
  0
VERTEX
  5
201
330
200
100
AcDbEntity
  8
CALQUE_1
 62
     7
100
AcDbVertex
100
AcDb2dVertex
 10
616.7499510176875
 20
-371.4205673984643
 30
0.0
  0
VERTEX
  5
202
330
200
100
AcDbEntity
  8
CALQUE_1
 62
     7
100
AcDbVertex
100
AcDb2dVertex
 10
616.7499510176875
 20
-321.4205185828393
 30
0.0
  0
SEQEND
  5
203
330
200
100
AcDbEntity
  8
CALQUE_1
  0
POLYLINE
  5
204
330
1F
100
AcDbEntity
  8
CALQUE_1
 62
     7
100
AcDb2dPolyline
 66
     1
 10
0.0
 20
0.0
 30
0.0
  0
VERTEX
  5
205
330
204
100
AcDbEntity
  8
CALQUE_1
 62
     7
100
AcDbVertex
100
AcDb2dVertex
 10
610.7499727205765
 20
-371.4205673984643
 30
0.0
  0
VERTEX
  5
206
330
204
100
AcDbEntity
  8
CALQUE_1
 62
     7
100
AcDbVertex
100
AcDb2dVertex
 10
616.7499510176875
 20
-371.4205673984643
 30
0.0
  0
SEQEND
  5
207
330
204
100
AcDbEntity
  8
CALQUE_1
  0
POLYLINE
  5
208
330
1F
100
AcDbEntity
  8
CALQUE_1
 62
     7
100
AcDb2dPolyline
 66
     1
 10
0.0
 20
0.0
 30
0.0
  0
VERTEX
  5
209
330
208
100
AcDbEntity
  8
CALQUE_1
 62
     7
100
AcDbVertex
100
AcDb2dVertex
 10
778.5498940110917
 20
-370.6705701113254
 30
0.0
  0
VERTEX
  5
20A
330
208
100
AcDbEntity
  8
CALQUE_1
 62
     7
100
AcDbVertex
100
AcDb2dVertex
 10
778.5498940110917
 20
-285.6704182228532
 30
0.0
  0
SEQEND
  5
20B
330
208
100
AcDbEntity
  8
CALQUE_1
  0
POLYLINE
  5
20C
330
1F
100
AcDbEntity
  8
CALQUE_1
 62
     7
100
AcDb2dPolyline
 66
     1
 10
0.0
 20
0.0
 30
0.0
  0
VERTEX
  5
20D
330
20C
100
AcDbEntity
  8
CALQUE_1
 62
     7
100
AcDbVertex
100
AcDb2dVertex
 10
772.5499157139806
 20
-370.6705701113254
 30
0.0
  0
VERTEX
  5
20E
330
20C
100
AcDbEntity
  8
CALQUE_1
 62
     7
100
AcDbVertex
100
AcDb2dVertex
 10
778.5498940110917
 20
-370.6705701113254
 30
0.0
  0
SEQEND
  5
20F
330
20C
100
AcDbEntity
  8
CALQUE_1
  0
POLYLINE
  5
210
330
1F
100
AcDbEntity
  8
CALQUE_1
 62
     7
100
AcDb2dPolyline
 66
     1
 10
0.0
 20
0.0
 30
0.0
  0
VERTEX
  5
211
330
210
100
AcDbEntity
  8
CALQUE_1
 62
     7
100
AcDbVertex
100
AcDb2dVertex
 10
772.5499157139806
 20
-285.6704182228532
 30
0.0
  0
VERTEX
  5
212
330
210
100
AcDbEntity
  8
CALQUE_1
 62
     7
100
AcDbVertex
100
AcDb2dVertex
 10
772.5499157139806
 20
-370.6705701113254
 30
0.0
  0
SEQEND
  5
213
330
210
100
AcDbEntity
  8
CALQUE_1
  0
POLYLINE
  5
214
330
1F
100
AcDbEntity
  8
CALQUE_1
 62
     7
100
AcDb2dPolyline
 66
     1
 10
0.0
 20
0.0
 30
0.0
  0
VERTEX
  5
215
330
214
100
AcDbEntity
  8
CALQUE_1
 62
     7
100
AcDbVertex
100
AcDb2dVertex
 10
778.5498940110917
 20
-285.6704182228532
 30
0.0
  0
VERTEX
  5
216
330
214
100
AcDbEntity
  8
CALQUE_1
 62
     7
100
AcDbVertex
100
AcDb2dVertex
 10
772.5499157139806
 20
-285.6704182228532
 30
0.0
  0
SEQEND
  5
217
330
214
100
AcDbEntity
  8
CALQUE_1
  0
POLYLINE
  5
218
330
1F
100
AcDbEntity
  8
CALQUE_1
 62
     7
100
AcDb2dPolyline
 66
     1
 10
0.0
 20
0.0
 30
0.0
  0
VERTEX
  5
219
330
218
100
AcDbEntity
  8
CALQUE_1
 62
     7
100
AcDbVertex
100
AcDb2dVertex
 10
610.7499727205765
 20
-451.4205076996449
 30
0.0
  0
VERTEX
  5
21A
330
218
100
AcDbEntity
  8
CALQUE_1
 62
     7
100
AcDbVertex
100
AcDb2dVertex
 10
610.7499727205765
 20
-501.4205565152699
 30
0.0
  0
SEQEND
  5
21B
330
218
100
AcDbEntity
  8
CALQUE_1
  0
POLYLINE
  5
21C
330
1F
100
AcDbEntity
  8
CALQUE_1
 62
     7
100
AcDb2dPolyline
 66
     1
 10
0.0
 20
0.0
 30
0.0
  0
VERTEX
  5
21D
330
21C
100
AcDbEntity
  8
CALQUE_1
 62
     7
100
AcDbVertex
100
AcDb2dVertex
 10
616.7499510176875
 20
-451.4205076996449
 30
0.0
  0
VERTEX
  5
21E
330
21C
100
AcDbEntity
  8
CALQUE_1
 62
     7
100
AcDbVertex
100
AcDb2dVertex
 10
610.7499727205765
 20
-451.4205076996449
 30
0.0
  0
SEQEND
  5
21F
330
21C
100
AcDbEntity
  8
CALQUE_1
  0
POLYLINE
  5
220
330
1F
100
AcDbEntity
  8
CALQUE_1
 62
     7
100
AcDb2dPolyline
 66
     1
 10
0.0
 20
0.0
 30
0.0
  0
VERTEX
  5
221
330
220
100
AcDbEntity
  8
CALQUE_1
 62
     7
100
AcDbVertex
100
AcDb2dVertex
 10
616.7499510176875
 20
-501.4205565152699
 30
0.0
  0
VERTEX
  5
222
330
220
100
AcDbEntity
  8
CALQUE_1
 62
     7
100
AcDbVertex
100
AcDb2dVertex
 10
616.7499510176875
 20
-451.4205076996449
 30
0.0
  0
SEQEND
  5
223
330
220
100
AcDbEntity
  8
CALQUE_1
  0
POLYLINE
  5
224
330
1F
100
AcDbEntity
  8
CALQUE_1
 62
     7
100
AcDb2dPolyline
 66
     1
 10
0.0
 20
0.0
 30
0.0
  0
VERTEX
  5
225
330
224
100
AcDbEntity
  8
CALQUE_1
 62
     7
100
AcDbVertex
100
AcDb2dVertex
 10
610.7499727205765
 20
-501.4205565152699
 30
0.0
  0
VERTEX
  5
226
330
224
100
AcDbEntity
  8
CALQUE_1
 62
     7
100
AcDbVertex
100
AcDb2dVertex
 10
616.7499510176875
 20
-501.4205565152699
 30
0.0
  0
SEQEND
  5
227
330
224
100
AcDbEntity
  8
CALQUE_1
  0
POLYLINE
  5
228
330
1F
100
AcDbEntity
  8
CALQUE_1
 62
     7
100
AcDb2dPolyline
 66
     1
 10
0.0
 20
0.0
 30
0.0
  0
VERTEX
  5
229
330
228
100
AcDbEntity
  8
CALQUE_1
 62
     7
100
AcDbVertex
100
AcDb2dVertex
 10
30.80001491200486
 20
-224.1491088306815
 30
0.0
  0
VERTEX
  5
22A
330
228
100
AcDbEntity
  8
CALQUE_1
 62
     7
100
AcDbVertex
100
AcDb2dVertex
 10
36.79999320911597
 20
-224.1491088306815
 30
0.0
  0
SEQEND
  5
22B
330
228
100
AcDbEntity
  8
CALQUE_1
  0
POLYLINE
  5
22C
330
1F
100
AcDbEntity
  8
CALQUE_1
 62
     7
100
AcDb2dPolyline
 66
     1
 10
0.0
 20
0.0
 30
0.0
  0
VERTEX
  5
22D
330
22C
100
AcDbEntity
  8
CALQUE_1
 62
     7
100
AcDbVertex
100
AcDb2dVertex
 10
30.80001491200486
 20
-209.1491630879037
 30
0.0
  0
VERTEX
  5
22E
330
22C
100
AcDbEntity
  8
CALQUE_1
 62
     7
100
AcDbVertex
100
AcDb2dVertex
 10
30.80001491200486
 20
-224.1491088306815
 30
0.0
  0
SEQEND
  5
22F
330
22C
100
AcDbEntity
  8
CALQUE_1
  0
POLYLINE
  5
230
330
1F
100
AcDbEntity
  8
CALQUE_1
 62
     7
100
AcDb2dPolyline
 66
     1
 10
0.0
 20
0.0
 30
0.0
  0
VERTEX
  5
231
330
230
100
AcDbEntity
  8
CALQUE_1
 62
     7
100
AcDbVertex
100
AcDb2dVertex
 10
36.79999320911597
 20
-209.1491630879037
 30
0.0
  0
VERTEX
  5
232
330
230
100
AcDbEntity
  8
CALQUE_1
 62
     7
100
AcDbVertex
100
AcDb2dVertex
 10
30.80001491200486
 20
-209.1491630879037
 30
0.0
  0
SEQEND
  5
233
330
230
100
AcDbEntity
  8
CALQUE_1
  0
POLYLINE
  5
234
330
1F
100
AcDbEntity
  8
CALQUE_1
 62
     7
100
AcDb2dPolyline
 66
     1
 10
0.0
 20
0.0
 30
0.0
  0
VERTEX
  5
235
330
234
100
AcDbEntity
  8
CALQUE_1
 62
     7
100
AcDbVertex
100
AcDb2dVertex
 10
36.79999320911597
 20
-224.1491088306815
 30
0.0
  0
VERTEX
  5
236
330
234
100
AcDbEntity
  8
CALQUE_1
 62
     7
100
AcDbVertex
100
AcDb2dVertex
 10
36.79999320911597
 20
-209.1491630879037
 30
0.0
  0
SEQEND
  5
237
330
234
100
AcDbEntity
  8
CALQUE_1
  0
POLYLINE
  5
238
330
1F
100
AcDbEntity
  8
CALQUE_1
 62
     7
100
AcDb2dPolyline
 66
     1
 10
0.0
 20
0.0
 30
0.0
  0
VERTEX
  5
239
330
238
100
AcDbEntity
  8
CALQUE_1
 62
     7
100
AcDbVertex
100
AcDb2dVertex
 10
30.80001491200486
 20
-354.1489256927128
 30
0.0
  0
VERTEX
  5
23A
330
238
100
AcDbEntity
  8
CALQUE_1
 62
     7
100
AcDbVertex
100
AcDb2dVertex
 10
36.79999320911597
 20
-354.1489256927128
 30
0.0
  0
SEQEND
  5
23B
330
238
100
AcDbEntity
  8
CALQUE_1
  0
POLYLINE
  5
23C
330
1F
100
AcDbEntity
  8
CALQUE_1
 62
     7
100
AcDb2dPolyline
 66
     1
 10
0.0
 20
0.0
 30
0.0
  0
VERTEX
  5
23D
330
23C
100
AcDbEntity
  8
CALQUE_1
 62
     7
100
AcDbVertex
100
AcDb2dVertex
 10
30.80001491200486
 20
-339.148979949935
 30
0.0
  0
VERTEX
  5
23E
330
23C
100
AcDbEntity
  8
CALQUE_1
 62
     7
100
AcDbVertex
100
AcDb2dVertex
 10
30.80001491200486
 20
-354.1489256927128
 30
0.0
  0
SEQEND
  5
23F
330
23C
100
AcDbEntity
  8
CALQUE_1
  0
POLYLINE
  5
240
330
1F
100
AcDbEntity
  8
CALQUE_1
 62
     7
100
AcDb2dPolyline
 66
     1
 10
0.0
 20
0.0
 30
0.0
  0
VERTEX
  5
241
330
240
100
AcDbEntity
  8
CALQUE_1
 62
     7
100
AcDbVertex
100
AcDb2dVertex
 10
36.79999320911597
 20
-339.148979949935
 30
0.0
  0
VERTEX
  5
242
330
240
100
AcDbEntity
  8
CALQUE_1
 62
     7
100
AcDbVertex
100
AcDb2dVertex
 10
30.80001491200486
 20
-339.148979949935
 30
0.0
  0
SEQEND
  5
243
330
240
100
AcDbEntity
  8
CALQUE_1
  0
POLYLINE
  5
244
330
1F
100
AcDbEntity
  8
CALQUE_1
 62
     7
100
AcDb2dPolyline
 66
     1
 10
0.0
 20
0.0
 30
0.0
  0
VERTEX
  5
245
330
244
100
AcDbEntity
  8
CALQUE_1
 62
     7
100
AcDbVertex
100
AcDb2dVertex
 10
36.79999320911597
 20
-354.1489256927128
 30
0.0
  0
VERTEX
  5
246
330
244
100
AcDbEntity
  8
CALQUE_1
 62
     7
100
AcDbVertex
100
AcDb2dVertex
 10
36.79999320911597
 20
-339.148979949935
 30
0.0
  0
SEQEND
  5
247
330
244
100
AcDbEntity
  8
CALQUE_1
  0
POLYLINE
  5
248
330
1F
100
AcDbEntity
  8
CALQUE_1
 62
     7
100
AcDb2dPolyline
 66
     1
 10
0.0
 20
0.0
 30
0.0
  0
VERTEX
  5
249
330
248
100
AcDbEntity
  8
CALQUE_1
 62
     7
100
AcDbVertex
100
AcDb2dVertex
 10
580.8000351195569
 20
-235.649182069994
 30
0.0
  0
VERTEX
  5
24A
330
248
100
AcDbEntity
  8
CALQUE_1
 62
     7
100
AcDbVertex
100
AcDb2dVertex
 10
580.8000351195569
 20
-197.6490898485912
 30
0.0
  0
SEQEND
  5
24B
330
248
100
AcDbEntity
  8
CALQUE_1
  0
SPLINE
  5
24C
330
1F
100
AcDbEntity
  8
CALQUE_1
 62
     7
100
AcDbSpline
210
0.0
220
0.0
230
1.0
 70
     8
 71
     3
 72
     8
 73
     4
 74
     0
 42
0.0000000001
 43
0.0000000001
 40
0.0
 40
0.0
 40
0.0
 40
0.0
 40
1.0
 40
1.0
 40
1.0
 40
1.0
 10
580.8000351195569
 20
-197.6490898485912
 30
0.0
 10
580.8000351195569
 20
-194.3354247561037
 30
0.0
 10
578.1138941697077
 20
-191.6491115514801
 30
0.0
 10
574.8000568224459
 20
-191.6491115514801
 30
0.0
  0
POLYLINE
  5
24D
330
1F
100
AcDbEntity
  8
CALQUE_1
 62
     7
100
AcDb2dPolyline
 66
     1
 10
0.0
 20
0.0
 30
0.0
  0
VERTEX
  5
24E
330
24D
100
AcDbEntity
  8
CALQUE_1
 62
     7
100
AcDbVertex
100
AcDb2dVertex
 10
574.8000568224459
 20
-191.6491115514801
 30
0.0
  0
VERTEX
  5
24F
330
24D
100
AcDbEntity
  8
CALQUE_1
 62
     7
100
AcDbVertex
100
AcDb2dVertex
 10
560.7998777894876
 20
-191.6491115514801
 30
0.0
  0
SEQEND
  5
250
330
24D
100
AcDbEntity
  8
CALQUE_1
  0
POLYLINE
  5
251
330
1F
100
AcDbEntity
  8
CALQUE_1
 62
     7
100
AcDb2dPolyline
 66
     1
 10
0.0
 20
0.0
 30
0.0
  0
VERTEX
  5
252
330
251
100
AcDbEntity
  8
CALQUE_1
 62
     7
100
AcDbVertex
100
AcDb2dVertex
 10
560.7998777894876
 20
-191.6491115514801
 30
0.0
  0
VERTEX
  5
253
330
251
100
AcDbEntity
  8
CALQUE_1
 62
     7
100
AcDbVertex
100
AcDb2dVertex
 10
560.7998777894876
 20
-166.6490871436676
 30
0.0
  0
SEQEND
  5
254
330
251
100
AcDbEntity
  8
CALQUE_1
  0
POLYLINE
  5
255
330
1F
100
AcDbEntity
  8
CALQUE_1
 62
     7
100
AcDb2dPolyline
 66
     1
 10
0.0
 20
0.0
 30
0.0
  0
VERTEX
  5
256
330
255
100
AcDbEntity
  8
CALQUE_1
 62
     7
100
AcDbVertex
100
AcDb2dVertex
 10
560.7998777894876
 20
-166.6490871436676
 30
0.0
  0
VERTEX
  5
257
330
255
100
AcDbEntity
  8
CALQUE_1
 62
     7
100
AcDbVertex
100
AcDb2dVertex
 10
42.7999715062271
 20
-166.6490871436676
 30
0.0
  0
SEQEND
  5
258
330
255
100
AcDbEntity
  8
CALQUE_1
  0
POLYLINE
  5
259
330
1F
100
AcDbEntity
  8
CALQUE_1
 62
     7
100
AcDb2dPolyline
 66
     1
 10
0.0
 20
0.0
 30
0.0
  0
VERTEX
  5
25A
330
259
100
AcDbEntity
  8
CALQUE_1
 62
     7
100
AcDbVertex
100
AcDb2dVertex
 10
42.7999715062271
 20
-166.6490871436676
 30
0.0
  0
VERTEX
  5
25B
330
259
100
AcDbEntity
  8
CALQUE_1
 62
     7
100
AcDbVertex
100
AcDb2dVertex
 10
42.7999715062271
 20
-191.6491115514801
 30
0.0
  0
SEQEND
  5
25C
330
259
100
AcDbEntity
  8
CALQUE_1
  0
POLYLINE
  5
25D
330
1F
100
AcDbEntity
  8
CALQUE_1
 62
     7
100
AcDb2dPolyline
 66
     1
 10
0.0
 20
0.0
 30
0.0
  0
VERTEX
  5
25E
330
25D
100
AcDbEntity
  8
CALQUE_1
 62
     7
100
AcDbVertex
100
AcDb2dVertex
 10
42.7999715062271
 20
-191.6491115514801
 30
0.0
  0
VERTEX
  5
25F
330
25D
100
AcDbEntity
  8
CALQUE_1
 62
     7
100
AcDbVertex
100
AcDb2dVertex
 10
28.79996472804307
 20
-191.6491115514801
 30
0.0
  0
SEQEND
  5
260
330
25D
100
AcDbEntity
  8
CALQUE_1
  0
SPLINE
  5
261
330
1F
100
AcDbEntity
  8
CALQUE_1
 62
     7
100
AcDbSpline
210
0.0
220
0.0
230
1.0
 70
     8
 71
     3
 72
     8
 73
     4
 74
     0
 42
0.0000000001
 43
0.0000000001
 40
0.0
 40
0.0
 40
0.0
 40
0.0
 40
1.0
 40
1.0
 40
1.0
 40
1.0
 10
28.79996472804307
 20
-191.6491115514801
 30
0.0
 10
25.48629963555551
 20
-191.6491115514801
 30
0.0
 10
22.79998643093195
 20
-194.3354247561037
 30
0.0
 10
22.79998643093195
 20
-197.6490898485912
 30
0.0
  0
POLYLINE
  5
262
330
1F
100
AcDbEntity
  8
CALQUE_1
 62
     7
100
AcDb2dPolyline
 66
     1
 10
0.0
 20
0.0
 30
0.0
  0
VERTEX
  5
263
330
262
100
AcDbEntity
  8
CALQUE_1
 62
     7
100
AcDbVertex
100
AcDb2dVertex
 10
22.79998643093195
 20
-197.6490898485912
 30
0.0
  0
VERTEX
  5
264
330
262
100
AcDbEntity
  8
CALQUE_1
 62
     7
100
AcDbVertex
100
AcDb2dVertex
 10
22.79998643093195
 20
-235.649182069994
 30
0.0
  0
SEQEND
  5
265
330
262
100
AcDbEntity
  8
CALQUE_1
  0
SPLINE
  5
266
330
1F
100
AcDbEntity
  8
CALQUE_1
 62
     7
100
AcDbSpline
210
0.0
220
0.0
230
1.0
 70
     8
 71
     3
 72
     8
 73
     4
 74
     0
 42
0.0000000001
 43
0.0000000001
 40
0.0
 40
0.0
 40
0.0
 40
0.0
 40
1.0
 40
1.0
 40
1.0
 40
1.0
 10
22.79998643093195
 20
-235.649182069994
 30
0.0
 10
22.79998643093195
 20
-238.9628471624815
 30
0.0
 10
25.48629963555551
 20
-241.6491603671051
 30
0.0
 10
28.79996472804307
 20
-241.6491603671051
 30
0.0
  0
POLYLINE
  5
267
330
1F
100
AcDbEntity
  8
CALQUE_1
 62
     7
100
AcDb2dPolyline
 66
     1
 10
0.0
 20
0.0
 30
0.0
  0
VERTEX
  5
268
330
267
100
AcDbEntity
  8
CALQUE_1
 62
     7
100
AcDbVertex
100
AcDb2dVertex
 10
28.79996472804307
 20
-241.6491603671051
 30
0.0
  0
VERTEX
  5
269
330
267
100
AcDbEntity
  8
CALQUE_1
 62
     7
100
AcDbVertex
100
AcDb2dVertex
 10
42.7999715062271
 20
-241.6491603671051
 30
0.0
  0
SEQEND
  5
26A
330
267
100
AcDbEntity
  8
CALQUE_1
  0
POLYLINE
  5
26B
330
1F
100
AcDbEntity
  8
CALQUE_1
 62
     7
100
AcDb2dPolyline
 66
     1
 10
0.0
 20
0.0
 30
0.0
  0
VERTEX
  5
26C
330
26B
100
AcDbEntity
  8
CALQUE_1
 62
     7
100
AcDbVertex
100
AcDb2dVertex
 10
42.7999715062271
 20
-241.6491603671051
 30
0.0
  0
VERTEX
  5
26D
330
26B
100
AcDbEntity
  8
CALQUE_1
 62
     7
100
AcDbVertex
100
AcDb2dVertex
 10
42.7999715062271
 20
-321.6492729230599
 30
0.0
  0
SEQEND
  5
26E
330
26B
100
AcDbEntity
  8
CALQUE_1
  0
POLYLINE
  5
26F
330
1F
100
AcDbEntity
  8
CALQUE_1
 62
     7
100
AcDb2dPolyline
 66
     1
 10
0.0
 20
0.0
 30
0.0
  0
VERTEX
  5
270
330
26F
100
AcDbEntity
  8
CALQUE_1
 62
     7
100
AcDbVertex
100
AcDb2dVertex
 10
42.7999715062271
 20
-321.6492729230599
 30
0.0
  0
VERTEX
  5
271
330
26F
100
AcDbEntity
  8
CALQUE_1
 62
     7
100
AcDbVertex
100
AcDb2dVertex
 10
28.79996472804307
 20
-321.6492729230599
 30
0.0
  0
SEQEND
  5
272
330
26F
100
AcDbEntity
  8
CALQUE_1
  0
SPLINE
  5
273
330
1F
100
AcDbEntity
  8
CALQUE_1
 62
     7
100
AcDbSpline
210
0.0
220
0.0
230
1.0
 70
     8
 71
     3
 72
     8
 73
     4
 74
     0
 42
0.0000000001
 43
0.0000000001
 40
0.0
 40
0.0
 40
0.0
 40
0.0
 40
1.0
 40
1.0
 40
1.0
 40
1.0
 10
28.79996472804307
 20
-321.6492729230599
 30
0.0
 10
25.48629963555551
 20
-321.6492729230599
 30
0.0
 10
22.79998643093195
 20
-324.3350693633607
 30
0.0
 10
22.79998643093195
 20
-327.649251220171
 30
0.0
  0
POLYLINE
  5
274
330
1F
100
AcDbEntity
  8
CALQUE_1
 62
     7
100
AcDb2dPolyline
 66
     1
 10
0.0
 20
0.0
 30
0.0
  0
VERTEX
  5
275
330
274
100
AcDbEntity
  8
CALQUE_1
 62
     7
100
AcDbVertex
100
AcDb2dVertex
 10
22.79998643093195
 20
-327.649251220171
 30
0.0
  0
VERTEX
  5
276
330
274
100
AcDbEntity
  8
CALQUE_1
 62
     7
100
AcDbVertex
100
AcDb2dVertex
 10
22.79998643093195
 20
-365.6493434415738
 30
0.0
  0
SEQEND
  5
277
330
274
100
AcDbEntity
  8
CALQUE_1
  0
SPLINE
  5
278
330
1F
100
AcDbEntity
  8
CALQUE_1
 62
     7
100
AcDbSpline
210
0.0
220
0.0
230
1.0
 70
     8
 71
     3
 72
     8
 73
     4
 74
     0
 42
0.0000000001
 43
0.0000000001
 40
0.0
 40
0.0
 40
0.0
 40
0.0
 40
1.0
 40
1.0
 40
1.0
 40
1.0
 10
22.79998643093195
 20
-365.6493434415738
 30
0.0
 10
22.79998643093195
 20
-368.9628362792871
 30
0.0
 10
25.48629963555551
 20
-371.6493217386849
 30
0.0
 10
28.79996472804307
 20
-371.6493217386849
 30
0.0
  0
POLYLINE
  5
279
330
1F
100
AcDbEntity
  8
CALQUE_1
 62
     7
100
AcDb2dPolyline
 66
     1
 10
0.0
 20
0.0
 30
0.0
  0
VERTEX
  5
27A
330
279
100
AcDbEntity
  8
CALQUE_1
 62
     7
100
AcDbVertex
100
AcDb2dVertex
 10
28.79996472804307
 20
-371.6493217386849
 30
0.0
  0
VERTEX
  5
27B
330
279
100
AcDbEntity
  8
CALQUE_1
 62
     7
100
AcDbVertex
100
AcDb2dVertex
 10
42.7999715062271
 20
-371.6493217386849
 30
0.0
  0
SEQEND
  5
27C
330
279
100
AcDbEntity
  8
CALQUE_1
  0
POLYLINE
  5
27D
330
1F
100
AcDbEntity
  8
CALQUE_1
 62
     7
100
AcDb2dPolyline
 66
     1
 10
0.0
 20
0.0
 30
0.0
  0
VERTEX
  5
27E
330
27D
100
AcDbEntity
  8
CALQUE_1
 62
     7
100
AcDbVertex
100
AcDb2dVertex
 10
42.7999715062271
 20
-371.6493217386849
 30
0.0
  0
VERTEX
  5
27F
330
27D
100
AcDbEntity
  8
CALQUE_1
 62
     7
100
AcDbVertex
100
AcDb2dVertex
 10
42.7999715062271
 20
-396.6490016369489
 30
0.0
  0
SEQEND
  5
280
330
27D
100
AcDbEntity
  8
CALQUE_1
  0
POLYLINE
  5
281
330
1F
100
AcDbEntity
  8
CALQUE_1
 62
     7
100
AcDb2dPolyline
 66
     1
 10
0.0
 20
0.0
 30
0.0
  0
VERTEX
  5
282
330
281
100
AcDbEntity
  8
CALQUE_1
 62
     7
100
AcDbVertex
100
AcDb2dVertex
 10
42.7999715062271
 20
-396.6490016369489
 30
0.0
  0
VERTEX
  5
283
330
281
100
AcDbEntity
  8
CALQUE_1
 62
     7
100
AcDbVertex
100
AcDb2dVertex
 10
560.7998777894876
 20
-396.6490016369489
 30
0.0
  0
SEQEND
  5
284
330
281
100
AcDbEntity
  8
CALQUE_1
  0
POLYLINE
  5
285
330
1F
100
AcDbEntity
  8
CALQUE_1
 62
     7
100
AcDb2dPolyline
 66
     1
 10
0.0
 20
0.0
 30
0.0
  0
VERTEX
  5
286
330
285
100
AcDbEntity
  8
CALQUE_1
 62
     7
100
AcDbVertex
100
AcDb2dVertex
 10
560.7998777894876
 20
-396.6490016369489
 30
0.0
  0
VERTEX
  5
287
330
285
100
AcDbEntity
  8
CALQUE_1
 62
     7
100
AcDbVertex
100
AcDb2dVertex
 10
560.7998777894876
 20
-371.6493217386849
 30
0.0
  0
SEQEND
  5
288
330
285
100
AcDbEntity
  8
CALQUE_1
  0
POLYLINE
  5
289
330
1F
100
AcDbEntity
  8
CALQUE_1
 62
     7
100
AcDb2dPolyline
 66
     1
 10
0.0
 20
0.0
 30
0.0
  0
VERTEX
  5
28A
330
289
100
AcDbEntity
  8
CALQUE_1
 62
     7
100
AcDbVertex
100
AcDb2dVertex
 10
560.7998777894876
 20
-371.6493217386849
 30
0.0
  0
VERTEX
  5
28B
330
289
100
AcDbEntity
  8
CALQUE_1
 62
     7
100
AcDbVertex
100
AcDb2dVertex
 10
574.8000568224459
 20
-371.6493217386849
 30
0.0
  0
SEQEND
  5
28C
330
289
100
AcDbEntity
  8
CALQUE_1
  0
SPLINE
  5
28D
330
1F
100
AcDbEntity
  8
CALQUE_1
 62
     7
100
AcDbSpline
210
0.0
220
0.0
230
1.0
 70
     8
 71
     3
 72
     8
 73
     4
 74
     0
 42
0.0000000001
 43
0.0000000001
 40
0.0
 40
0.0
 40
0.0
 40
0.0
 40
1.0
 40
1.0
 40
1.0
 40
1.0
 10
574.8000568224459
 20
-371.6493217386849
 30
0.0
 10
578.1138941697077
 20
-371.6493217386849
 30
0.0
 10
580.8000351195569
 20
-368.9628362792871
 30
0.0
 10
580.8000351195569
 20
-365.6493434415738
 30
0.0
  0
POLYLINE
  5
28E
330
1F
100
AcDbEntity
  8
CALQUE_1
 62
     7
100
AcDb2dPolyline
 66
     1
 10
0.0
 20
0.0
 30
0.0
  0
VERTEX
  5
28F
330
28E
100
AcDbEntity
  8
CALQUE_1
 62
     7
100
AcDbVertex
100
AcDb2dVertex
 10
580.8000351195569
 20
-365.6493434415738
 30
0.0
  0
VERTEX
  5
290
330
28E
100
AcDbEntity
  8
CALQUE_1
 62
     7
100
AcDbVertex
100
AcDb2dVertex
 10
580.8000351195569
 20
-327.649251220171
 30
0.0
  0
SEQEND
  5
291
330
28E
100
AcDbEntity
  8
CALQUE_1
  0
SPLINE
  5
292
330
1F
100
AcDbEntity
  8
CALQUE_1
 62
     7
100
AcDbSpline
210
0.0
220
0.0
230
1.0
 70
     8
 71
     3
 72
     8
 73
     4
 74
     0
 42
0.0000000001
 43
0.0000000001
 40
0.0
 40
0.0
 40
0.0
 40
0.0
 40
1.0
 40
1.0
 40
1.0
 40
1.0
 10
580.8000351195569
 20
-327.649251220171
 30
0.0
 10
580.8000351195569
 20
-324.3350693633607
 30
0.0
 10
578.1138941697077
 20
-321.6492729230599
 30
0.0
 10
574.8000568224459
 20
-321.6492729230599
 30
0.0
  0
POLYLINE
  5
293
330
1F
100
AcDbEntity
  8
CALQUE_1
 62
     7
100
AcDb2dPolyline
 66
     1
 10
0.0
 20
0.0
 30
0.0
  0
VERTEX
  5
294
330
293
100
AcDbEntity
  8
CALQUE_1
 62
     7
100
AcDbVertex
100
AcDb2dVertex
 10
574.8000568224459
 20
-321.6492729230599
 30
0.0
  0
VERTEX
  5
295
330
293
100
AcDbEntity
  8
CALQUE_1
 62
     7
100
AcDbVertex
100
AcDb2dVertex
 10
560.7998777894876
 20
-321.6492729230599
 30
0.0
  0
SEQEND
  5
296
330
293
100
AcDbEntity
  8
CALQUE_1
  0
POLYLINE
  5
297
330
1F
100
AcDbEntity
  8
CALQUE_1
 62
     7
100
AcDb2dPolyline
 66
     1
 10
0.0
 20
0.0
 30
0.0
  0
VERTEX
  5
298
330
297
100
AcDbEntity
  8
CALQUE_1
 62
     7
100
AcDbVertex
100
AcDb2dVertex
 10
560.7998777894876
 20
-321.6492729230599
 30
0.0
  0
VERTEX
  5
299
330
297
100
AcDbEntity
  8
CALQUE_1
 62
     7
100
AcDbVertex
100
AcDb2dVertex
 10
560.7998777894876
 20
-241.6491603671051
 30
0.0
  0
SEQEND
  5
29A
330
297
100
AcDbEntity
  8
CALQUE_1
  0
POLYLINE
  5
29B
330
1F
100
AcDbEntity
  8
CALQUE_1
 62
     7
100
AcDb2dPolyline
 66
     1
 10
0.0
 20
0.0
 30
0.0
  0
VERTEX
  5
29C
330
29B
100
AcDbEntity
  8
CALQUE_1
 62
     7
100
AcDbVertex
100
AcDb2dVertex
 10
560.7998777894876
 20
-241.6491603671051
 30
0.0
  0
VERTEX
  5
29D
330
29B
100
AcDbEntity
  8
CALQUE_1
 62
     7
100
AcDbVertex
100
AcDb2dVertex
 10
574.8000568224459
 20
-241.6491603671051
 30
0.0
  0
SEQEND
  5
29E
330
29B
100
AcDbEntity
  8
CALQUE_1
  0
SPLINE
  5
29F
330
1F
100
AcDbEntity
  8
CALQUE_1
 62
     7
100
AcDbSpline
210
0.0
220
0.0
230
1.0
 70
     8
 71
     3
 72
     8
 73
     4
 74
     0
 42
0.0000000001
 43
0.0000000001
 40
0.0
 40
0.0
 40
0.0
 40
0.0
 40
1.0
 40
1.0
 40
1.0
 40
1.0
 10
574.8000568224459
 20
-241.6491603671051
 30
0.0
 10
578.1138941697077
 20
-241.6491603671051
 30
0.0
 10
580.8000351195569
 20
-238.9628471624815
 30
0.0
 10
580.8000351195569
 20
-235.649182069994
 30
0.0
  0
POLYLINE
  5
2A0
330
1F
100
AcDbEntity
  8
CALQUE_1
 62
     7
100
AcDb2dPolyline
 66
     1
 10
0.0
 20
0.0
 30
0.0
  0
VERTEX
  5
2A1
330
2A0
100
AcDbEntity
  8
CALQUE_1
 62
     7
100
AcDbVertex
100
AcDb2dVertex
 10
566.8002005961472
 20
-354.1489256927128
 30
0.0
  0
VERTEX
  5
2A2
330
2A0
100
AcDbEntity
  8
CALQUE_1
 62
     7
100
AcDbVertex
100
AcDb2dVertex
 10
572.8001788932584
 20
-354.1489256927128
 30
0.0
  0
SEQEND
  5
2A3
330
2A0
100
AcDbEntity
  8
CALQUE_1
  0
POLYLINE
  5
2A4
330
1F
100
AcDbEntity
  8
CALQUE_1
 62
     7
100
AcDb2dPolyline
 66
     1
 10
0.0
 20
0.0
 30
0.0
  0
VERTEX
  5
2A5
330
2A4
100
AcDbEntity
  8
CALQUE_1
 62
     7
100
AcDbVertex
100
AcDb2dVertex
 10
566.8002005961472
 20
-339.148979949935
 30
0.0
  0
VERTEX
  5
2A6
330
2A4
100
AcDbEntity
  8
CALQUE_1
 62
     7
100
AcDbVertex
100
AcDb2dVertex
 10
566.8002005961472
 20
-354.1489256927128
 30
0.0
  0
SEQEND
  5
2A7
330
2A4
100
AcDbEntity
  8
CALQUE_1
  0
POLYLINE
  5
2A8
330
1F
100
AcDbEntity
  8
CALQUE_1
 62
     7
100
AcDb2dPolyline
 66
     1
 10
0.0
 20
0.0
 30
0.0
  0
VERTEX
  5
2A9
330
2A8
100
AcDbEntity
  8
CALQUE_1
 62
     7
100
AcDbVertex
100
AcDb2dVertex
 10
572.8001788932584
 20
-339.148979949935
 30
0.0
  0
VERTEX
  5
2AA
330
2A8
100
AcDbEntity
  8
CALQUE_1
 62
     7
100
AcDbVertex
100
AcDb2dVertex
 10
566.8002005961472
 20
-339.148979949935
 30
0.0
  0
SEQEND
  5
2AB
330
2A8
100
AcDbEntity
  8
CALQUE_1
  0
POLYLINE
  5
2AC
330
1F
100
AcDbEntity
  8
CALQUE_1
 62
     7
100
AcDb2dPolyline
 66
     1
 10
0.0
 20
0.0
 30
0.0
  0
VERTEX
  5
2AD
330
2AC
100
AcDbEntity
  8
CALQUE_1
 62
     7
100
AcDbVertex
100
AcDb2dVertex
 10
572.8001788932584
 20
-354.1489256927128
 30
0.0
  0
VERTEX
  5
2AE
330
2AC
100
AcDbEntity
  8
CALQUE_1
 62
     7
100
AcDbVertex
100
AcDb2dVertex
 10
572.8001788932584
 20
-339.148979949935
 30
0.0
  0
SEQEND
  5
2AF
330
2AC
100
AcDbEntity
  8
CALQUE_1
  0
POLYLINE
  5
2B0
330
1F
100
AcDbEntity
  8
CALQUE_1
 62
     7
100
AcDb2dPolyline
 66
     1
 10
0.0
 20
0.0
 30
0.0
  0
VERTEX
  5
2B1
330
2B0
100
AcDbEntity
  8
CALQUE_1
 62
     7
100
AcDbVertex
100
AcDb2dVertex
 10
566.8002005961472
 20
-224.1491088306815
 30
0.0
  0
VERTEX
  5
2B2
330
2B0
100
AcDbEntity
  8
CALQUE_1
 62
     7
100
AcDbVertex
100
AcDb2dVertex
 10
572.8001788932584
 20
-224.1491088306815
 30
0.0
  0
SEQEND
  5
2B3
330
2B0
100
AcDbEntity
  8
CALQUE_1
  0
POLYLINE
  5
2B4
330
1F
100
AcDbEntity
  8
CALQUE_1
 62
     7
100
AcDb2dPolyline
 66
     1
 10
0.0
 20
0.0
 30
0.0
  0
VERTEX
  5
2B5
330
2B4
100
AcDbEntity
  8
CALQUE_1
 62
     7
100
AcDbVertex
100
AcDb2dVertex
 10
566.8002005961472
 20
-209.1491630879037
 30
0.0
  0
VERTEX
  5
2B6
330
2B4
100
AcDbEntity
  8
CALQUE_1
 62
     7
100
AcDbVertex
100
AcDb2dVertex
 10
566.8002005961472
 20
-224.1491088306815
 30
0.0
  0
SEQEND
  5
2B7
330
2B4
100
AcDbEntity
  8
CALQUE_1
  0
POLYLINE
  5
2B8
330
1F
100
AcDbEntity
  8
CALQUE_1
 62
     7
100
AcDb2dPolyline
 66
     1
 10
0.0
 20
0.0
 30
0.0
  0
VERTEX
  5
2B9
330
2B8
100
AcDbEntity
  8
CALQUE_1
 62
     7
100
AcDbVertex
100
AcDb2dVertex
 10
572.8001788932584
 20
-209.1491630879037
 30
0.0
  0
VERTEX
  5
2BA
330
2B8
100
AcDbEntity
  8
CALQUE_1
 62
     7
100
AcDbVertex
100
AcDb2dVertex
 10
566.8002005961472
 20
-209.1491630879037
 30
0.0
  0
SEQEND
  5
2BB
330
2B8
100
AcDbEntity
  8
CALQUE_1
  0
POLYLINE
  5
2BC
330
1F
100
AcDbEntity
  8
CALQUE_1
 62
     7
100
AcDb2dPolyline
 66
     1
 10
0.0
 20
0.0
 30
0.0
  0
VERTEX
  5
2BD
330
2BC
100
AcDbEntity
  8
CALQUE_1
 62
     7
100
AcDbVertex
100
AcDb2dVertex
 10
572.8001788932584
 20
-224.1491088306815
 30
0.0
  0
VERTEX
  5
2BE
330
2BC
100
AcDbEntity
  8
CALQUE_1
 62
     7
100
AcDbVertex
100
AcDb2dVertex
 10
572.8001788932584
 20
-209.1491630879037
 30
0.0
  0
SEQEND
  5
2BF
330
2BC
100
AcDbEntity
  8
CALQUE_1
  0
POLYLINE
  5
2C0
330
1F
100
AcDbEntity
  8
CALQUE_1
 62
     7
100
AcDb2dPolyline
 66
     1
 10
0.0
 20
0.0
 30
0.0
  0
VERTEX
  5
2C1
330
2C0
100
AcDbEntity
  8
CALQUE_1
 62
     7
100
AcDbVertex
100
AcDb2dVertex
 10
576.7999347516334
 20
-160.9255777592478
 30
0.0
  0
VERTEX
  5
2C2
330
2C0
100
AcDbEntity
  8
CALQUE_1
 62
     7
100
AcDbVertex
100
AcDb2dVertex
 10
576.7999347516334
 20
-69.92544757366447
 30
0.0
  0
SEQEND
  5
2C3
330
2C0
100
AcDbEntity
  8
CALQUE_1
  0
POLYLINE
  5
2C4
330
1F
100
AcDbEntity
  8
CALQUE_1
 62
     7
100
AcDb2dPolyline
 66
     1
 10
0.0
 20
0.0
 30
0.0
  0
VERTEX
  5
2C5
330
2C4
100
AcDbEntity
  8
CALQUE_1
 62
     7
100
AcDbVertex
100
AcDb2dVertex
 10
576.7999347516334
 20
-69.92544757366447
 30
0.0
  0
VERTEX
  5
2C6
330
2C4
100
AcDbEntity
  8
CALQUE_1
 62
     7
100
AcDbVertex
100
AcDb2dVertex
 10
566.8002005961472
 20
-69.92544757366447
 30
0.0
  0
SEQEND
  5
2C7
330
2C4
100
AcDbEntity
  8
CALQUE_1
  0
POLYLINE
  5
2C8
330
1F
100
AcDbEntity
  8
CALQUE_1
 62
     7
100
AcDb2dPolyline
 66
     1
 10
0.0
 20
0.0
 30
0.0
  0
VERTEX
  5
2C9
330
2C8
100
AcDbEntity
  8
CALQUE_1
 62
     7
100
AcDbVertex
100
AcDb2dVertex
 10
566.8002005961472
 20
-69.92544757366447
 30
0.0
  0
VERTEX
  5
2CA
330
2C8
100
AcDbEntity
  8
CALQUE_1
 62
     7
100
AcDbVertex
100
AcDb2dVertex
 10
566.8002005961472
 20
-100.4255669236783
 30
0.0
  0
SEQEND
  5
2CB
330
2C8
100
AcDbEntity
  8
CALQUE_1
  0
POLYLINE
  5
2CC
330
1F
100
AcDbEntity
  8
CALQUE_1
 62
     7
100
AcDb2dPolyline
 66
     1
 10
0.0
 20
0.0
 30
0.0
  0
VERTEX
  5
2CD
330
2CC
100
AcDbEntity
  8
CALQUE_1
 62
     7
100
AcDbVertex
100
AcDb2dVertex
 10
566.8002005961472
 20
-100.4255669236783
 30
0.0
  0
VERTEX
  5
2CE
330
2CC
100
AcDbEntity
  8
CALQUE_1
 62
     7
100
AcDbVertex
100
AcDb2dVertex
 10
560.8002222990361
 20
-100.4255669236783
 30
0.0
  0
SEQEND
  5
2CF
330
2CC
100
AcDbEntity
  8
CALQUE_1
  0
POLYLINE
  5
2D0
330
1F
100
AcDbEntity
  8
CALQUE_1
 62
     7
100
AcDb2dPolyline
 66
     1
 10
0.0
 20
0.0
 30
0.0
  0
VERTEX
  5
2D1
330
2D0
100
AcDbEntity
  8
CALQUE_1
 62
     7
100
AcDbVertex
100
AcDb2dVertex
 10
560.8002222990361
 20
-100.4255669236783
 30
0.0
  0
VERTEX
  5
2D2
330
2D0
100
AcDbEntity
  8
CALQUE_1
 62
     7
100
AcDbVertex
100
AcDb2dVertex
 10
560.8002222990361
 20
-69.92544757366447
 30
0.0
  0
SEQEND
  5
2D3
330
2D0
100
AcDbEntity
  8
CALQUE_1
  0
POLYLINE
  5
2D4
330
1F
100
AcDbEntity
  8
CALQUE_1
 62
     7
100
AcDb2dPolyline
 66
     1
 10
0.0
 20
0.0
 30
0.0
  0
VERTEX
  5
2D5
330
2D4
100
AcDbEntity
  8
CALQUE_1
 62
     7
100
AcDbVertex
100
AcDb2dVertex
 10
560.8002222990361
 20
-69.92544757366447
 30
0.0
  0
VERTEX
  5
2D6
330
2D4
100
AcDbEntity
  8
CALQUE_1
 62
     7
100
AcDbVertex
100
AcDb2dVertex
 10
42.80014376100136
 20
-69.92544757366447
 30
0.0
  0
SEQEND
  5
2D7
330
2D4
100
AcDbEntity
  8
CALQUE_1
  0
POLYLINE
  5
2D8
330
1F
100
AcDbEntity
  8
CALQUE_1
 62
     7
100
AcDb2dPolyline
 66
     1
 10
0.0
 20
0.0
 30
0.0
  0
VERTEX
  5
2D9
330
2D8
100
AcDbEntity
  8
CALQUE_1
 62
     7
100
AcDbVertex
100
AcDb2dVertex
 10
42.80014376100136
 20
-69.92544757366447
 30
0.0
  0
VERTEX
  5
2DA
330
2D8
100
AcDbEntity
  8
CALQUE_1
 62
     7
100
AcDbVertex
100
AcDb2dVertex
 10
42.80014376100136
 20
-100.4255669236783
 30
0.0
  0
SEQEND
  5
2DB
330
2D8
100
AcDbEntity
  8
CALQUE_1
  0
POLYLINE
  5
2DC
330
1F
100
AcDbEntity
  8
CALQUE_1
 62
     7
100
AcDb2dPolyline
 66
     1
 10
0.0
 20
0.0
 30
0.0
  0
VERTEX
  5
2DD
330
2DC
100
AcDbEntity
  8
CALQUE_1
 62
     7
100
AcDbVertex
100
AcDb2dVertex
 10
42.80014376100136
 20
-100.4255669236783
 30
0.0
  0
VERTEX
  5
2DE
330
2DC
100
AcDbEntity
  8
CALQUE_1
 62
     7
100
AcDbVertex
100
AcDb2dVertex
 10
36.79982095434171
 20
-100.4255669236783
 30
0.0
  0
SEQEND
  5
2DF
330
2DC
100
AcDbEntity
  8
CALQUE_1
  0
POLYLINE
  5
2E0
330
1F
100
AcDbEntity
  8
CALQUE_1
 62
     7
100
AcDb2dPolyline
 66
     1
 10
0.0
 20
0.0
 30
0.0
  0
VERTEX
  5
2E1
330
2E0
100
AcDbEntity
  8
CALQUE_1
 62
     7
100
AcDbVertex
100
AcDb2dVertex
 10
36.79982095434171
 20
-100.4255669236783
 30
0.0
  0
VERTEX
  5
2E2
330
2E0
100
AcDbEntity
  8
CALQUE_1
 62
     7
100
AcDbVertex
100
AcDb2dVertex
 10
36.79982095434171
 20
-69.92544757366447
 30
0.0
  0
SEQEND
  5
2E3
330
2E0
100
AcDbEntity
  8
CALQUE_1
  0
POLYLINE
  5
2E4
330
1F
100
AcDbEntity
  8
CALQUE_1
 62
     7
100
AcDb2dPolyline
 66
     1
 10
0.0
 20
0.0
 30
0.0
  0
VERTEX
  5
2E5
330
2E4
100
AcDbEntity
  8
CALQUE_1
 62
     7
100
AcDbVertex
100
AcDb2dVertex
 10
36.79982095434171
 20
-69.92544757366447
 30
0.0
  0
VERTEX
  5
2E6
330
2E4
100
AcDbEntity
  8
CALQUE_1
 62
     7
100
AcDbVertex
100
AcDb2dVertex
 10
26.80008679885553
 20
-69.92544757366447
 30
0.0
  0
SEQEND
  5
2E7
330
2E4
100
AcDbEntity
  8
CALQUE_1
  0
POLYLINE
  5
2E8
330
1F
100
AcDbEntity
  8
CALQUE_1
 62
     7
100
AcDb2dPolyline
 66
     1
 10
0.0
 20
0.0
 30
0.0
  0
VERTEX
  5
2E9
330
2E8
100
AcDbEntity
  8
CALQUE_1
 62
     7
100
AcDbVertex
100
AcDb2dVertex
 10
26.80008679885553
 20
-69.92544757366447
 30
0.0
  0
VERTEX
  5
2EA
330
2E8
100
AcDbEntity
  8
CALQUE_1
 62
     7
100
AcDbVertex
100
AcDb2dVertex
 10
26.80008679885553
 20
-160.9255777592478
 30
0.0
  0
SEQEND
  5
2EB
330
2E8
100
AcDbEntity
  8
CALQUE_1
  0
POLYLINE
  5
2EC
330
1F
100
AcDbEntity
  8
CALQUE_1
 62
     7
100
AcDb2dPolyline
 66
     1
 10
0.0
 20
0.0
 30
0.0
  0
VERTEX
  5
2ED
330
2EC
100
AcDbEntity
  8
CALQUE_1
 62
     7
100
AcDbVertex
100
AcDb2dVertex
 10
26.80008679885553
 20
-160.9255777592478
 30
0.0
  0
VERTEX
  5
2EE
330
2EC
100
AcDbEntity
  8
CALQUE_1
 62
     7
100
AcDbVertex
100
AcDb2dVertex
 10
36.79982095434171
 20
-160.9255777592478
 30
0.0
  0
SEQEND
  5
2EF
330
2EC
100
AcDbEntity
  8
CALQUE_1
  0
POLYLINE
  5
2F0
330
1F
100
AcDbEntity
  8
CALQUE_1
 62
     7
100
AcDb2dPolyline
 66
     1
 10
0.0
 20
0.0
 30
0.0
  0
VERTEX
  5
2F1
330
2F0
100
AcDbEntity
  8
CALQUE_1
 62
     7
100
AcDbVertex
100
AcDb2dVertex
 10
36.79982095434171
 20
-160.9255777592478
 30
0.0
  0
VERTEX
  5
2F2
330
2F0
100
AcDbEntity
  8
CALQUE_1
 62
     7
100
AcDbVertex
100
AcDb2dVertex
 10
36.79982095434171
 20
-130.4254584092339
 30
0.0
  0
SEQEND
  5
2F3
330
2F0
100
AcDbEntity
  8
CALQUE_1
  0
POLYLINE
  5
2F4
330
1F
100
AcDbEntity
  8
CALQUE_1
 62
     7
100
AcDb2dPolyline
 66
     1
 10
0.0
 20
0.0
 30
0.0
  0
VERTEX
  5
2F5
330
2F4
100
AcDbEntity
  8
CALQUE_1
 62
     7
100
AcDbVertex
100
AcDb2dVertex
 10
36.79982095434171
 20
-130.4254584092339
 30
0.0
  0
VERTEX
  5
2F6
330
2F4
100
AcDbEntity
  8
CALQUE_1
 62
     7
100
AcDbVertex
100
AcDb2dVertex
 10
42.80014376100136
 20
-130.4254584092339
 30
0.0
  0
SEQEND
  5
2F7
330
2F4
100
AcDbEntity
  8
CALQUE_1
  0
POLYLINE
  5
2F8
330
1F
100
AcDbEntity
  8
CALQUE_1
 62
     7
100
AcDb2dPolyline
 66
     1
 10
0.0
 20
0.0
 30
0.0
  0
VERTEX
  5
2F9
330
2F8
100
AcDbEntity
  8
CALQUE_1
 62
     7
100
AcDbVertex
100
AcDb2dVertex
 10
42.80014376100136
 20
-130.4254584092339
 30
0.0
  0
VERTEX
  5
2FA
330
2F8
100
AcDbEntity
  8
CALQUE_1
 62
     7
100
AcDbVertex
100
AcDb2dVertex
 10
42.80014376100136
 20
-160.9255777592478
 30
0.0
  0
SEQEND
  5
2FB
330
2F8
100
AcDbEntity
  8
CALQUE_1
  0
POLYLINE
  5
2FC
330
1F
100
AcDbEntity
  8
CALQUE_1
 62
     7
100
AcDb2dPolyline
 66
     1
 10
0.0
 20
0.0
 30
0.0
  0
VERTEX
  5
2FD
330
2FC
100
AcDbEntity
  8
CALQUE_1
 62
     7
100
AcDbVertex
100
AcDb2dVertex
 10
42.80014376100136
 20
-160.9255777592478
 30
0.0
  0
VERTEX
  5
2FE
330
2FC
100
AcDbEntity
  8
CALQUE_1
 62
     7
100
AcDbVertex
100
AcDb2dVertex
 10
560.8002222990361
 20
-160.9255777592478
 30
0.0
  0
SEQEND
  5
2FF
330
2FC
100
AcDbEntity
  8
CALQUE_1
  0
POLYLINE
  5
300
330
1F
100
AcDbEntity
  8
CALQUE_1
 62
     7
100
AcDb2dPolyline
 66
     1
 10
0.0
 20
0.0
 30
0.0
  0
VERTEX
  5
301
330
300
100
AcDbEntity
  8
CALQUE_1
 62
     7
100
AcDbVertex
100
AcDb2dVertex
 10
560.8002222990361
 20
-160.9255777592478
 30
0.0
  0
VERTEX
  5
302
330
300
100
AcDbEntity
  8
CALQUE_1
 62
     7
100
AcDbVertex
100
AcDb2dVertex
 10
560.8002222990361
 20
-130.4254584092339
 30
0.0
  0
SEQEND
  5
303
330
300
100
AcDbEntity
  8
CALQUE_1
  0
POLYLINE
  5
304
330
1F
100
AcDbEntity
  8
CALQUE_1
 62
     7
100
AcDb2dPolyline
 66
     1
 10
0.0
 20
0.0
 30
0.0
  0
VERTEX
  5
305
330
304
100
AcDbEntity
  8
CALQUE_1
 62
     7
100
AcDbVertex
100
AcDb2dVertex
 10
560.8002222990361
 20
-130.4254584092339
 30
0.0
  0
VERTEX
  5
306
330
304
100
AcDbEntity
  8
CALQUE_1
 62
     7
100
AcDbVertex
100
AcDb2dVertex
 10
566.8002005961472
 20
-130.4254584092339
 30
0.0
  0
SEQEND
  5
307
330
304
100
AcDbEntity
  8
CALQUE_1
  0
POLYLINE
  5
308
330
1F
100
AcDbEntity
  8
CALQUE_1
 62
     7
100
AcDb2dPolyline
 66
     1
 10
0.0
 20
0.0
 30
0.0
  0
VERTEX
  5
309
330
308
100
AcDbEntity
  8
CALQUE_1
 62
     7
100
AcDbVertex
100
AcDb2dVertex
 10
566.8002005961472
 20
-130.4254584092339
 30
0.0
  0
VERTEX
  5
30A
330
308
100
AcDbEntity
  8
CALQUE_1
 62
     7
100
AcDbVertex
100
AcDb2dVertex
 10
566.8002005961472
 20
-160.9255777592478
 30
0.0
  0
SEQEND
  5
30B
330
308
100
AcDbEntity
  8
CALQUE_1
  0
POLYLINE
  5
30C
330
1F
100
AcDbEntity
  8
CALQUE_1
 62
     7
100
AcDb2dPolyline
 66
     1
 10
0.0
 20
0.0
 30
0.0
  0
VERTEX
  5
30D
330
30C
100
AcDbEntity
  8
CALQUE_1
 62
     7
100
AcDbVertex
100
AcDb2dVertex
 10
566.8002005961472
 20
-160.9255777592478
 30
0.0
  0
VERTEX
  5
30E
330
30C
100
AcDbEntity
  8
CALQUE_1
 62
     7
100
AcDbVertex
100
AcDb2dVertex
 10
576.7999347516334
 20
-160.9255777592478
 30
0.0
  0
SEQEND
  5
30F
330
30C
100
AcDbEntity
  8
CALQUE_1
  0
POLYLINE
  5
310
330
1F
100
AcDbEntity
  8
CALQUE_1
 62
     7
100
AcDb2dPolyline
 66
     1
 10
0.0
 20
0.0
 30
0.0
  0
VERTEX
  5
311
330
310
100
AcDbEntity
  8
CALQUE_1
 62
     7
100
AcDbVertex
100
AcDb2dVertex
 10
566.8002005961472
 20
-29.87793510537774
 30
0.0
  0
VERTEX
  5
312
330
310
100
AcDbEntity
  8
CALQUE_1
 62
     7
100
AcDbVertex
100
AcDb2dVertex
 10
560.8002222990361
 20
-29.87793510537774
 30
0.0
  0
SEQEND
  5
313
330
310
100
AcDbEntity
  8
CALQUE_1
  0
POLYLINE
  5
314
330
1F
100
AcDbEntity
  8
CALQUE_1
 62
     7
100
AcDb2dPolyline
 66
     1
 10
0.0
 20
0.0
 30
0.0
  0
VERTEX
  5
315
330
314
100
AcDbEntity
  8
CALQUE_1
 62
     7
100
AcDbVertex
100
AcDb2dVertex
 10
566.8002005961472
 20
-49.87792018067288
 30
0.0
  0
VERTEX
  5
316
330
314
100
AcDbEntity
  8
CALQUE_1
 62
     7
100
AcDbVertex
100
AcDb2dVertex
 10
566.8002005961472
 20
-29.87793510537774
 30
0.0
  0
SEQEND
  5
317
330
314
100
AcDbEntity
  8
CALQUE_1
  0
POLYLINE
  5
318
330
1F
100
AcDbEntity
  8
CALQUE_1
 62
     7
100
AcDb2dPolyline
 66
     1
 10
0.0
 20
0.0
 30
0.0
  0
VERTEX
  5
319
330
318
100
AcDbEntity
  8
CALQUE_1
 62
     7
100
AcDbVertex
100
AcDb2dVertex
 10
560.8002222990361
 20
-49.87792018067288
 30
0.0
  0
VERTEX
  5
31A
330
318
100
AcDbEntity
  8
CALQUE_1
 62
     7
100
AcDbVertex
100
AcDb2dVertex
 10
566.8002005961472
 20
-49.87792018067288
 30
0.0
  0
SEQEND
  5
31B
330
318
100
AcDbEntity
  8
CALQUE_1
  0
POLYLINE
  5
31C
330
1F
100
AcDbEntity
  8
CALQUE_1
 62
     7
100
AcDb2dPolyline
 66
     1
 10
0.0
 20
0.0
 30
0.0
  0
VERTEX
  5
31D
330
31C
100
AcDbEntity
  8
CALQUE_1
 62
     7
100
AcDbVertex
100
AcDb2dVertex
 10
560.8002222990361
 20
-29.87793510537774
 30
0.0
  0
VERTEX
  5
31E
330
31C
100
AcDbEntity
  8
CALQUE_1
 62
     7
100
AcDbVertex
100
AcDb2dVertex
 10
560.8002222990361
 20
-49.87792018067288
 30
0.0
  0
SEQEND
  5
31F
330
31C
100
AcDbEntity
  8
CALQUE_1
  0
POLYLINE
  5
320
330
1F
100
AcDbEntity
  8
CALQUE_1
 62
     7
100
AcDb2dPolyline
 66
     1
 10
0.0
 20
0.0
 30
0.0
  0
VERTEX
  5
321
330
320
100
AcDbEntity
  8
CALQUE_1
 62
     7
100
AcDbVertex
100
AcDb2dVertex
 10
576.7999347516334
 20
-59.87799884570759
 30
0.0
  0
VERTEX
  5
322
330
320
100
AcDbEntity
  8
CALQUE_1
 62
     7
100
AcDbVertex
100
AcDb2dVertex
 10
576.7999347516334
 20
-9.877777775308333
 30
0.0
  0
SEQEND
  5
323
330
320
100
AcDbEntity
  8
CALQUE_1
  0
POLYLINE
  5
324
330
1F
100
AcDbEntity
  8
CALQUE_1
 62
     7
100
AcDb2dPolyline
 66
     1
 10
0.0
 20
0.0
 30
0.0
  0
VERTEX
  5
325
330
324
100
AcDbEntity
  8
CALQUE_1
 62
     7
100
AcDbVertex
100
AcDb2dVertex
 10
576.7999347516334
 20
-9.877777775308333
 30
0.0
  0
VERTEX
  5
326
330
324
100
AcDbEntity
  8
CALQUE_1
 62
     7
100
AcDbVertex
100
AcDb2dVertex
 10
566.8002005961472
 20
-9.877777775308333
 30
0.0
  0
SEQEND
  5
327
330
324
100
AcDbEntity
  8
CALQUE_1
  0
POLYLINE
  5
328
330
1F
100
AcDbEntity
  8
CALQUE_1
 62
     7
100
AcDb2dPolyline
 66
     1
 10
0.0
 20
0.0
 30
0.0
  0
VERTEX
  5
329
330
328
100
AcDbEntity
  8
CALQUE_1
 62
     7
100
AcDbVertex
100
AcDb2dVertex
 10
566.8002005961472
 20
-9.877777775308333
 30
0.0
  0
VERTEX
  5
32A
330
328
100
AcDbEntity
  8
CALQUE_1
 62
     7
100
AcDbVertex
100
AcDb2dVertex
 10
566.8002005961472
 20
-19.87820094989156
 30
0.0
  0
SEQEND
  5
32B
330
328
100
AcDbEntity
  8
CALQUE_1
  0
POLYLINE
  5
32C
330
1F
100
AcDbEntity
  8
CALQUE_1
 62
     7
100
AcDb2dPolyline
 66
     1
 10
0.0
 20
0.0
 30
0.0
  0
VERTEX
  5
32D
330
32C
100
AcDbEntity
  8
CALQUE_1
 62
     7
100
AcDbVertex
100
AcDb2dVertex
 10
566.8002005961472
 20
-19.87820094989156
 30
0.0
  0
VERTEX
  5
32E
330
32C
100
AcDbEntity
  8
CALQUE_1
 62
     7
100
AcDbVertex
100
AcDb2dVertex
 10
560.8002222990361
 20
-19.87820094989156
 30
0.0
  0
SEQEND
  5
32F
330
32C
100
AcDbEntity
  8
CALQUE_1
  0
POLYLINE
  5
330
330
1F
100
AcDbEntity
  8
CALQUE_1
 62
     7
100
AcDb2dPolyline
 66
     1
 10
0.0
 20
0.0
 30
0.0
  0
VERTEX
  5
331
330
330
100
AcDbEntity
  8
CALQUE_1
 62
     7
100
AcDbVertex
100
AcDb2dVertex
 10
560.8002222990361
 20
-19.87820094989156
 30
0.0
  0
VERTEX
  5
332
330
330
100
AcDbEntity
  8
CALQUE_1
 62
     7
100
AcDbVertex
100
AcDb2dVertex
 10
560.8002222990361
 20
-9.877777775308333
 30
0.0
  0
SEQEND
  5
333
330
330
100
AcDbEntity
  8
CALQUE_1
  0
POLYLINE
  5
334
330
1F
100
AcDbEntity
  8
CALQUE_1
 62
     7
100
AcDb2dPolyline
 66
     1
 10
0.0
 20
0.0
 30
0.0
  0
VERTEX
  5
335
330
334
100
AcDbEntity
  8
CALQUE_1
 62
     7
100
AcDbVertex
100
AcDb2dVertex
 10
560.8002222990361
 20
-9.877777775308333
 30
0.0
  0
VERTEX
  5
336
330
334
100
AcDbEntity
  8
CALQUE_1
 62
     7
100
AcDbVertex
100
AcDb2dVertex
 10
42.80031601577561
 20
-9.877777775308333
 30
0.0
  0
SEQEND
  5
337
330
334
100
AcDbEntity
  8
CALQUE_1
  0
POLYLINE
  5
338
330
1F
100
AcDbEntity
  8
CALQUE_1
 62
     7
100
AcDb2dPolyline
 66
     1
 10
0.0
 20
0.0
 30
0.0
  0
VERTEX
  5
339
330
338
100
AcDbEntity
  8
CALQUE_1
 62
     7
100
AcDbVertex
100
AcDb2dVertex
 10
42.80031601577561
 20
-9.877777775308333
 30
0.0
  0
VERTEX
  5
33A
330
338
100
AcDbEntity
  8
CALQUE_1
 62
     7
100
AcDbVertex
100
AcDb2dVertex
 10
42.80031601577561
 20
-19.87820094989156
 30
0.0
  0
SEQEND
  5
33B
330
338
100
AcDbEntity
  8
CALQUE_1
  0
POLYLINE
  5
33C
330
1F
100
AcDbEntity
  8
CALQUE_1
 62
     7
100
AcDb2dPolyline
 66
     1
 10
0.0
 20
0.0
 30
0.0
  0
VERTEX
  5
33D
330
33C
100
AcDbEntity
  8
CALQUE_1
 62
     7
100
AcDbVertex
100
AcDb2dVertex
 10
42.80031601577561
 20
-19.87820094989156
 30
0.0
  0
VERTEX
  5
33E
330
33C
100
AcDbEntity
  8
CALQUE_1
 62
     7
100
AcDbVertex
100
AcDb2dVertex
 10
36.79999320911597
 20
-19.87820094989156
 30
0.0
  0
SEQEND
  5
33F
330
33C
100
AcDbEntity
  8
CALQUE_1
  0
POLYLINE
  5
340
330
1F
100
AcDbEntity
  8
CALQUE_1
 62
     7
100
AcDb2dPolyline
 66
     1
 10
0.0
 20
0.0
 30
0.0
  0
VERTEX
  5
341
330
340
100
AcDbEntity
  8
CALQUE_1
 62
     7
100
AcDbVertex
100
AcDb2dVertex
 10
36.79999320911597
 20
-19.87820094989156
 30
0.0
  0
VERTEX
  5
342
330
340
100
AcDbEntity
  8
CALQUE_1
 62
     7
100
AcDbVertex
100
AcDb2dVertex
 10
36.79999320911597
 20
-9.877777775308333
 30
0.0
  0
SEQEND
  5
343
330
340
100
AcDbEntity
  8
CALQUE_1
  0
POLYLINE
  5
344
330
1F
100
AcDbEntity
  8
CALQUE_1
 62
     7
100
AcDb2dPolyline
 66
     1
 10
0.0
 20
0.0
 30
0.0
  0
VERTEX
  5
345
330
344
100
AcDbEntity
  8
CALQUE_1
 62
     7
100
AcDbVertex
100
AcDb2dVertex
 10
36.79999320911597
 20
-9.877777775308333
 30
0.0
  0
VERTEX
  5
346
330
344
100
AcDbEntity
  8
CALQUE_1
 62
     7
100
AcDbVertex
100
AcDb2dVertex
 10
26.8002590536298
 20
-9.877777775308333
 30
0.0
  0
SEQEND
  5
347
330
344
100
AcDbEntity
  8
CALQUE_1
  0
POLYLINE
  5
348
330
1F
100
AcDbEntity
  8
CALQUE_1
 62
     7
100
AcDb2dPolyline
 66
     1
 10
0.0
 20
0.0
 30
0.0
  0
VERTEX
  5
349
330
348
100
AcDbEntity
  8
CALQUE_1
 62
     7
100
AcDbVertex
100
AcDb2dVertex
 10
26.8002590536298
 20
-9.877777775308333
 30
0.0
  0
VERTEX
  5
34A
330
348
100
AcDbEntity
  8
CALQUE_1
 62
     7
100
AcDbVertex
100
AcDb2dVertex
 10
26.8002590536298
 20
-59.87799884570759
 30
0.0
  0
SEQEND
  5
34B
330
348
100
AcDbEntity
  8
CALQUE_1
  0
POLYLINE
  5
34C
330
1F
100
AcDbEntity
  8
CALQUE_1
 62
     7
100
AcDb2dPolyline
 66
     1
 10
0.0
 20
0.0
 30
0.0
  0
VERTEX
  5
34D
330
34C
100
AcDbEntity
  8
CALQUE_1
 62
     7
100
AcDbVertex
100
AcDb2dVertex
 10
26.8002590536298
 20
-59.87799884570759
 30
0.0
  0
VERTEX
  5
34E
330
34C
100
AcDbEntity
  8
CALQUE_1
 62
     7
100
AcDbVertex
100
AcDb2dVertex
 10
576.7999347516334
 20
-59.87799884570759
 30
0.0
  0
SEQEND
  5
34F
330
34C
100
AcDbEntity
  8
CALQUE_1
  0
POLYLINE
  5
350
330
1F
100
AcDbEntity
  8
CALQUE_1
 62
     7
100
AcDb2dPolyline
 66
     1
 10
0.0
 20
0.0
 30
0.0
  0
VERTEX
  5
351
330
350
100
AcDbEntity
  8
CALQUE_1
 62
     7
100
AcDbVertex
100
AcDb2dVertex
 10
42.80031601577561
 20
-29.87793510537774
 30
0.0
  0
VERTEX
  5
352
330
350
100
AcDbEntity
  8
CALQUE_1
 62
     7
100
AcDbVertex
100
AcDb2dVertex
 10
36.79999320911597
 20
-29.87793510537774
 30
0.0
  0
SEQEND
  5
353
330
350
100
AcDbEntity
  8
CALQUE_1
  0
POLYLINE
  5
354
330
1F
100
AcDbEntity
  8
CALQUE_1
 62
     7
100
AcDb2dPolyline
 66
     1
 10
0.0
 20
0.0
 30
0.0
  0
VERTEX
  5
355
330
354
100
AcDbEntity
  8
CALQUE_1
 62
     7
100
AcDbVertex
100
AcDb2dVertex
 10
42.80031601577561
 20
-49.87792018067288
 30
0.0
  0
VERTEX
  5
356
330
354
100
AcDbEntity
  8
CALQUE_1
 62
     7
100
AcDbVertex
100
AcDb2dVertex
 10
42.80031601577561
 20
-29.87793510537774
 30
0.0
  0
SEQEND
  5
357
330
354
100
AcDbEntity
  8
CALQUE_1
  0
POLYLINE
  5
358
330
1F
100
AcDbEntity
  8
CALQUE_1
 62
     7
100
AcDb2dPolyline
 66
     1
 10
0.0
 20
0.0
 30
0.0
  0
VERTEX
  5
359
330
358
100
AcDbEntity
  8
CALQUE_1
 62
     7
100
AcDbVertex
100
AcDb2dVertex
 10
36.79999320911597
 20
-49.87792018067288
 30
0.0
  0
VERTEX
  5
35A
330
358
100
AcDbEntity
  8
CALQUE_1
 62
     7
100
AcDbVertex
100
AcDb2dVertex
 10
42.80031601577561
 20
-49.87792018067288
 30
0.0
  0
SEQEND
  5
35B
330
358
100
AcDbEntity
  8
CALQUE_1
  0
POLYLINE
  5
35C
330
1F
100
AcDbEntity
  8
CALQUE_1
 62
     7
100
AcDb2dPolyline
 66
     1
 10
0.0
 20
0.0
 30
0.0
  0
VERTEX
  5
35D
330
35C
100
AcDbEntity
  8
CALQUE_1
 62
     7
100
AcDbVertex
100
AcDb2dVertex
 10
36.79999320911597
 20
-29.87793510537774
 30
0.0
  0
VERTEX
  5
35E
330
35C
100
AcDbEntity
  8
CALQUE_1
 62
     7
100
AcDbVertex
100
AcDb2dVertex
 10
36.79999320911597
 20
-49.87792018067288
 30
0.0
  0
SEQEND
  5
35F
330
35C
100
AcDbEntity
  8
CALQUE_1
  0
POLYLINE
  5
360
330
1F
100
AcDbEntity
  8
CALQUE_1
 62
     7
100
AcDb2dPolyline
 66
     1
 10
0.0
 20
0.0
 30
0.0
  0
VERTEX
  5
361
330
360
100
AcDbEntity
  8
CALQUE_1
 62
     7
100
AcDbVertex
100
AcDb2dVertex
 10
317.1076035448551
 20
-407.4576442123717
 30
0.0
  0
VERTEX
  5
362
330
360
100
AcDbEntity
  8
CALQUE_1
 62
     7
100
AcDbVertex
100
AcDb2dVertex
 10
320.8076360960134
 20
-432.4573241106357
 30
0.0
  0
SEQEND
  5
363
330
360
100
AcDbEntity
  8
CALQUE_1
  0
POLYLINE
  5
364
330
1F
100
AcDbEntity
  8
CALQUE_1
 62
     7
100
AcDb2dPolyline
 66
     1
 10
0.0
 20
0.0
 30
0.0
  0
VERTEX
  5
365
330
364
100
AcDbEntity
  8
CALQUE_1
 62
     7
100
AcDbVertex
100
AcDb2dVertex
 10
320.8076360960134
 20
-432.4573241106357
 30
0.0
  0
VERTEX
  5
366
330
364
100
AcDbEntity
  8
CALQUE_1
 62
     7
100
AcDbVertex
100
AcDb2dVertex
 10
333.6075438619106
 20
-432.4573241106357
 30
0.0
  0
SEQEND
  5
367
330
364
100
AcDbEntity
  8
CALQUE_1
  0
POLYLINE
  5
368
330
1F
100
AcDbEntity
  8
CALQUE_1
 62
     7
100
AcDb2dPolyline
 66
     1
 10
0.0
 20
0.0
 30
0.0
  0
VERTEX
  5
369
330
368
100
AcDbEntity
  8
CALQUE_1
 62
     7
100
AcDbVertex
100
AcDb2dVertex
 10
333.6075438619106
 20
-432.4573241106357
 30
0.0
  0
VERTEX
  5
36A
330
368
100
AcDbEntity
  8
CALQUE_1
 62
     7
100
AcDbVertex
100
AcDb2dVertex
 10
333.6075438619106
 20
-407.4576442123717
 30
0.0
  0
SEQEND
  5
36B
330
368
100
AcDbEntity
  8
CALQUE_1
  0
POLYLINE
  5
36C
330
1F
100
AcDbEntity
  8
CALQUE_1
 62
     7
100
AcDb2dPolyline
 66
     1
 10
0.0
 20
0.0
 30
0.0
  0
VERTEX
  5
36D
330
36C
100
AcDbEntity
  8
CALQUE_1
 62
     7
100
AcDbVertex
100
AcDb2dVertex
 10
333.6075438619106
 20
-407.4576442123717
 30
0.0
  0
VERTEX
  5
36E
330
36C
100
AcDbEntity
  8
CALQUE_1
 62
     7
100
AcDbVertex
100
AcDb2dVertex
 10
317.1076035448551
 20
-407.4576442123717
 30
0.0
  0
SEQEND
  5
36F
330
36C
100
AcDbEntity
  8
CALQUE_1
  0
POLYLINE
  5
370
330
1F
100
AcDbEntity
  8
CALQUE_1
 62
     7
100
AcDb2dPolyline
 66
     1
 10
0.0
 20
0.0
 30
0.0
  0
VERTEX
  5
371
330
370
100
AcDbEntity
  8
CALQUE_1
 62
     7
100
AcDbVertex
100
AcDb2dVertex
 10
317.1076035448551
 20
-440.9574082013926
 30
0.0
  0
VERTEX
  5
372
330
370
100
AcDbEntity
  8
CALQUE_1
 62
     7
100
AcDbVertex
100
AcDb2dVertex
 10
320.8076360960134
 20
-465.9574326092051
 30
0.0
  0
SEQEND
  5
373
330
370
100
AcDbEntity
  8
CALQUE_1
  0
POLYLINE
  5
374
330
1F
100
AcDbEntity
  8
CALQUE_1
 62
     7
100
AcDb2dPolyline
 66
     1
 10
0.0
 20
0.0
 30
0.0
  0
VERTEX
  5
375
330
374
100
AcDbEntity
  8
CALQUE_1
 62
     7
100
AcDbVertex
100
AcDb2dVertex
 10
320.8076360960134
 20
-465.9574326092051
 30
0.0
  0
VERTEX
  5
376
330
374
100
AcDbEntity
  8
CALQUE_1
 62
     7
100
AcDbVertex
100
AcDb2dVertex
 10
333.6075438619106
 20
-465.9574326092051
 30
0.0
  0
SEQEND
  5
377
330
374
100
AcDbEntity
  8
CALQUE_1
  0
POLYLINE
  5
378
330
1F
100
AcDbEntity
  8
CALQUE_1
 62
     7
100
AcDb2dPolyline
 66
     1
 10
0.0
 20
0.0
 30
0.0
  0
VERTEX
  5
379
330
378
100
AcDbEntity
  8
CALQUE_1
 62
     7
100
AcDbVertex
100
AcDb2dVertex
 10
333.6075438619106
 20
-465.9574326092051
 30
0.0
  0
VERTEX
  5
37A
330
378
100
AcDbEntity
  8
CALQUE_1
 62
     7
100
AcDbVertex
100
AcDb2dVertex
 10
333.6075438619106
 20
-440.9574082013926
 30
0.0
  0
SEQEND
  5
37B
330
378
100
AcDbEntity
  8
CALQUE_1
  0
POLYLINE
  5
37C
330
1F
100
AcDbEntity
  8
CALQUE_1
 62
     7
100
AcDb2dPolyline
 66
     1
 10
0.0
 20
0.0
 30
0.0
  0
VERTEX
  5
37D
330
37C
100
AcDbEntity
  8
CALQUE_1
 62
     7
100
AcDbVertex
100
AcDb2dVertex
 10
333.6075438619106
 20
-440.9574082013926
 30
0.0
  0
VERTEX
  5
37E
330
37C
100
AcDbEntity
  8
CALQUE_1
 62
     7
100
AcDbVertex
100
AcDb2dVertex
 10
317.1076035448551
 20
-440.9574082013926
 30
0.0
  0
SEQEND
  5
37F
330
37C
100
AcDbEntity
  8
CALQUE_1
  0
POLYLINE
  5
380
330
1F
100
AcDbEntity
  8
CALQUE_1
 62
     7
100
AcDb2dPolyline
 66
     1
 10
0.0
 20
0.0
 30
0.0
  0
VERTEX
  5
381
330
380
100
AcDbEntity
  8
CALQUE_1
 62
     7
100
AcDbVertex
100
AcDb2dVertex
 10
292.7618027696915
 20
-407.4576442123717
 30
0.0
  0
VERTEX
  5
382
330
380
100
AcDbEntity
  8
CALQUE_1
 62
     7
100
AcDbVertex
100
AcDb2dVertex
 10
296.4618353208498
 20
-432.4573241106357
 30
0.0
  0
SEQEND
  5
383
330
380
100
AcDbEntity
  8
CALQUE_1
  0
POLYLINE
  5
384
330
1F
100
AcDbEntity
  8
CALQUE_1
 62
     7
100
AcDb2dPolyline
 66
     1
 10
0.0
 20
0.0
 30
0.0
  0
VERTEX
  5
385
330
384
100
AcDbEntity
  8
CALQUE_1
 62
     7
100
AcDbVertex
100
AcDb2dVertex
 10
296.4618353208498
 20
-432.4573241106357
 30
0.0
  0
VERTEX
  5
386
330
384
100
AcDbEntity
  8
CALQUE_1
 62
     7
100
AcDbVertex
100
AcDb2dVertex
 10
309.2617430867471
 20
-432.4573241106357
 30
0.0
  0
SEQEND
  5
387
330
384
100
AcDbEntity
  8
CALQUE_1
  0
POLYLINE
  5
388
330
1F
100
AcDbEntity
  8
CALQUE_1
 62
     7
100
AcDb2dPolyline
 66
     1
 10
0.0
 20
0.0
 30
0.0
  0
VERTEX
  5
389
330
388
100
AcDbEntity
  8
CALQUE_1
 62
     7
100
AcDbVertex
100
AcDb2dVertex
 10
309.2617430867471
 20
-432.4573241106357
 30
0.0
  0
VERTEX
  5
38A
330
388
100
AcDbEntity
  8
CALQUE_1
 62
     7
100
AcDbVertex
100
AcDb2dVertex
 10
309.2617430867471
 20
-407.4576442123717
 30
0.0
  0
SEQEND
  5
38B
330
388
100
AcDbEntity
  8
CALQUE_1
  0
POLYLINE
  5
38C
330
1F
100
AcDbEntity
  8
CALQUE_1
 62
     7
100
AcDb2dPolyline
 66
     1
 10
0.0
 20
0.0
 30
0.0
  0
VERTEX
  5
38D
330
38C
100
AcDbEntity
  8
CALQUE_1
 62
     7
100
AcDbVertex
100
AcDb2dVertex
 10
309.2617430867471
 20
-407.4576442123717
 30
0.0
  0
VERTEX
  5
38E
330
38C
100
AcDbEntity
  8
CALQUE_1
 62
     7
100
AcDbVertex
100
AcDb2dVertex
 10
292.7618027696915
 20
-407.4576442123717
 30
0.0
  0
SEQEND
  5
38F
330
38C
100
AcDbEntity
  8
CALQUE_1
  0
POLYLINE
  5
390
330
1F
100
AcDbEntity
  8
CALQUE_1
 62
     7
100
AcDb2dPolyline
 66
     1
 10
0.0
 20
0.0
 30
0.0
  0
VERTEX
  5
391
330
390
100
AcDbEntity
  8
CALQUE_1
 62
     7
100
AcDbVertex
100
AcDb2dVertex
 10
292.7618027696915
 20
-440.9574082013926
 30
0.0
  0
VERTEX
  5
392
330
390
100
AcDbEntity
  8
CALQUE_1
 62
     7
100
AcDbVertex
100
AcDb2dVertex
 10
296.4618353208498
 20
-465.9574326092051
 30
0.0
  0
SEQEND
  5
393
330
390
100
AcDbEntity
  8
CALQUE_1
  0
POLYLINE
  5
394
330
1F
100
AcDbEntity
  8
CALQUE_1
 62
     7
100
AcDb2dPolyline
 66
     1
 10
0.0
 20
0.0
 30
0.0
  0
VERTEX
  5
395
330
394
100
AcDbEntity
  8
CALQUE_1
 62
     7
100
AcDbVertex
100
AcDb2dVertex
 10
296.4618353208498
 20
-465.9574326092051
 30
0.0
  0
VERTEX
  5
396
330
394
100
AcDbEntity
  8
CALQUE_1
 62
     7
100
AcDbVertex
100
AcDb2dVertex
 10
309.2617430867471
 20
-465.9574326092051
 30
0.0
  0
SEQEND
  5
397
330
394
100
AcDbEntity
  8
CALQUE_1
  0
POLYLINE
  5
398
330
1F
100
AcDbEntity
  8
CALQUE_1
 62
     7
100
AcDb2dPolyline
 66
     1
 10
0.0
 20
0.0
 30
0.0
  0
VERTEX
  5
399
330
398
100
AcDbEntity
  8
CALQUE_1
 62
     7
100
AcDbVertex
100
AcDb2dVertex
 10
309.2617430867471
 20
-465.9574326092051
 30
0.0
  0
VERTEX
  5
39A
330
398
100
AcDbEntity
  8
CALQUE_1
 62
     7
100
AcDbVertex
100
AcDb2dVertex
 10
309.2617430867471
 20
-440.9574082013926
 30
0.0
  0
SEQEND
  5
39B
330
398
100
AcDbEntity
  8
CALQUE_1
  0
POLYLINE
  5
39C
330
1F
100
AcDbEntity
  8
CALQUE_1
 62
     7
100
AcDb2dPolyline
 66
     1
 10
0.0
 20
0.0
 30
0.0
  0
VERTEX
  5
39D
330
39C
100
AcDbEntity
  8
CALQUE_1
 62
     7
100
AcDbVertex
100
AcDb2dVertex
 10
309.2617430867471
 20
-440.9574082013926
 30
0.0
  0
VERTEX
  5
39E
330
39C
100
AcDbEntity
  8
CALQUE_1
 62
     7
100
AcDbVertex
100
AcDb2dVertex
 10
292.7618027696915
 20
-440.9574082013926
 30
0.0
  0
SEQEND
  5
39F
330
39C
100
AcDbEntity
  8
CALQUE_1
  0
POLYLINE
  5
3A0
330
1F
100
AcDbEntity
  8
CALQUE_1
 62
     7
100
AcDb2dPolyline
 66
     1
 10
0.0
 20
0.0
 30
0.0
  0
VERTEX
  5
3A1
330
3A0
100
AcDbEntity
  8
CALQUE_1
 62
     7
100
AcDbVertex
100
AcDb2dVertex
 10
267.4317382143921
 20
-407.4576442123717
 30
0.0
  0
VERTEX
  5
3A2
330
3A0
100
AcDbEntity
  8
CALQUE_1
 62
     7
100
AcDbVertex
100
AcDb2dVertex
 10
271.1317707655504
 20
-432.4573241106357
 30
0.0
  0
SEQEND
  5
3A3
330
3A0
100
AcDbEntity
  8
CALQUE_1
  0
POLYLINE
  5
3A4
330
1F
100
AcDbEntity
  8
CALQUE_1
 62
     7
100
AcDb2dPolyline
 66
     1
 10
0.0
 20
0.0
 30
0.0
  0
VERTEX
  5
3A5
330
3A4
100
AcDbEntity
  8
CALQUE_1
 62
     7
100
AcDbVertex
100
AcDb2dVertex
 10
271.1317707655504
 20
-432.4573241106357
 30
0.0
  0
VERTEX
  5
3A6
330
3A4
100
AcDbEntity
  8
CALQUE_1
 62
     7
100
AcDbVertex
100
AcDb2dVertex
 10
283.9316785314476
 20
-432.4573241106357
 30
0.0
  0
SEQEND
  5
3A7
330
3A4
100
AcDbEntity
  8
CALQUE_1
  0
POLYLINE
  5
3A8
330
1F
100
AcDbEntity
  8
CALQUE_1
 62
     7
100
AcDb2dPolyline
 66
     1
 10
0.0
 20
0.0
 30
0.0
  0
VERTEX
  5
3A9
330
3A8
100
AcDbEntity
  8
CALQUE_1
 62
     7
100
AcDbVertex
100
AcDb2dVertex
 10
283.9316785314476
 20
-432.4573241106357
 30
0.0
  0
VERTEX
  5
3AA
330
3A8
100
AcDbEntity
  8
CALQUE_1
 62
     7
100
AcDbVertex
100
AcDb2dVertex
 10
283.9316785314476
 20
-407.4576442123717
 30
0.0
  0
SEQEND
  5
3AB
330
3A8
100
AcDbEntity
  8
CALQUE_1
  0
POLYLINE
  5
3AC
330
1F
100
AcDbEntity
  8
CALQUE_1
 62
     7
100
AcDb2dPolyline
 66
     1
 10
0.0
 20
0.0
 30
0.0
  0
VERTEX
  5
3AD
330
3AC
100
AcDbEntity
  8
CALQUE_1
 62
     7
100
AcDbVertex
100
AcDb2dVertex
 10
283.9316785314476
 20
-407.4576442123717
 30
0.0
  0
VERTEX
  5
3AE
330
3AC
100
AcDbEntity
  8
CALQUE_1
 62
     7
100
AcDbVertex
100
AcDb2dVertex
 10
267.4317382143921
 20
-407.4576442123717
 30
0.0
  0
SEQEND
  5
3AF
330
3AC
100
AcDbEntity
  8
CALQUE_1
  0
POLYLINE
  5
3B0
330
1F
100
AcDbEntity
  8
CALQUE_1
 62
     7
100
AcDb2dPolyline
 66
     1
 10
0.0
 20
0.0
 30
0.0
  0
VERTEX
  5
3B1
330
3B0
100
AcDbEntity
  8
CALQUE_1
 62
     7
100
AcDbVertex
100
AcDb2dVertex
 10
267.4317382143921
 20
-440.9574082013926
 30
0.0
  0
VERTEX
  5
3B2
330
3B0
100
AcDbEntity
  8
CALQUE_1
 62
     7
100
AcDbVertex
100
AcDb2dVertex
 10
271.1317707655504
 20
-465.9574326092051
 30
0.0
  0
SEQEND
  5
3B3
330
3B0
100
AcDbEntity
  8
CALQUE_1
  0
POLYLINE
  5
3B4
330
1F
100
AcDbEntity
  8
CALQUE_1
 62
     7
100
AcDb2dPolyline
 66
     1
 10
0.0
 20
0.0
 30
0.0
  0
VERTEX
  5
3B5
330
3B4
100
AcDbEntity
  8
CALQUE_1
 62
     7
100
AcDbVertex
100
AcDb2dVertex
 10
271.1317707655504
 20
-465.9574326092051
 30
0.0
  0
VERTEX
  5
3B6
330
3B4
100
AcDbEntity
  8
CALQUE_1
 62
     7
100
AcDbVertex
100
AcDb2dVertex
 10
283.9316785314476
 20
-465.9574326092051
 30
0.0
  0
SEQEND
  5
3B7
330
3B4
100
AcDbEntity
  8
CALQUE_1
  0
POLYLINE
  5
3B8
330
1F
100
AcDbEntity
  8
CALQUE_1
 62
     7
100
AcDb2dPolyline
 66
     1
 10
0.0
 20
0.0
 30
0.0
  0
VERTEX
  5
3B9
330
3B8
100
AcDbEntity
  8
CALQUE_1
 62
     7
100
AcDbVertex
100
AcDb2dVertex
 10
283.9316785314476
 20
-465.9574326092051
 30
0.0
  0
VERTEX
  5
3BA
330
3B8
100
AcDbEntity
  8
CALQUE_1
 62
     7
100
AcDbVertex
100
AcDb2dVertex
 10
283.9316785314476
 20
-440.9574082013926
 30
0.0
  0
SEQEND
  5
3BB
330
3B8
100
AcDbEntity
  8
CALQUE_1
  0
POLYLINE
  5
3BC
330
1F
100
AcDbEntity
  8
CALQUE_1
 62
     7
100
AcDb2dPolyline
 66
     1
 10
0.0
 20
0.0
 30
0.0
  0
VERTEX
  5
3BD
330
3BC
100
AcDbEntity
  8
CALQUE_1
 62
     7
100
AcDbVertex
100
AcDb2dVertex
 10
283.9316785314476
 20
-440.9574082013926
 30
0.0
  0
VERTEX
  5
3BE
330
3BC
100
AcDbEntity
  8
CALQUE_1
 62
     7
100
AcDbVertex
100
AcDb2dVertex
 10
267.4317382143921
 20
-440.9574082013926
 30
0.0
  0
SEQEND
  5
3BF
330
3BC
100
AcDbEntity
  8
CALQUE_1
  0
POLYLINE
  5
3C0
330
1F
100
AcDbEntity
  8
CALQUE_1
 62
     7
100
AcDb2dPolyline
 66
     1
 10
0.0
 20
0.0
 30
0.0
  0
VERTEX
  5
3C1
330
3C0
100
AcDbEntity
  8
CALQUE_1
 62
     7
100
AcDbVertex
100
AcDb2dVertex
 10
242.5529811676604
 20
-407.4576442123717
 30
0.0
  0
VERTEX
  5
3C2
330
3C0
100
AcDbEntity
  8
CALQUE_1
 62
     7
100
AcDbVertex
100
AcDb2dVertex
 10
246.2530137188187
 20
-432.4573241106357
 30
0.0
  0
SEQEND
  5
3C3
330
3C0
100
AcDbEntity
  8
CALQUE_1
  0
POLYLINE
  5
3C4
330
1F
100
AcDbEntity
  8
CALQUE_1
 62
     7
100
AcDb2dPolyline
 66
     1
 10
0.0
 20
0.0
 30
0.0
  0
VERTEX
  5
3C5
330
3C4
100
AcDbEntity
  8
CALQUE_1
 62
     7
100
AcDbVertex
100
AcDb2dVertex
 10
246.2530137188187
 20
-432.4573241106357
 30
0.0
  0
VERTEX
  5
3C6
330
3C4
100
AcDbEntity
  8
CALQUE_1
 62
     7
100
AcDbVertex
100
AcDb2dVertex
 10
259.052921484716
 20
-432.4573241106357
 30
0.0
  0
SEQEND
  5
3C7
330
3C4
100
AcDbEntity
  8
CALQUE_1
  0
POLYLINE
  5
3C8
330
1F
100
AcDbEntity
  8
CALQUE_1
 62
     7
100
AcDb2dPolyline
 66
     1
 10
0.0
 20
0.0
 30
0.0
  0
VERTEX
  5
3C9
330
3C8
100
AcDbEntity
  8
CALQUE_1
 62
     7
100
AcDbVertex
100
AcDb2dVertex
 10
259.052921484716
 20
-432.4573241106357
 30
0.0
  0
VERTEX
  5
3CA
330
3C8
100
AcDbEntity
  8
CALQUE_1
 62
     7
100
AcDbVertex
100
AcDb2dVertex
 10
259.052921484716
 20
-407.4576442123717
 30
0.0
  0
SEQEND
  5
3CB
330
3C8
100
AcDbEntity
  8
CALQUE_1
  0
POLYLINE
  5
3CC
330
1F
100
AcDbEntity
  8
CALQUE_1
 62
     7
100
AcDb2dPolyline
 66
     1
 10
0.0
 20
0.0
 30
0.0
  0
VERTEX
  5
3CD
330
3CC
100
AcDbEntity
  8
CALQUE_1
 62
     7
100
AcDbVertex
100
AcDb2dVertex
 10
259.052921484716
 20
-407.4576442123717
 30
0.0
  0
VERTEX
  5
3CE
330
3CC
100
AcDbEntity
  8
CALQUE_1
 62
     7
100
AcDbVertex
100
AcDb2dVertex
 10
242.5529811676604
 20
-407.4576442123717
 30
0.0
  0
SEQEND
  5
3CF
330
3CC
100
AcDbEntity
  8
CALQUE_1
  0
POLYLINE
  5
3D0
330
1F
100
AcDbEntity
  8
CALQUE_1
 62
     7
100
AcDb2dPolyline
 66
     1
 10
0.0
 20
0.0
 30
0.0
  0
VERTEX
  5
3D1
330
3D0
100
AcDbEntity
  8
CALQUE_1
 62
     7
100
AcDbVertex
100
AcDb2dVertex
 10
242.5529811676604
 20
-440.9570636918441
 30
0.0
  0
VERTEX
  5
3D2
330
3D0
100
AcDbEntity
  8
CALQUE_1
 62
     7
100
AcDbVertex
100
AcDb2dVertex
 10
246.2530137188187
 20
-465.9574326092051
 30
0.0
  0
SEQEND
  5
3D3
330
3D0
100
AcDbEntity
  8
CALQUE_1
  0
POLYLINE
  5
3D4
330
1F
100
AcDbEntity
  8
CALQUE_1
 62
     7
100
AcDb2dPolyline
 66
     1
 10
0.0
 20
0.0
 30
0.0
  0
VERTEX
  5
3D5
330
3D4
100
AcDbEntity
  8
CALQUE_1
 62
     7
100
AcDbVertex
100
AcDb2dVertex
 10
246.2530137188187
 20
-465.9574326092051
 30
0.0
  0
VERTEX
  5
3D6
330
3D4
100
AcDbEntity
  8
CALQUE_1
 62
     7
100
AcDbVertex
100
AcDb2dVertex
 10
259.052921484716
 20
-465.9574326092051
 30
0.0
  0
SEQEND
  5
3D7
330
3D4
100
AcDbEntity
  8
CALQUE_1
  0
POLYLINE
  5
3D8
330
1F
100
AcDbEntity
  8
CALQUE_1
 62
     7
100
AcDb2dPolyline
 66
     1
 10
0.0
 20
0.0
 30
0.0
  0
VERTEX
  5
3D9
330
3D8
100
AcDbEntity
  8
CALQUE_1
 62
     7
100
AcDbVertex
100
AcDb2dVertex
 10
259.052921484716
 20
-465.9574326092051
 30
0.0
  0
VERTEX
  5
3DA
330
3D8
100
AcDbEntity
  8
CALQUE_1
 62
     7
100
AcDbVertex
100
AcDb2dVertex
 10
259.052921484716
 20
-440.9570636918441
 30
0.0
  0
SEQEND
  5
3DB
330
3D8
100
AcDbEntity
  8
CALQUE_1
  0
POLYLINE
  5
3DC
330
1F
100
AcDbEntity
  8
CALQUE_1
 62
     7
100
AcDb2dPolyline
 66
     1
 10
0.0
 20
0.0
 30
0.0
  0
VERTEX
  5
3DD
330
3DC
100
AcDbEntity
  8
CALQUE_1
 62
     7
100
AcDbVertex
100
AcDb2dVertex
 10
259.052921484716
 20
-440.9570636918441
 30
0.0
  0
VERTEX
  5
3DE
330
3DC
100
AcDbEntity
  8
CALQUE_1
 62
     7
100
AcDbVertex
100
AcDb2dVertex
 10
242.5529811676604
 20
-440.9570636918441
 30
0.0
  0
SEQEND
  5
3DF
330
3DC
100
AcDbEntity
  8
CALQUE_1
  0
POLYLINE
  5
3E0
330
1F
100
AcDbEntity
  8
CALQUE_1
 62
     7
100
AcDb2dPolyline
 66
     1
 10
0.0
 20
0.0
 30
0.0
  0
VERTEX
  5
3E1
330
3E0
100
AcDbEntity
  8
CALQUE_1
 62
     7
100
AcDbVertex
100
AcDb2dVertex
 10
218.8712225472787
 20
-407.4576442123717
 30
0.0
  0
VERTEX
  5
3E2
330
3E0
100
AcDbEntity
  8
CALQUE_1
 62
     7
100
AcDbVertex
100
AcDb2dVertex
 10
222.5712550984371
 20
-432.4573241106357
 30
0.0
  0
SEQEND
  5
3E3
330
3E0
100
AcDbEntity
  8
CALQUE_1
  0
POLYLINE
  5
3E4
330
1F
100
AcDbEntity
  8
CALQUE_1
 62
     7
100
AcDb2dPolyline
 66
     1
 10
0.0
 20
0.0
 30
0.0
  0
VERTEX
  5
3E5
330
3E4
100
AcDbEntity
  8
CALQUE_1
 62
     7
100
AcDbVertex
100
AcDb2dVertex
 10
222.5712550984371
 20
-432.4573241106357
 30
0.0
  0
VERTEX
  5
3E6
330
3E4
100
AcDbEntity
  8
CALQUE_1
 62
     7
100
AcDbVertex
100
AcDb2dVertex
 10
235.3711628643343
 20
-432.4573241106357
 30
0.0
  0
SEQEND
  5
3E7
330
3E4
100
AcDbEntity
  8
CALQUE_1
  0
POLYLINE
  5
3E8
330
1F
100
AcDbEntity
  8
CALQUE_1
 62
     7
100
AcDb2dPolyline
 66
     1
 10
0.0
 20
0.0
 30
0.0
  0
VERTEX
  5
3E9
330
3E8
100
AcDbEntity
  8
CALQUE_1
 62
     7
100
AcDbVertex
100
AcDb2dVertex
 10
235.3711628643343
 20
-432.4573241106357
 30
0.0
  0
VERTEX
  5
3EA
330
3E8
100
AcDbEntity
  8
CALQUE_1
 62
     7
100
AcDbVertex
100
AcDb2dVertex
 10
235.3711628643343
 20
-407.4576442123717
 30
0.0
  0
SEQEND
  5
3EB
330
3E8
100
AcDbEntity
  8
CALQUE_1
  0
POLYLINE
  5
3EC
330
1F
100
AcDbEntity
  8
CALQUE_1
 62
     7
100
AcDb2dPolyline
 66
     1
 10
0.0
 20
0.0
 30
0.0
  0
VERTEX
  5
3ED
330
3EC
100
AcDbEntity
  8
CALQUE_1
 62
     7
100
AcDbVertex
100
AcDb2dVertex
 10
235.3711628643343
 20
-407.4576442123717
 30
0.0
  0
VERTEX
  5
3EE
330
3EC
100
AcDbEntity
  8
CALQUE_1
 62
     7
100
AcDbVertex
100
AcDb2dVertex
 10
218.8712225472787
 20
-407.4576442123717
 30
0.0
  0
SEQEND
  5
3EF
330
3EC
100
AcDbEntity
  8
CALQUE_1
  0
POLYLINE
  5
3F0
330
1F
100
AcDbEntity
  8
CALQUE_1
 62
     7
100
AcDb2dPolyline
 66
     1
 10
0.0
 20
0.0
 30
0.0
  0
VERTEX
  5
3F1
330
3F0
100
AcDbEntity
  8
CALQUE_1
 62
     7
100
AcDbVertex
100
AcDb2dVertex
 10
218.8712225472787
 20
-440.9577527109411
 30
0.0
  0
VERTEX
  5
3F2
330
3F0
100
AcDbEntity
  8
CALQUE_1
 62
     7
100
AcDbVertex
100
AcDb2dVertex
 10
222.5712550984371
 20
-465.9574326092051
 30
0.0
  0
SEQEND
  5
3F3
330
3F0
100
AcDbEntity
  8
CALQUE_1
  0
POLYLINE
  5
3F4
330
1F
100
AcDbEntity
  8
CALQUE_1
 62
     7
100
AcDb2dPolyline
 66
     1
 10
0.0
 20
0.0
 30
0.0
  0
VERTEX
  5
3F5
330
3F4
100
AcDbEntity
  8
CALQUE_1
 62
     7
100
AcDbVertex
100
AcDb2dVertex
 10
222.5712550984371
 20
-465.9574326092051
 30
0.0
  0
VERTEX
  5
3F6
330
3F4
100
AcDbEntity
  8
CALQUE_1
 62
     7
100
AcDbVertex
100
AcDb2dVertex
 10
235.3711628643343
 20
-465.9574326092051
 30
0.0
  0
SEQEND
  5
3F7
330
3F4
100
AcDbEntity
  8
CALQUE_1
  0
POLYLINE
  5
3F8
330
1F
100
AcDbEntity
  8
CALQUE_1
 62
     7
100
AcDb2dPolyline
 66
     1
 10
0.0
 20
0.0
 30
0.0
  0
VERTEX
  5
3F9
330
3F8
100
AcDbEntity
  8
CALQUE_1
 62
     7
100
AcDbVertex
100
AcDb2dVertex
 10
235.3711628643343
 20
-465.9574326092051
 30
0.0
  0
VERTEX
  5
3FA
330
3F8
100
AcDbEntity
  8
CALQUE_1
 62
     7
100
AcDbVertex
100
AcDb2dVertex
 10
235.3711628643343
 20
-440.9577527109411
 30
0.0
  0
SEQEND
  5
3FB
330
3F8
100
AcDbEntity
  8
CALQUE_1
  0
POLYLINE
  5
3FC
330
1F
100
AcDbEntity
  8
CALQUE_1
 62
     7
100
AcDb2dPolyline
 66
     1
 10
0.0
 20
0.0
 30
0.0
  0
VERTEX
  5
3FD
330
3FC
100
AcDbEntity
  8
CALQUE_1
 62
     7
100
AcDbVertex
100
AcDb2dVertex
 10
235.3711628643343
 20
-440.9577527109411
 30
0.0
  0
VERTEX
  5
3FE
330
3FC
100
AcDbEntity
  8
CALQUE_1
 62
     7
100
AcDbVertex
100
AcDb2dVertex
 10
218.8712225472787
 20
-440.9577527109411
 30
0.0
  0
SEQEND
  5
3FF
330
3FC
100
AcDbEntity
  8
CALQUE_1
  0
POLYLINE
  5
400
330
1F
100
AcDbEntity
  8
CALQUE_1
 62
     7
100
AcDb2dPolyline
 66
     1
 10
0.0
 20
0.0
 30
0.0
  0
VERTEX
  5
401
330
400
100
AcDbEntity
  8
CALQUE_1
 62
     7
100
AcDbVertex
100
AcDb2dVertex
 10
193.992465500547
 20
-407.4576442123717
 30
0.0
  0
VERTEX
  5
402
330
400
100
AcDbEntity
  8
CALQUE_1
 62
     7
100
AcDbVertex
100
AcDb2dVertex
 10
197.6924980517053
 20
-432.4573241106357
 30
0.0
  0
SEQEND
  5
403
330
400
100
AcDbEntity
  8
CALQUE_1
  0
POLYLINE
  5
404
330
1F
100
AcDbEntity
  8
CALQUE_1
 62
     7
100
AcDb2dPolyline
 66
     1
 10
0.0
 20
0.0
 30
0.0
  0
VERTEX
  5
405
330
404
100
AcDbEntity
  8
CALQUE_1
 62
     7
100
AcDbVertex
100
AcDb2dVertex
 10
197.6924980517053
 20
-432.4573241106357
 30
0.0
  0
VERTEX
  5
406
330
404
100
AcDbEntity
  8
CALQUE_1
 62
     7
100
AcDbVertex
100
AcDb2dVertex
 10
210.4924058176026
 20
-432.4573241106357
 30
0.0
  0
SEQEND
  5
407
330
404
100
AcDbEntity
  8
CALQUE_1
  0
POLYLINE
  5
408
330
1F
100
AcDbEntity
  8
CALQUE_1
 62
     7
100
AcDb2dPolyline
 66
     1
 10
0.0
 20
0.0
 30
0.0
  0
VERTEX
  5
409
330
408
100
AcDbEntity
  8
CALQUE_1
 62
     7
100
AcDbVertex
100
AcDb2dVertex
 10
210.4924058176026
 20
-432.4573241106357
 30
0.0
  0
VERTEX
  5
40A
330
408
100
AcDbEntity
  8
CALQUE_1
 62
     7
100
AcDbVertex
100
AcDb2dVertex
 10
210.4924058176026
 20
-407.4576442123717
 30
0.0
  0
SEQEND
  5
40B
330
408
100
AcDbEntity
  8
CALQUE_1
  0
POLYLINE
  5
40C
330
1F
100
AcDbEntity
  8
CALQUE_1
 62
     7
100
AcDb2dPolyline
 66
     1
 10
0.0
 20
0.0
 30
0.0
  0
VERTEX
  5
40D
330
40C
100
AcDbEntity
  8
CALQUE_1
 62
     7
100
AcDbVertex
100
AcDb2dVertex
 10
210.4924058176026
 20
-407.4576442123717
 30
0.0
  0
VERTEX
  5
40E
330
40C
100
AcDbEntity
  8
CALQUE_1
 62
     7
100
AcDbVertex
100
AcDb2dVertex
 10
193.992465500547
 20
-407.4576442123717
 30
0.0
  0
SEQEND
  5
40F
330
40C
100
AcDbEntity
  8
CALQUE_1
  0
POLYLINE
  5
410
330
1F
100
AcDbEntity
  8
CALQUE_1
 62
     7
100
AcDb2dPolyline
 66
     1
 10
0.0
 20
0.0
 30
0.0
  0
VERTEX
  5
411
330
410
100
AcDbEntity
  8
CALQUE_1
 62
     7
100
AcDbVertex
100
AcDb2dVertex
 10
193.992465500547
 20
-440.9570636918441
 30
0.0
  0
VERTEX
  5
412
330
410
100
AcDbEntity
  8
CALQUE_1
 62
     7
100
AcDbVertex
100
AcDb2dVertex
 10
197.6924980517053
 20
-465.9574326092051
 30
0.0
  0
SEQEND
  5
413
330
410
100
AcDbEntity
  8
CALQUE_1
  0
POLYLINE
  5
414
330
1F
100
AcDbEntity
  8
CALQUE_1
 62
     7
100
AcDb2dPolyline
 66
     1
 10
0.0
 20
0.0
 30
0.0
  0
VERTEX
  5
415
330
414
100
AcDbEntity
  8
CALQUE_1
 62
     7
100
AcDbVertex
100
AcDb2dVertex
 10
197.6924980517053
 20
-465.9574326092051
 30
0.0
  0
VERTEX
  5
416
330
414
100
AcDbEntity
  8
CALQUE_1
 62
     7
100
AcDbVertex
100
AcDb2dVertex
 10
210.4924058176026
 20
-465.9574326092051
 30
0.0
  0
SEQEND
  5
417
330
414
100
AcDbEntity
  8
CALQUE_1
  0
POLYLINE
  5
418
330
1F
100
AcDbEntity
  8
CALQUE_1
 62
     7
100
AcDb2dPolyline
 66
     1
 10
0.0
 20
0.0
 30
0.0
  0
VERTEX
  5
419
330
418
100
AcDbEntity
  8
CALQUE_1
 62
     7
100
AcDbVertex
100
AcDb2dVertex
 10
210.4924058176026
 20
-465.9574326092051
 30
0.0
  0
VERTEX
  5
41A
330
418
100
AcDbEntity
  8
CALQUE_1
 62
     7
100
AcDbVertex
100
AcDb2dVertex
 10
210.4924058176026
 20
-440.9570636918441
 30
0.0
  0
SEQEND
  5
41B
330
418
100
AcDbEntity
  8
CALQUE_1
  0
POLYLINE
  5
41C
330
1F
100
AcDbEntity
  8
CALQUE_1
 62
     7
100
AcDb2dPolyline
 66
     1
 10
0.0
 20
0.0
 30
0.0
  0
VERTEX
  5
41D
330
41C
100
AcDbEntity
  8
CALQUE_1
 62
     7
100
AcDbVertex
100
AcDb2dVertex
 10
210.4924058176026
 20
-440.9570636918441
 30
0.0
  0
VERTEX
  5
41E
330
41C
100
AcDbEntity
  8
CALQUE_1
 62
     7
100
AcDbVertex
100
AcDb2dVertex
 10
193.992465500547
 20
-440.9570636918441
 30
0.0
  0
SEQEND
  5
41F
330
41C
100
AcDbEntity
  8
CALQUE_1
  0
ENDSEC
  0
SECTION
  2
OBJECTS
  0
DICTIONARY
  5
C
330
0
100
AcDbDictionary
  3
ACAD_GROUP
350
D
  3
ACAD_LAYOUT
350
1A
  3
ACAD_MLINESTYLE
350
17
  3
ACAD_PLOTSETTINGS
350
19
  3
ACAD_TABLESTYLE
350
420
  3
ACAD_VISUALSTYLE
350
2A
1001
ACAD
1000
TREAT_AS_HARD
1070
     0
  0
DICTIONARY
  5
D
102
{ACAD_REACTORS
330
C
102
}
330
C
100
AcDbDictionary
1001
ACAD
1000
TREAT_AS_HARD
1070
     0
  0
DICTIONARY
  5
1A
102
{ACAD_REACTORS
330
C
102
}
330
C
100
AcDbDictionary
1001
ACAD
1000
TREAT_AS_HARD
1070
     0
  0
DICTIONARY
  5
17
102
{ACAD_REACTORS
330
C
102
}
330
C
100
AcDbDictionary
  3
STANDARD
350
18
1001
ACAD
1000
TREAT_AS_HARD
1070
     0
  0
DICTIONARY
  5
19
102
{ACAD_REACTORS
330
C
102
}
330
C
100
AcDbDictionary
1001
ACAD
1000
TREAT_AS_HARD
1070
     0
  0
DICTIONARY
  5
420
102
{ACAD_REACTORS
330
C
102
}
330
C
100
AcDbDictionary
1001
ACAD
1000
TREAT_AS_HARD
1070
     0
  0
DICTIONARY
  5
2A
102
{ACAD_REACTORS
330
C
102
}
330
C
100
AcDbDictionary
  3
2DWIREFRAME
350
2F
  3
3D_HIDDEN
350
31
  3
3DWIREFRAME
350
30
  3
BASIC
350
32
  3
BRIGHTEN
350
36
  3
COLORCHANGE
350
3A
  3
CONCEPTUAL
350
34
  3
DIM
350
35
  3
FACEPATTERN
350
39
  3
FLAT
350
2B
  3
FLATWITHEDGES
350
2C
  3
GOURAUD
350
2D
  3
GOURAUDWITHEDGES
350
2E
  3
LINEPATTERN
350
38
  3
REALISTIC
350
33
  3
THICKEN
350
37
1001
ACAD
1000
TREAT_AS_HARD
1070
     0
  0
MLINESTYLE
  5
18
102
{ACAD_REACTORS
330
17
102
}
330
17
100
AcDbMlineStyle
  2
Standard
 70
     0
  3

 62
   256
 51
90.0
 52
90.0
 71
     2
 49
0.5
 62
   256
  6
BYLAYER
 49
-0.5
 62
   256
  6
BYLAYER
  0
VISUALSTYLE
  5
2F
102
{ACAD_REACTORS
330
2A
102
}
330
2A
100
AcDbVisualStyle
  2
2dWireframe
 70
     4
 71
     0
 72
     2
 73
     0
 90
        0
 40
-0.6
 41
-30.0
 62
     5
 63
     7
 74
     1
 91
        4
 64
     7
 65
   257
 75
     1
175
     1
 42
1.0
 92
        0
 66
   257
 43
1.0
 76
     1
 77
     6
 78
     2
 67
     7
 79
     5
170
     0
171
     0
290
     0
174
     0
 93
        1
 44
0.0
173
     0
291
     0
 45
0.0
1001
ACAD
1000
AcDbSavedByObjectVersion
1070
     0
  0
VISUALSTYLE
  5
31
102
{ACAD_REACTORS
330
2A
102
}
330
2A
100
AcDbVisualStyle
  2
3D Hidden
 70
     6
 71
     1
 72
     2
 73
     2
 90
        0
 40
-0.6
 41
-30.0
 62
     5
 63
     7
 74
     2
 91
        2
 64
     7
 65
   257
 75
     2
175
     1
 42
40.0
 92
        0
 66
   257
 43
1.0
 76
     1
 77
     6
 78
     2
 67
     7
 79
     3
170
     0
171
     0
290
     0
174
     0
 93
        1
 44
0.0
173
     0
291
     0
 45
0.0
1001
ACAD
1000
AcDbSavedByObjectVersion
1070
     0
  0
VISUALSTYLE
  5
30
102
{ACAD_REACTORS
330
2A
102
}
330
2A
100
AcDbVisualStyle
  2
3dWireframe
 70
     5
 71
     0
 72
     2
 73
     0
 90
        0
 40
-0.6
 41
-30.0
 62
     5
 63
     7
 74
     1
 91
        4
 64
     7
 65
   257
 75
     1
175
     1
 42
1.0
 92
        0
 66
   257
 43
1.0
 76
     1
 77
     6
 78
     2
 67
     7
 79
     5
170
     0
171
     0
290
     0
174
     0
 93
        1
 44
0.0
173
     0
291
     0
 45
0.0
1001
ACAD
1000
AcDbSavedByObjectVersion
1070
     0
  0
VISUALSTYLE
  5
32
102
{ACAD_REACTORS
330
2A
102
}
330
2A
100
AcDbVisualStyle
  2
Basic
 70
     7
 71
     1
 72
     0
 73
     1
 90
        0
 40
-0.6
 41
-30.0
 62
     5
 63
     7
 74
     0
 91
        4
 64
     7
 65
   257
 75
     1
175
     1
 42
1.0
 92
        8
 66
     7
 43
1.0
 76
     1
 77
     6
 78
     2
 67
     7
 79
     5
170
     0
171
     0
290
     0
174
     0
 93
        1
 44
0.0
173
     0
291
     1
 45
0.0
1001
ACAD
1000
AcDbSavedByObjectVersion
1070
     0
  0
VISUALSTYLE
  5
36
102
{ACAD_REACTORS
330
2A
102
}
330
2A
100
AcDbVisualStyle
  2
Brighten
 70
    12
 71
     2
 72
     2
 73
     0
 90
        0
 40
-0.6
 41
-30.0
 62
     5
 63
     7
 74
     1
 91
        4
 64
     7
 65
   257
 75
     1
175
     1
 42
1.0
 92
        8
 66
     7
 43
1.0
 76
     1
 77
     6
 78
     2
 67
     7
 79
     5
170
     0
171
     0
290
     0
174
     0
 93
        1
 44
50.0
173
     0
291
     1
 45
0.0
1001
ACAD
1000
AcDbSavedByObjectVersion
1070
     0
  0
VISUALSTYLE
  5
3A
102
{ACAD_REACTORS
330
2A
102
}
330
2A
100
AcDbVisualStyle
  2
ColorChange
 70
    16
 71
     2
 72
     2
 73
     3
 90
        0
 40
-0.6
 41
-30.0
 62
     5
 63
     8
 74
     1
 91
        4
 64
     7
 65
   257
 75
     1
175
     1
 42
1.0
 92
        8
 66
     8
 43
1.0
 76
     1
 77
     6
 78
     2
 67
     7
 79
     5
170
     0
171
     0
290
     0
174
     0
 93
        1
 44
0.0
173
     0
291
     1
 45
0.0
1001
ACAD
1000
AcDbSavedByObjectVersion
1070
     0
  0
VISUALSTYLE
  5
34
102
{ACAD_REACTORS
330
2A
102
}
330
2A
100
AcDbVisualStyle
  2
Conceptual
 70
     9
 71
     3
 72
     2
 73
     0
 90
        0
 40
-0.6
 41
-30.0
 62
     5
 63
     7
 74
     2
 91
        2
 64
     7
 65
   257
 75
     1
175
     1
 42
40.0
 92
        8
 66
     7
 43
1.0
 76
     1
 77
     6
 78
     2
 67
     7
 79
     3
170
     0
171
     0
290
     0
174
     0
 93
        1
 44
0.0
173
     0
291
     0
 45
0.0
1001
ACAD
1000
AcDbSavedByObjectVersion
1070
     0
  0
VISUALSTYLE
  5
35
102
{ACAD_REACTORS
330
2A
102
}
330
2A
100
AcDbVisualStyle
  2
Dim
 70
    11
 71
     2
 72
     2
 73
     0
 90
        0
 40
-0.6
 41
-30.0
 62
     5
 63
     7
 74
     1
 91
        4
 64
     7
 65
   257
 75
     1
175
     1
 42
1.0
 92
        8
 66
     7
 43
1.0
 76
     1
 77
     6
 78
     2
 67
     7
 79
     5
170
     0
171
     0
290
     0
174
     0
 93
        1
 44
-50.0
173
     0
291
     1
 45
0.0
1001
ACAD
1000
AcDbSavedByObjectVersion
1070
     0
  0
VISUALSTYLE
  5
39
102
{ACAD_REACTORS
330
2A
102
}
330
2A
100
AcDbVisualStyle
  2
Facepattern
 70
    15
 71
     2
 72
     2
 73
     0
 90
        0
 40
-0.6
 41
-30.0
 62
     5
 63
     7
 74
     1
 91
        4
 64
     7
 65
   257
 75
     1
175
     1
 42
1.0
 92
        8
 66
     7
 43
1.0
 76
     1
 77
     6
 78
     2
 67
     7
 79
     5
170
     0
171
     0
290
     0
174
     0
 93
        1
 44
0.0
173
     0
291
     1
 45
0.0
1001
ACAD
1000
AcDbSavedByObjectVersion
1070
     0
  0
VISUALSTYLE
  5
2B
102
{ACAD_REACTORS
330
2A
102
}
330
2A
100
AcDbVisualStyle
  2
Flat
 70
     0
 71
     2
 72
     1
 73
     1
 90
        2
 40
-0.6
 41
30.0
 62
     5
 63
     7
 74
     0
 91
        4
 64
     7
 65
   257
 75
     1
175
     1
 42
1.0
 92
        8
 66
     7
 43
1.0
 76
     1
 77
     6
 78
     2
 67
     7
 79
     5
170
     0
171
     0
290
     0
174
     0
 93
       13
 44
0.0
173
     0
291
     1
 45
0.0
1001
ACAD
1000
AcDbSavedByObjectVersion
1070
     0
  0
VISUALSTYLE
  5
2C
102
{ACAD_REACTORS
330
2A
102
}
330
2A
100
AcDbVisualStyle
  2
FlatWithEdges
 70
     1
 71
     2
 72
     1
 73
     1
 90
        2
 40
-0.6
 41
30.0
 62
     5
 63
     7
 74
     1
 91
        4
 64
     7
 65
   257
 75
     1
175
     1
 42
1.0
 92
        0
 66
   257
 43
1.0
 76
     1
 77
     6
 78
     2
 67
     7
 79
     5
170
     0
171
     0
290
     0
174
     0
 93
       13
 44
0.0
173
     0
291
     1
 45
0.0
1001
ACAD
1000
AcDbSavedByObjectVersion
1070
     0
  0
VISUALSTYLE
  5
2D
102
{ACAD_REACTORS
330
2A
102
}
330
2A
100
AcDbVisualStyle
  2
Gouraud
 70
     2
 71
     2
 72
     2
 73
     1
 90
        2
 40
-0.6
 41
30.0
 62
     5
 63
     7
 74
     0
 91
        4
 64
     7
 65
   257
 75
     1
175
     1
 42
1.0
 92
        0
 66
     7
 43
1.0
 76
     1
 77
     6
 78
     2
 67
     7
 79
     5
170
     0
171
     0
290
     0
174
     0
 93
       13
 44
0.0
173
     0
291
     1
 45
0.0
1001
ACAD
1000
AcDbSavedByObjectVersion
1070
     0
  0
VISUALSTYLE
  5
2E
102
{ACAD_REACTORS
330
2A
102
}
330
2A
100
AcDbVisualStyle
  2
GouraudWithEdges
 70
     3
 71
     2
 72
     2
 73
     1
 90
        2
 40
-0.6
 41
30.0
 62
     5
 63
     7
 74
     1
 91
        4
 64
     7
 65
   257
 75
     1
175
     1
 42
1.0
 92
        0
 66
   257
 43
1.0
 76
     1
 77
     6
 78
     2
 67
     7
 79
     5
170
     0
171
     0
290
     0
174
     0
 93
       13
 44
0.0
173
     0
291
     1
 45
0.0
1001
ACAD
1000
AcDbSavedByObjectVersion
1070
     0
  0
VISUALSTYLE
  5
38
102
{ACAD_REACTORS
330
2A
102
}
330
2A
100
AcDbVisualStyle
  2
Linepattern
 70
    14
 71
     2
 72
     2
 73
     0
 90
        0
 40
-0.6
 41
-30.0
 62
     5
 63
     7
 74
     1
 91
        4
 64
     7
 65
   257
 75
     7
175
     7
 42
1.0
 92
        8
 66
     7
 43
1.0
 76
     1
 77
     6
 78
     2
 67
     7
 79
     5
170
     0
171
     0
290
     0
174
     0
 93
        1
 44
0.0
173
     0
291
     1
 45
0.0
1001
ACAD
1000
AcDbSavedByObjectVersion
1070
     0
  0
VISUALSTYLE
  5
33
102
{ACAD_REACTORS
330
2A
102
}
330
2A
100
AcDbVisualStyle
  2
Realistic
 70
     8
 71
     2
 72
     2
 73
     0
 90
        0
 40
-0.6
 41
-30.0
 62
     5
 63
     7
 74
     1
 91
        0
 64
     7
 65
   257
 75
     1
175
     1
 42
1.0
 92
        8
 66
     8
 43
1.0
 76
     1
 77
     6
 78
     2
 67
     7
 79
     5
170
     0
171
     0
290
     0
174
     0
 93
       13
 44
0.0
173
     0
291
     0
 45
0.0
1001
ACAD
1000
AcDbSavedByObjectVersion
1070
     0
  0
VISUALSTYLE
  5
37
102
{ACAD_REACTORS
330
2A
102
}
330
2A
100
AcDbVisualStyle
  2
Thicken
 70
    13
 71
     2
 72
     2
 73
     0
 90
        0
 40
-0.6
 41
-30.0
 62
     5
 63
     7
 74
     1
 91
        4
 64
     7
 65
   257
 75
     1
175
     1
 42
1.0
 92
       12
 66
     7
 43
1.0
 76
     1
 77
     6
 78
     2
 67
     7
 79
     5
170
     0
171
     0
290
     0
174
     0
 93
        1
 44
0.0
173
     0
291
     1
 45
0.0
1001
ACAD
1000
AcDbSavedByObjectVersion
1070
     0
  0
ENDSEC
  0
EOF
