  0
SECTION
  2
HEADER
  9
$ACADVER
  1
AC1012
  9
$DWGCODEPAGE
  3
ansi_1252
  9
$INSBASE
 10
0.0
 20
0.0
 30
0.0
  9
$EXTMIN
 10
1.000000000000000E+20
 20
1.000000000000000E+20
 30
1.000000000000000E+20
  9
$EXTMAX
 10
-1.000000000000000E+20
 20
-1.000000000000000E+20
 30
-1.000000000000000E+20
  9
$LIMMIN
 10
0.0
 20
0.0
  9
$LIMMAX
 10
12.0
 20
9.0
  9
$ORTHOMODE
 70
     0
  9
$REGENMODE
 70
     1
  9
$FILLMODE
 70
     1
  9
$QTEXTMODE
 70
     0
  9
$MIRRTEXT
 70
     1
  9
$DRAGMODE
 70
     2
  9
$LTSCALE
 40
1.0
  9
$OSMODE
 70
    37
  9
$ATTMODE
 70
     1
  9
$TEXTSIZE
 40
0.2
  9
$TRACEWID
 40
0.05
  9
$TEXTSTYLE
  7
STANDARD
  9
$CLAYER
  8
0
  9
$CELTYPE
  6
BYLAYER
  9
$CECOLOR
 62
   256
  9
$CELTSCALE
 40
1.0
  9
$DELOBJ
 70
     1
  9
$DISPSILH
 70
     0
  9
$DIMSCALE
 40
1.0
  9
$DIMASZ
 40
0.18
  9
$DIMEXO
 40
0.0625
  9
$DIMDLI
 40
0.38
  9
$DIMRND
 40
0.0
  9
$DIMDLE
 40
0.0
  9
$DIMEXE
 40
0.18
  9
$DIMTP
 40
0.0
  9
$DIMTM
 40
0.0
  9
$DIMTXT
 40
0.18
  9
$DIMCEN
 40
0.09
  9
$DIMTSZ
 40
0.0
  9
$DIMTOL
 70
     0
  9
$DIMLIM
 70
     0
  9
$DIMTIH
 70
     1
  9
$DIMTOH
 70
     1
  9
$DIMSE1
 70
     0
  9
$DIMSE2
 70
     0
  9
$DIMTAD
 70
     0
  9
$DIMZIN
 70
     0
  9
$DIMBLK
  1

  9
$DIMASO
 70
     1
  9
$DIMSHO
 70
     1
  9
$DIMPOST
  1

  9
$DIMAPOST
  1

  9
$DIMALT
 70
     0
  9
$DIMALTD
 70
     2
  9
$DIMALTF
 40
25.4
  9
$DIMLFAC
 40
1.0
  9
$DIMTOFL
 70
     0
  9
$DIMTVP
 40
0.0
  9
$DIMTIX
 70
     0
  9
$DIMSOXD
 70
     0
  9
$DIMSAH
 70
     0
  9
$DIMBLK1
  1

  9
$DIMBLK2
  1

  9
$DIMSTYLE
  2
STANDARD
  9
$DIMCLRD
 70
     0
  9
$DIMCLRE
 70
     0
  9
$DIMCLRT
 70
     0
  9
$DIMTFAC
 40
1.0
  9
$DIMGAP
 40
0.09
  9
$DIMJUST
 70
     0
  9
$DIMSD1
 70
     0
  9
$DIMSD2
 70
     0
  9
$DIMTOLJ
 70
     1
  9
$DIMTZIN
 70
     0
  9
$DIMALTZ
 70
     0
  9
$DIMALTTZ
 70
     0
  9
$DIMFIT
 70
     3
  9
$DIMUPT
 70
     0
  9
$DIMUNIT
 70
     2
  9
$DIMDEC
 70
     4
  9
$DIMTDEC
 70
     4
  9
$DIMALTU
 70
     2
  9
$DIMALTTD
 70
     2
  9
$DIMTXSTY
  7
STANDARD
  9
$DIMAUNIT
 70
     0
  9
$LUNITS
 70
     2
  9
$LUPREC
 70
     4
  9
$SKETCHINC
 40
0.1
  9
$FILLETRAD
 40
0.5
  9
$AUNITS
 70
     0
  9
$AUPREC
 70
     0
  9
$MENU
  1
.
  9
$ELEVATION
 40
0.0
  9
$PELEVATION
 40
0.0
  9
$THICKNESS
 40
0.0
  9
$LIMCHECK
 70
     0
  9
$CHAMFERA
 40
0.5
  9
$CHAMFERB
 40
0.5
  9
$CHAMFERC
 40
1.0
  9
$CHAMFERD
 40
0.0
  9
$SKPOLY
 70
     0
  9
$TDCREATE
 40
2457471.907947697
  9
$TDUPDATE
 40
2457471.907947708
  9
$TDINDWG
 40
0.0000000116
  9
$TDUSRTIMER
 40
0.0000000116
  9
$USRTIMER
 70
     1
  9
$ANGBASE
 50
0.0
  9
$ANGDIR
 70
     0
  9
$PDMODE
 70
     0
  9
$PDSIZE
 40
0.0
  9
$PLINEWID
 40
0.0
  9
$COORDS
 70
     1
  9
$SPLFRAME
 70
     0
  9
$SPLINETYPE
 70
     6
  9
$SPLINESEGS
 70
     8
  9
$ATTDIA
 70
     0
  9
$ATTREQ
 70
     1
  9
$HANDLING
 70
     1
  9
$HANDSEED
  5
31D
  9
$SURFTAB1
 70
     6
  9
$SURFTAB2
 70
     6
  9
$SURFTYPE
 70
     6
  9
$SURFU
 70
     6
  9
$SURFV
 70
     6
  9
$UCSNAME
  2

  9
$UCSORG
 10
0.0
 20
0.0
 30
0.0
  9
$UCSXDIR
 10
1.0
 20
0.0
 30
0.0
  9
$UCSYDIR
 10
0.0
 20
1.0
 30
0.0
  9
$PUCSNAME
  2

  9
$PUCSORG
 10
0.0
 20
0.0
 30
0.0
  9
$PUCSXDIR
 10
1.0
 20
0.0
 30
0.0
  9
$PUCSYDIR
 10
0.0
 20
1.0
 30
0.0
  9
$USERI1
 70
     0
  9
$USERI2
 70
     0
  9
$USERI3
 70
     0
  9
$USERI4
 70
     0
  9
$USERI5
 70
     0
  9
$USERR1
 40
0.0
  9
$USERR2
 40
0.0
  9
$USERR3
 40
0.0
  9
$USERR4
 40
0.0
  9
$USERR5
 40
0.0
  9
$WORLDVIEW
 70
     1
  9
$SHADEDGE
 70
     3
  9
$SHADEDIF
 70
    70
  9
$TILEMODE
 70
     1
  9
$MAXACTVP
 70
    64
  9
$PINSBASE
 10
0.0
 20
0.0
 30
0.0
  9
$PLIMCHECK
 70
     0
  9
$PEXTMIN
 10
1.000000000000000E+20
 20
1.000000000000000E+20
 30
1.000000000000000E+20
  9
$PEXTMAX
 10
-1.000000000000000E+20
 20
-1.000000000000000E+20
 30
-1.000000000000000E+20
  9
$PLIMMIN
 10
0.0
 20
0.0
  9
$PLIMMAX
 10
12.0
 20
9.0
  9
$UNITMODE
 70
     0
  9
$VISRETAIN
 70
     1
  9
$PLINEGEN
 70
     0
  9
$PSLTSCALE
 70
     1
  9
$TREEDEPTH
 70
  3020
  9
$PICKSTYLE
 70
     1
  9
$CMLSTYLE
  2
STANDARD
  9
$CMLJUST
 70
     0
  9
$CMLSCALE
 40
1.0
  9
$SAVEIMAGES
 70
     1
  0
ENDSEC
  0
SECTION
  2
CLASSES
  0
CLASS
  1
ACDBDICTIONARYWDFLT
  2
AcDbDictionaryWithDefault
  3
ObjectDBX Classes
 90
    32768
280
     0
281
     0
  0
CLASS
  1
VISUALSTYLE
  2
AcDbVisualStyle
  3
ObjectDBX Classes
 90
     4095
280
     0
281
     0
  0
CLASS
  1
XRECORD
  2
AcDbXrecord
  3
AutoCAD 2000
 90
    32768
280
     0
281
     0
  0
CLASS
  1
LWPOLYLINE
  2
AcDbPolyline
  3
AutoCAD 2000
 90
    32768
280
     0
281
     1
  0
CLASS
  1
HATCH
  2
AcDbHatch
  3
AutoCAD 2000
 90
    32768
280
     0
281
     1
  0
CLASS
  1
ACDBPLACEHOLDER
  2
AcDbPlaceHolder
  3
ObjectDBX Classes
 90
        0
280
     0
281
     0
  0
CLASS
  1
LAYOUT
  2
AcDbLayout
  3
ObjectDBX Classes
 90
        0
280
     0
281
     0
  0
ENDSEC
  0
SECTION
  2
TABLES
  0
TABLE
  2
VPORT
  5
8
330
0
100
AcDbSymbolTable
 70
     1
  0
VPORT
  5
29
330
8
100
AcDbSymbolTableRecord
100
AcDbViewportTableRecord
  2
*ACTIVE
 70
     0
 10
0.0
 20
0.0
 11
1.0
 21
1.0
 12
0.0
 22
0.0
 13
0.0
 23
0.0
 14
0.5
 24
0.5
 15
0.5
 25
0.5
 16
0.0
 26
0.0
 36
1.0
 17
400.0005627797742
 27
-300.0004651485242
 37
0.0
 40
600.0009302970484
 41
1.333333141939436
 42
50.0
 43
0.0
 44
0.0
 50
0.0
 51
0.0
 71
     0
 72
   100
 73
     1
 74
     3
 75
     0
 76
     0
 77
     0
 78
     0
  0
ENDTAB
  0
TABLE
  2
LTYPE
  5
5
330
0
100
AcDbSymbolTable
 70
     1
  0
LTYPE
  5
14
330
5
100
AcDbSymbolTableRecord
100
AcDbLinetypeTableRecord
  2
BYBLOCK
 70
     0
  3

 72
    65
 73
     0
 40
0.0
  0
LTYPE
  5
15
330
5
100
AcDbSymbolTableRecord
100
AcDbLinetypeTableRecord
  2
BYLAYER
 70
     0
  3

 72
    65
 73
     0
 40
0.0
  0
LTYPE
  5
16
330
5
100
AcDbSymbolTableRecord
100
AcDbLinetypeTableRecord
  2
CONTINUOUS
 70
     0
  3
Solid line
 72
    65
 73
     0
 40
0.0
  0
ENDTAB
  0
TABLE
  2
LAYER
  5
2
330
0
100
AcDbSymbolTable
 70
     2
  0
LAYER
  5
10
330
2
100
AcDbSymbolTableRecord
100
AcDbLayerTableRecord
  2
0
 70
     0
 62
     7
  6
CONTINUOUS
  0
LAYER
  5
3B
330
2
100
AcDbSymbolTableRecord
100
AcDbLayerTableRecord
  2
CALQUE_1
 70
     0
 62
     7
  6
CONTINUOUS
  0
ENDTAB
  0
TABLE
  2
STYLE
  5
3
330
0
100
AcDbSymbolTable
 70
     1
  0
STYLE
  5
11
330
3
100
AcDbSymbolTableRecord
100
AcDbTextStyleTableRecord
  2
STANDARD
 70
     0
 40
0.0
 41
1.0
 50
0.0
 71
     0
 42
0.2
  3
txt
  4

  0
ENDTAB
  0
TABLE
  2
VIEW
  5
6
330
0
100
AcDbSymbolTable
 70
     0
  0
ENDTAB
  0
TABLE
  2
UCS
  5
7
330
0
100
AcDbSymbolTable
 70
     0
  0
ENDTAB
  0
TABLE
  2
APPID
  5
9
330
0
100
AcDbSymbolTable
 70
     1
  0
APPID
  5
12
330
9
100
AcDbSymbolTableRecord
100
AcDbRegAppTableRecord
  2
ACAD
 70
     0
  0
ENDTAB
  0
TABLE
  2
DIMSTYLE
  5
A
330
0
100
AcDbSymbolTable
 70
     1
  0
DIMSTYLE
105
27
330
A
100
AcDbSymbolTableRecord
100
AcDbDimStyleTableRecord
  2
STANDARD
 70
     0
  3

  4

  5

  6

  7

 40
1.0
 41
0.18
 42
0.0625
 43
0.38
 44
0.18
 45
0.0
 46
0.0
 47
0.0
 48
0.0
140
0.18
141
0.09
142
0.0
143
25.4
144
1.0
145
0.0
146
1.0
147
0.09
 71
     0
 72
     0
 73
     1
 74
     1
 75
     0
 76
     0
 77
     0
 78
     0
170
     0
171
     2
172
     0
173
     0
174
     0
175
     0
176
     0
177
     0
178
     0
270
     2
271
     4
272
     4
273
     2
274
     2
340
11
275
     0
280
     0
281
     0
282
     0
283
     1
284
     0
285
     0
286
     0
287
     3
288
     0
  0
ENDTAB
  0
TABLE
  2
BLOCK_RECORD
  5
1
330
0
100
AcDbSymbolTable
 70
     1
  0
BLOCK_RECORD
  5
1F
330
1
100
AcDbSymbolTableRecord
100
AcDbBlockTableRecord
  2
*MODEL_SPACE
  0
BLOCK_RECORD
  5
1B
330
1
100
AcDbSymbolTableRecord
100
AcDbBlockTableRecord
  2
*PAPER_SPACE
  0
ENDTAB
  0
ENDSEC
  0
SECTION
  2
BLOCKS
  0
BLOCK
  5
20
330
1F
100
AcDbEntity
  8
0
100
AcDbBlockBegin
  2
*MODEL_SPACE
 70
     0
 71
     0
 10
0.0
 20
0.0
 30
0.0
  3
*MODEL_SPACE
  1

  0
ENDBLK
  5
21
330
1F
100
AcDbEntity
  8
0
100
AcDbBlockEnd
  0
BLOCK
  5
1C
330
1B
100
AcDbEntity
 67
     1
  8
0
100
AcDbBlockBegin
  2
*PAPER_SPACE
 70
     0
 71
     0
 10
0.0
 20
0.0
 30
0.0
  3
*PAPER_SPACE
  1

  0
ENDBLK
  5
1D
330
1B
100
AcDbEntity
 67
     1
  8
0
100
AcDbBlockEnd
  0
ENDSEC
  0
SECTION
  2
ENTITIES
  0
POLYLINE
  5
3C
330
1F
100
AcDbEntity
  8
CALQUE_1
 62
     7
100
AcDb2dPolyline
 66
     1
 10
0.0
 20
0.0
 30
0.0
  0
VERTEX
  5
3D
330
3C
100
AcDbEntity
  8
CALQUE_1
 62
     7
100
AcDbVertex
100
AcDb2dVertex
 10
773.8745549280592
 20
-227.6973849257145
 30
0.0
  0
VERTEX
  5
3E
330
3C
100
AcDbEntity
  8
CALQUE_1
 62
     7
100
AcDbVertex
100
AcDb2dVertex
 10
773.8745549280592
 20
-142.6975775467909
 30
0.0
  0
SEQEND
  5
3F
330
3C
100
AcDbEntity
  8
CALQUE_1
  0
POLYLINE
  5
40
330
1F
100
AcDbEntity
  8
CALQUE_1
 62
     7
100
AcDb2dPolyline
 66
     1
 10
0.0
 20
0.0
 30
0.0
  0
VERTEX
  5
41
330
40
100
AcDbEntity
  8
CALQUE_1
 62
     7
100
AcDbVertex
100
AcDb2dVertex
 10
767.874576630948
 20
-227.6973849257145
 30
0.0
  0
VERTEX
  5
42
330
40
100
AcDbEntity
  8
CALQUE_1
 62
     7
100
AcDbVertex
100
AcDb2dVertex
 10
773.8745549280592
 20
-227.6973849257145
 30
0.0
  0
SEQEND
  5
43
330
40
100
AcDbEntity
  8
CALQUE_1
  0
POLYLINE
  5
44
330
1F
100
AcDbEntity
  8
CALQUE_1
 62
     7
100
AcDb2dPolyline
 66
     1
 10
0.0
 20
0.0
 30
0.0
  0
VERTEX
  5
45
330
44
100
AcDbEntity
  8
CALQUE_1
 62
     7
100
AcDbVertex
100
AcDb2dVertex
 10
767.874576630948
 20
-142.6975775467909
 30
0.0
  0
VERTEX
  5
46
330
44
100
AcDbEntity
  8
CALQUE_1
 62
     7
100
AcDbVertex
100
AcDb2dVertex
 10
767.874576630948
 20
-227.6973849257145
 30
0.0
  0
SEQEND
  5
47
330
44
100
AcDbEntity
  8
CALQUE_1
  0
POLYLINE
  5
48
330
1F
100
AcDbEntity
  8
CALQUE_1
 62
     7
100
AcDb2dPolyline
 66
     1
 10
0.0
 20
0.0
 30
0.0
  0
VERTEX
  5
49
330
48
100
AcDbEntity
  8
CALQUE_1
 62
     7
100
AcDbVertex
100
AcDb2dVertex
 10
773.8745549280592
 20
-142.6975775467909
 30
0.0
  0
VERTEX
  5
4A
330
48
100
AcDbEntity
  8
CALQUE_1
 62
     7
100
AcDbVertex
100
AcDb2dVertex
 10
767.874576630948
 20
-142.6975775467909
 30
0.0
  0
SEQEND
  5
4B
330
48
100
AcDbEntity
  8
CALQUE_1
  0
POLYLINE
  5
4C
330
1F
100
AcDbEntity
  8
CALQUE_1
 62
     7
100
AcDb2dPolyline
 66
     1
 10
0.0
 20
0.0
 30
0.0
  0
VERTEX
  5
4D
330
4C
100
AcDbEntity
  8
CALQUE_1
 62
     7
100
AcDbVertex
100
AcDb2dVertex
 10
773.8745549280592
 20
-517.6975991544298
 30
0.0
  0
VERTEX
  5
4E
330
4C
100
AcDbEntity
  8
CALQUE_1
 62
     7
100
AcDbVertex
100
AcDb2dVertex
 10
773.8745549280592
 20
-432.6974472659576
 30
0.0
  0
SEQEND
  5
4F
330
4C
100
AcDbEntity
  8
CALQUE_1
  0
POLYLINE
  5
50
330
1F
100
AcDbEntity
  8
CALQUE_1
 62
     7
100
AcDb2dPolyline
 66
     1
 10
0.0
 20
0.0
 30
0.0
  0
VERTEX
  5
51
330
50
100
AcDbEntity
  8
CALQUE_1
 62
     7
100
AcDbVertex
100
AcDb2dVertex
 10
767.874576630948
 20
-517.6975991544298
 30
0.0
  0
VERTEX
  5
52
330
50
100
AcDbEntity
  8
CALQUE_1
 62
     7
100
AcDbVertex
100
AcDb2dVertex
 10
773.8745549280592
 20
-517.6975991544298
 30
0.0
  0
SEQEND
  5
53
330
50
100
AcDbEntity
  8
CALQUE_1
  0
POLYLINE
  5
54
330
1F
100
AcDbEntity
  8
CALQUE_1
 62
     7
100
AcDb2dPolyline
 66
     1
 10
0.0
 20
0.0
 30
0.0
  0
VERTEX
  5
55
330
54
100
AcDbEntity
  8
CALQUE_1
 62
     7
100
AcDbVertex
100
AcDb2dVertex
 10
767.874576630948
 20
-432.6974472659576
 30
0.0
  0
VERTEX
  5
56
330
54
100
AcDbEntity
  8
CALQUE_1
 62
     7
100
AcDbVertex
100
AcDb2dVertex
 10
767.874576630948
 20
-517.6975991544298
 30
0.0
  0
SEQEND
  5
57
330
54
100
AcDbEntity
  8
CALQUE_1
  0
POLYLINE
  5
58
330
1F
100
AcDbEntity
  8
CALQUE_1
 62
     7
100
AcDb2dPolyline
 66
     1
 10
0.0
 20
0.0
 30
0.0
  0
VERTEX
  5
59
330
58
100
AcDbEntity
  8
CALQUE_1
 62
     7
100
AcDbVertex
100
AcDb2dVertex
 10
773.8745549280592
 20
-432.6974472659576
 30
0.0
  0
VERTEX
  5
5A
330
58
100
AcDbEntity
  8
CALQUE_1
 62
     7
100
AcDbVertex
100
AcDb2dVertex
 10
767.874576630948
 20
-432.6974472659576
 30
0.0
  0
SEQEND
  5
5B
330
58
100
AcDbEntity
  8
CALQUE_1
  0
POLYLINE
  5
5C
330
1F
100
AcDbEntity
  8
CALQUE_1
 62
     7
100
AcDb2dPolyline
 66
     1
 10
0.0
 20
0.0
 30
0.0
  0
VERTEX
  5
5D
330
5C
100
AcDbEntity
  8
CALQUE_1
 62
     7
100
AcDbVertex
100
AcDb2dVertex
 10
114.8746418983647
 20
-553.4476995144158
 30
0.0
  0
VERTEX
  5
5E
330
5C
100
AcDbEntity
  8
CALQUE_1
 62
     7
100
AcDbVertex
100
AcDb2dVertex
 10
114.8746418983647
 20
-523.4474635193118
 30
0.0
  0
SEQEND
  5
5F
330
5C
100
AcDbEntity
  8
CALQUE_1
  0
POLYLINE
  5
60
330
1F
100
AcDbEntity
  8
CALQUE_1
 62
     7
100
AcDb2dPolyline
 66
     1
 10
0.0
 20
0.0
 30
0.0
  0
VERTEX
  5
61
330
60
100
AcDbEntity
  8
CALQUE_1
 62
     7
100
AcDbVertex
100
AcDb2dVertex
 10
108.8746636012536
 20
-553.4476995144158
 30
0.0
  0
VERTEX
  5
62
330
60
100
AcDbEntity
  8
CALQUE_1
 62
     7
100
AcDbVertex
100
AcDb2dVertex
 10
114.8746418983647
 20
-553.4476995144158
 30
0.0
  0
SEQEND
  5
63
330
60
100
AcDbEntity
  8
CALQUE_1
  0
POLYLINE
  5
64
330
1F
100
AcDbEntity
  8
CALQUE_1
 62
     7
100
AcDb2dPolyline
 66
     1
 10
0.0
 20
0.0
 30
0.0
  0
VERTEX
  5
65
330
64
100
AcDbEntity
  8
CALQUE_1
 62
     7
100
AcDbVertex
100
AcDb2dVertex
 10
108.8746636012536
 20
-523.4474635193118
 30
0.0
  0
VERTEX
  5
66
330
64
100
AcDbEntity
  8
CALQUE_1
 62
     7
100
AcDbVertex
100
AcDb2dVertex
 10
108.8746636012536
 20
-553.4476995144158
 30
0.0
  0
SEQEND
  5
67
330
64
100
AcDbEntity
  8
CALQUE_1
  0
POLYLINE
  5
68
330
1F
100
AcDbEntity
  8
CALQUE_1
 62
     7
100
AcDb2dPolyline
 66
     1
 10
0.0
 20
0.0
 30
0.0
  0
VERTEX
  5
69
330
68
100
AcDbEntity
  8
CALQUE_1
 62
     7
100
AcDbVertex
100
AcDb2dVertex
 10
114.8746418983647
 20
-523.4474635193118
 30
0.0
  0
VERTEX
  5
6A
330
68
100
AcDbEntity
  8
CALQUE_1
 62
     7
100
AcDbVertex
100
AcDb2dVertex
 10
108.8746636012536
 20
-523.4474635193118
 30
0.0
  0
SEQEND
  5
6B
330
68
100
AcDbEntity
  8
CALQUE_1
  0
POLYLINE
  5
6C
330
1F
100
AcDbEntity
  8
CALQUE_1
 62
     7
100
AcDb2dPolyline
 66
     1
 10
0.0
 20
0.0
 30
0.0
  0
VERTEX
  5
6D
330
6C
100
AcDbEntity
  8
CALQUE_1
 62
     7
100
AcDbVertex
100
AcDb2dVertex
 10
98.87458493621885
 20
-588.4474580777146
 30
0.0
  0
VERTEX
  5
6E
330
6C
100
AcDbEntity
  8
CALQUE_1
 62
     7
100
AcDbVertex
100
AcDb2dVertex
 10
144.8745333839203
 20
-588.4474580777146
 30
0.0
  0
SEQEND
  5
6F
330
6C
100
AcDbEntity
  8
CALQUE_1
  0
POLYLINE
  5
70
330
1F
100
AcDbEntity
  8
CALQUE_1
 62
     7
100
AcDb2dPolyline
 66
     1
 10
0.0
 20
0.0
 30
0.0
  0
VERTEX
  5
71
330
70
100
AcDbEntity
  8
CALQUE_1
 62
     7
100
AcDbVertex
100
AcDb2dVertex
 10
98.87458493621885
 20
-488.4477049560131
 30
0.0
  0
VERTEX
  5
72
330
70
100
AcDbEntity
  8
CALQUE_1
 62
     7
100
AcDbVertex
100
AcDb2dVertex
 10
98.87458493621885
 20
-588.4474580777146
 30
0.0
  0
SEQEND
  5
73
330
70
100
AcDbEntity
  8
CALQUE_1
  0
POLYLINE
  5
74
330
1F
100
AcDbEntity
  8
CALQUE_1
 62
     7
100
AcDb2dPolyline
 66
     1
 10
0.0
 20
0.0
 30
0.0
  0
VERTEX
  5
75
330
74
100
AcDbEntity
  8
CALQUE_1
 62
     7
100
AcDbVertex
100
AcDb2dVertex
 10
144.8745333839203
 20
-588.4474580777146
 30
0.0
  0
VERTEX
  5
76
330
74
100
AcDbEntity
  8
CALQUE_1
 62
     7
100
AcDbVertex
100
AcDb2dVertex
 10
144.8745333839203
 20
-572.4477456251172
 30
0.0
  0
SEQEND
  5
77
330
74
100
AcDbEntity
  8
CALQUE_1
  0
POLYLINE
  5
78
330
1F
100
AcDbEntity
  8
CALQUE_1
 62
     7
100
AcDb2dPolyline
 66
     1
 10
0.0
 20
0.0
 30
0.0
  0
VERTEX
  5
79
330
78
100
AcDbEntity
  8
CALQUE_1
 62
     7
100
AcDbVertex
100
AcDb2dVertex
 10
144.8745333839203
 20
-572.4477456251172
 30
0.0
  0
VERTEX
  5
7A
330
78
100
AcDbEntity
  8
CALQUE_1
 62
     7
100
AcDbVertex
100
AcDb2dVertex
 10
251.1245509897362
 20
-572.4477456251172
 30
0.0
  0
SEQEND
  5
7B
330
78
100
AcDbEntity
  8
CALQUE_1
  0
POLYLINE
  5
7C
330
1F
100
AcDbEntity
  8
CALQUE_1
 62
     7
100
AcDb2dPolyline
 66
     1
 10
0.0
 20
0.0
 30
0.0
  0
VERTEX
  5
7D
330
7C
100
AcDbEntity
  8
CALQUE_1
 62
     7
100
AcDbVertex
100
AcDb2dVertex
 10
251.1245509897362
 20
-572.4477456251172
 30
0.0
  0
VERTEX
  5
7E
330
7C
100
AcDbEntity
  8
CALQUE_1
 62
     7
100
AcDbVertex
100
AcDb2dVertex
 10
251.1245509897362
 20
-578.4477239222284
 30
0.0
  0
SEQEND
  5
7F
330
7C
100
AcDbEntity
  8
CALQUE_1
  0
POLYLINE
  5
80
330
1F
100
AcDbEntity
  8
CALQUE_1
 62
     7
100
AcDb2dPolyline
 66
     1
 10
0.0
 20
0.0
 30
0.0
  0
VERTEX
  5
81
330
80
100
AcDbEntity
  8
CALQUE_1
 62
     7
100
AcDbVertex
100
AcDb2dVertex
 10
251.1245509897362
 20
-578.4477239222284
 30
0.0
  0
VERTEX
  5
82
330
80
100
AcDbEntity
  8
CALQUE_1
 62
     7
100
AcDbVertex
100
AcDb2dVertex
 10
221.1246595041806
 20
-578.4477239222284
 30
0.0
  0
SEQEND
  5
83
330
80
100
AcDbEntity
  8
CALQUE_1
  0
POLYLINE
  5
84
330
1F
100
AcDbEntity
  8
CALQUE_1
 62
     7
100
AcDb2dPolyline
 66
     1
 10
0.0
 20
0.0
 30
0.0
  0
VERTEX
  5
85
330
84
100
AcDbEntity
  8
CALQUE_1
 62
     7
100
AcDbVertex
100
AcDb2dVertex
 10
221.1246595041806
 20
-578.4477239222284
 30
0.0
  0
VERTEX
  5
86
330
84
100
AcDbEntity
  8
CALQUE_1
 62
     7
100
AcDbVertex
100
AcDb2dVertex
 10
221.1246595041806
 20
-588.4474580777146
 30
0.0
  0
SEQEND
  5
87
330
84
100
AcDbEntity
  8
CALQUE_1
  0
POLYLINE
  5
88
330
1F
100
AcDbEntity
  8
CALQUE_1
 62
     7
100
AcDb2dPolyline
 66
     1
 10
0.0
 20
0.0
 30
0.0
  0
VERTEX
  5
89
330
88
100
AcDbEntity
  8
CALQUE_1
 62
     7
100
AcDbVertex
100
AcDb2dVertex
 10
221.1246595041806
 20
-588.4474580777146
 30
0.0
  0
VERTEX
  5
8A
330
88
100
AcDbEntity
  8
CALQUE_1
 62
     7
100
AcDbVertex
100
AcDb2dVertex
 10
297.1246716922119
 20
-588.4474580777146
 30
0.0
  0
SEQEND
  5
8B
330
88
100
AcDbEntity
  8
CALQUE_1
  0
POLYLINE
  5
8C
330
1F
100
AcDbEntity
  8
CALQUE_1
 62
     7
100
AcDb2dPolyline
 66
     1
 10
0.0
 20
0.0
 30
0.0
  0
VERTEX
  5
8D
330
8C
100
AcDbEntity
  8
CALQUE_1
 62
     7
100
AcDbVertex
100
AcDb2dVertex
 10
297.1246716922119
 20
-588.4474580777146
 30
0.0
  0
VERTEX
  5
8E
330
8C
100
AcDbEntity
  8
CALQUE_1
 62
     7
100
AcDbVertex
100
AcDb2dVertex
 10
297.1246716922119
 20
-572.4477456251172
 30
0.0
  0
SEQEND
  5
8F
330
8C
100
AcDbEntity
  8
CALQUE_1
  0
POLYLINE
  5
90
330
1F
100
AcDbEntity
  8
CALQUE_1
 62
     7
100
AcDb2dPolyline
 66
     1
 10
0.0
 20
0.0
 30
0.0
  0
VERTEX
  5
91
330
90
100
AcDbEntity
  8
CALQUE_1
 62
     7
100
AcDbVertex
100
AcDb2dVertex
 10
297.1246716922119
 20
-572.4477456251172
 30
0.0
  0
VERTEX
  5
92
330
90
100
AcDbEntity
  8
CALQUE_1
 62
     7
100
AcDbVertex
100
AcDb2dVertex
 10
403.3745170432536
 20
-572.4477456251172
 30
0.0
  0
SEQEND
  5
93
330
90
100
AcDbEntity
  8
CALQUE_1
  0
POLYLINE
  5
94
330
1F
100
AcDbEntity
  8
CALQUE_1
 62
     7
100
AcDb2dPolyline
 66
     1
 10
0.0
 20
0.0
 30
0.0
  0
VERTEX
  5
95
330
94
100
AcDbEntity
  8
CALQUE_1
 62
     7
100
AcDbVertex
100
AcDb2dVertex
 10
403.3745170432536
 20
-572.4477456251172
 30
0.0
  0
VERTEX
  5
96
330
94
100
AcDbEntity
  8
CALQUE_1
 62
     7
100
AcDbVertex
100
AcDb2dVertex
 10
403.3745170432536
 20
-578.4477239222284
 30
0.0
  0
SEQEND
  5
97
330
94
100
AcDbEntity
  8
CALQUE_1
  0
POLYLINE
  5
98
330
1F
100
AcDbEntity
  8
CALQUE_1
 62
     7
100
AcDb2dPolyline
 66
     1
 10
0.0
 20
0.0
 30
0.0
  0
VERTEX
  5
99
330
98
100
AcDbEntity
  8
CALQUE_1
 62
     7
100
AcDbVertex
100
AcDb2dVertex
 10
403.3745170432536
 20
-578.4477239222284
 30
0.0
  0
VERTEX
  5
9A
330
98
100
AcDbEntity
  8
CALQUE_1
 62
     7
100
AcDbVertex
100
AcDb2dVertex
 10
373.374625557698
 20
-578.4477239222284
 30
0.0
  0
SEQEND
  5
9B
330
98
100
AcDbEntity
  8
CALQUE_1
  0
POLYLINE
  5
9C
330
1F
100
AcDbEntity
  8
CALQUE_1
 62
     7
100
AcDb2dPolyline
 66
     1
 10
0.0
 20
0.0
 30
0.0
  0
VERTEX
  5
9D
330
9C
100
AcDbEntity
  8
CALQUE_1
 62
     7
100
AcDbVertex
100
AcDb2dVertex
 10
373.374625557698
 20
-578.4477239222284
 30
0.0
  0
VERTEX
  5
9E
330
9C
100
AcDbEntity
  8
CALQUE_1
 62
     7
100
AcDbVertex
100
AcDb2dVertex
 10
373.374625557698
 20
-588.4474580777146
 30
0.0
  0
SEQEND
  5
9F
330
9C
100
AcDbEntity
  8
CALQUE_1
  0
POLYLINE
  5
A0
330
1F
100
AcDbEntity
  8
CALQUE_1
 62
     7
100
AcDb2dPolyline
 66
     1
 10
0.0
 20
0.0
 30
0.0
  0
VERTEX
  5
A1
330
A0
100
AcDbEntity
  8
CALQUE_1
 62
     7
100
AcDbVertex
100
AcDb2dVertex
 10
373.374625557698
 20
-588.4474580777146
 30
0.0
  0
VERTEX
  5
A2
330
A0
100
AcDbEntity
  8
CALQUE_1
 62
     7
100
AcDbVertex
100
AcDb2dVertex
 10
449.374465490955
 20
-588.4474580777146
 30
0.0
  0
SEQEND
  5
A3
330
A0
100
AcDbEntity
  8
CALQUE_1
  0
POLYLINE
  5
A4
330
1F
100
AcDbEntity
  8
CALQUE_1
 62
     7
100
AcDb2dPolyline
 66
     1
 10
0.0
 20
0.0
 30
0.0
  0
VERTEX
  5
A5
330
A4
100
AcDbEntity
  8
CALQUE_1
 62
     7
100
AcDbVertex
100
AcDb2dVertex
 10
449.374465490955
 20
-588.4474580777146
 30
0.0
  0
VERTEX
  5
A6
330
A4
100
AcDbEntity
  8
CALQUE_1
 62
     7
100
AcDbVertex
100
AcDb2dVertex
 10
449.374465490955
 20
-572.4477456251172
 30
0.0
  0
SEQEND
  5
A7
330
A4
100
AcDbEntity
  8
CALQUE_1
  0
POLYLINE
  5
A8
330
1F
100
AcDbEntity
  8
CALQUE_1
 62
     7
100
AcDb2dPolyline
 66
     1
 10
0.0
 20
0.0
 30
0.0
  0
VERTEX
  5
A9
330
A8
100
AcDbEntity
  8
CALQUE_1
 62
     7
100
AcDbVertex
100
AcDb2dVertex
 10
449.374465490955
 20
-572.4477456251172
 30
0.0
  0
VERTEX
  5
AA
330
A8
100
AcDbEntity
  8
CALQUE_1
 62
     7
100
AcDbVertex
100
AcDb2dVertex
 10
555.6246553515452
 20
-572.4477456251172
 30
0.0
  0
SEQEND
  5
AB
330
A8
100
AcDbEntity
  8
CALQUE_1
  0
POLYLINE
  5
AC
330
1F
100
AcDbEntity
  8
CALQUE_1
 62
     7
100
AcDb2dPolyline
 66
     1
 10
0.0
 20
0.0
 30
0.0
  0
VERTEX
  5
AD
330
AC
100
AcDbEntity
  8
CALQUE_1
 62
     7
100
AcDbVertex
100
AcDb2dVertex
 10
555.6246553515452
 20
-572.4477456251172
 30
0.0
  0
VERTEX
  5
AE
330
AC
100
AcDbEntity
  8
CALQUE_1
 62
     7
100
AcDbVertex
100
AcDb2dVertex
 10
555.6246553515452
 20
-578.4477239222284
 30
0.0
  0
SEQEND
  5
AF
330
AC
100
AcDbEntity
  8
CALQUE_1
  0
POLYLINE
  5
B0
330
1F
100
AcDbEntity
  8
CALQUE_1
 62
     7
100
AcDb2dPolyline
 66
     1
 10
0.0
 20
0.0
 30
0.0
  0
VERTEX
  5
B1
330
B0
100
AcDbEntity
  8
CALQUE_1
 62
     7
100
AcDbVertex
100
AcDb2dVertex
 10
555.6246553515452
 20
-578.4477239222284
 30
0.0
  0
VERTEX
  5
B2
330
B0
100
AcDbEntity
  8
CALQUE_1
 62
     7
100
AcDbVertex
100
AcDb2dVertex
 10
525.6247638659896
 20
-578.4477239222284
 30
0.0
  0
SEQEND
  5
B3
330
B0
100
AcDbEntity
  8
CALQUE_1
  0
POLYLINE
  5
B4
330
1F
100
AcDbEntity
  8
CALQUE_1
 62
     7
100
AcDb2dPolyline
 66
     1
 10
0.0
 20
0.0
 30
0.0
  0
VERTEX
  5
B5
330
B4
100
AcDbEntity
  8
CALQUE_1
 62
     7
100
AcDbVertex
100
AcDb2dVertex
 10
525.6247638659896
 20
-578.4477239222284
 30
0.0
  0
VERTEX
  5
B6
330
B4
100
AcDbEntity
  8
CALQUE_1
 62
     7
100
AcDbVertex
100
AcDb2dVertex
 10
525.6247638659896
 20
-588.4474580777146
 30
0.0
  0
SEQEND
  5
B7
330
B4
100
AcDbEntity
  8
CALQUE_1
  0
POLYLINE
  5
B8
330
1F
100
AcDbEntity
  8
CALQUE_1
 62
     7
100
AcDb2dPolyline
 66
     1
 10
0.0
 20
0.0
 30
0.0
  0
VERTEX
  5
B9
330
B8
100
AcDbEntity
  8
CALQUE_1
 62
     7
100
AcDbVertex
100
AcDb2dVertex
 10
525.6247638659896
 20
-588.4474580777146
 30
0.0
  0
VERTEX
  5
BA
330
B8
100
AcDbEntity
  8
CALQUE_1
 62
     7
100
AcDbVertex
100
AcDb2dVertex
 10
601.6246037992466
 20
-588.4474580777146
 30
0.0
  0
SEQEND
  5
BB
330
B8
100
AcDbEntity
  8
CALQUE_1
  0
POLYLINE
  5
BC
330
1F
100
AcDbEntity
  8
CALQUE_1
 62
     7
100
AcDb2dPolyline
 66
     1
 10
0.0
 20
0.0
 30
0.0
  0
VERTEX
  5
BD
330
BC
100
AcDbEntity
  8
CALQUE_1
 62
     7
100
AcDbVertex
100
AcDb2dVertex
 10
601.6246037992466
 20
-588.4474580777146
 30
0.0
  0
VERTEX
  5
BE
330
BC
100
AcDbEntity
  8
CALQUE_1
 62
     7
100
AcDbVertex
100
AcDb2dVertex
 10
601.6246037992466
 20
-572.4477456251172
 30
0.0
  0
SEQEND
  5
BF
330
BC
100
AcDbEntity
  8
CALQUE_1
  0
POLYLINE
  5
C0
330
1F
100
AcDbEntity
  8
CALQUE_1
 62
     7
100
AcDb2dPolyline
 66
     1
 10
0.0
 20
0.0
 30
0.0
  0
VERTEX
  5
C1
330
C0
100
AcDbEntity
  8
CALQUE_1
 62
     7
100
AcDbVertex
100
AcDb2dVertex
 10
601.6246037992466
 20
-572.4477456251172
 30
0.0
  0
VERTEX
  5
C2
330
C0
100
AcDbEntity
  8
CALQUE_1
 62
     7
100
AcDbVertex
100
AcDb2dVertex
 10
707.8744491502883
 20
-572.4477456251172
 30
0.0
  0
SEQEND
  5
C3
330
C0
100
AcDbEntity
  8
CALQUE_1
  0
POLYLINE
  5
C4
330
1F
100
AcDbEntity
  8
CALQUE_1
 62
     7
100
AcDb2dPolyline
 66
     1
 10
0.0
 20
0.0
 30
0.0
  0
VERTEX
  5
C5
330
C4
100
AcDbEntity
  8
CALQUE_1
 62
     7
100
AcDbVertex
100
AcDb2dVertex
 10
707.8744491502883
 20
-572.4477456251172
 30
0.0
  0
VERTEX
  5
C6
330
C4
100
AcDbEntity
  8
CALQUE_1
 62
     7
100
AcDbVertex
100
AcDb2dVertex
 10
707.8744491502883
 20
-578.4477239222284
 30
0.0
  0
SEQEND
  5
C7
330
C4
100
AcDbEntity
  8
CALQUE_1
  0
POLYLINE
  5
C8
330
1F
100
AcDbEntity
  8
CALQUE_1
 62
     7
100
AcDb2dPolyline
 66
     1
 10
0.0
 20
0.0
 30
0.0
  0
VERTEX
  5
C9
330
C8
100
AcDbEntity
  8
CALQUE_1
 62
     7
100
AcDbVertex
100
AcDb2dVertex
 10
707.8744491502883
 20
-578.4477239222284
 30
0.0
  0
VERTEX
  5
CA
330
C8
100
AcDbEntity
  8
CALQUE_1
 62
     7
100
AcDbVertex
100
AcDb2dVertex
 10
677.8745576647328
 20
-578.4477239222284
 30
0.0
  0
SEQEND
  5
CB
330
C8
100
AcDbEntity
  8
CALQUE_1
  0
POLYLINE
  5
CC
330
1F
100
AcDbEntity
  8
CALQUE_1
 62
     7
100
AcDb2dPolyline
 66
     1
 10
0.0
 20
0.0
 30
0.0
  0
VERTEX
  5
CD
330
CC
100
AcDbEntity
  8
CALQUE_1
 62
     7
100
AcDbVertex
100
AcDb2dVertex
 10
677.8745576647328
 20
-578.4477239222284
 30
0.0
  0
VERTEX
  5
CE
330
CC
100
AcDbEntity
  8
CALQUE_1
 62
     7
100
AcDbVertex
100
AcDb2dVertex
 10
677.8745576647328
 20
-588.4474580777146
 30
0.0
  0
SEQEND
  5
CF
330
CC
100
AcDbEntity
  8
CALQUE_1
  0
POLYLINE
  5
D0
330
1F
100
AcDbEntity
  8
CALQUE_1
 62
     7
100
AcDb2dPolyline
 66
     1
 10
0.0
 20
0.0
 30
0.0
  0
VERTEX
  5
D1
330
D0
100
AcDbEntity
  8
CALQUE_1
 62
     7
100
AcDbVertex
100
AcDb2dVertex
 10
677.8745576647328
 20
-588.4474580777146
 30
0.0
  0
VERTEX
  5
D2
330
D0
100
AcDbEntity
  8
CALQUE_1
 62
     7
100
AcDbVertex
100
AcDb2dVertex
 10
783.8746335930939
 20
-588.4474580777146
 30
0.0
  0
SEQEND
  5
D3
330
D0
100
AcDbEntity
  8
CALQUE_1
  0
POLYLINE
  5
D4
330
1F
100
AcDbEntity
  8
CALQUE_1
 62
     7
100
AcDb2dPolyline
 66
     1
 10
0.0
 20
0.0
 30
0.0
  0
VERTEX
  5
D5
330
D4
100
AcDbEntity
  8
CALQUE_1
 62
     7
100
AcDbVertex
100
AcDb2dVertex
 10
783.8746335930939
 20
-588.4474580777146
 30
0.0
  0
VERTEX
  5
D6
330
D4
100
AcDbEntity
  8
CALQUE_1
 62
     7
100
AcDbVertex
100
AcDb2dVertex
 10
783.8746335930939
 20
-71.95254175718549
 30
0.0
  0
SEQEND
  5
D7
330
D4
100
AcDbEntity
  8
CALQUE_1
  0
POLYLINE
  5
D8
330
1F
100
AcDbEntity
  8
CALQUE_1
 62
     7
100
AcDb2dPolyline
 66
     1
 10
0.0
 20
0.0
 30
0.0
  0
VERTEX
  5
D9
330
D8
100
AcDbEntity
  8
CALQUE_1
 62
     7
100
AcDbVertex
100
AcDb2dVertex
 10
783.8746335930939
 20
-71.95254175718549
 30
0.0
  0
VERTEX
  5
DA
330
D8
100
AcDbEntity
  8
CALQUE_1
 62
     7
100
AcDbVertex
100
AcDb2dVertex
 10
704.374576646823
 20
-71.95254175718549
 30
0.0
  0
SEQEND
  5
DB
330
D8
100
AcDbEntity
  8
CALQUE_1
  0
POLYLINE
  5
DC
330
1F
100
AcDbEntity
  8
CALQUE_1
 62
     7
100
AcDb2dPolyline
 66
     1
 10
0.0
 20
0.0
 30
0.0
  0
VERTEX
  5
DD
330
DC
100
AcDbEntity
  8
CALQUE_1
 62
     7
100
AcDbVertex
100
AcDb2dVertex
 10
704.374576646823
 20
-71.95254175718549
 30
0.0
  0
VERTEX
  5
DE
330
DC
100
AcDbEntity
  8
CALQUE_1
 62
     7
100
AcDbVertex
100
AcDb2dVertex
 10
704.374576646823
 20
-81.95262042222018
 30
0.0
  0
SEQEND
  5
DF
330
DC
100
AcDbEntity
  8
CALQUE_1
  0
POLYLINE
  5
E0
330
1F
100
AcDbEntity
  8
CALQUE_1
 62
     7
100
AcDb2dPolyline
 66
     1
 10
0.0
 20
0.0
 30
0.0
  0
VERTEX
  5
E1
330
E0
100
AcDbEntity
  8
CALQUE_1
 62
     7
100
AcDbVertex
100
AcDb2dVertex
 10
704.374576646823
 20
-81.95262042222018
 30
0.0
  0
VERTEX
  5
E2
330
E0
100
AcDbEntity
  8
CALQUE_1
 62
     7
100
AcDbVertex
100
AcDb2dVertex
 10
734.3744681323786
 20
-81.95262042222018
 30
0.0
  0
SEQEND
  5
E3
330
E0
100
AcDbEntity
  8
CALQUE_1
  0
POLYLINE
  5
E4
330
1F
100
AcDbEntity
  8
CALQUE_1
 62
     7
100
AcDb2dPolyline
 66
     1
 10
0.0
 20
0.0
 30
0.0
  0
VERTEX
  5
E5
330
E4
100
AcDbEntity
  8
CALQUE_1
 62
     7
100
AcDbVertex
100
AcDb2dVertex
 10
734.3744681323786
 20
-81.95262042222018
 30
0.0
  0
VERTEX
  5
E6
330
E4
100
AcDbEntity
  8
CALQUE_1
 62
     7
100
AcDbVertex
100
AcDb2dVertex
 10
734.3744681323786
 20
-87.9525987193313
 30
0.0
  0
SEQEND
  5
E7
330
E4
100
AcDbEntity
  8
CALQUE_1
  0
POLYLINE
  5
E8
330
1F
100
AcDbEntity
  8
CALQUE_1
 62
     7
100
AcDb2dPolyline
 66
     1
 10
0.0
 20
0.0
 30
0.0
  0
VERTEX
  5
E9
330
E8
100
AcDbEntity
  8
CALQUE_1
 62
     7
100
AcDbVertex
100
AcDb2dVertex
 10
734.3744681323786
 20
-87.9525987193313
 30
0.0
  0
VERTEX
  5
EA
330
E8
100
AcDbEntity
  8
CALQUE_1
 62
     7
100
AcDbVertex
100
AcDb2dVertex
 10
664.3746064962328
 20
-87.9525987193313
 30
0.0
  0
SEQEND
  5
EB
330
E8
100
AcDbEntity
  8
CALQUE_1
  0
POLYLINE
  5
EC
330
1F
100
AcDbEntity
  8
CALQUE_1
 62
     7
100
AcDb2dPolyline
 66
     1
 10
0.0
 20
0.0
 30
0.0
  0
VERTEX
  5
ED
330
EC
100
AcDbEntity
  8
CALQUE_1
 62
     7
100
AcDbVertex
100
AcDb2dVertex
 10
664.3746064962328
 20
-87.9525987193313
 30
0.0
  0
VERTEX
  5
EE
330
EC
100
AcDbEntity
  8
CALQUE_1
 62
     7
100
AcDbVertex
100
AcDb2dVertex
 10
664.3746064962328
 20
-71.95254175718549
 30
0.0
  0
SEQEND
  5
EF
330
EC
100
AcDbEntity
  8
CALQUE_1
  0
POLYLINE
  5
F0
330
1F
100
AcDbEntity
  8
CALQUE_1
 62
     7
100
AcDb2dPolyline
 66
     1
 10
0.0
 20
0.0
 30
0.0
  0
VERTEX
  5
F1
330
F0
100
AcDbEntity
  8
CALQUE_1
 62
     7
100
AcDbVertex
100
AcDb2dVertex
 10
664.3746064962328
 20
-71.95254175718549
 30
0.0
  0
VERTEX
  5
F2
330
F0
100
AcDbEntity
  8
CALQUE_1
 62
     7
100
AcDbVertex
100
AcDb2dVertex
 10
633.8744871462189
 20
-71.95254175718549
 30
0.0
  0
SEQEND
  5
F3
330
F0
100
AcDbEntity
  8
CALQUE_1
  0
POLYLINE
  5
F4
330
1F
100
AcDbEntity
  8
CALQUE_1
 62
     7
100
AcDb2dPolyline
 66
     1
 10
0.0
 20
0.0
 30
0.0
  0
VERTEX
  5
F5
330
F4
100
AcDbEntity
  8
CALQUE_1
 62
     7
100
AcDbVertex
100
AcDb2dVertex
 10
633.8744871462189
 20
-71.95254175718549
 30
0.0
  0
VERTEX
  5
F6
330
F4
100
AcDbEntity
  8
CALQUE_1
 62
     7
100
AcDbVertex
100
AcDb2dVertex
 10
623.8747529907328
 20
-128.5761311527518
 30
0.0
  0
SEQEND
  5
F7
330
F4
100
AcDbEntity
  8
CALQUE_1
  0
POLYLINE
  5
F8
330
1F
100
AcDbEntity
  8
CALQUE_1
 62
     7
100
AcDb2dPolyline
 66
     1
 10
0.0
 20
0.0
 30
0.0
  0
VERTEX
  5
F9
330
F8
100
AcDbEntity
  8
CALQUE_1
 62
     7
100
AcDbVertex
100
AcDb2dVertex
 10
623.8747529907328
 20
-128.5761311527518
 30
0.0
  0
VERTEX
  5
FA
330
F8
100
AcDbEntity
  8
CALQUE_1
 62
     7
100
AcDbVertex
100
AcDb2dVertex
 10
629.7830917479362
 20
-129.619650575234
 30
0.0
  0
SEQEND
  5
FB
330
F8
100
AcDbEntity
  8
CALQUE_1
  0
POLYLINE
  5
FC
330
1F
100
AcDbEntity
  8
CALQUE_1
 62
     7
100
AcDb2dPolyline
 66
     1
 10
0.0
 20
0.0
 30
0.0
  0
VERTEX
  5
FD
330
FC
100
AcDbEntity
  8
CALQUE_1
 62
     7
100
AcDbVertex
100
AcDb2dVertex
 10
629.7830917479362
 20
-129.619650575234
 30
0.0
  0
VERTEX
  5
FE
330
FC
100
AcDbEntity
  8
CALQUE_1
 62
     7
100
AcDbVertex
100
AcDb2dVertex
 10
632.8264890996059
 20
-112.3865939389172
 30
0.0
  0
SEQEND
  5
FF
330
FC
100
AcDbEntity
  8
CALQUE_1
  0
POLYLINE
  5
100
330
1F
100
AcDbEntity
  8
CALQUE_1
 62
     7
100
AcDb2dPolyline
 66
     1
 10
0.0
 20
0.0
 30
0.0
  0
VERTEX
  5
101
330
100
100
AcDbEntity
  8
CALQUE_1
 62
     7
100
AcDbVertex
100
AcDb2dVertex
 10
632.8264890996059
 20
-112.3865939389172
 30
0.0
  0
VERTEX
  5
102
330
100
100
AcDbEntity
  8
CALQUE_1
 62
     7
100
AcDbVertex
100
AcDb2dVertex
 10
638.7351723663579
 20
-113.4297688518509
 30
0.0
  0
SEQEND
  5
103
330
100
100
AcDbEntity
  8
CALQUE_1
  0
POLYLINE
  5
104
330
1F
100
AcDbEntity
  8
CALQUE_1
 62
     7
100
AcDb2dPolyline
 66
     1
 10
0.0
 20
0.0
 30
0.0
  0
VERTEX
  5
105
330
104
100
AcDbEntity
  8
CALQUE_1
 62
     7
100
AcDbVertex
100
AcDb2dVertex
 10
638.7351723663579
 20
-113.4297688518509
 30
0.0
  0
VERTEX
  5
106
330
104
100
AcDbEntity
  8
CALQUE_1
 62
     7
100
AcDbVertex
100
AcDb2dVertex
 10
632.6483776630184
 20
-147.8965711435814
 30
0.0
  0
SEQEND
  5
107
330
104
100
AcDbEntity
  8
CALQUE_1
  0
POLYLINE
  5
108
330
1F
100
AcDbEntity
  8
CALQUE_1
 62
     7
100
AcDb2dPolyline
 66
     1
 10
0.0
 20
0.0
 30
0.0
  0
VERTEX
  5
109
330
108
100
AcDbEntity
  8
CALQUE_1
 62
     7
100
AcDbVertex
100
AcDb2dVertex
 10
632.6483776630184
 20
-147.8965711435814
 30
0.0
  0
VERTEX
  5
10A
330
108
100
AcDbEntity
  8
CALQUE_1
 62
     7
100
AcDbVertex
100
AcDb2dVertex
 10
620.8310111295145
 20
-145.8095322986171
 30
0.0
  0
SEQEND
  5
10B
330
108
100
AcDbEntity
  8
CALQUE_1
  0
POLYLINE
  5
10C
330
1F
100
AcDbEntity
  8
CALQUE_1
 62
     7
100
AcDb2dPolyline
 66
     1
 10
0.0
 20
0.0
 30
0.0
  0
VERTEX
  5
10D
330
10C
100
AcDbEntity
  8
CALQUE_1
 62
     7
100
AcDbVertex
100
AcDb2dVertex
 10
620.8310111295145
 20
-145.8095322986171
 30
0.0
  0
VERTEX
  5
10E
330
10C
100
AcDbEntity
  8
CALQUE_1
 62
     7
100
AcDbVertex
100
AcDb2dVertex
 10
613.005132225221
 20
-190.1237955253857
 30
0.0
  0
SEQEND
  5
10F
330
10C
100
AcDbEntity
  8
CALQUE_1
  0
POLYLINE
  5
110
330
1F
100
AcDbEntity
  8
CALQUE_1
 62
     7
100
AcDb2dPolyline
 66
     1
 10
0.0
 20
0.0
 30
0.0
  0
VERTEX
  5
111
330
110
100
AcDbEntity
  8
CALQUE_1
 62
     7
100
AcDbVertex
100
AcDb2dVertex
 10
613.005132225221
 20
-190.1237955253857
 30
0.0
  0
VERTEX
  5
112
330
110
100
AcDbEntity
  8
CALQUE_1
 62
     7
100
AcDbVertex
100
AcDb2dVertex
 10
618.9134709824244
 20
-191.1673149478679
 30
0.0
  0
SEQEND
  5
113
330
110
100
AcDbEntity
  8
CALQUE_1
  0
POLYLINE
  5
114
330
1F
100
AcDbEntity
  8
CALQUE_1
 62
     7
100
AcDb2dPolyline
 66
     1
 10
0.0
 20
0.0
 30
0.0
  0
VERTEX
  5
115
330
114
100
AcDbEntity
  8
CALQUE_1
 62
     7
100
AcDbVertex
100
AcDb2dVertex
 10
618.9134709824244
 20
-191.1673149478679
 30
0.0
  0
VERTEX
  5
116
330
114
100
AcDbEntity
  8
CALQUE_1
 62
     7
100
AcDbVertex
100
AcDb2dVertex
 10
621.9572128436427
 20
-173.9339138020026
 30
0.0
  0
SEQEND
  5
117
330
114
100
AcDbEntity
  8
CALQUE_1
  0
POLYLINE
  5
118
330
1F
100
AcDbEntity
  8
CALQUE_1
 62
     7
100
AcDb2dPolyline
 66
     1
 10
0.0
 20
0.0
 30
0.0
  0
VERTEX
  5
119
330
118
100
AcDbEntity
  8
CALQUE_1
 62
     7
100
AcDbVertex
100
AcDb2dVertex
 10
621.9572128436427
 20
-173.9339138020026
 30
0.0
  0
VERTEX
  5
11A
330
118
100
AcDbEntity
  8
CALQUE_1
 62
     7
100
AcDbVertex
100
AcDb2dVertex
 10
627.8655516008462
 20
-174.9774332244848
 30
0.0
  0
SEQEND
  5
11B
330
118
100
AcDbEntity
  8
CALQUE_1
  0
POLYLINE
  5
11C
330
1F
100
AcDbEntity
  8
CALQUE_1
 62
     7
100
AcDb2dPolyline
 66
     1
 10
0.0
 20
0.0
 30
0.0
  0
VERTEX
  5
11D
330
11C
100
AcDbEntity
  8
CALQUE_1
 62
     7
100
AcDbVertex
100
AcDb2dVertex
 10
627.8655516008462
 20
-174.9774332244848
 30
0.0
  0
VERTEX
  5
11E
330
11C
100
AcDbEntity
  8
CALQUE_1
 62
     7
100
AcDbVertex
100
AcDb2dVertex
 10
621.7787568975067
 20
-209.4438910066668
 30
0.0
  0
SEQEND
  5
11F
330
11C
100
AcDbEntity
  8
CALQUE_1
  0
POLYLINE
  5
120
330
1F
100
AcDbEntity
  8
CALQUE_1
 62
     7
100
AcDb2dPolyline
 66
     1
 10
0.0
 20
0.0
 30
0.0
  0
VERTEX
  5
121
330
120
100
AcDbEntity
  8
CALQUE_1
 62
     7
100
AcDbVertex
100
AcDb2dVertex
 10
621.7787568975067
 20
-209.4438910066668
 30
0.0
  0
VERTEX
  5
122
330
120
100
AcDbEntity
  8
CALQUE_1
 62
     7
100
AcDbVertex
100
AcDb2dVertex
 10
609.9617348735512
 20
-207.357196671251
 30
0.0
  0
SEQEND
  5
123
330
120
100
AcDbEntity
  8
CALQUE_1
  0
POLYLINE
  5
124
330
1F
100
AcDbEntity
  8
CALQUE_1
 62
     7
100
AcDb2dPolyline
 66
     1
 10
0.0
 20
0.0
 30
0.0
  0
VERTEX
  5
125
330
124
100
AcDbEntity
  8
CALQUE_1
 62
     7
100
AcDbVertex
100
AcDb2dVertex
 10
609.9617348735512
 20
-207.357196671251
 30
0.0
  0
VERTEX
  5
126
330
124
100
AcDbEntity
  8
CALQUE_1
 62
     7
100
AcDbVertex
100
AcDb2dVertex
 10
602.1355114597092
 20
-251.6714598980196
 30
0.0
  0
SEQEND
  5
127
330
124
100
AcDbEntity
  8
CALQUE_1
  0
POLYLINE
  5
128
330
1F
100
AcDbEntity
  8
CALQUE_1
 62
     7
100
AcDb2dPolyline
 66
     1
 10
0.0
 20
0.0
 30
0.0
  0
VERTEX
  5
129
330
128
100
AcDbEntity
  8
CALQUE_1
 62
     7
100
AcDbVertex
100
AcDb2dVertex
 10
602.1355114597092
 20
-251.6714598980196
 30
0.0
  0
VERTEX
  5
12A
330
128
100
AcDbEntity
  8
CALQUE_1
 62
     7
100
AcDbVertex
100
AcDb2dVertex
 10
608.0441947264612
 20
-252.7149793205018
 30
0.0
  0
SEQEND
  5
12B
330
128
100
AcDbEntity
  8
CALQUE_1
  0
POLYLINE
  5
12C
330
1F
100
AcDbEntity
  8
CALQUE_1
 62
     7
100
AcDb2dPolyline
 66
     1
 10
0.0
 20
0.0
 30
0.0
  0
VERTEX
  5
12D
330
12C
100
AcDbEntity
  8
CALQUE_1
 62
     7
100
AcDbVertex
100
AcDb2dVertex
 10
608.0441947264612
 20
-252.7149793205018
 30
0.0
  0
VERTEX
  5
12E
330
12C
100
AcDbEntity
  8
CALQUE_1
 62
     7
100
AcDbVertex
100
AcDb2dVertex
 10
611.0875920781309
 20
-235.4815781746366
 30
0.0
  0
SEQEND
  5
12F
330
12C
100
AcDbEntity
  8
CALQUE_1
  0
POLYLINE
  5
130
330
1F
100
AcDbEntity
  8
CALQUE_1
 62
     7
100
AcDb2dPolyline
 66
     1
 10
0.0
 20
0.0
 30
0.0
  0
VERTEX
  5
131
330
130
100
AcDbEntity
  8
CALQUE_1
 62
     7
100
AcDbVertex
100
AcDb2dVertex
 10
611.0875920781309
 20
-235.4815781746366
 30
0.0
  0
VERTEX
  5
132
330
130
100
AcDbEntity
  8
CALQUE_1
 62
     7
100
AcDbVertex
100
AcDb2dVertex
 10
616.9959308353344
 20
-236.5250975971187
 30
0.0
  0
SEQEND
  5
133
330
130
100
AcDbEntity
  8
CALQUE_1
  0
POLYLINE
  5
134
330
1F
100
AcDbEntity
  8
CALQUE_1
 62
     7
100
AcDb2dPolyline
 66
     1
 10
0.0
 20
0.0
 30
0.0
  0
VERTEX
  5
135
330
134
100
AcDbEntity
  8
CALQUE_1
 62
     7
100
AcDbVertex
100
AcDb2dVertex
 10
616.9959308353344
 20
-236.5250975971187
 30
0.0
  0
VERTEX
  5
136
330
134
100
AcDbEntity
  8
CALQUE_1
 62
     7
100
AcDbVertex
100
AcDb2dVertex
 10
610.909136131995
 20
-270.9915553793007
 30
0.0
  0
SEQEND
  5
137
330
134
100
AcDbEntity
  8
CALQUE_1
  0
POLYLINE
  5
138
330
1F
100
AcDbEntity
  8
CALQUE_1
 62
     7
100
AcDb2dPolyline
 66
     1
 10
0.0
 20
0.0
 30
0.0
  0
VERTEX
  5
139
330
138
100
AcDbEntity
  8
CALQUE_1
 62
     7
100
AcDbVertex
100
AcDb2dVertex
 10
610.909136131995
 20
-270.9915553793007
 30
0.0
  0
VERTEX
  5
13A
330
138
100
AcDbEntity
  8
CALQUE_1
 62
     7
100
AcDbVertex
100
AcDb2dVertex
 10
599.0921141080395
 20
-268.9048610438849
 30
0.0
  0
SEQEND
  5
13B
330
138
100
AcDbEntity
  8
CALQUE_1
  0
POLYLINE
  5
13C
330
1F
100
AcDbEntity
  8
CALQUE_1
 62
     7
100
AcDb2dPolyline
 66
     1
 10
0.0
 20
0.0
 30
0.0
  0
VERTEX
  5
13D
330
13C
100
AcDbEntity
  8
CALQUE_1
 62
     7
100
AcDbVertex
100
AcDb2dVertex
 10
599.0921141080395
 20
-268.9048610438849
 30
0.0
  0
VERTEX
  5
13E
330
13C
100
AcDbEntity
  8
CALQUE_1
 62
     7
100
AcDbVertex
100
AcDb2dVertex
 10
593.8745169956286
 20
-298.4475883585478
 30
0.0
  0
SEQEND
  5
13F
330
13C
100
AcDbEntity
  8
CALQUE_1
  0
POLYLINE
  5
140
330
1F
100
AcDbEntity
  8
CALQUE_1
 62
     7
100
AcDb2dPolyline
 66
     1
 10
0.0
 20
0.0
 30
0.0
  0
VERTEX
  5
141
330
140
100
AcDbEntity
  8
CALQUE_1
 62
     7
100
AcDbVertex
100
AcDb2dVertex
 10
593.8745169956286
 20
-298.4475883585478
 30
0.0
  0
VERTEX
  5
142
330
140
100
AcDbEntity
  8
CALQUE_1
 62
     7
100
AcDbVertex
100
AcDb2dVertex
 10
593.8745169956286
 20
-398.4476859897978
 30
0.0
  0
SEQEND
  5
143
330
140
100
AcDbEntity
  8
CALQUE_1
  0
POLYLINE
  5
144
330
1F
100
AcDbEntity
  8
CALQUE_1
 62
     7
100
AcDb2dPolyline
 66
     1
 10
0.0
 20
0.0
 30
0.0
  0
VERTEX
  5
145
330
144
100
AcDbEntity
  8
CALQUE_1
 62
     7
100
AcDbVertex
100
AcDb2dVertex
 10
593.8745169956286
 20
-398.4476859897978
 30
0.0
  0
VERTEX
  5
146
330
144
100
AcDbEntity
  8
CALQUE_1
 62
     7
100
AcDbVertex
100
AcDb2dVertex
 10
546.1606335440155
 20
-415.7379312111697
 30
0.0
  0
SEQEND
  5
147
330
144
100
AcDbEntity
  8
CALQUE_1
  0
POLYLINE
  5
148
330
1F
100
AcDbEntity
  8
CALQUE_1
 62
     7
100
AcDb2dPolyline
 66
     1
 10
0.0
 20
0.0
 30
0.0
  0
VERTEX
  5
149
330
148
100
AcDbEntity
  8
CALQUE_1
 62
     7
100
AcDbVertex
100
AcDb2dVertex
 10
546.1606335440155
 20
-415.7379312111697
 30
0.0
  0
VERTEX
  5
14A
330
148
100
AcDbEntity
  8
CALQUE_1
 62
     7
100
AcDbVertex
100
AcDb2dVertex
 10
548.2049532049626
 20
-421.3789305587178
 30
0.0
  0
SEQEND
  5
14B
330
148
100
AcDbEntity
  8
CALQUE_1
  0
POLYLINE
  5
14C
330
1F
100
AcDbEntity
  8
CALQUE_1
 62
     7
100
AcDb2dPolyline
 66
     1
 10
0.0
 20
0.0
 30
0.0
  0
VERTEX
  5
14D
330
14C
100
AcDbEntity
  8
CALQUE_1
 62
     7
100
AcDbVertex
100
AcDb2dVertex
 10
548.2049532049626
 20
-421.3789305587178
 30
0.0
  0
VERTEX
  5
14E
330
14C
100
AcDbEntity
  8
CALQUE_1
 62
     7
100
AcDbVertex
100
AcDb2dVertex
 10
571.7094616626282
 20
-412.8616209905346
 30
0.0
  0
SEQEND
  5
14F
330
14C
100
AcDbEntity
  8
CALQUE_1
  0
POLYLINE
  5
150
330
1F
100
AcDbEntity
  8
CALQUE_1
 62
     7
100
AcDb2dPolyline
 66
     1
 10
0.0
 20
0.0
 30
0.0
  0
VERTEX
  5
151
330
150
100
AcDbEntity
  8
CALQUE_1
 62
     7
100
AcDbVertex
100
AcDb2dVertex
 10
571.7094616626282
 20
-412.8616209905346
 30
0.0
  0
VERTEX
  5
152
330
150
100
AcDbEntity
  8
CALQUE_1
 62
     7
100
AcDbVertex
100
AcDb2dVertex
 10
573.7534368140269
 20
-418.5026203380827
 30
0.0
  0
SEQEND
  5
153
330
150
100
AcDbEntity
  8
CALQUE_1
  0
POLYLINE
  5
154
330
1F
100
AcDbEntity
  8
CALQUE_1
 62
     7
100
AcDb2dPolyline
 66
     1
 10
0.0
 20
0.0
 30
0.0
  0
VERTEX
  5
155
330
154
100
AcDbEntity
  8
CALQUE_1
 62
     7
100
AcDbVertex
100
AcDb2dVertex
 10
573.7534368140269
 20
-418.5026203380827
 30
0.0
  0
VERTEX
  5
156
330
154
100
AcDbEntity
  8
CALQUE_1
 62
     7
100
AcDbVertex
100
AcDb2dVertex
 10
522.043931618621
 20
-437.2408391919051
 30
0.0
  0
SEQEND
  5
157
330
154
100
AcDbEntity
  8
CALQUE_1
  0
POLYLINE
  5
158
330
1F
100
AcDbEntity
  8
CALQUE_1
 62
     7
100
AcDb2dPolyline
 66
     1
 10
0.0
 20
0.0
 30
0.0
  0
VERTEX
  5
159
330
158
100
AcDbEntity
  8
CALQUE_1
 62
     7
100
AcDbVertex
100
AcDb2dVertex
 10
522.043931618621
 20
-437.2408391919051
 30
0.0
  0
VERTEX
  5
15A
330
158
100
AcDbEntity
  8
CALQUE_1
 62
     7
100
AcDbVertex
100
AcDb2dVertex
 10
517.955636806275
 20
-425.9588404968089
 30
0.0
  0
SEQEND
  5
15B
330
158
100
AcDbEntity
  8
CALQUE_1
  0
POLYLINE
  5
15C
330
1F
100
AcDbEntity
  8
CALQUE_1
 62
     7
100
AcDb2dPolyline
 66
     1
 10
0.0
 20
0.0
 30
0.0
  0
VERTEX
  5
15D
330
15C
100
AcDbEntity
  8
CALQUE_1
 62
     7
100
AcDbVertex
100
AcDb2dVertex
 10
517.955636806275
 20
-425.9588404968089
 30
0.0
  0
VERTEX
  5
15E
330
15C
100
AcDbEntity
  8
CALQUE_1
 62
     7
100
AcDbVertex
100
AcDb2dVertex
 10
447.4424559428269
 20
-451.5107692013584
 30
0.0
  0
SEQEND
  5
15F
330
15C
100
AcDbEntity
  8
CALQUE_1
  0
POLYLINE
  5
160
330
1F
100
AcDbEntity
  8
CALQUE_1
 62
     7
100
AcDb2dPolyline
 66
     1
 10
0.0
 20
0.0
 30
0.0
  0
VERTEX
  5
161
330
160
100
AcDbEntity
  8
CALQUE_1
 62
     7
100
AcDbVertex
100
AcDb2dVertex
 10
447.4424559428269
 20
-451.5107692013584
 30
0.0
  0
VERTEX
  5
162
330
160
100
AcDbEntity
  8
CALQUE_1
 62
     7
100
AcDbVertex
100
AcDb2dVertex
 10
449.4867756037742
 20
-457.1517685489065
 30
0.0
  0
SEQEND
  5
163
330
160
100
AcDbEntity
  8
CALQUE_1
  0
POLYLINE
  5
164
330
1F
100
AcDbEntity
  8
CALQUE_1
 62
     7
100
AcDb2dPolyline
 66
     1
 10
0.0
 20
0.0
 30
0.0
  0
VERTEX
  5
165
330
164
100
AcDbEntity
  8
CALQUE_1
 62
     7
100
AcDbVertex
100
AcDb2dVertex
 10
449.4867756037742
 20
-457.1517685489065
 30
0.0
  0
VERTEX
  5
166
330
164
100
AcDbEntity
  8
CALQUE_1
 62
     7
100
AcDbVertex
100
AcDb2dVertex
 10
472.9909395518912
 20
-448.6344589807234
 30
0.0
  0
SEQEND
  5
167
330
164
100
AcDbEntity
  8
CALQUE_1
  0
POLYLINE
  5
168
330
1F
100
AcDbEntity
  8
CALQUE_1
 62
     7
100
AcDb2dPolyline
 66
     1
 10
0.0
 20
0.0
 30
0.0
  0
VERTEX
  5
169
330
168
100
AcDbEntity
  8
CALQUE_1
 62
     7
100
AcDbVertex
100
AcDb2dVertex
 10
472.9909395518912
 20
-448.6344589807234
 30
0.0
  0
VERTEX
  5
16A
330
168
100
AcDbEntity
  8
CALQUE_1
 62
     7
100
AcDbVertex
100
AcDb2dVertex
 10
475.0352592128384
 20
-454.2754583282714
 30
0.0
  0
SEQEND
  5
16B
330
168
100
AcDbEntity
  8
CALQUE_1
  0
POLYLINE
  5
16C
330
1F
100
AcDbEntity
  8
CALQUE_1
 62
     7
100
AcDb2dPolyline
 66
     1
 10
0.0
 20
0.0
 30
0.0
  0
VERTEX
  5
16D
330
16C
100
AcDbEntity
  8
CALQUE_1
 62
     7
100
AcDbVertex
100
AcDb2dVertex
 10
475.0352592128384
 20
-454.2754583282714
 30
0.0
  0
VERTEX
  5
16E
330
16C
100
AcDbEntity
  8
CALQUE_1
 62
     7
100
AcDbVertex
100
AcDb2dVertex
 10
423.3257540174325
 20
-473.0136771820938
 30
0.0
  0
SEQEND
  5
16F
330
16C
100
AcDbEntity
  8
CALQUE_1
  0
POLYLINE
  5
170
330
1F
100
AcDbEntity
  8
CALQUE_1
 62
     7
100
AcDb2dPolyline
 66
     1
 10
0.0
 20
0.0
 30
0.0
  0
VERTEX
  5
171
330
170
100
AcDbEntity
  8
CALQUE_1
 62
     7
100
AcDbVertex
100
AcDb2dVertex
 10
423.3257540174325
 20
-473.0136771820938
 30
0.0
  0
VERTEX
  5
172
330
170
100
AcDbEntity
  8
CALQUE_1
 62
     7
100
AcDbVertex
100
AcDb2dVertex
 10
419.237114695538
 20
-461.7316784869977
 30
0.0
  0
SEQEND
  5
173
330
170
100
AcDbEntity
  8
CALQUE_1
  0
POLYLINE
  5
174
330
1F
100
AcDbEntity
  8
CALQUE_1
 62
     7
100
AcDb2dPolyline
 66
     1
 10
0.0
 20
0.0
 30
0.0
  0
VERTEX
  5
175
330
174
100
AcDbEntity
  8
CALQUE_1
 62
     7
100
AcDbVertex
100
AcDb2dVertex
 10
419.237114695538
 20
-461.7316784869977
 30
0.0
  0
VERTEX
  5
176
330
174
100
AcDbEntity
  8
CALQUE_1
 62
     7
100
AcDbVertex
100
AcDb2dVertex
 10
348.7242783416384
 20
-487.2836071915472
 30
0.0
  0
SEQEND
  5
177
330
174
100
AcDbEntity
  8
CALQUE_1
  0
POLYLINE
  5
178
330
1F
100
AcDbEntity
  8
CALQUE_1
 62
     7
100
AcDb2dPolyline
 66
     1
 10
0.0
 20
0.0
 30
0.0
  0
VERTEX
  5
179
330
178
100
AcDbEntity
  8
CALQUE_1
 62
     7
100
AcDbVertex
100
AcDb2dVertex
 10
348.7242783416384
 20
-487.2836071915472
 30
0.0
  0
VERTEX
  5
17A
330
178
100
AcDbEntity
  8
CALQUE_1
 62
     7
100
AcDbVertex
100
AcDb2dVertex
 10
350.7684257478114
 20
-492.9246065390952
 30
0.0
  0
SEQEND
  5
17B
330
178
100
AcDbEntity
  8
CALQUE_1
  0
POLYLINE
  5
17C
330
1F
100
AcDbEntity
  8
CALQUE_1
 62
     7
100
AcDb2dPolyline
 66
     1
 10
0.0
 20
0.0
 30
0.0
  0
VERTEX
  5
17D
330
17C
100
AcDbEntity
  8
CALQUE_1
 62
     7
100
AcDbVertex
100
AcDb2dVertex
 10
350.7684257478114
 20
-492.9246065390952
 30
0.0
  0
VERTEX
  5
17E
330
17C
100
AcDbEntity
  8
CALQUE_1
 62
     7
100
AcDbVertex
100
AcDb2dVertex
 10
374.2727619507027
 20
-484.4072969709121
 30
0.0
  0
SEQEND
  5
17F
330
17C
100
AcDbEntity
  8
CALQUE_1
  0
POLYLINE
  5
180
330
1F
100
AcDbEntity
  8
CALQUE_1
 62
     7
100
AcDb2dPolyline
 66
     1
 10
0.0
 20
0.0
 30
0.0
  0
VERTEX
  5
181
330
180
100
AcDbEntity
  8
CALQUE_1
 62
     7
100
AcDbVertex
100
AcDb2dVertex
 10
374.2727619507027
 20
-484.4072969709121
 30
0.0
  0
VERTEX
  5
182
330
180
100
AcDbEntity
  8
CALQUE_1
 62
     7
100
AcDbVertex
100
AcDb2dVertex
 10
376.3169093568757
 20
-490.0482963184602
 30
0.0
  0
SEQEND
  5
183
330
180
100
AcDbEntity
  8
CALQUE_1
  0
POLYLINE
  5
184
330
1F
100
AcDbEntity
  8
CALQUE_1
 62
     7
100
AcDb2dPolyline
 66
     1
 10
0.0
 20
0.0
 30
0.0
  0
VERTEX
  5
185
330
184
100
AcDbEntity
  8
CALQUE_1
 62
     7
100
AcDbVertex
100
AcDb2dVertex
 10
376.3169093568757
 20
-490.0482963184602
 30
0.0
  0
VERTEX
  5
186
330
184
100
AcDbEntity
  8
CALQUE_1
 62
     7
100
AcDbVertex
100
AcDb2dVertex
 10
324.6074041614697
 20
-508.7865151722826
 30
0.0
  0
SEQEND
  5
187
330
184
100
AcDbEntity
  8
CALQUE_1
  0
POLYLINE
  5
188
330
1F
100
AcDbEntity
  8
CALQUE_1
 62
     7
100
AcDb2dPolyline
 66
     1
 10
0.0
 20
0.0
 30
0.0
  0
VERTEX
  5
189
330
188
100
AcDbEntity
  8
CALQUE_1
 62
     7
100
AcDbVertex
100
AcDb2dVertex
 10
324.6074041614697
 20
-508.7865151722826
 30
0.0
  0
VERTEX
  5
18A
330
188
100
AcDbEntity
  8
CALQUE_1
 62
     7
100
AcDbVertex
100
AcDb2dVertex
 10
320.5189370943494
 20
-497.5045164771864
 30
0.0
  0
SEQEND
  5
18B
330
188
100
AcDbEntity
  8
CALQUE_1
  0
POLYLINE
  5
18C
330
1F
100
AcDbEntity
  8
CALQUE_1
 62
     7
100
AcDb2dPolyline
 66
     1
 10
0.0
 20
0.0
 30
0.0
  0
VERTEX
  5
18D
330
18C
100
AcDbEntity
  8
CALQUE_1
 62
     7
100
AcDbVertex
100
AcDb2dVertex
 10
320.5189370943494
 20
-497.5045164771864
 30
0.0
  0
VERTEX
  5
18E
330
18C
100
AcDbEntity
  8
CALQUE_1
 62
     7
100
AcDbVertex
100
AcDb2dVertex
 10
250.0059284856756
 20
-523.0567896912844
 30
0.0
  0
SEQEND
  5
18F
330
18C
100
AcDbEntity
  8
CALQUE_1
  0
POLYLINE
  5
190
330
1F
100
AcDbEntity
  8
CALQUE_1
 62
     7
100
AcDb2dPolyline
 66
     1
 10
0.0
 20
0.0
 30
0.0
  0
VERTEX
  5
191
330
190
100
AcDbEntity
  8
CALQUE_1
 62
     7
100
AcDbVertex
100
AcDb2dVertex
 10
250.0059284856756
 20
-523.0567896912844
 30
0.0
  0
VERTEX
  5
192
330
190
100
AcDbEntity
  8
CALQUE_1
 62
     7
100
AcDbVertex
100
AcDb2dVertex
 10
252.0500758918486
 20
-528.6977890388325
 30
0.0
  0
SEQEND
  5
193
330
190
100
AcDbEntity
  8
CALQUE_1
  0
POLYLINE
  5
194
330
1F
100
AcDbEntity
  8
CALQUE_1
 62
     7
100
AcDb2dPolyline
 66
     1
 10
0.0
 20
0.0
 30
0.0
  0
VERTEX
  5
195
330
194
100
AcDbEntity
  8
CALQUE_1
 62
     7
100
AcDbVertex
100
AcDb2dVertex
 10
252.0500758918486
 20
-528.6977890388325
 30
0.0
  0
VERTEX
  5
196
330
194
100
AcDbEntity
  8
CALQUE_1
 62
     7
100
AcDbVertex
100
AcDb2dVertex
 10
275.5545843495141
 20
-520.1804794706494
 30
0.0
  0
SEQEND
  5
197
330
194
100
AcDbEntity
  8
CALQUE_1
  0
POLYLINE
  5
198
330
1F
100
AcDbEntity
  8
CALQUE_1
 62
     7
100
AcDb2dPolyline
 66
     1
 10
0.0
 20
0.0
 30
0.0
  0
VERTEX
  5
199
330
198
100
AcDbEntity
  8
CALQUE_1
 62
     7
100
AcDbVertex
100
AcDb2dVertex
 10
275.5545843495141
 20
-520.1804794706494
 30
0.0
  0
VERTEX
  5
19A
330
198
100
AcDbEntity
  8
CALQUE_1
 62
     7
100
AcDbVertex
100
AcDb2dVertex
 10
277.5985595009129
 20
-525.8214788181974
 30
0.0
  0
SEQEND
  5
19B
330
198
100
AcDbEntity
  8
CALQUE_1
  0
POLYLINE
  5
19C
330
1F
100
AcDbEntity
  8
CALQUE_1
 62
     7
100
AcDb2dPolyline
 66
     1
 10
0.0
 20
0.0
 30
0.0
  0
VERTEX
  5
19D
330
19C
100
AcDbEntity
  8
CALQUE_1
 62
     7
100
AcDbVertex
100
AcDb2dVertex
 10
277.5985595009129
 20
-525.8214788181974
 30
0.0
  0
VERTEX
  5
19E
330
19C
100
AcDbEntity
  8
CALQUE_1
 62
     7
100
AcDbVertex
100
AcDb2dVertex
 10
225.8890543055069
 20
-544.5596976720199
 30
0.0
  0
SEQEND
  5
19F
330
19C
100
AcDbEntity
  8
CALQUE_1
  0
POLYLINE
  5
1A0
330
1F
100
AcDbEntity
  8
CALQUE_1
 62
     7
100
AcDb2dPolyline
 66
     1
 10
0.0
 20
0.0
 30
0.0
  0
VERTEX
  5
1A1
330
1A0
100
AcDbEntity
  8
CALQUE_1
 62
     7
100
AcDbVertex
100
AcDb2dVertex
 10
225.8890543055069
 20
-544.5596976720199
 30
0.0
  0
VERTEX
  5
1A2
330
1A0
100
AcDbEntity
  8
CALQUE_1
 62
     7
100
AcDbVertex
100
AcDb2dVertex
 10
221.8007594931609
 20
-533.2773544673752
 30
0.0
  0
SEQEND
  5
1A3
330
1A0
100
AcDbEntity
  8
CALQUE_1
  0
POLYLINE
  5
1A4
330
1F
100
AcDbEntity
  8
CALQUE_1
 62
     7
100
AcDb2dPolyline
 66
     1
 10
0.0
 20
0.0
 30
0.0
  0
VERTEX
  5
1A5
330
1A4
100
AcDbEntity
  8
CALQUE_1
 62
     7
100
AcDbVertex
100
AcDb2dVertex
 10
221.8007594931609
 20
-533.2773544673752
 30
0.0
  0
VERTEX
  5
1A6
330
1A4
100
AcDbEntity
  8
CALQUE_1
 62
     7
100
AcDbVertex
100
AcDb2dVertex
 10
217.8049654945939
 20
-534.7253280998257
 30
0.0
  0
SEQEND
  5
1A7
330
1A4
100
AcDbEntity
  8
CALQUE_1
  0
POLYLINE
  5
1A8
330
1F
100
AcDbEntity
  8
CALQUE_1
 62
     7
100
AcDb2dPolyline
 66
     1
 10
0.0
 20
0.0
 30
0.0
  0
VERTEX
  5
1A9
330
1A8
100
AcDbEntity
  8
CALQUE_1
 62
     7
100
AcDbVertex
100
AcDb2dVertex
 10
217.8049654945939
 20
-534.7253280998257
 30
0.0
  0
VERTEX
  5
1AA
330
1A8
100
AcDbEntity
  8
CALQUE_1
 62
     7
100
AcDbVertex
100
AcDb2dVertex
 10
216.2906737740524
 20
-531.0232284913761
 30
0.0
  0
SEQEND
  5
1AB
330
1A8
100
AcDbEntity
  8
CALQUE_1
  0
POLYLINE
  5
1AC
330
1F
100
AcDbEntity
  8
CALQUE_1
 62
     7
100
AcDb2dPolyline
 66
     1
 10
0.0
 20
0.0
 30
0.0
  0
VERTEX
  5
1AD
330
1AC
100
AcDbEntity
  8
CALQUE_1
 62
     7
100
AcDbVertex
100
AcDb2dVertex
 10
216.2906737740524
 20
-531.0232284913761
 30
0.0
  0
VERTEX
  5
1AE
330
1AC
100
AcDbEntity
  8
CALQUE_1
 62
     7
100
AcDbVertex
100
AcDb2dVertex
 10
210.7371798518296
 20
-533.2949244543499
 30
0.0
  0
SEQEND
  5
1AF
330
1AC
100
AcDbEntity
  8
CALQUE_1
  0
POLYLINE
  5
1B0
330
1F
100
AcDbEntity
  8
CALQUE_1
 62
     7
100
AcDb2dPolyline
 66
     1
 10
0.0
 20
0.0
 30
0.0
  0
VERTEX
  5
1B1
330
1B0
100
AcDbEntity
  8
CALQUE_1
 62
     7
100
AcDbVertex
100
AcDb2dVertex
 10
210.7371798518296
 20
-533.2949244543499
 30
0.0
  0
VERTEX
  5
1B2
330
1B0
100
AcDbEntity
  8
CALQUE_1
 62
     7
100
AcDbVertex
100
AcDb2dVertex
 10
214.5233397901192
 20
-542.5505179850221
 30
0.0
  0
SEQEND
  5
1B3
330
1B0
100
AcDbEntity
  8
CALQUE_1
  0
POLYLINE
  5
1B4
330
1F
100
AcDbEntity
  8
CALQUE_1
 62
     7
100
AcDb2dPolyline
 66
     1
 10
0.0
 20
0.0
 30
0.0
  0
VERTEX
  5
1B5
330
1B4
100
AcDbEntity
  8
CALQUE_1
 62
     7
100
AcDbVertex
100
AcDb2dVertex
 10
214.5233397901192
 20
-542.5505179850221
 30
0.0
  0
VERTEX
  5
1B6
330
1B4
100
AcDbEntity
  8
CALQUE_1
 62
     7
100
AcDbVertex
100
AcDb2dVertex
 10
208.9700181226707
 20
-544.8222139479958
 30
0.0
  0
SEQEND
  5
1B7
330
1B4
100
AcDbEntity
  8
CALQUE_1
  0
POLYLINE
  5
1B8
330
1F
100
AcDbEntity
  8
CALQUE_1
 62
     7
100
AcDb2dPolyline
 66
     1
 10
0.0
 20
0.0
 30
0.0
  0
VERTEX
  5
1B9
330
1B8
100
AcDbEntity
  8
CALQUE_1
 62
     7
100
AcDbVertex
100
AcDb2dVertex
 10
208.9700181226707
 20
-544.8222139479958
 30
0.0
  0
VERTEX
  5
1BA
330
1B8
100
AcDbEntity
  8
CALQUE_1
 62
     7
100
AcDbVertex
100
AcDb2dVertex
 10
201.3978705008658
 20
-526.3110268866515
 30
0.0
  0
SEQEND
  5
1BB
330
1B8
100
AcDbEntity
  8
CALQUE_1
  0
POLYLINE
  5
1BC
330
1F
100
AcDbEntity
  8
CALQUE_1
 62
     7
100
AcDb2dPolyline
 66
     1
 10
0.0
 20
0.0
 30
0.0
  0
VERTEX
  5
1BD
330
1BC
100
AcDbEntity
  8
CALQUE_1
 62
     7
100
AcDbVertex
100
AcDb2dVertex
 10
201.3978705008658
 20
-526.3110268866515
 30
0.0
  0
VERTEX
  5
1BE
330
1BC
100
AcDbEntity
  8
CALQUE_1
 62
     7
100
AcDbVertex
100
AcDb2dVertex
 10
212.5045138357628
 20
-521.767634960704
 30
0.0
  0
SEQEND
  5
1BF
330
1BC
100
AcDbEntity
  8
CALQUE_1
  0
POLYLINE
  5
1C0
330
1F
100
AcDbEntity
  8
CALQUE_1
 62
     7
100
AcDb2dPolyline
 66
     1
 10
0.0
 20
0.0
 30
0.0
  0
VERTEX
  5
1C1
330
1C0
100
AcDbEntity
  8
CALQUE_1
 62
     7
100
AcDbVertex
100
AcDb2dVertex
 10
212.5045138357628
 20
-521.767634960704
 30
0.0
  0
VERTEX
  5
1C2
330
1C0
100
AcDbEntity
  8
CALQUE_1
 62
     7
100
AcDbVertex
100
AcDb2dVertex
 10
204.9323662139579
 20
-503.2564478993595
 30
0.0
  0
SEQEND
  5
1C3
330
1C0
100
AcDbEntity
  8
CALQUE_1
  0
POLYLINE
  5
1C4
330
1F
100
AcDbEntity
  8
CALQUE_1
 62
     7
100
AcDb2dPolyline
 66
     1
 10
0.0
 20
0.0
 30
0.0
  0
VERTEX
  5
1C5
330
1C4
100
AcDbEntity
  8
CALQUE_1
 62
     7
100
AcDbVertex
100
AcDb2dVertex
 10
204.9323662139579
 20
-503.2564478993595
 30
0.0
  0
VERTEX
  5
1C6
330
1C4
100
AcDbEntity
  8
CALQUE_1
 62
     7
100
AcDbVertex
100
AcDb2dVertex
 10
199.3790445465094
 20
-505.5281438623333
 30
0.0
  0
SEQEND
  5
1C7
330
1C4
100
AcDbEntity
  8
CALQUE_1
  0
POLYLINE
  5
1C8
330
1F
100
AcDbEntity
  8
CALQUE_1
 62
     7
100
AcDb2dPolyline
 66
     1
 10
0.0
 20
0.0
 30
0.0
  0
VERTEX
  5
1C9
330
1C8
100
AcDbEntity
  8
CALQUE_1
 62
     7
100
AcDbVertex
100
AcDb2dVertex
 10
199.3790445465094
 20
-505.5281438623333
 30
0.0
  0
VERTEX
  5
1CA
330
1C8
100
AcDbEntity
  8
CALQUE_1
 62
     7
100
AcDbVertex
100
AcDb2dVertex
 10
203.1650322300247
 20
-514.7837373930055
 30
0.0
  0
SEQEND
  5
1CB
330
1C8
100
AcDbEntity
  8
CALQUE_1
  0
POLYLINE
  5
1CC
330
1F
100
AcDbEntity
  8
CALQUE_1
 62
     7
100
AcDb2dPolyline
 66
     1
 10
0.0
 20
0.0
 30
0.0
  0
VERTEX
  5
1CD
330
1CC
100
AcDbEntity
  8
CALQUE_1
 62
     7
100
AcDbVertex
100
AcDb2dVertex
 10
203.1650322300247
 20
-514.7837373930055
 30
0.0
  0
VERTEX
  5
1CE
330
1CC
100
AcDbEntity
  8
CALQUE_1
 62
     7
100
AcDbVertex
100
AcDb2dVertex
 10
197.6117105625762
 20
-517.0554333559792
 30
0.0
  0
SEQEND
  5
1CF
330
1CC
100
AcDbEntity
  8
CALQUE_1
  0
POLYLINE
  5
1D0
330
1F
100
AcDbEntity
  8
CALQUE_1
 62
     7
100
AcDb2dPolyline
 66
     1
 10
0.0
 20
0.0
 30
0.0
  0
VERTEX
  5
1D1
330
1D0
100
AcDbEntity
  8
CALQUE_1
 62
     7
100
AcDbVertex
100
AcDb2dVertex
 10
197.6117105625762
 20
-517.0554333559792
 30
0.0
  0
VERTEX
  5
1D2
330
1D0
100
AcDbEntity
  8
CALQUE_1
 62
     7
100
AcDbVertex
100
AcDb2dVertex
 10
190.0395629407714
 20
-498.5442462946348
 30
0.0
  0
SEQEND
  5
1D3
330
1D0
100
AcDbEntity
  8
CALQUE_1
  0
POLYLINE
  5
1D4
330
1F
100
AcDbEntity
  8
CALQUE_1
 62
     7
100
AcDb2dPolyline
 66
     1
 10
0.0
 20
0.0
 30
0.0
  0
VERTEX
  5
1D5
330
1D4
100
AcDbEntity
  8
CALQUE_1
 62
     7
100
AcDbVertex
100
AcDb2dVertex
 10
190.0395629407714
 20
-498.5442462946348
 30
0.0
  0
VERTEX
  5
1D6
330
1D4
100
AcDbEntity
  8
CALQUE_1
 62
     7
100
AcDbVertex
100
AcDb2dVertex
 10
201.1462062756683
 20
-494.0008543686873
 30
0.0
  0
SEQEND
  5
1D7
330
1D4
100
AcDbEntity
  8
CALQUE_1
  0
POLYLINE
  5
1D8
330
1F
100
AcDbEntity
  8
CALQUE_1
 62
     7
100
AcDb2dPolyline
 66
     1
 10
0.0
 20
0.0
 30
0.0
  0
VERTEX
  5
1D9
330
1D8
100
AcDbEntity
  8
CALQUE_1
 62
     7
100
AcDbVertex
100
AcDb2dVertex
 10
201.1462062756683
 20
-494.0008543686873
 30
0.0
  0
VERTEX
  5
1DA
330
1D8
100
AcDbEntity
  8
CALQUE_1
 62
     7
100
AcDbVertex
100
AcDb2dVertex
 10
198.8746825674689
 20
-488.4477049560131
 30
0.0
  0
SEQEND
  5
1DB
330
1D8
100
AcDbEntity
  8
CALQUE_1
  0
POLYLINE
  5
1DC
330
1F
100
AcDbEntity
  8
CALQUE_1
 62
     7
100
AcDb2dPolyline
 66
     1
 10
0.0
 20
0.0
 30
0.0
  0
VERTEX
  5
1DD
330
1DC
100
AcDbEntity
  8
CALQUE_1
 62
     7
100
AcDbVertex
100
AcDb2dVertex
 10
198.8746825674689
 20
-488.4477049560131
 30
0.0
  0
VERTEX
  5
1DE
330
1DC
100
AcDbEntity
  8
CALQUE_1
 62
     7
100
AcDbVertex
100
AcDb2dVertex
 10
139.3746106964932
 20
-488.4477049560131
 30
0.0
  0
SEQEND
  5
1DF
330
1DC
100
AcDbEntity
  8
CALQUE_1
  0
POLYLINE
  5
1E0
330
1F
100
AcDbEntity
  8
CALQUE_1
 62
     7
100
AcDb2dPolyline
 66
     1
 10
0.0
 20
0.0
 30
0.0
  0
VERTEX
  5
1E1
330
1E0
100
AcDbEntity
  8
CALQUE_1
 62
     7
100
AcDbVertex
100
AcDb2dVertex
 10
139.3746106964932
 20
-488.4477049560131
 30
0.0
  0
VERTEX
  5
1E2
330
1E0
100
AcDbEntity
  8
CALQUE_1
 62
     7
100
AcDbVertex
100
AcDb2dVertex
 10
139.3746106964932
 20
-498.4474391114992
 30
0.0
  0
SEQEND
  5
1E3
330
1E0
100
AcDbEntity
  8
CALQUE_1
  0
POLYLINE
  5
1E4
330
1F
100
AcDbEntity
  8
CALQUE_1
 62
     7
100
AcDb2dPolyline
 66
     1
 10
0.0
 20
0.0
 30
0.0
  0
VERTEX
  5
1E5
330
1E4
100
AcDbEntity
  8
CALQUE_1
 62
     7
100
AcDbVertex
100
AcDb2dVertex
 10
139.3746106964932
 20
-498.4474391114992
 30
0.0
  0
VERTEX
  5
1E6
330
1E4
100
AcDbEntity
  8
CALQUE_1
 62
     7
100
AcDbVertex
100
AcDb2dVertex
 10
159.3745957717883
 20
-498.4474391114992
 30
0.0
  0
SEQEND
  5
1E7
330
1E4
100
AcDbEntity
  8
CALQUE_1
  0
POLYLINE
  5
1E8
330
1F
100
AcDbEntity
  8
CALQUE_1
 62
     7
100
AcDb2dPolyline
 66
     1
 10
0.0
 20
0.0
 30
0.0
  0
VERTEX
  5
1E9
330
1E8
100
AcDbEntity
  8
CALQUE_1
 62
     7
100
AcDbVertex
100
AcDb2dVertex
 10
159.3745957717883
 20
-498.4474391114992
 30
0.0
  0
VERTEX
  5
1EA
330
1E8
100
AcDbEntity
  8
CALQUE_1
 62
     7
100
AcDbVertex
100
AcDb2dVertex
 10
159.3745957717883
 20
-504.4477619181589
 30
0.0
  0
SEQEND
  5
1EB
330
1E8
100
AcDbEntity
  8
CALQUE_1
  0
POLYLINE
  5
1EC
330
1F
100
AcDbEntity
  8
CALQUE_1
 62
     7
100
AcDb2dPolyline
 66
     1
 10
0.0
 20
0.0
 30
0.0
  0
VERTEX
  5
1ED
330
1EC
100
AcDbEntity
  8
CALQUE_1
 62
     7
100
AcDbVertex
100
AcDb2dVertex
 10
159.3745957717883
 20
-504.4477619181589
 30
0.0
  0
VERTEX
  5
1EE
330
1EC
100
AcDbEntity
  8
CALQUE_1
 62
     7
100
AcDbVertex
100
AcDb2dVertex
 10
109.3745469561633
 20
-504.4477619181589
 30
0.0
  0
SEQEND
  5
1EF
330
1EC
100
AcDbEntity
  8
CALQUE_1
  0
POLYLINE
  5
1F0
330
1F
100
AcDbEntity
  8
CALQUE_1
 62
     7
100
AcDb2dPolyline
 66
     1
 10
0.0
 20
0.0
 30
0.0
  0
VERTEX
  5
1F1
330
1F0
100
AcDbEntity
  8
CALQUE_1
 62
     7
100
AcDbVertex
100
AcDb2dVertex
 10
109.3745469561633
 20
-504.4477619181589
 30
0.0
  0
VERTEX
  5
1F2
330
1F0
100
AcDbEntity
  8
CALQUE_1
 62
     7
100
AcDbVertex
100
AcDb2dVertex
 10
109.3745469561633
 20
-488.4477049560131
 30
0.0
  0
SEQEND
  5
1F3
330
1F0
100
AcDbEntity
  8
CALQUE_1
  0
POLYLINE
  5
1F4
330
1F
100
AcDbEntity
  8
CALQUE_1
 62
     7
100
AcDb2dPolyline
 66
     1
 10
0.0
 20
0.0
 30
0.0
  0
VERTEX
  5
1F5
330
1F4
100
AcDbEntity
  8
CALQUE_1
 62
     7
100
AcDbVertex
100
AcDb2dVertex
 10
109.3745469561633
 20
-488.4477049560131
 30
0.0
  0
VERTEX
  5
1F6
330
1F4
100
AcDbEntity
  8
CALQUE_1
 62
     7
100
AcDbVertex
100
AcDb2dVertex
 10
98.87458493621885
 20
-488.4477049560131
 30
0.0
  0
SEQEND
  5
1F7
330
1F4
100
AcDbEntity
  8
CALQUE_1
  0
POLYLINE
  5
1F8
330
1F
100
AcDbEntity
  8
CALQUE_1
 62
     7
100
AcDb2dPolyline
 66
     1
 10
0.0
 20
0.0
 30
0.0
  0
VERTEX
  5
1F9
330
1F8
100
AcDbEntity
  8
CALQUE_1
 62
     7
100
AcDbVertex
100
AcDb2dVertex
 10
606.0746336375439
 20
-323.4476127663604
 30
0.0
  0
VERTEX
  5
1FA
330
1F8
100
AcDbEntity
  8
CALQUE_1
 62
     7
100
AcDbVertex
100
AcDb2dVertex
 10
606.0746336375439
 20
-373.4476615819853
 30
0.0
  0
SEQEND
  5
1FB
330
1F8
100
AcDbEntity
  8
CALQUE_1
  0
POLYLINE
  5
1FC
330
1F
100
AcDbEntity
  8
CALQUE_1
 62
     7
100
AcDb2dPolyline
 66
     1
 10
0.0
 20
0.0
 30
0.0
  0
VERTEX
  5
1FD
330
1FC
100
AcDbEntity
  8
CALQUE_1
 62
     7
100
AcDbVertex
100
AcDb2dVertex
 10
612.074611934655
 20
-323.4476127663604
 30
0.0
  0
VERTEX
  5
1FE
330
1FC
100
AcDbEntity
  8
CALQUE_1
 62
     7
100
AcDbVertex
100
AcDb2dVertex
 10
606.0746336375439
 20
-323.4476127663604
 30
0.0
  0
SEQEND
  5
1FF
330
1FC
100
AcDbEntity
  8
CALQUE_1
  0
POLYLINE
  5
200
330
1F
100
AcDbEntity
  8
CALQUE_1
 62
     7
100
AcDb2dPolyline
 66
     1
 10
0.0
 20
0.0
 30
0.0
  0
VERTEX
  5
201
330
200
100
AcDbEntity
  8
CALQUE_1
 62
     7
100
AcDbVertex
100
AcDb2dVertex
 10
612.074611934655
 20
-373.4476615819853
 30
0.0
  0
VERTEX
  5
202
330
200
100
AcDbEntity
  8
CALQUE_1
 62
     7
100
AcDbVertex
100
AcDb2dVertex
 10
612.074611934655
 20
-323.4476127663604
 30
0.0
  0
SEQEND
  5
203
330
200
100
AcDbEntity
  8
CALQUE_1
  0
POLYLINE
  5
204
330
1F
100
AcDbEntity
  8
CALQUE_1
 62
     7
100
AcDb2dPolyline
 66
     1
 10
0.0
 20
0.0
 30
0.0
  0
VERTEX
  5
205
330
204
100
AcDbEntity
  8
CALQUE_1
 62
     7
100
AcDbVertex
100
AcDb2dVertex
 10
606.0746336375439
 20
-373.4476615819853
 30
0.0
  0
VERTEX
  5
206
330
204
100
AcDbEntity
  8
CALQUE_1
 62
     7
100
AcDbVertex
100
AcDb2dVertex
 10
612.074611934655
 20
-373.4476615819853
 30
0.0
  0
SEQEND
  5
207
330
204
100
AcDbEntity
  8
CALQUE_1
  0
POLYLINE
  5
208
330
1F
100
AcDbEntity
  8
CALQUE_1
 62
     7
100
AcDb2dPolyline
 66
     1
 10
0.0
 20
0.0
 30
0.0
  0
VERTEX
  5
209
330
208
100
AcDbEntity
  8
CALQUE_1
 62
     7
100
AcDbVertex
100
AcDb2dVertex
 10
773.8745549280592
 20
-372.6976642948464
 30
0.0
  0
VERTEX
  5
20A
330
208
100
AcDbEntity
  8
CALQUE_1
 62
     7
100
AcDbVertex
100
AcDb2dVertex
 10
773.8745549280592
 20
-287.6975124063742
 30
0.0
  0
SEQEND
  5
20B
330
208
100
AcDbEntity
  8
CALQUE_1
  0
POLYLINE
  5
20C
330
1F
100
AcDbEntity
  8
CALQUE_1
 62
     7
100
AcDb2dPolyline
 66
     1
 10
0.0
 20
0.0
 30
0.0
  0
VERTEX
  5
20D
330
20C
100
AcDbEntity
  8
CALQUE_1
 62
     7
100
AcDbVertex
100
AcDb2dVertex
 10
767.874576630948
 20
-372.6976642948464
 30
0.0
  0
VERTEX
  5
20E
330
20C
100
AcDbEntity
  8
CALQUE_1
 62
     7
100
AcDbVertex
100
AcDb2dVertex
 10
773.8745549280592
 20
-372.6976642948464
 30
0.0
  0
SEQEND
  5
20F
330
20C
100
AcDbEntity
  8
CALQUE_1
  0
POLYLINE
  5
210
330
1F
100
AcDbEntity
  8
CALQUE_1
 62
     7
100
AcDb2dPolyline
 66
     1
 10
0.0
 20
0.0
 30
0.0
  0
VERTEX
  5
211
330
210
100
AcDbEntity
  8
CALQUE_1
 62
     7
100
AcDbVertex
100
AcDb2dVertex
 10
767.874576630948
 20
-287.6975124063742
 30
0.0
  0
VERTEX
  5
212
330
210
100
AcDbEntity
  8
CALQUE_1
 62
     7
100
AcDbVertex
100
AcDb2dVertex
 10
767.874576630948
 20
-372.6976642948464
 30
0.0
  0
SEQEND
  5
213
330
210
100
AcDbEntity
  8
CALQUE_1
  0
POLYLINE
  5
214
330
1F
100
AcDbEntity
  8
CALQUE_1
 62
     7
100
AcDb2dPolyline
 66
     1
 10
0.0
 20
0.0
 30
0.0
  0
VERTEX
  5
215
330
214
100
AcDbEntity
  8
CALQUE_1
 62
     7
100
AcDbVertex
100
AcDb2dVertex
 10
773.8745549280592
 20
-287.6975124063742
 30
0.0
  0
VERTEX
  5
216
330
214
100
AcDbEntity
  8
CALQUE_1
 62
     7
100
AcDbVertex
100
AcDb2dVertex
 10
767.874576630948
 20
-287.6975124063742
 30
0.0
  0
SEQEND
  5
217
330
214
100
AcDbEntity
  8
CALQUE_1
  0
POLYLINE
  5
218
330
1F
100
AcDbEntity
  8
CALQUE_1
 62
     7
100
AcDb2dPolyline
 66
     1
 10
0.0
 20
0.0
 30
0.0
  0
VERTEX
  5
219
330
218
100
AcDbEntity
  8
CALQUE_1
 62
     7
100
AcDbVertex
100
AcDb2dVertex
 10
606.0746336375439
 20
-453.4476018831659
 30
0.0
  0
VERTEX
  5
21A
330
218
100
AcDbEntity
  8
CALQUE_1
 62
     7
100
AcDbVertex
100
AcDb2dVertex
 10
606.0746336375439
 20
-503.4476506987909
 30
0.0
  0
SEQEND
  5
21B
330
218
100
AcDbEntity
  8
CALQUE_1
  0
POLYLINE
  5
21C
330
1F
100
AcDbEntity
  8
CALQUE_1
 62
     7
100
AcDb2dPolyline
 66
     1
 10
0.0
 20
0.0
 30
0.0
  0
VERTEX
  5
21D
330
21C
100
AcDbEntity
  8
CALQUE_1
 62
     7
100
AcDbVertex
100
AcDb2dVertex
 10
612.074611934655
 20
-453.4476018831659
 30
0.0
  0
VERTEX
  5
21E
330
21C
100
AcDbEntity
  8
CALQUE_1
 62
     7
100
AcDbVertex
100
AcDb2dVertex
 10
606.0746336375439
 20
-453.4476018831659
 30
0.0
  0
SEQEND
  5
21F
330
21C
100
AcDbEntity
  8
CALQUE_1
  0
POLYLINE
  5
220
330
1F
100
AcDbEntity
  8
CALQUE_1
 62
     7
100
AcDb2dPolyline
 66
     1
 10
0.0
 20
0.0
 30
0.0
  0
VERTEX
  5
221
330
220
100
AcDbEntity
  8
CALQUE_1
 62
     7
100
AcDbVertex
100
AcDb2dVertex
 10
612.074611934655
 20
-503.4476506987909
 30
0.0
  0
VERTEX
  5
222
330
220
100
AcDbEntity
  8
CALQUE_1
 62
     7
100
AcDbVertex
100
AcDb2dVertex
 10
612.074611934655
 20
-453.4476018831659
 30
0.0
  0
SEQEND
  5
223
330
220
100
AcDbEntity
  8
CALQUE_1
  0
POLYLINE
  5
224
330
1F
100
AcDbEntity
  8
CALQUE_1
 62
     7
100
AcDb2dPolyline
 66
     1
 10
0.0
 20
0.0
 30
0.0
  0
VERTEX
  5
225
330
224
100
AcDbEntity
  8
CALQUE_1
 62
     7
100
AcDbVertex
100
AcDb2dVertex
 10
606.0746336375439
 20
-503.4476506987909
 30
0.0
  0
VERTEX
  5
226
330
224
100
AcDbEntity
  8
CALQUE_1
 62
     7
100
AcDbVertex
100
AcDb2dVertex
 10
612.074611934655
 20
-503.4476506987909
 30
0.0
  0
SEQEND
  5
227
330
224
100
AcDbEntity
  8
CALQUE_1
  0
POLYLINE
  5
228
330
1F
100
AcDbEntity
  8
CALQUE_1
 62
     7
100
AcDb2dPolyline
 66
     1
 10
0.0
 20
0.0
 30
0.0
  0
VERTEX
  5
229
330
228
100
AcDbEntity
  8
CALQUE_1
 62
     7
100
AcDbVertex
100
AcDb2dVertex
 10
587.5582789329716
 20
-389.4552977541987
 30
0.0
  0
VERTEX
  5
22A
330
228
100
AcDbEntity
  8
CALQUE_1
 62
     7
100
AcDbVertex
100
AcDb2dVertex
 10
587.5582789329716
 20
-250.4553411917265
 30
0.0
  0
SEQEND
  5
22B
330
228
100
AcDbEntity
  8
CALQUE_1
  0
POLYLINE
  5
22C
330
1F
100
AcDbEntity
  8
CALQUE_1
 62
     7
100
AcDb2dPolyline
 66
     1
 10
0.0
 20
0.0
 30
0.0
  0
VERTEX
  5
22D
330
22C
100
AcDbEntity
  8
CALQUE_1
 62
     7
100
AcDbVertex
100
AcDb2dVertex
 10
587.5582789329716
 20
-250.4553411917265
 30
0.0
  0
VERTEX
  5
22E
330
22C
100
AcDbEntity
  8
CALQUE_1
 62
     7
100
AcDbVertex
100
AcDb2dVertex
 10
577.5582002679369
 20
-250.4553411917265
 30
0.0
  0
SEQEND
  5
22F
330
22C
100
AcDbEntity
  8
CALQUE_1
  0
POLYLINE
  5
230
330
1F
100
AcDbEntity
  8
CALQUE_1
 62
     7
100
AcDb2dPolyline
 66
     1
 10
0.0
 20
0.0
 30
0.0
  0
VERTEX
  5
231
330
230
100
AcDbEntity
  8
CALQUE_1
 62
     7
100
AcDbVertex
100
AcDb2dVertex
 10
577.5582002679369
 20
-250.4553411917265
 30
0.0
  0
VERTEX
  5
232
330
230
100
AcDbEntity
  8
CALQUE_1
 62
     7
100
AcDbVertex
100
AcDb2dVertex
 10
577.5582002679369
 20
-299.9551621428932
 30
0.0
  0
SEQEND
  5
233
330
230
100
AcDbEntity
  8
CALQUE_1
  0
POLYLINE
  5
234
330
1F
100
AcDbEntity
  8
CALQUE_1
 62
     7
100
AcDb2dPolyline
 66
     1
 10
0.0
 20
0.0
 30
0.0
  0
VERTEX
  5
235
330
234
100
AcDbEntity
  8
CALQUE_1
 62
     7
100
AcDbVertex
100
AcDb2dVertex
 10
577.5582002679369
 20
-299.9551621428932
 30
0.0
  0
VERTEX
  5
236
330
234
100
AcDbEntity
  8
CALQUE_1
 62
     7
100
AcDbVertex
100
AcDb2dVertex
 10
571.5582219708258
 20
-299.9551621428932
 30
0.0
  0
SEQEND
  5
237
330
234
100
AcDbEntity
  8
CALQUE_1
  0
POLYLINE
  5
238
330
1F
100
AcDbEntity
  8
CALQUE_1
 62
     7
100
AcDb2dPolyline
 66
     1
 10
0.0
 20
0.0
 30
0.0
  0
VERTEX
  5
239
330
238
100
AcDbEntity
  8
CALQUE_1
 62
     7
100
AcDbVertex
100
AcDb2dVertex
 10
571.5582219708258
 20
-299.9551621428932
 30
0.0
  0
VERTEX
  5
23A
330
238
100
AcDbEntity
  8
CALQUE_1
 62
     7
100
AcDbVertex
100
AcDb2dVertex
 10
571.5582219708258
 20
-250.4553411917265
 30
0.0
  0
SEQEND
  5
23B
330
238
100
AcDbEntity
  8
CALQUE_1
  0
POLYLINE
  5
23C
330
1F
100
AcDbEntity
  8
CALQUE_1
 62
     7
100
AcDb2dPolyline
 66
     1
 10
0.0
 20
0.0
 30
0.0
  0
VERTEX
  5
23D
330
23C
100
AcDbEntity
  8
CALQUE_1
 62
     7
100
AcDbVertex
100
AcDb2dVertex
 10
571.5582219708258
 20
-250.4553411917265
 30
0.0
  0
VERTEX
  5
23E
330
23C
100
AcDbEntity
  8
CALQUE_1
 62
     7
100
AcDbVertex
100
AcDb2dVertex
 10
53.55848794233955
 20
-250.4553411917265
 30
0.0
  0
SEQEND
  5
23F
330
23C
100
AcDbEntity
  8
CALQUE_1
  0
POLYLINE
  5
240
330
1F
100
AcDbEntity
  8
CALQUE_1
 62
     7
100
AcDb2dPolyline
 66
     1
 10
0.0
 20
0.0
 30
0.0
  0
VERTEX
  5
241
330
240
100
AcDbEntity
  8
CALQUE_1
 62
     7
100
AcDbVertex
100
AcDb2dVertex
 10
53.55848794233955
 20
-250.4553411917265
 30
0.0
  0
VERTEX
  5
242
330
240
100
AcDbEntity
  8
CALQUE_1
 62
     7
100
AcDbVertex
100
AcDb2dVertex
 10
53.55848794233955
 20
-299.9551621428932
 30
0.0
  0
SEQEND
  5
243
330
240
100
AcDbEntity
  8
CALQUE_1
  0
POLYLINE
  5
244
330
1F
100
AcDbEntity
  8
CALQUE_1
 62
     7
100
AcDb2dPolyline
 66
     1
 10
0.0
 20
0.0
 30
0.0
  0
VERTEX
  5
245
330
244
100
AcDbEntity
  8
CALQUE_1
 62
     7
100
AcDbVertex
100
AcDb2dVertex
 10
53.55848794233955
 20
-299.9551621428932
 30
0.0
  0
VERTEX
  5
246
330
244
100
AcDbEntity
  8
CALQUE_1
 62
     7
100
AcDbVertex
100
AcDb2dVertex
 10
47.55816513567991
 20
-299.9551621428932
 30
0.0
  0
SEQEND
  5
247
330
244
100
AcDbEntity
  8
CALQUE_1
  0
POLYLINE
  5
248
330
1F
100
AcDbEntity
  8
CALQUE_1
 62
     7
100
AcDb2dPolyline
 66
     1
 10
0.0
 20
0.0
 30
0.0
  0
VERTEX
  5
249
330
248
100
AcDbEntity
  8
CALQUE_1
 62
     7
100
AcDbVertex
100
AcDb2dVertex
 10
47.55816513567991
 20
-299.9551621428932
 30
0.0
  0
VERTEX
  5
24A
330
248
100
AcDbEntity
  8
CALQUE_1
 62
     7
100
AcDbVertex
100
AcDb2dVertex
 10
47.55816513567991
 20
-250.4553411917265
 30
0.0
  0
SEQEND
  5
24B
330
248
100
AcDbEntity
  8
CALQUE_1
  0
POLYLINE
  5
24C
330
1F
100
AcDbEntity
  8
CALQUE_1
 62
     7
100
AcDb2dPolyline
 66
     1
 10
0.0
 20
0.0
 30
0.0
  0
VERTEX
  5
24D
330
24C
100
AcDbEntity
  8
CALQUE_1
 62
     7
100
AcDbVertex
100
AcDb2dVertex
 10
47.55816513567991
 20
-250.4553411917265
 30
0.0
  0
VERTEX
  5
24E
330
24C
100
AcDbEntity
  8
CALQUE_1
 62
     7
100
AcDbVertex
100
AcDb2dVertex
 10
37.55843098019373
 20
-250.4553411917265
 30
0.0
  0
SEQEND
  5
24F
330
24C
100
AcDbEntity
  8
CALQUE_1
  0
POLYLINE
  5
250
330
1F
100
AcDbEntity
  8
CALQUE_1
 62
     7
100
AcDb2dPolyline
 66
     1
 10
0.0
 20
0.0
 30
0.0
  0
VERTEX
  5
251
330
250
100
AcDbEntity
  8
CALQUE_1
 62
     7
100
AcDbVertex
100
AcDb2dVertex
 10
37.55843098019373
 20
-250.4553411917265
 30
0.0
  0
VERTEX
  5
252
330
250
100
AcDbEntity
  8
CALQUE_1
 62
     7
100
AcDbVertex
100
AcDb2dVertex
 10
37.55843098019373
 20
-389.4552977541987
 30
0.0
  0
SEQEND
  5
253
330
250
100
AcDbEntity
  8
CALQUE_1
  0
POLYLINE
  5
254
330
1F
100
AcDbEntity
  8
CALQUE_1
 62
     7
100
AcDb2dPolyline
 66
     1
 10
0.0
 20
0.0
 30
0.0
  0
VERTEX
  5
255
330
254
100
AcDbEntity
  8
CALQUE_1
 62
     7
100
AcDbVertex
100
AcDb2dVertex
 10
37.55843098019373
 20
-389.4552977541987
 30
0.0
  0
VERTEX
  5
256
330
254
100
AcDbEntity
  8
CALQUE_1
 62
     7
100
AcDbVertex
100
AcDb2dVertex
 10
47.55816513567991
 20
-389.4552977541987
 30
0.0
  0
SEQEND
  5
257
330
254
100
AcDbEntity
  8
CALQUE_1
  0
POLYLINE
  5
258
330
1F
100
AcDbEntity
  8
CALQUE_1
 62
     7
100
AcDb2dPolyline
 66
     1
 10
0.0
 20
0.0
 30
0.0
  0
VERTEX
  5
259
330
258
100
AcDbEntity
  8
CALQUE_1
 62
     7
100
AcDbVertex
100
AcDb2dVertex
 10
47.55816513567991
 20
-389.4552977541987
 30
0.0
  0
VERTEX
  5
25A
330
258
100
AcDbEntity
  8
CALQUE_1
 62
     7
100
AcDbVertex
100
AcDb2dVertex
 10
47.55816513567991
 20
-339.955476803032
 30
0.0
  0
SEQEND
  5
25B
330
258
100
AcDbEntity
  8
CALQUE_1
  0
POLYLINE
  5
25C
330
1F
100
AcDbEntity
  8
CALQUE_1
 62
     7
100
AcDb2dPolyline
 66
     1
 10
0.0
 20
0.0
 30
0.0
  0
VERTEX
  5
25D
330
25C
100
AcDbEntity
  8
CALQUE_1
 62
     7
100
AcDbVertex
100
AcDb2dVertex
 10
47.55816513567991
 20
-339.955476803032
 30
0.0
  0
VERTEX
  5
25E
330
25C
100
AcDbEntity
  8
CALQUE_1
 62
     7
100
AcDbVertex
100
AcDb2dVertex
 10
53.55848794233955
 20
-339.955476803032
 30
0.0
  0
SEQEND
  5
25F
330
25C
100
AcDbEntity
  8
CALQUE_1
  0
POLYLINE
  5
260
330
1F
100
AcDbEntity
  8
CALQUE_1
 62
     7
100
AcDb2dPolyline
 66
     1
 10
0.0
 20
0.0
 30
0.0
  0
VERTEX
  5
261
330
260
100
AcDbEntity
  8
CALQUE_1
 62
     7
100
AcDbVertex
100
AcDb2dVertex
 10
53.55848794233955
 20
-339.955476803032
 30
0.0
  0
VERTEX
  5
262
330
260
100
AcDbEntity
  8
CALQUE_1
 62
     7
100
AcDbVertex
100
AcDb2dVertex
 10
53.55848794233955
 20
-389.4552977541987
 30
0.0
  0
SEQEND
  5
263
330
260
100
AcDbEntity
  8
CALQUE_1
  0
POLYLINE
  5
264
330
1F
100
AcDbEntity
  8
CALQUE_1
 62
     7
100
AcDb2dPolyline
 66
     1
 10
0.0
 20
0.0
 30
0.0
  0
VERTEX
  5
265
330
264
100
AcDbEntity
  8
CALQUE_1
 62
     7
100
AcDbVertex
100
AcDb2dVertex
 10
53.55848794233955
 20
-389.4552977541987
 30
0.0
  0
VERTEX
  5
266
330
264
100
AcDbEntity
  8
CALQUE_1
 62
     7
100
AcDbVertex
100
AcDb2dVertex
 10
571.5582219708258
 20
-389.4552977541987
 30
0.0
  0
SEQEND
  5
267
330
264
100
AcDbEntity
  8
CALQUE_1
  0
POLYLINE
  5
268
330
1F
100
AcDbEntity
  8
CALQUE_1
 62
     7
100
AcDb2dPolyline
 66
     1
 10
0.0
 20
0.0
 30
0.0
  0
VERTEX
  5
269
330
268
100
AcDbEntity
  8
CALQUE_1
 62
     7
100
AcDbVertex
100
AcDb2dVertex
 10
571.5582219708258
 20
-389.4552977541987
 30
0.0
  0
VERTEX
  5
26A
330
268
100
AcDbEntity
  8
CALQUE_1
 62
     7
100
AcDbVertex
100
AcDb2dVertex
 10
571.5582219708258
 20
-339.955476803032
 30
0.0
  0
SEQEND
  5
26B
330
268
100
AcDbEntity
  8
CALQUE_1
  0
POLYLINE
  5
26C
330
1F
100
AcDbEntity
  8
CALQUE_1
 62
     7
100
AcDb2dPolyline
 66
     1
 10
0.0
 20
0.0
 30
0.0
  0
VERTEX
  5
26D
330
26C
100
AcDbEntity
  8
CALQUE_1
 62
     7
100
AcDbVertex
100
AcDb2dVertex
 10
571.5582219708258
 20
-339.955476803032
 30
0.0
  0
VERTEX
  5
26E
330
26C
100
AcDbEntity
  8
CALQUE_1
 62
     7
100
AcDbVertex
100
AcDb2dVertex
 10
577.5582002679369
 20
-339.955476803032
 30
0.0
  0
SEQEND
  5
26F
330
26C
100
AcDbEntity
  8
CALQUE_1
  0
POLYLINE
  5
270
330
1F
100
AcDbEntity
  8
CALQUE_1
 62
     7
100
AcDb2dPolyline
 66
     1
 10
0.0
 20
0.0
 30
0.0
  0
VERTEX
  5
271
330
270
100
AcDbEntity
  8
CALQUE_1
 62
     7
100
AcDbVertex
100
AcDb2dVertex
 10
577.5582002679369
 20
-339.955476803032
 30
0.0
  0
VERTEX
  5
272
330
270
100
AcDbEntity
  8
CALQUE_1
 62
     7
100
AcDbVertex
100
AcDb2dVertex
 10
577.5582002679369
 20
-389.4552977541987
 30
0.0
  0
SEQEND
  5
273
330
270
100
AcDbEntity
  8
CALQUE_1
  0
POLYLINE
  5
274
330
1F
100
AcDbEntity
  8
CALQUE_1
 62
     7
100
AcDb2dPolyline
 66
     1
 10
0.0
 20
0.0
 30
0.0
  0
VERTEX
  5
275
330
274
100
AcDbEntity
  8
CALQUE_1
 62
     7
100
AcDbVertex
100
AcDb2dVertex
 10
577.5582002679369
 20
-389.4552977541987
 30
0.0
  0
VERTEX
  5
276
330
274
100
AcDbEntity
  8
CALQUE_1
 62
     7
100
AcDbVertex
100
AcDb2dVertex
 10
587.5582789329716
 20
-389.4552977541987
 30
0.0
  0
SEQEND
  5
277
330
274
100
AcDbEntity
  8
CALQUE_1
  0
SPLINE
  5
278
330
1F
100
AcDbEntity
  8
CALQUE_1
 62
     7
100
AcDbSpline
210
0.0
220
0.0
230
1.0
 70
    11
 71
     3
 72
    20
 73
    16
 74
     0
 42
0.0000000001
 43
0.0000000001
 40
0.0
 40
0.0
 40
0.0
 40
0.0
 40
1.0
 40
1.0
 40
1.0
 40
2.0
 40
2.0
 40
2.0
 40
3.0
 40
3.0
 40
3.0
 40
4.0
 40
4.0
 40
4.0
 40
5.0
 40
5.0
 40
5.0
 40
5.0
 10
513.0418971156631
 20
-112.0515584029767
 30
0.0
 10
513.0418971156631
 20
-119.7837307100714
 30
0.0
 10
519.3099038415268
 20
-126.051737435935
 30
0.0
 10
527.041731639073
 20
-126.051737435935
 30
0.0
 10
534.7739039461677
 20
-126.051737435935
 30
0.0
 10
541.0419106720312
 20
-119.7837307100714
 30
0.0
 10
541.0419106720312
 20
-112.0515584029767
 30
0.0
 10
541.0419106720312
 20
-104.319386095882
 30
0.0
 10
534.7739039461677
 20
-98.05137937001841
 30
0.0
 10
527.041731639073
 20
-98.05137937001841
 30
0.0
 10
519.3099038415268
 20
-98.05137937001841
 30
0.0
 10
513.0418971156631
 20
-104.319386095882
 30
0.0
 10
513.0418971156631
 20
-112.0515584029767
 30
0.0
 10
513.0418971156631
 20
-112.0515584029767
 30
0.0
 10
513.0418971156631
 20
-112.0515584029767
 30
0.0
 10
513.0418971156631
 20
-112.0515584029767
 30
0.0
  0
SPLINE
  5
279
330
1F
100
AcDbEntity
  8
CALQUE_1
 62
     7
100
AcDbSpline
210
0.0
220
0.0
230
1.0
 70
    11
 71
     3
 72
    20
 73
    16
 74
     0
 42
0.0000000001
 43
0.0000000001
 40
0.0
 40
0.0
 40
0.0
 40
0.0
 40
1.0
 40
1.0
 40
1.0
 40
2.0
 40
2.0
 40
2.0
 40
3.0
 40
3.0
 40
3.0
 40
4.0
 40
4.0
 40
4.0
 40
5.0
 40
5.0
 40
5.0
 40
5.0
 10
253.0503593659909
 20
-112.0515584029767
 30
0.0
 10
253.0503593659909
 20
-119.7837307100714
 30
0.0
 10
259.3183660918544
 20
-126.051737435935
 30
0.0
 10
267.0505383989492
 20
-126.051737435935
 30
0.0
 10
274.7823661964954
 20
-126.051737435935
 30
0.0
 10
281.050372922359
 20
-119.7837307100714
 30
0.0
 10
281.050372922359
 20
-112.0515584029767
 30
0.0
 10
281.050372922359
 20
-104.319386095882
 30
0.0
 10
274.7823661964954
 20
-98.05137937001841
 30
0.0
 10
267.0505383989492
 20
-98.05137937001841
 30
0.0
 10
259.3183660918544
 20
-98.05137937001841
 30
0.0
 10
253.0503593659909
 20
-104.319386095882
 30
0.0
 10
253.0503593659909
 20
-112.0515584029767
 30
0.0
 10
253.0503593659909
 20
-112.0515584029767
 30
0.0
 10
253.0503593659909
 20
-112.0515584029767
 30
0.0
 10
253.0503593659909
 20
-112.0515584029767
 30
0.0
  0
SPLINE
  5
27A
330
1F
100
AcDbEntity
  8
CALQUE_1
 62
     7
100
AcDbSpline
210
0.0
220
0.0
230
1.0
 70
    11
 71
     3
 72
    20
 73
    16
 74
     0
 42
0.0000000001
 43
0.0000000001
 40
0.0
 40
0.0
 40
0.0
 40
0.0
 40
1.0
 40
1.0
 40
1.0
 40
2.0
 40
2.0
 40
2.0
 40
3.0
 40
3.0
 40
3.0
 40
4.0
 40
4.0
 40
4.0
 40
5.0
 40
5.0
 40
5.0
 40
5.0
 10
88.05061168588665
 20
-112.0515584029767
 30
0.0
 10
88.05061168588665
 20
-119.7837307100714
 30
0.0
 10
94.31861841175021
 20
-126.051737435935
 30
0.0
 10
102.0504462092964
 20
-126.051737435935
 30
0.0
 10
109.7826185163912
 20
-126.051737435935
 30
0.0
 10
116.0506252422547
 20
-119.7837307100714
 30
0.0
 10
116.0506252422547
 20
-112.0515584029767
 30
0.0
 10
116.0506252422547
 20
-104.319386095882
 30
0.0
 10
109.7826185163912
 20
-98.05137937001841
 30
0.0
 10
102.0504462092964
 20
-98.05137937001841
 30
0.0
 10
94.31861841175021
 20
-98.05137937001841
 30
0.0
 10
88.05061168588665
 20
-104.319386095882
 30
0.0
 10
88.05061168588665
 20
-112.0515584029767
 30
0.0
 10
88.05061168588665
 20
-112.0515584029767
 30
0.0
 10
88.05061168588665
 20
-112.0515584029767
 30
0.0
 10
88.05061168588665
 20
-112.0515584029767
 30
0.0
  0
SPLINE
  5
27B
330
1F
100
AcDbEntity
  8
CALQUE_1
 62
     7
100
AcDbSpline
210
0.0
220
0.0
230
1.0
 70
    11
 71
     3
 72
    20
 73
    16
 74
     0
 42
0.0000000001
 43
0.0000000001
 40
0.0
 40
0.0
 40
0.0
 40
0.0
 40
1.0
 40
1.0
 40
1.0
 40
2.0
 40
2.0
 40
2.0
 40
3.0
 40
3.0
 40
3.0
 40
4.0
 40
4.0
 40
4.0
 40
5.0
 40
5.0
 40
5.0
 40
5.0
 10
124.0504814685534
 20
-112.0515584029767
 30
0.0
 10
124.0504814685534
 20
-119.7837307100714
 30
0.0
 10
130.3184881944169
 20
-126.051737435935
 30
0.0
 10
138.0506605015117
 20
-126.051737435935
 30
0.0
 10
145.7824882990579
 20
-126.051737435935
 30
0.0
 10
152.0504950249214
 20
-119.7837307100714
 30
0.0
 10
152.0504950249214
 20
-112.0515584029767
 30
0.0
 10
152.0504950249214
 20
-104.319386095882
 30
0.0
 10
145.7824882990579
 20
-98.05137937001841
 30
0.0
 10
138.0506605015117
 20
-98.05137937001841
 30
0.0
 10
130.3184881944169
 20
-98.05137937001841
 30
0.0
 10
124.0504814685534
 20
-104.319386095882
 30
0.0
 10
124.0504814685534
 20
-112.0515584029767
 30
0.0
 10
124.0504814685534
 20
-112.0515584029767
 30
0.0
 10
124.0504814685534
 20
-112.0515584029767
 30
0.0
 10
124.0504814685534
 20
-112.0515584029767
 30
0.0
  0
SPLINE
  5
27C
330
1F
100
AcDbEntity
  8
CALQUE_1
 62
     7
100
AcDbSpline
210
0.0
220
0.0
230
1.0
 70
    11
 71
     3
 72
    20
 73
    16
 74
     0
 42
0.0000000001
 43
0.0000000001
 40
0.0
 40
0.0
 40
0.0
 40
0.0
 40
1.0
 40
1.0
 40
1.0
 40
2.0
 40
2.0
 40
2.0
 40
3.0
 40
3.0
 40
3.0
 40
4.0
 40
4.0
 40
4.0
 40
5.0
 40
5.0
 40
5.0
 40
5.0
 10
157.050706612213
 20
-95.05139022146285
 30
0.0
 10
157.050706612213
 20
-102.7835625285576
 30
0.0
 10
163.3187133380766
 20
-109.0515692544211
 30
0.0
 10
171.0505411356228
 20
-109.0515692544211
 30
0.0
 10
178.782368933169
 20
-109.0515692544211
 30
0.0
 10
185.0503756590325
 20
-102.7835625285576
 30
0.0
 10
185.0503756590325
 20
-95.05139022146285
 30
0.0
 10
185.0503756590325
 20
-87.31990693346516
 30
0.0
 10
178.782368933169
 20
-81.0519002076016
 30
0.0
 10
171.0505411356228
 20
-81.0519002076016
 30
0.0
 10
163.3187133380766
 20
-81.0519002076016
 30
0.0
 10
157.050706612213
 20
-87.31990693346516
 30
0.0
 10
157.050706612213
 20
-95.05139022146285
 30
0.0
 10
157.050706612213
 20
-95.05139022146285
 30
0.0
 10
157.050706612213
 20
-95.05139022146285
 30
0.0
 10
157.050706612213
 20
-95.05139022146285
 30
0.0
  0
SPLINE
  5
27D
330
1F
100
AcDbEntity
  8
CALQUE_1
 62
     7
100
AcDbSpline
210
0.0
220
0.0
230
1.0
 70
    11
 71
     3
 72
    20
 73
    16
 74
     0
 42
0.0000000001
 43
0.0000000001
 40
0.0
 40
0.0
 40
0.0
 40
0.0
 40
1.0
 40
1.0
 40
1.0
 40
2.0
 40
2.0
 40
2.0
 40
3.0
 40
3.0
 40
3.0
 40
4.0
 40
4.0
 40
4.0
 40
5.0
 40
5.0
 40
5.0
 40
5.0
 10
190.0505872463242
 20
-81.0519002076016
 30
0.0
 10
190.0505872463242
 20
-88.7833834955993
 30
0.0
 10
196.3185939721877
 20
-95.05139022146285
 30
0.0
 10
204.0504217697339
 20
-95.05139022146285
 30
0.0
 10
211.7825940768287
 20
-95.05139022146285
 30
0.0
 10
218.0506008026922
 20
-88.7833834955993
 30
0.0
 10
218.0506008026922
 20
-81.0519002076016
 30
0.0
 10
218.0506008026922
 20
-73.31972790050688
 30
0.0
 10
211.7825940768287
 20
-67.05172117464332
 30
0.0
 10
204.0504217697339
 20
-67.05172117464332
 30
0.0
 10
196.3185939721877
 20
-67.05172117464332
 30
0.0
 10
190.0505872463242
 20
-73.31972790050688
 30
0.0
 10
190.0505872463242
 20
-81.0519002076016
 30
0.0
 10
190.0505872463242
 20
-81.0519002076016
 30
0.0
 10
190.0505872463242
 20
-81.0519002076016
 30
0.0
 10
190.0505872463242
 20
-81.0519002076016
 30
0.0
  0
SPLINE
  5
27E
330
1F
100
AcDbEntity
  8
CALQUE_1
 62
     7
100
AcDbSpline
210
0.0
220
0.0
230
1.0
 70
    11
 71
     3
 72
    20
 73
    16
 74
     0
 42
0.0000000001
 43
0.0000000001
 40
0.0
 40
0.0
 40
0.0
 40
0.0
 40
1.0
 40
1.0
 40
1.0
 40
2.0
 40
2.0
 40
2.0
 40
3.0
 40
3.0
 40
3.0
 40
4.0
 40
4.0
 40
4.0
 40
5.0
 40
5.0
 40
5.0
 40
5.0
 10
88.05061168588665
 20
-148.0517726951919
 30
0.0
 10
88.05061168588665
 20
-155.7836004927381
 30
0.0
 10
94.31861841175021
 20
-162.0516072186017
 30
0.0
 10
102.0504462092964
 20
-162.0516072186017
 30
0.0
 10
109.7826185163912
 20
-162.0516072186017
 30
0.0
 10
116.0506252422547
 20
-155.7836004927381
 30
0.0
 10
116.0506252422547
 20
-148.0517726951919
 30
0.0
 10
116.0506252422547
 20
-140.3199448976457
 30
0.0
 10
109.7826185163912
 20
-134.0519381717822
 30
0.0
 10
102.0504462092964
 20
-134.0519381717822
 30
0.0
 10
94.31861841175021
 20
-134.0519381717822
 30
0.0
 10
88.05061168588665
 20
-140.3199448976457
 30
0.0
 10
88.05061168588665
 20
-148.0517726951919
 30
0.0
 10
88.05061168588665
 20
-148.0517726951919
 30
0.0
 10
88.05061168588665
 20
-148.0517726951919
 30
0.0
 10
88.05061168588665
 20
-148.0517726951919
 30
0.0
  0
SPLINE
  5
27F
330
1F
100
AcDbEntity
  8
CALQUE_1
 62
     7
100
AcDbSpline
210
0.0
220
0.0
230
1.0
 70
    11
 71
     3
 72
    20
 73
    16
 74
     0
 42
0.0000000001
 43
0.0000000001
 40
0.0
 40
0.0
 40
0.0
 40
0.0
 40
1.0
 40
1.0
 40
1.0
 40
2.0
 40
2.0
 40
2.0
 40
3.0
 40
3.0
 40
3.0
 40
4.0
 40
4.0
 40
4.0
 40
5.0
 40
5.0
 40
5.0
 40
5.0
 10
124.0504814685534
 20
-148.0517726951919
 30
0.0
 10
124.0504814685534
 20
-155.7836004927381
 30
0.0
 10
130.3184881944169
 20
-162.0516072186017
 30
0.0
 10
138.0506605015117
 20
-162.0516072186017
 30
0.0
 10
145.7824882990579
 20
-162.0516072186017
 30
0.0
 10
152.0504950249214
 20
-155.7836004927381
 30
0.0
 10
152.0504950249214
 20
-148.0517726951919
 30
0.0
 10
152.0504950249214
 20
-140.3199448976457
 30
0.0
 10
145.7824882990579
 20
-134.0519381717822
 30
0.0
 10
138.0506605015117
 20
-134.0519381717822
 30
0.0
 10
130.3184881944169
 20
-134.0519381717822
 30
0.0
 10
124.0504814685534
 20
-140.3199448976457
 30
0.0
 10
124.0504814685534
 20
-148.0517726951919
 30
0.0
 10
124.0504814685534
 20
-148.0517726951919
 30
0.0
 10
124.0504814685534
 20
-148.0517726951919
 30
0.0
 10
124.0504814685534
 20
-148.0517726951919
 30
0.0
  0
SPLINE
  5
280
330
1F
100
AcDbEntity
  8
CALQUE_1
 62
     7
100
AcDbSpline
210
0.0
220
0.0
230
1.0
 70
    11
 71
     3
 72
    20
 73
    16
 74
     0
 42
0.0000000001
 43
0.0000000001
 40
0.0
 40
0.0
 40
0.0
 40
0.0
 40
1.0
 40
1.0
 40
1.0
 40
2.0
 40
2.0
 40
2.0
 40
3.0
 40
3.0
 40
3.0
 40
4.0
 40
4.0
 40
4.0
 40
5.0
 40
5.0
 40
5.0
 40
5.0
 10
157.050706612213
 20
-134.0519381717822
 30
0.0
 10
157.050706612213
 20
-141.7837659693284
 30
0.0
 10
163.3187133380766
 20
-148.0517726951919
 30
0.0
 10
171.0505411356228
 20
-148.0517726951919
 30
0.0
 10
178.782368933169
 20
-148.0517726951919
 30
0.0
 10
185.0503756590325
 20
-141.7837659693284
 30
0.0
 10
185.0503756590325
 20
-134.0519381717822
 30
0.0
 10
185.0503756590325
 20
-126.3197658646874
 30
0.0
 10
178.782368933169
 20
-120.0517591388239
 30
0.0
 10
171.0505411356228
 20
-120.0517591388239
 30
0.0
 10
163.3187133380766
 20
-120.0517591388239
 30
0.0
 10
157.050706612213
 20
-126.3197658646874
 30
0.0
 10
157.050706612213
 20
-134.0519381717822
 30
0.0
 10
157.050706612213
 20
-134.0519381717822
 30
0.0
 10
157.050706612213
 20
-134.0519381717822
 30
0.0
 10
157.050706612213
 20
-134.0519381717822
 30
0.0
  0
SPLINE
  5
281
330
1F
100
AcDbEntity
  8
CALQUE_1
 62
     7
100
AcDbSpline
210
0.0
220
0.0
230
1.0
 70
    11
 71
     3
 72
    20
 73
    16
 74
     0
 42
0.0000000001
 43
0.0000000001
 40
0.0
 40
0.0
 40
0.0
 40
0.0
 40
1.0
 40
1.0
 40
1.0
 40
2.0
 40
2.0
 40
2.0
 40
3.0
 40
3.0
 40
3.0
 40
4.0
 40
4.0
 40
4.0
 40
5.0
 40
5.0
 40
5.0
 40
5.0
 10
190.0505872463242
 20
-120.0517591388239
 30
0.0
 10
190.0505872463242
 20
-127.7839314459186
 30
0.0
 10
196.3185939721877
 20
-134.0519381717822
 30
0.0
 10
204.0504217697339
 20
-134.0519381717822
 30
0.0
 10
211.7825940768287
 20
-134.0519381717822
 30
0.0
 10
218.0506008026922
 20
-127.7839314459186
 30
0.0
 10
218.0506008026922
 20
-120.0517591388239
 30
0.0
 10
218.0506008026922
 20
-112.3195868317291
 30
0.0
 10
211.7825940768287
 20
-106.0515801058656
 30
0.0
 10
204.0504217697339
 20
-106.0515801058656
 30
0.0
 10
196.3185939721877
 20
-106.0515801058656
 30
0.0
 10
190.0505872463242
 20
-112.3195868317291
 30
0.0
 10
190.0505872463242
 20
-120.0517591388239
 30
0.0
 10
190.0505872463242
 20
-120.0517591388239
 30
0.0
 10
190.0505872463242
 20
-120.0517591388239
 30
0.0
 10
190.0505872463242
 20
-120.0517591388239
 30
0.0
  0
SPLINE
  5
282
330
1F
100
AcDbEntity
  8
CALQUE_1
 62
     7
100
AcDbSpline
210
0.0
220
0.0
230
1.0
 70
    11
 71
     3
 72
    20
 73
    16
 74
     0
 42
0.0000000001
 43
0.0000000001
 40
0.0
 40
0.0
 40
0.0
 40
0.0
 40
1.0
 40
1.0
 40
1.0
 40
2.0
 40
2.0
 40
2.0
 40
3.0
 40
3.0
 40
3.0
 40
4.0
 40
4.0
 40
4.0
 40
5.0
 40
5.0
 40
5.0
 40
5.0
 10
348.0418049260104
 20
-112.0515584029767
 30
0.0
 10
348.0418049260104
 20
-119.7837307100714
 30
0.0
 10
354.3098116518739
 20
-126.051737435935
 30
0.0
 10
362.0419839589687
 20
-126.051737435935
 30
0.0
 10
369.7734672469664
 20
-126.051737435935
 30
0.0
 10
376.0414739728299
 20
-119.7837307100714
 30
0.0
 10
376.0414739728299
 20
-112.0515584029767
 30
0.0
 10
376.0414739728299
 20
-104.319386095882
 30
0.0
 10
369.7734672469664
 20
-98.05137937001841
 30
0.0
 10
362.0419839589687
 20
-98.05137937001841
 30
0.0
 10
354.3098116518739
 20
-98.05137937001841
 30
0.0
 10
348.0418049260104
 20
-104.319386095882
 30
0.0
 10
348.0418049260104
 20
-112.0515584029767
 30
0.0
 10
348.0418049260104
 20
-112.0515584029767
 30
0.0
 10
348.0418049260104
 20
-112.0515584029767
 30
0.0
 10
348.0418049260104
 20
-112.0515584029767
 30
0.0
  0
SPLINE
  5
283
330
1F
100
AcDbEntity
  8
CALQUE_1
 62
     7
100
AcDbSpline
210
0.0
220
0.0
230
1.0
 70
    11
 71
     3
 72
    20
 73
    16
 74
     0
 42
0.0000000001
 43
0.0000000001
 40
0.0
 40
0.0
 40
0.0
 40
0.0
 40
1.0
 40
1.0
 40
1.0
 40
2.0
 40
2.0
 40
2.0
 40
3.0
 40
3.0
 40
3.0
 40
4.0
 40
4.0
 40
4.0
 40
5.0
 40
5.0
 40
5.0
 40
5.0
 10
384.0416747086771
 20
-112.0515584029767
 30
0.0
 10
384.0416747086771
 20
-119.7837307100714
 30
0.0
 10
390.3096814345407
 20
-126.051737435935
 30
0.0
 10
398.0418537416354
 20
-126.051737435935
 30
0.0
 10
405.7736815391816
 20
-126.051737435935
 30
0.0
 10
412.0416882650451
 20
-119.7837307100714
 30
0.0
 10
412.0416882650451
 20
-112.0515584029767
 30
0.0
 10
412.0416882650451
 20
-104.319386095882
 30
0.0
 10
405.7736815391816
 20
-98.05137937001841
 30
0.0
 10
398.0418537416354
 20
-98.05137937001841
 30
0.0
 10
390.3096814345407
 20
-98.05137937001841
 30
0.0
 10
384.0416747086771
 20
-104.319386095882
 30
0.0
 10
384.0416747086771
 20
-112.0515584029767
 30
0.0
 10
384.0416747086771
 20
-112.0515584029767
 30
0.0
 10
384.0416747086771
 20
-112.0515584029767
 30
0.0
 10
384.0416747086771
 20
-112.0515584029767
 30
0.0
  0
SPLINE
  5
284
330
1F
100
AcDbEntity
  8
CALQUE_1
 62
     7
100
AcDbSpline
210
0.0
220
0.0
230
1.0
 70
    11
 71
     3
 72
    20
 73
    16
 74
     0
 42
0.0000000001
 43
0.0000000001
 40
0.0
 40
0.0
 40
0.0
 40
0.0
 40
1.0
 40
1.0
 40
1.0
 40
2.0
 40
2.0
 40
2.0
 40
3.0
 40
3.0
 40
3.0
 40
4.0
 40
4.0
 40
4.0
 40
5.0
 40
5.0
 40
5.0
 40
5.0
 10
417.0418998523368
 20
-95.05139022146285
 30
0.0
 10
417.0418998523368
 20
-102.7835625285576
 30
0.0
 10
423.3099065782003
 20
-109.0515692544211
 30
0.0
 10
431.0417343757466
 20
-109.0515692544211
 30
0.0
 10
438.7739066828412
 20
-109.0515692544211
 30
0.0
 10
445.0419134087048
 20
-102.7835625285576
 30
0.0
 10
445.0419134087048
 20
-95.05139022146285
 30
0.0
 10
445.0419134087048
 20
-87.31990693346516
 30
0.0
 10
438.7739066828412
 20
-81.0519002076016
 30
0.0
 10
431.0417343757466
 20
-81.0519002076016
 30
0.0
 10
423.3099065782003
 20
-81.0519002076016
 30
0.0
 10
417.0418998523368
 20
-87.31990693346516
 30
0.0
 10
417.0418998523368
 20
-95.05139022146285
 30
0.0
 10
417.0418998523368
 20
-95.05139022146285
 30
0.0
 10
417.0418998523368
 20
-95.05139022146285
 30
0.0
 10
417.0418998523368
 20
-95.05139022146285
 30
0.0
  0
SPLINE
  5
285
330
1F
100
AcDbEntity
  8
CALQUE_1
 62
     7
100
AcDbSpline
210
0.0
220
0.0
230
1.0
 70
    11
 71
     3
 72
    20
 73
    16
 74
     0
 42
0.0000000001
 43
0.0000000001
 40
0.0
 40
0.0
 40
0.0
 40
0.0
 40
1.0
 40
1.0
 40
1.0
 40
2.0
 40
2.0
 40
2.0
 40
3.0
 40
3.0
 40
3.0
 40
4.0
 40
4.0
 40
4.0
 40
5.0
 40
5.0
 40
5.0
 40
5.0
 10
450.0417804864479
 20
-81.0519002076016
 30
0.0
 10
450.0417804864479
 20
-88.7833834955993
 30
0.0
 10
456.3097872123114
 20
-95.05139022146285
 30
0.0
 10
464.0419595194062
 20
-95.05139022146285
 30
0.0
 10
471.7737873169524
 20
-95.05139022146285
 30
0.0
 10
478.041794042816
 20
-88.7833834955993
 30
0.0
 10
478.041794042816
 20
-81.0519002076016
 30
0.0
 10
478.041794042816
 20
-73.31972790050688
 30
0.0
 10
471.7737873169524
 20
-67.05172117464332
 30
0.0
 10
464.0419595194062
 20
-67.05172117464332
 30
0.0
 10
456.3097872123114
 20
-67.05172117464332
 30
0.0
 10
450.0417804864479
 20
-73.31972790050688
 30
0.0
 10
450.0417804864479
 20
-81.0519002076016
 30
0.0
 10
450.0417804864479
 20
-81.0519002076016
 30
0.0
 10
450.0417804864479
 20
-81.0519002076016
 30
0.0
 10
450.0417804864479
 20
-81.0519002076016
 30
0.0
  0
SPLINE
  5
286
330
1F
100
AcDbEntity
  8
CALQUE_1
 62
     7
100
AcDbSpline
210
0.0
220
0.0
230
1.0
 70
    11
 71
     3
 72
    20
 73
    16
 74
     0
 42
0.0000000001
 43
0.0000000001
 40
0.0
 40
0.0
 40
0.0
 40
0.0
 40
1.0
 40
1.0
 40
1.0
 40
2.0
 40
2.0
 40
2.0
 40
3.0
 40
3.0
 40
3.0
 40
4.0
 40
4.0
 40
4.0
 40
5.0
 40
5.0
 40
5.0
 40
5.0
 10
348.0418049260104
 20
-148.0517726951919
 30
0.0
 10
348.0418049260104
 20
-155.7836004927381
 30
0.0
 10
354.3098116518739
 20
-162.0516072186017
 30
0.0
 10
362.0419839589687
 20
-162.0516072186017
 30
0.0
 10
369.7734672469664
 20
-162.0516072186017
 30
0.0
 10
376.0414739728299
 20
-155.7836004927381
 30
0.0
 10
376.0414739728299
 20
-148.0517726951919
 30
0.0
 10
376.0414739728299
 20
-140.3199448976457
 30
0.0
 10
369.7734672469664
 20
-134.0519381717822
 30
0.0
 10
362.0419839589687
 20
-134.0519381717822
 30
0.0
 10
354.3098116518739
 20
-134.0519381717822
 30
0.0
 10
348.0418049260104
 20
-140.3199448976457
 30
0.0
 10
348.0418049260104
 20
-148.0517726951919
 30
0.0
 10
348.0418049260104
 20
-148.0517726951919
 30
0.0
 10
348.0418049260104
 20
-148.0517726951919
 30
0.0
 10
348.0418049260104
 20
-148.0517726951919
 30
0.0
  0
SPLINE
  5
287
330
1F
100
AcDbEntity
  8
CALQUE_1
 62
     7
100
AcDbSpline
210
0.0
220
0.0
230
1.0
 70
    11
 71
     3
 72
    20
 73
    16
 74
     0
 42
0.0000000001
 43
0.0000000001
 40
0.0
 40
0.0
 40
0.0
 40
0.0
 40
1.0
 40
1.0
 40
1.0
 40
2.0
 40
2.0
 40
2.0
 40
3.0
 40
3.0
 40
3.0
 40
4.0
 40
4.0
 40
4.0
 40
5.0
 40
5.0
 40
5.0
 40
5.0
 10
384.0416747086771
 20
-148.0517726951919
 30
0.0
 10
384.0416747086771
 20
-155.7836004927381
 30
0.0
 10
390.3096814345407
 20
-162.0516072186017
 30
0.0
 10
398.0418537416354
 20
-162.0516072186017
 30
0.0
 10
405.7736815391816
 20
-162.0516072186017
 30
0.0
 10
412.0416882650451
 20
-155.7836004927381
 30
0.0
 10
412.0416882650451
 20
-148.0517726951919
 30
0.0
 10
412.0416882650451
 20
-140.3199448976457
 30
0.0
 10
405.7736815391816
 20
-134.0519381717822
 30
0.0
 10
398.0418537416354
 20
-134.0519381717822
 30
0.0
 10
390.3096814345407
 20
-134.0519381717822
 30
0.0
 10
384.0416747086771
 20
-140.3199448976457
 30
0.0
 10
384.0416747086771
 20
-148.0517726951919
 30
0.0
 10
384.0416747086771
 20
-148.0517726951919
 30
0.0
 10
384.0416747086771
 20
-148.0517726951919
 30
0.0
 10
384.0416747086771
 20
-148.0517726951919
 30
0.0
  0
SPLINE
  5
288
330
1F
100
AcDbEntity
  8
CALQUE_1
 62
     7
100
AcDbSpline
210
0.0
220
0.0
230
1.0
 70
    11
 71
     3
 72
    20
 73
    16
 74
     0
 42
0.0000000001
 43
0.0000000001
 40
0.0
 40
0.0
 40
0.0
 40
0.0
 40
1.0
 40
1.0
 40
1.0
 40
2.0
 40
2.0
 40
2.0
 40
3.0
 40
3.0
 40
3.0
 40
4.0
 40
4.0
 40
4.0
 40
5.0
 40
5.0
 40
5.0
 40
5.0
 10
417.0418998523368
 20
-134.0519381717822
 30
0.0
 10
417.0418998523368
 20
-141.7837659693284
 30
0.0
 10
423.3099065782003
 20
-148.0517726951919
 30
0.0
 10
431.0417343757466
 20
-148.0517726951919
 30
0.0
 10
438.7739066828412
 20
-148.0517726951919
 30
0.0
 10
445.0419134087048
 20
-141.7837659693284
 30
0.0
 10
445.0419134087048
 20
-134.0519381717822
 30
0.0
 10
445.0419134087048
 20
-126.3197658646874
 30
0.0
 10
438.7739066828412
 20
-120.0517591388239
 30
0.0
 10
431.0417343757466
 20
-120.0517591388239
 30
0.0
 10
423.3099065782003
 20
-120.0517591388239
 30
0.0
 10
417.0418998523368
 20
-126.3197658646874
 30
0.0
 10
417.0418998523368
 20
-134.0519381717822
 30
0.0
 10
417.0418998523368
 20
-134.0519381717822
 30
0.0
 10
417.0418998523368
 20
-134.0519381717822
 30
0.0
 10
417.0418998523368
 20
-134.0519381717822
 30
0.0
  0
SPLINE
  5
289
330
1F
100
AcDbEntity
  8
CALQUE_1
 62
     7
100
AcDbSpline
210
0.0
220
0.0
230
1.0
 70
    11
 71
     3
 72
    20
 73
    16
 74
     0
 42
0.0000000001
 43
0.0000000001
 40
0.0
 40
0.0
 40
0.0
 40
0.0
 40
1.0
 40
1.0
 40
1.0
 40
2.0
 40
2.0
 40
2.0
 40
3.0
 40
3.0
 40
3.0
 40
4.0
 40
4.0
 40
4.0
 40
5.0
 40
5.0
 40
5.0
 40
5.0
 10
450.0417804864479
 20
-120.0517591388239
 30
0.0
 10
450.0417804864479
 20
-127.7839314459186
 30
0.0
 10
456.3097872123114
 20
-134.0519381717822
 30
0.0
 10
464.0419595194062
 20
-134.0519381717822
 30
0.0
 10
471.7737873169524
 20
-134.0519381717822
 30
0.0
 10
478.041794042816
 20
-127.7839314459186
 30
0.0
 10
478.041794042816
 20
-120.0517591388239
 30
0.0
 10
478.041794042816
 20
-112.3195868317291
 30
0.0
 10
471.7737873169524
 20
-106.0515801058656
 30
0.0
 10
464.0419595194062
 20
-106.0515801058656
 30
0.0
 10
456.3097872123114
 20
-106.0515801058656
 30
0.0
 10
450.0417804864479
 20
-112.3195868317291
 30
0.0
 10
450.0417804864479
 20
-120.0517591388239
 30
0.0
 10
450.0417804864479
 20
-120.0517591388239
 30
0.0
 10
450.0417804864479
 20
-120.0517591388239
 30
0.0
 10
450.0417804864479
 20
-120.0517591388239
 30
0.0
  0
SPLINE
  5
28A
330
1F
100
AcDbEntity
  8
CALQUE_1
 62
     7
100
AcDbSpline
210
0.0
220
0.0
230
1.0
 70
    11
 71
     3
 72
    20
 73
    16
 74
     0
 42
0.0000000001
 43
0.0000000001
 40
0.0
 40
0.0
 40
0.0
 40
0.0
 40
1.0
 40
1.0
 40
1.0
 40
2.0
 40
2.0
 40
2.0
 40
3.0
 40
3.0
 40
3.0
 40
4.0
 40
4.0
 40
4.0
 40
5.0
 40
5.0
 40
5.0
 40
5.0
 10
248.5582993627736
 20
-212.5763440766302
 30
0.0
 10
248.5582993627736
 20
-220.3081718741765
 30
0.0
 10
254.8263060886372
 20
-226.57617860004
 30
0.0
 10
262.5581338861834
 20
-226.57617860004
 30
0.0
 10
270.2903061932781
 20
-226.57617860004
 30
0.0
 10
276.5583129191417
 20
-220.3081718741765
 30
0.0
 10
276.5583129191417
 20
-212.5763440766302
 30
0.0
 10
276.5583129191417
 20
-204.844516279084
 30
0.0
 10
270.2903061932781
 20
-198.5765095532205
 30
0.0
 10
262.5581338861834
 20
-198.5765095532205
 30
0.0
 10
254.8263060886372
 20
-198.5765095532205
 30
0.0
 10
248.5582993627736
 20
-204.844516279084
 30
0.0
 10
248.5582993627736
 20
-212.5763440766302
 30
0.0
 10
248.5582993627736
 20
-212.5763440766302
 30
0.0
 10
248.5582993627736
 20
-212.5763440766302
 30
0.0
 10
248.5582993627736
 20
-212.5763440766302
 30
0.0
  0
SPLINE
  5
28B
330
1F
100
AcDbEntity
  8
CALQUE_1
 62
     7
100
AcDbSpline
210
0.0
220
0.0
230
1.0
 70
    11
 71
     3
 72
    20
 73
    16
 74
     0
 42
0.0000000001
 43
0.0000000001
 40
0.0
 40
0.0
 40
0.0
 40
0.0
 40
1.0
 40
1.0
 40
1.0
 40
2.0
 40
2.0
 40
2.0
 40
3.0
 40
3.0
 40
3.0
 40
4.0
 40
4.0
 40
4.0
 40
5.0
 40
5.0
 40
5.0
 40
5.0
 10
348.5582247392493
 20
-212.5763440766302
 30
0.0
 10
348.5582247392493
 20
-220.3081718741765
 30
0.0
 10
354.8262314651129
 20
-226.57617860004
 30
0.0
 10
362.5580592626591
 20
-226.57617860004
 30
0.0
 10
370.2902315697539
 20
-226.57617860004
 30
0.0
 10
376.5582382956174
 20
-220.3081718741765
 30
0.0
 10
376.5582382956174
 20
-212.5763440766302
 30
0.0
 10
376.5582382956174
 20
-204.844516279084
 30
0.0
 10
370.2902315697539
 20
-198.5765095532205
 30
0.0
 10
362.5580592626591
 20
-198.5765095532205
 30
0.0
 10
354.8262314651129
 20
-198.5765095532205
 30
0.0
 10
348.5582247392493
 20
-204.844516279084
 30
0.0
 10
348.5582247392493
 20
-212.5763440766302
 30
0.0
 10
348.5582247392493
 20
-212.5763440766302
 30
0.0
 10
348.5582247392493
 20
-212.5763440766302
 30
0.0
 10
348.5582247392493
 20
-212.5763440766302
 30
0.0
  0
POLYLINE
  5
28C
330
1F
100
AcDbEntity
  8
CALQUE_1
 62
     7
100
AcDb2dPolyline
 66
     1
 10
0.0
 20
0.0
 30
0.0
  0
VERTEX
  5
28D
330
28C
100
AcDbEntity
  8
CALQUE_1
 62
     7
100
AcDbVertex
100
AcDb2dVertex
 10
53.55831568756528
 20
-134.5762817046372
 30
0.0
  0
VERTEX
  5
28E
330
28C
100
AcDbEntity
  8
CALQUE_1
 62
     7
100
AcDbVertex
100
AcDb2dVertex
 10
47.55799288090564
 20
-134.5762817046372
 30
0.0
  0
SEQEND
  5
28F
330
28C
100
AcDbEntity
  8
CALQUE_1
  0
POLYLINE
  5
290
330
1F
100
AcDbEntity
  8
CALQUE_1
 62
     7
100
AcDb2dPolyline
 66
     1
 10
0.0
 20
0.0
 30
0.0
  0
VERTEX
  5
291
330
290
100
AcDbEntity
  8
CALQUE_1
 62
     7
100
AcDbVertex
100
AcDb2dVertex
 10
53.55831568756528
 20
-179.5761189329706
 30
0.0
  0
VERTEX
  5
292
330
290
100
AcDbEntity
  8
CALQUE_1
 62
     7
100
AcDbVertex
100
AcDb2dVertex
 10
53.55831568756528
 20
-134.5762817046372
 30
0.0
  0
SEQEND
  5
293
330
290
100
AcDbEntity
  8
CALQUE_1
  0
POLYLINE
  5
294
330
1F
100
AcDbEntity
  8
CALQUE_1
 62
     7
100
AcDb2dPolyline
 66
     1
 10
0.0
 20
0.0
 30
0.0
  0
VERTEX
  5
295
330
294
100
AcDbEntity
  8
CALQUE_1
 62
     7
100
AcDbVertex
100
AcDb2dVertex
 10
47.55799288090564
 20
-179.5761189329706
 30
0.0
  0
VERTEX
  5
296
330
294
100
AcDbEntity
  8
CALQUE_1
 62
     7
100
AcDbVertex
100
AcDb2dVertex
 10
53.55831568756528
 20
-179.5761189329706
 30
0.0
  0
SEQEND
  5
297
330
294
100
AcDbEntity
  8
CALQUE_1
  0
POLYLINE
  5
298
330
1F
100
AcDbEntity
  8
CALQUE_1
 62
     7
100
AcDb2dPolyline
 66
     1
 10
0.0
 20
0.0
 30
0.0
  0
VERTEX
  5
299
330
298
100
AcDbEntity
  8
CALQUE_1
 62
     7
100
AcDbVertex
100
AcDb2dVertex
 10
47.55799288090564
 20
-134.5762817046372
 30
0.0
  0
VERTEX
  5
29A
330
298
100
AcDbEntity
  8
CALQUE_1
 62
     7
100
AcDbVertex
100
AcDb2dVertex
 10
47.55799288090564
 20
-179.5761189329706
 30
0.0
  0
SEQEND
  5
29B
330
298
100
AcDbEntity
  8
CALQUE_1
  0
POLYLINE
  5
29C
330
1F
100
AcDbEntity
  8
CALQUE_1
 62
     7
100
AcDb2dPolyline
 66
     1
 10
0.0
 20
0.0
 30
0.0
  0
VERTEX
  5
29D
330
29C
100
AcDbEntity
  8
CALQUE_1
 62
     7
100
AcDbVertex
100
AcDb2dVertex
 10
577.5582002679369
 20
-72.07604843033168
 30
0.0
  0
VERTEX
  5
29E
330
29C
100
AcDbEntity
  8
CALQUE_1
 62
     7
100
AcDbVertex
100
AcDb2dVertex
 10
571.5582219708258
 20
-72.07604843033168
 30
0.0
  0
SEQEND
  5
29F
330
29C
100
AcDbEntity
  8
CALQUE_1
  0
POLYLINE
  5
2A0
330
1F
100
AcDbEntity
  8
CALQUE_1
 62
     7
100
AcDb2dPolyline
 66
     1
 10
0.0
 20
0.0
 30
0.0
  0
VERTEX
  5
2A1
330
2A0
100
AcDbEntity
  8
CALQUE_1
 62
     7
100
AcDbVertex
100
AcDb2dVertex
 10
577.5582002679369
 20
-117.0758856586651
 30
0.0
  0
VERTEX
  5
2A2
330
2A0
100
AcDbEntity
  8
CALQUE_1
 62
     7
100
AcDbVertex
100
AcDb2dVertex
 10
577.5582002679369
 20
-72.07604843033168
 30
0.0
  0
SEQEND
  5
2A3
330
2A0
100
AcDbEntity
  8
CALQUE_1
  0
POLYLINE
  5
2A4
330
1F
100
AcDbEntity
  8
CALQUE_1
 62
     7
100
AcDb2dPolyline
 66
     1
 10
0.0
 20
0.0
 30
0.0
  0
VERTEX
  5
2A5
330
2A4
100
AcDbEntity
  8
CALQUE_1
 62
     7
100
AcDbVertex
100
AcDb2dVertex
 10
571.5582219708258
 20
-117.0758856586651
 30
0.0
  0
VERTEX
  5
2A6
330
2A4
100
AcDbEntity
  8
CALQUE_1
 62
     7
100
AcDbVertex
100
AcDb2dVertex
 10
577.5582002679369
 20
-117.0758856586651
 30
0.0
  0
SEQEND
  5
2A7
330
2A4
100
AcDbEntity
  8
CALQUE_1
  0
POLYLINE
  5
2A8
330
1F
100
AcDbEntity
  8
CALQUE_1
 62
     7
100
AcDb2dPolyline
 66
     1
 10
0.0
 20
0.0
 30
0.0
  0
VERTEX
  5
2A9
330
2A8
100
AcDbEntity
  8
CALQUE_1
 62
     7
100
AcDbVertex
100
AcDb2dVertex
 10
571.5582219708258
 20
-72.07604843033168
 30
0.0
  0
VERTEX
  5
2AA
330
2A8
100
AcDbEntity
  8
CALQUE_1
 62
     7
100
AcDbVertex
100
AcDb2dVertex
 10
571.5582219708258
 20
-117.0758856586651
 30
0.0
  0
SEQEND
  5
2AB
330
2A8
100
AcDbEntity
  8
CALQUE_1
  0
POLYLINE
  5
2AC
330
1F
100
AcDbEntity
  8
CALQUE_1
 62
     7
100
AcDb2dPolyline
 66
     1
 10
0.0
 20
0.0
 30
0.0
  0
VERTEX
  5
2AD
330
2AC
100
AcDbEntity
  8
CALQUE_1
 62
     7
100
AcDbVertex
100
AcDb2dVertex
 10
587.5582789329716
 20
-242.5762355621858
 30
0.0
  0
VERTEX
  5
2AE
330
2AC
100
AcDbEntity
  8
CALQUE_1
 62
     7
100
AcDbVertex
100
AcDb2dVertex
 10
587.5582789329716
 20
-14.5760267433178
 30
0.0
  0
SEQEND
  5
2AF
330
2AC
100
AcDbEntity
  8
CALQUE_1
  0
POLYLINE
  5
2B0
330
1F
100
AcDbEntity
  8
CALQUE_1
 62
     7
100
AcDb2dPolyline
 66
     1
 10
0.0
 20
0.0
 30
0.0
  0
VERTEX
  5
2B1
330
2B0
100
AcDbEntity
  8
CALQUE_1
 62
     7
100
AcDbVertex
100
AcDb2dVertex
 10
587.5582789329716
 20
-14.5760267433178
 30
0.0
  0
VERTEX
  5
2B2
330
2B0
100
AcDbEntity
  8
CALQUE_1
 62
     7
100
AcDbVertex
100
AcDb2dVertex
 10
577.5582002679369
 20
-14.5760267433178
 30
0.0
  0
SEQEND
  5
2B3
330
2B0
100
AcDbEntity
  8
CALQUE_1
  0
POLYLINE
  5
2B4
330
1F
100
AcDbEntity
  8
CALQUE_1
 62
     7
100
AcDb2dPolyline
 66
     1
 10
0.0
 20
0.0
 30
0.0
  0
VERTEX
  5
2B5
330
2B4
100
AcDbEntity
  8
CALQUE_1
 62
     7
100
AcDbVertex
100
AcDb2dVertex
 10
577.5582002679369
 20
-14.5760267433178
 30
0.0
  0
VERTEX
  5
2B6
330
2B4
100
AcDbEntity
  8
CALQUE_1
 62
     7
100
AcDbVertex
100
AcDb2dVertex
 10
577.5582002679369
 20
-54.57634140345661
 30
0.0
  0
SEQEND
  5
2B7
330
2B4
100
AcDbEntity
  8
CALQUE_1
  0
POLYLINE
  5
2B8
330
1F
100
AcDbEntity
  8
CALQUE_1
 62
     7
100
AcDb2dPolyline
 66
     1
 10
0.0
 20
0.0
 30
0.0
  0
VERTEX
  5
2B9
330
2B8
100
AcDbEntity
  8
CALQUE_1
 62
     7
100
AcDbVertex
100
AcDb2dVertex
 10
577.5582002679369
 20
-54.57634140345661
 30
0.0
  0
VERTEX
  5
2BA
330
2B8
100
AcDbEntity
  8
CALQUE_1
 62
     7
100
AcDbVertex
100
AcDb2dVertex
 10
571.5582219708258
 20
-54.57634140345661
 30
0.0
  0
SEQEND
  5
2BB
330
2B8
100
AcDbEntity
  8
CALQUE_1
  0
POLYLINE
  5
2BC
330
1F
100
AcDbEntity
  8
CALQUE_1
 62
     7
100
AcDb2dPolyline
 66
     1
 10
0.0
 20
0.0
 30
0.0
  0
VERTEX
  5
2BD
330
2BC
100
AcDbEntity
  8
CALQUE_1
 62
     7
100
AcDbVertex
100
AcDb2dVertex
 10
571.5582219708258
 20
-54.57634140345661
 30
0.0
  0
VERTEX
  5
2BE
330
2BC
100
AcDbEntity
  8
CALQUE_1
 62
     7
100
AcDbVertex
100
AcDb2dVertex
 10
571.5582219708258
 20
-14.5760267433178
 30
0.0
  0
SEQEND
  5
2BF
330
2BC
100
AcDbEntity
  8
CALQUE_1
  0
POLYLINE
  5
2C0
330
1F
100
AcDbEntity
  8
CALQUE_1
 62
     7
100
AcDb2dPolyline
 66
     1
 10
0.0
 20
0.0
 30
0.0
  0
VERTEX
  5
2C1
330
2C0
100
AcDbEntity
  8
CALQUE_1
 62
     7
100
AcDbVertex
100
AcDb2dVertex
 10
571.5582219708258
 20
-14.5760267433178
 30
0.0
  0
VERTEX
  5
2C2
330
2C0
100
AcDbEntity
  8
CALQUE_1
 62
     7
100
AcDbVertex
100
AcDb2dVertex
 10
53.55831568756528
 20
-14.5760267433178
 30
0.0
  0
SEQEND
  5
2C3
330
2C0
100
AcDbEntity
  8
CALQUE_1
  0
POLYLINE
  5
2C4
330
1F
100
AcDbEntity
  8
CALQUE_1
 62
     7
100
AcDb2dPolyline
 66
     1
 10
0.0
 20
0.0
 30
0.0
  0
VERTEX
  5
2C5
330
2C4
100
AcDbEntity
  8
CALQUE_1
 62
     7
100
AcDbVertex
100
AcDb2dVertex
 10
53.55831568756528
 20
-14.5760267433178
 30
0.0
  0
VERTEX
  5
2C6
330
2C4
100
AcDbEntity
  8
CALQUE_1
 62
     7
100
AcDbVertex
100
AcDb2dVertex
 10
53.55831568756528
 20
-54.57634140345661
 30
0.0
  0
SEQEND
  5
2C7
330
2C4
100
AcDbEntity
  8
CALQUE_1
  0
POLYLINE
  5
2C8
330
1F
100
AcDbEntity
  8
CALQUE_1
 62
     7
100
AcDb2dPolyline
 66
     1
 10
0.0
 20
0.0
 30
0.0
  0
VERTEX
  5
2C9
330
2C8
100
AcDbEntity
  8
CALQUE_1
 62
     7
100
AcDbVertex
100
AcDb2dVertex
 10
53.55831568756528
 20
-54.57634140345661
 30
0.0
  0
VERTEX
  5
2CA
330
2C8
100
AcDbEntity
  8
CALQUE_1
 62
     7
100
AcDbVertex
100
AcDb2dVertex
 10
47.55799288090564
 20
-54.57634140345661
 30
0.0
  0
SEQEND
  5
2CB
330
2C8
100
AcDbEntity
  8
CALQUE_1
  0
POLYLINE
  5
2CC
330
1F
100
AcDbEntity
  8
CALQUE_1
 62
     7
100
AcDb2dPolyline
 66
     1
 10
0.0
 20
0.0
 30
0.0
  0
VERTEX
  5
2CD
330
2CC
100
AcDbEntity
  8
CALQUE_1
 62
     7
100
AcDbVertex
100
AcDb2dVertex
 10
47.55799288090564
 20
-54.57634140345661
 30
0.0
  0
VERTEX
  5
2CE
330
2CC
100
AcDbEntity
  8
CALQUE_1
 62
     7
100
AcDbVertex
100
AcDb2dVertex
 10
47.55799288090564
 20
-14.5760267433178
 30
0.0
  0
SEQEND
  5
2CF
330
2CC
100
AcDbEntity
  8
CALQUE_1
  0
POLYLINE
  5
2D0
330
1F
100
AcDbEntity
  8
CALQUE_1
 62
     7
100
AcDb2dPolyline
 66
     1
 10
0.0
 20
0.0
 30
0.0
  0
VERTEX
  5
2D1
330
2D0
100
AcDbEntity
  8
CALQUE_1
 62
     7
100
AcDbVertex
100
AcDb2dVertex
 10
47.55799288090564
 20
-14.5760267433178
 30
0.0
  0
VERTEX
  5
2D2
330
2D0
100
AcDbEntity
  8
CALQUE_1
 62
     7
100
AcDbVertex
100
AcDb2dVertex
 10
37.55825872541946
 20
-14.5760267433178
 30
0.0
  0
SEQEND
  5
2D3
330
2D0
100
AcDbEntity
  8
CALQUE_1
  0
POLYLINE
  5
2D4
330
1F
100
AcDbEntity
  8
CALQUE_1
 62
     7
100
AcDb2dPolyline
 66
     1
 10
0.0
 20
0.0
 30
0.0
  0
VERTEX
  5
2D5
330
2D4
100
AcDbEntity
  8
CALQUE_1
 62
     7
100
AcDbVertex
100
AcDb2dVertex
 10
37.55825872541946
 20
-14.5760267433178
 30
0.0
  0
VERTEX
  5
2D6
330
2D4
100
AcDbEntity
  8
CALQUE_1
 62
     7
100
AcDbVertex
100
AcDb2dVertex
 10
37.55825872541946
 20
-242.5762355621858
 30
0.0
  0
SEQEND
  5
2D7
330
2D4
100
AcDbEntity
  8
CALQUE_1
  0
POLYLINE
  5
2D8
330
1F
100
AcDbEntity
  8
CALQUE_1
 62
     7
100
AcDb2dPolyline
 66
     1
 10
0.0
 20
0.0
 30
0.0
  0
VERTEX
  5
2D9
330
2D8
100
AcDbEntity
  8
CALQUE_1
 62
     7
100
AcDbVertex
100
AcDb2dVertex
 10
37.55825872541946
 20
-242.5762355621858
 30
0.0
  0
VERTEX
  5
2DA
330
2D8
100
AcDbEntity
  8
CALQUE_1
 62
     7
100
AcDbVertex
100
AcDb2dVertex
 10
47.55799288090564
 20
-242.5762355621858
 30
0.0
  0
SEQEND
  5
2DB
330
2D8
100
AcDbEntity
  8
CALQUE_1
  0
POLYLINE
  5
2DC
330
1F
100
AcDbEntity
  8
CALQUE_1
 62
     7
100
AcDb2dPolyline
 66
     1
 10
0.0
 20
0.0
 30
0.0
  0
VERTEX
  5
2DD
330
2DC
100
AcDbEntity
  8
CALQUE_1
 62
     7
100
AcDbVertex
100
AcDb2dVertex
 10
47.55799288090564
 20
-242.5762355621858
 30
0.0
  0
VERTEX
  5
2DE
330
2DC
100
AcDbEntity
  8
CALQUE_1
 62
     7
100
AcDbVertex
100
AcDb2dVertex
 10
47.55799288090564
 20
-197.0765149789427
 30
0.0
  0
SEQEND
  5
2DF
330
2DC
100
AcDbEntity
  8
CALQUE_1
  0
POLYLINE
  5
2E0
330
1F
100
AcDbEntity
  8
CALQUE_1
 62
     7
100
AcDb2dPolyline
 66
     1
 10
0.0
 20
0.0
 30
0.0
  0
VERTEX
  5
2E1
330
2E0
100
AcDbEntity
  8
CALQUE_1
 62
     7
100
AcDbVertex
100
AcDb2dVertex
 10
47.55799288090564
 20
-197.0765149789427
 30
0.0
  0
VERTEX
  5
2E2
330
2E0
100
AcDbEntity
  8
CALQUE_1
 62
     7
100
AcDbVertex
100
AcDb2dVertex
 10
53.55831568756528
 20
-197.0765149789427
 30
0.0
  0
SEQEND
  5
2E3
330
2E0
100
AcDbEntity
  8
CALQUE_1
  0
POLYLINE
  5
2E4
330
1F
100
AcDbEntity
  8
CALQUE_1
 62
     7
100
AcDb2dPolyline
 66
     1
 10
0.0
 20
0.0
 30
0.0
  0
VERTEX
  5
2E5
330
2E4
100
AcDbEntity
  8
CALQUE_1
 62
     7
100
AcDbVertex
100
AcDb2dVertex
 10
53.55831568756528
 20
-197.0765149789427
 30
0.0
  0
VERTEX
  5
2E6
330
2E4
100
AcDbEntity
  8
CALQUE_1
 62
     7
100
AcDbVertex
100
AcDb2dVertex
 10
53.55831568756528
 20
-242.5762355621858
 30
0.0
  0
SEQEND
  5
2E7
330
2E4
100
AcDbEntity
  8
CALQUE_1
  0
POLYLINE
  5
2E8
330
1F
100
AcDbEntity
  8
CALQUE_1
 62
     7
100
AcDb2dPolyline
 66
     1
 10
0.0
 20
0.0
 30
0.0
  0
VERTEX
  5
2E9
330
2E8
100
AcDbEntity
  8
CALQUE_1
 62
     7
100
AcDbVertex
100
AcDb2dVertex
 10
53.55831568756528
 20
-242.5762355621858
 30
0.0
  0
VERTEX
  5
2EA
330
2E8
100
AcDbEntity
  8
CALQUE_1
 62
     7
100
AcDbVertex
100
AcDb2dVertex
 10
571.5582219708258
 20
-242.5762355621858
 30
0.0
  0
SEQEND
  5
2EB
330
2E8
100
AcDbEntity
  8
CALQUE_1
  0
POLYLINE
  5
2EC
330
1F
100
AcDbEntity
  8
CALQUE_1
 62
     7
100
AcDb2dPolyline
 66
     1
 10
0.0
 20
0.0
 30
0.0
  0
VERTEX
  5
2ED
330
2EC
100
AcDbEntity
  8
CALQUE_1
 62
     7
100
AcDbVertex
100
AcDb2dVertex
 10
571.5582219708258
 20
-242.5762355621858
 30
0.0
  0
VERTEX
  5
2EE
330
2EC
100
AcDbEntity
  8
CALQUE_1
 62
     7
100
AcDbVertex
100
AcDb2dVertex
 10
571.5582219708258
 20
-197.0765149789427
 30
0.0
  0
SEQEND
  5
2EF
330
2EC
100
AcDbEntity
  8
CALQUE_1
  0
POLYLINE
  5
2F0
330
1F
100
AcDbEntity
  8
CALQUE_1
 62
     7
100
AcDb2dPolyline
 66
     1
 10
0.0
 20
0.0
 30
0.0
  0
VERTEX
  5
2F1
330
2F0
100
AcDbEntity
  8
CALQUE_1
 62
     7
100
AcDbVertex
100
AcDb2dVertex
 10
571.5582219708258
 20
-197.0765149789427
 30
0.0
  0
VERTEX
  5
2F2
330
2F0
100
AcDbEntity
  8
CALQUE_1
 62
     7
100
AcDbVertex
100
AcDb2dVertex
 10
577.5582002679369
 20
-197.0765149789427
 30
0.0
  0
SEQEND
  5
2F3
330
2F0
100
AcDbEntity
  8
CALQUE_1
  0
POLYLINE
  5
2F4
330
1F
100
AcDbEntity
  8
CALQUE_1
 62
     7
100
AcDb2dPolyline
 66
     1
 10
0.0
 20
0.0
 30
0.0
  0
VERTEX
  5
2F5
330
2F4
100
AcDbEntity
  8
CALQUE_1
 62
     7
100
AcDbVertex
100
AcDb2dVertex
 10
577.5582002679369
 20
-197.0765149789427
 30
0.0
  0
VERTEX
  5
2F6
330
2F4
100
AcDbEntity
  8
CALQUE_1
 62
     7
100
AcDbVertex
100
AcDb2dVertex
 10
577.5582002679369
 20
-242.5762355621858
 30
0.0
  0
SEQEND
  5
2F7
330
2F4
100
AcDbEntity
  8
CALQUE_1
  0
POLYLINE
  5
2F8
330
1F
100
AcDbEntity
  8
CALQUE_1
 62
     7
100
AcDb2dPolyline
 66
     1
 10
0.0
 20
0.0
 30
0.0
  0
VERTEX
  5
2F9
330
2F8
100
AcDbEntity
  8
CALQUE_1
 62
     7
100
AcDbVertex
100
AcDb2dVertex
 10
577.5582002679369
 20
-242.5762355621858
 30
0.0
  0
VERTEX
  5
2FA
330
2F8
100
AcDbEntity
  8
CALQUE_1
 62
     7
100
AcDbVertex
100
AcDb2dVertex
 10
587.5582789329716
 20
-242.5762355621858
 30
0.0
  0
SEQEND
  5
2FB
330
2F8
100
AcDbEntity
  8
CALQUE_1
  0
POLYLINE
  5
2FC
330
1F
100
AcDbEntity
  8
CALQUE_1
 62
     7
100
AcDb2dPolyline
 66
     1
 10
0.0
 20
0.0
 30
0.0
  0
VERTEX
  5
2FD
330
2FC
100
AcDbEntity
  8
CALQUE_1
 62
     7
100
AcDbVertex
100
AcDb2dVertex
 10
577.5582002679369
 20
-134.5762817046372
 30
0.0
  0
VERTEX
  5
2FE
330
2FC
100
AcDbEntity
  8
CALQUE_1
 62
     7
100
AcDbVertex
100
AcDb2dVertex
 10
571.5582219708258
 20
-134.5762817046372
 30
0.0
  0
SEQEND
  5
2FF
330
2FC
100
AcDbEntity
  8
CALQUE_1
  0
POLYLINE
  5
300
330
1F
100
AcDbEntity
  8
CALQUE_1
 62
     7
100
AcDb2dPolyline
 66
     1
 10
0.0
 20
0.0
 30
0.0
  0
VERTEX
  5
301
330
300
100
AcDbEntity
  8
CALQUE_1
 62
     7
100
AcDbVertex
100
AcDb2dVertex
 10
577.5582002679369
 20
-179.5761189329706
 30
0.0
  0
VERTEX
  5
302
330
300
100
AcDbEntity
  8
CALQUE_1
 62
     7
100
AcDbVertex
100
AcDb2dVertex
 10
577.5582002679369
 20
-134.5762817046372
 30
0.0
  0
SEQEND
  5
303
330
300
100
AcDbEntity
  8
CALQUE_1
  0
POLYLINE
  5
304
330
1F
100
AcDbEntity
  8
CALQUE_1
 62
     7
100
AcDb2dPolyline
 66
     1
 10
0.0
 20
0.0
 30
0.0
  0
VERTEX
  5
305
330
304
100
AcDbEntity
  8
CALQUE_1
 62
     7
100
AcDbVertex
100
AcDb2dVertex
 10
571.5582219708258
 20
-179.5761189329706
 30
0.0
  0
VERTEX
  5
306
330
304
100
AcDbEntity
  8
CALQUE_1
 62
     7
100
AcDbVertex
100
AcDb2dVertex
 10
577.5582002679369
 20
-179.5761189329706
 30
0.0
  0
SEQEND
  5
307
330
304
100
AcDbEntity
  8
CALQUE_1
  0
POLYLINE
  5
308
330
1F
100
AcDbEntity
  8
CALQUE_1
 62
     7
100
AcDb2dPolyline
 66
     1
 10
0.0
 20
0.0
 30
0.0
  0
VERTEX
  5
309
330
308
100
AcDbEntity
  8
CALQUE_1
 62
     7
100
AcDbVertex
100
AcDb2dVertex
 10
571.5582219708258
 20
-134.5762817046372
 30
0.0
  0
VERTEX
  5
30A
330
308
100
AcDbEntity
  8
CALQUE_1
 62
     7
100
AcDbVertex
100
AcDb2dVertex
 10
571.5582219708258
 20
-179.5761189329706
 30
0.0
  0
SEQEND
  5
30B
330
308
100
AcDbEntity
  8
CALQUE_1
  0
POLYLINE
  5
30C
330
1F
100
AcDbEntity
  8
CALQUE_1
 62
     7
100
AcDb2dPolyline
 66
     1
 10
0.0
 20
0.0
 30
0.0
  0
VERTEX
  5
30D
330
30C
100
AcDbEntity
  8
CALQUE_1
 62
     7
100
AcDbVertex
100
AcDb2dVertex
 10
53.55831568756528
 20
-72.07604843033168
 30
0.0
  0
VERTEX
  5
30E
330
30C
100
AcDbEntity
  8
CALQUE_1
 62
     7
100
AcDbVertex
100
AcDb2dVertex
 10
47.55799288090564
 20
-72.07604843033168
 30
0.0
  0
SEQEND
  5
30F
330
30C
100
AcDbEntity
  8
CALQUE_1
  0
POLYLINE
  5
310
330
1F
100
AcDbEntity
  8
CALQUE_1
 62
     7
100
AcDb2dPolyline
 66
     1
 10
0.0
 20
0.0
 30
0.0
  0
VERTEX
  5
311
330
310
100
AcDbEntity
  8
CALQUE_1
 62
     7
100
AcDbVertex
100
AcDb2dVertex
 10
53.55831568756528
 20
-117.0758856586651
 30
0.0
  0
VERTEX
  5
312
330
310
100
AcDbEntity
  8
CALQUE_1
 62
     7
100
AcDbVertex
100
AcDb2dVertex
 10
53.55831568756528
 20
-72.07604843033168
 30
0.0
  0
SEQEND
  5
313
330
310
100
AcDbEntity
  8
CALQUE_1
  0
POLYLINE
  5
314
330
1F
100
AcDbEntity
  8
CALQUE_1
 62
     7
100
AcDb2dPolyline
 66
     1
 10
0.0
 20
0.0
 30
0.0
  0
VERTEX
  5
315
330
314
100
AcDbEntity
  8
CALQUE_1
 62
     7
100
AcDbVertex
100
AcDb2dVertex
 10
47.55799288090564
 20
-117.0758856586651
 30
0.0
  0
VERTEX
  5
316
330
314
100
AcDbEntity
  8
CALQUE_1
 62
     7
100
AcDbVertex
100
AcDb2dVertex
 10
53.55831568756528
 20
-117.0758856586651
 30
0.0
  0
SEQEND
  5
317
330
314
100
AcDbEntity
  8
CALQUE_1
  0
POLYLINE
  5
318
330
1F
100
AcDbEntity
  8
CALQUE_1
 62
     7
100
AcDb2dPolyline
 66
     1
 10
0.0
 20
0.0
 30
0.0
  0
VERTEX
  5
319
330
318
100
AcDbEntity
  8
CALQUE_1
 62
     7
100
AcDbVertex
100
AcDb2dVertex
 10
47.55799288090564
 20
-72.07604843033168
 30
0.0
  0
VERTEX
  5
31A
330
318
100
AcDbEntity
  8
CALQUE_1
 62
     7
100
AcDbVertex
100
AcDb2dVertex
 10
47.55799288090564
 20
-117.0758856586651
 30
0.0
  0
SEQEND
  5
31B
330
318
100
AcDbEntity
  8
CALQUE_1
  0
ENDSEC
  0
SECTION
  2
OBJECTS
  0
DICTIONARY
  5
C
330
0
100
AcDbDictionary
  3
ACAD_GROUP
350
D
  3
ACAD_LAYOUT
350
1A
  3
ACAD_MLINESTYLE
350
17
  3
ACAD_PLOTSETTINGS
350
19
  3
ACAD_TABLESTYLE
350
31C
  3
ACAD_VISUALSTYLE
350
2A
1001
ACAD
1000
TREAT_AS_HARD
1070
     0
  0
DICTIONARY
  5
D
102
{ACAD_REACTORS
330
C
102
}
330
C
100
AcDbDictionary
1001
ACAD
1000
TREAT_AS_HARD
1070
     0
  0
DICTIONARY
  5
1A
102
{ACAD_REACTORS
330
C
102
}
330
C
100
AcDbDictionary
1001
ACAD
1000
TREAT_AS_HARD
1070
     0
  0
DICTIONARY
  5
17
102
{ACAD_REACTORS
330
C
102
}
330
C
100
AcDbDictionary
  3
STANDARD
350
18
1001
ACAD
1000
TREAT_AS_HARD
1070
     0
  0
DICTIONARY
  5
19
102
{ACAD_REACTORS
330
C
102
}
330
C
100
AcDbDictionary
1001
ACAD
1000
TREAT_AS_HARD
1070
     0
  0
DICTIONARY
  5
31C
102
{ACAD_REACTORS
330
C
102
}
330
C
100
AcDbDictionary
1001
ACAD
1000
TREAT_AS_HARD
1070
     0
  0
DICTIONARY
  5
2A
102
{ACAD_REACTORS
330
C
102
}
330
C
100
AcDbDictionary
  3
2DWIREFRAME
350
2F
  3
3D_HIDDEN
350
31
  3
3DWIREFRAME
350
30
  3
BASIC
350
32
  3
BRIGHTEN
350
36
  3
COLORCHANGE
350
3A
  3
CONCEPTUAL
350
34
  3
DIM
350
35
  3
FACEPATTERN
350
39
  3
FLAT
350
2B
  3
FLATWITHEDGES
350
2C
  3
GOURAUD
350
2D
  3
GOURAUDWITHEDGES
350
2E
  3
LINEPATTERN
350
38
  3
REALISTIC
350
33
  3
THICKEN
350
37
1001
ACAD
1000
TREAT_AS_HARD
1070
     0
  0
MLINESTYLE
  5
18
102
{ACAD_REACTORS
330
17
102
}
330
17
100
AcDbMlineStyle
  2
Standard
 70
     0
  3

 62
   256
 51
90.0
 52
90.0
 71
     2
 49
0.5
 62
   256
  6
BYLAYER
 49
-0.5
 62
   256
  6
BYLAYER
  0
VISUALSTYLE
  5
2F
102
{ACAD_REACTORS
330
2A
102
}
330
2A
100
AcDbVisualStyle
  2
2dWireframe
 70
     4
 71
     0
 72
     2
 73
     0
 90
        0
 40
-0.6
 41
-30.0
 62
     5
 63
     7
 74
     1
 91
        4
 64
     7
 65
   257
 75
     1
175
     1
 42
1.0
 92
        0
 66
   257
 43
1.0
 76
     1
 77
     6
 78
     2
 67
     7
 79
     5
170
     0
171
     0
290
     0
174
     0
 93
        1
 44
0.0
173
     0
291
     0
 45
0.0
1001
ACAD
1000
AcDbSavedByObjectVersion
1070
     0
  0
VISUALSTYLE
  5
31
102
{ACAD_REACTORS
330
2A
102
}
330
2A
100
AcDbVisualStyle
  2
3D Hidden
 70
     6
 71
     1
 72
     2
 73
     2
 90
        0
 40
-0.6
 41
-30.0
 62
     5
 63
     7
 74
     2
 91
        2
 64
     7
 65
   257
 75
     2
175
     1
 42
40.0
 92
        0
 66
   257
 43
1.0
 76
     1
 77
     6
 78
     2
 67
     7
 79
     3
170
     0
171
     0
290
     0
174
     0
 93
        1
 44
0.0
173
     0
291
     0
 45
0.0
1001
ACAD
1000
AcDbSavedByObjectVersion
1070
     0
  0
VISUALSTYLE
  5
30
102
{ACAD_REACTORS
330
2A
102
}
330
2A
100
AcDbVisualStyle
  2
3dWireframe
 70
     5
 71
     0
 72
     2
 73
     0
 90
        0
 40
-0.6
 41
-30.0
 62
     5
 63
     7
 74
     1
 91
        4
 64
     7
 65
   257
 75
     1
175
     1
 42
1.0
 92
        0
 66
   257
 43
1.0
 76
     1
 77
     6
 78
     2
 67
     7
 79
     5
170
     0
171
     0
290
     0
174
     0
 93
        1
 44
0.0
173
     0
291
     0
 45
0.0
1001
ACAD
1000
AcDbSavedByObjectVersion
1070
     0
  0
VISUALSTYLE
  5
32
102
{ACAD_REACTORS
330
2A
102
}
330
2A
100
AcDbVisualStyle
  2
Basic
 70
     7
 71
     1
 72
     0
 73
     1
 90
        0
 40
-0.6
 41
-30.0
 62
     5
 63
     7
 74
     0
 91
        4
 64
     7
 65
   257
 75
     1
175
     1
 42
1.0
 92
        8
 66
     7
 43
1.0
 76
     1
 77
     6
 78
     2
 67
     7
 79
     5
170
     0
171
     0
290
     0
174
     0
 93
        1
 44
0.0
173
     0
291
     1
 45
0.0
1001
ACAD
1000
AcDbSavedByObjectVersion
1070
     0
  0
VISUALSTYLE
  5
36
102
{ACAD_REACTORS
330
2A
102
}
330
2A
100
AcDbVisualStyle
  2
Brighten
 70
    12
 71
     2
 72
     2
 73
     0
 90
        0
 40
-0.6
 41
-30.0
 62
     5
 63
     7
 74
     1
 91
        4
 64
     7
 65
   257
 75
     1
175
     1
 42
1.0
 92
        8
 66
     7
 43
1.0
 76
     1
 77
     6
 78
     2
 67
     7
 79
     5
170
     0
171
     0
290
     0
174
     0
 93
        1
 44
50.0
173
     0
291
     1
 45
0.0
1001
ACAD
1000
AcDbSavedByObjectVersion
1070
     0
  0
VISUALSTYLE
  5
3A
102
{ACAD_REACTORS
330
2A
102
}
330
2A
100
AcDbVisualStyle
  2
ColorChange
 70
    16
 71
     2
 72
     2
 73
     3
 90
        0
 40
-0.6
 41
-30.0
 62
     5
 63
     8
 74
     1
 91
        4
 64
     7
 65
   257
 75
     1
175
     1
 42
1.0
 92
        8
 66
     8
 43
1.0
 76
     1
 77
     6
 78
     2
 67
     7
 79
     5
170
     0
171
     0
290
     0
174
     0
 93
        1
 44
0.0
173
     0
291
     1
 45
0.0
1001
ACAD
1000
AcDbSavedByObjectVersion
1070
     0
  0
VISUALSTYLE
  5
34
102
{ACAD_REACTORS
330
2A
102
}
330
2A
100
AcDbVisualStyle
  2
Conceptual
 70
     9
 71
     3
 72
     2
 73
     0
 90
        0
 40
-0.6
 41
-30.0
 62
     5
 63
     7
 74
     2
 91
        2
 64
     7
 65
   257
 75
     1
175
     1
 42
40.0
 92
        8
 66
     7
 43
1.0
 76
     1
 77
     6
 78
     2
 67
     7
 79
     3
170
     0
171
     0
290
     0
174
     0
 93
        1
 44
0.0
173
     0
291
     0
 45
0.0
1001
ACAD
1000
AcDbSavedByObjectVersion
1070
     0
  0
VISUALSTYLE
  5
35
102
{ACAD_REACTORS
330
2A
102
}
330
2A
100
AcDbVisualStyle
  2
Dim
 70
    11
 71
     2
 72
     2
 73
     0
 90
        0
 40
-0.6
 41
-30.0
 62
     5
 63
     7
 74
     1
 91
        4
 64
     7
 65
   257
 75
     1
175
     1
 42
1.0
 92
        8
 66
     7
 43
1.0
 76
     1
 77
     6
 78
     2
 67
     7
 79
     5
170
     0
171
     0
290
     0
174
     0
 93
        1
 44
-50.0
173
     0
291
     1
 45
0.0
1001
ACAD
1000
AcDbSavedByObjectVersion
1070
     0
  0
VISUALSTYLE
  5
39
102
{ACAD_REACTORS
330
2A
102
}
330
2A
100
AcDbVisualStyle
  2
Facepattern
 70
    15
 71
     2
 72
     2
 73
     0
 90
        0
 40
-0.6
 41
-30.0
 62
     5
 63
     7
 74
     1
 91
        4
 64
     7
 65
   257
 75
     1
175
     1
 42
1.0
 92
        8
 66
     7
 43
1.0
 76
     1
 77
     6
 78
     2
 67
     7
 79
     5
170
     0
171
     0
290
     0
174
     0
 93
        1
 44
0.0
173
     0
291
     1
 45
0.0
1001
ACAD
1000
AcDbSavedByObjectVersion
1070
     0
  0
VISUALSTYLE
  5
2B
102
{ACAD_REACTORS
330
2A
102
}
330
2A
100
AcDbVisualStyle
  2
Flat
 70
     0
 71
     2
 72
     1
 73
     1
 90
        2
 40
-0.6
 41
30.0
 62
     5
 63
     7
 74
     0
 91
        4
 64
     7
 65
   257
 75
     1
175
     1
 42
1.0
 92
        8
 66
     7
 43
1.0
 76
     1
 77
     6
 78
     2
 67
     7
 79
     5
170
     0
171
     0
290
     0
174
     0
 93
       13
 44
0.0
173
     0
291
     1
 45
0.0
1001
ACAD
1000
AcDbSavedByObjectVersion
1070
     0
  0
VISUALSTYLE
  5
2C
102
{ACAD_REACTORS
330
2A
102
}
330
2A
100
AcDbVisualStyle
  2
FlatWithEdges
 70
     1
 71
     2
 72
     1
 73
     1
 90
        2
 40
-0.6
 41
30.0
 62
     5
 63
     7
 74
     1
 91
        4
 64
     7
 65
   257
 75
     1
175
     1
 42
1.0
 92
        0
 66
   257
 43
1.0
 76
     1
 77
     6
 78
     2
 67
     7
 79
     5
170
     0
171
     0
290
     0
174
     0
 93
       13
 44
0.0
173
     0
291
     1
 45
0.0
1001
ACAD
1000
AcDbSavedByObjectVersion
1070
     0
  0
VISUALSTYLE
  5
2D
102
{ACAD_REACTORS
330
2A
102
}
330
2A
100
AcDbVisualStyle
  2
Gouraud
 70
     2
 71
     2
 72
     2
 73
     1
 90
        2
 40
-0.6
 41
30.0
 62
     5
 63
     7
 74
     0
 91
        4
 64
     7
 65
   257
 75
     1
175
     1
 42
1.0
 92
        0
 66
     7
 43
1.0
 76
     1
 77
     6
 78
     2
 67
     7
 79
     5
170
     0
171
     0
290
     0
174
     0
 93
       13
 44
0.0
173
     0
291
     1
 45
0.0
1001
ACAD
1000
AcDbSavedByObjectVersion
1070
     0
  0
VISUALSTYLE
  5
2E
102
{ACAD_REACTORS
330
2A
102
}
330
2A
100
AcDbVisualStyle
  2
GouraudWithEdges
 70
     3
 71
     2
 72
     2
 73
     1
 90
        2
 40
-0.6
 41
30.0
 62
     5
 63
     7
 74
     1
 91
        4
 64
     7
 65
   257
 75
     1
175
     1
 42
1.0
 92
        0
 66
   257
 43
1.0
 76
     1
 77
     6
 78
     2
 67
     7
 79
     5
170
     0
171
     0
290
     0
174
     0
 93
       13
 44
0.0
173
     0
291
     1
 45
0.0
1001
ACAD
1000
AcDbSavedByObjectVersion
1070
     0
  0
VISUALSTYLE
  5
38
102
{ACAD_REACTORS
330
2A
102
}
330
2A
100
AcDbVisualStyle
  2
Linepattern
 70
    14
 71
     2
 72
     2
 73
     0
 90
        0
 40
-0.6
 41
-30.0
 62
     5
 63
     7
 74
     1
 91
        4
 64
     7
 65
   257
 75
     7
175
     7
 42
1.0
 92
        8
 66
     7
 43
1.0
 76
     1
 77
     6
 78
     2
 67
     7
 79
     5
170
     0
171
     0
290
     0
174
     0
 93
        1
 44
0.0
173
     0
291
     1
 45
0.0
1001
ACAD
1000
AcDbSavedByObjectVersion
1070
     0
  0
VISUALSTYLE
  5
33
102
{ACAD_REACTORS
330
2A
102
}
330
2A
100
AcDbVisualStyle
  2
Realistic
 70
     8
 71
     2
 72
     2
 73
     0
 90
        0
 40
-0.6
 41
-30.0
 62
     5
 63
     7
 74
     1
 91
        0
 64
     7
 65
   257
 75
     1
175
     1
 42
1.0
 92
        8
 66
     8
 43
1.0
 76
     1
 77
     6
 78
     2
 67
     7
 79
     5
170
     0
171
     0
290
     0
174
     0
 93
       13
 44
0.0
173
     0
291
     0
 45
0.0
1001
ACAD
1000
AcDbSavedByObjectVersion
1070
     0
  0
VISUALSTYLE
  5
37
102
{ACAD_REACTORS
330
2A
102
}
330
2A
100
AcDbVisualStyle
  2
Thicken
 70
    13
 71
     2
 72
     2
 73
     0
 90
        0
 40
-0.6
 41
-30.0
 62
     5
 63
     7
 74
     1
 91
        4
 64
     7
 65
   257
 75
     1
175
     1
 42
1.0
 92
       12
 66
     7
 43
1.0
 76
     1
 77
     6
 78
     2
 67
     7
 79
     5
170
     0
171
     0
290
     0
174
     0
 93
        1
 44
0.0
173
     0
291
     1
 45
0.0
1001
ACAD
1000
AcDbSavedByObjectVersion
1070
     0
  0
ENDSEC
  0
EOF
