  0
SECTION
  2
HEADER
  9
$ACADVER
  1
AC1012
  9
$DWGCODEPAGE
  3
ansi_1252
  9
$INSBASE
 10
0.0
 20
0.0
 30
0.0
  9
$EXTMIN
 10
1.000000000000000E+20
 20
1.000000000000000E+20
 30
1.000000000000000E+20
  9
$EXTMAX
 10
-1.000000000000000E+20
 20
-1.000000000000000E+20
 30
-1.000000000000000E+20
  9
$LIMMIN
 10
0.0
 20
0.0
  9
$LIMMAX
 10
12.0
 20
9.0
  9
$ORTHOMODE
 70
     0
  9
$REGENMODE
 70
     1
  9
$FILLMODE
 70
     1
  9
$QTEXTMODE
 70
     0
  9
$MIRRTEXT
 70
     1
  9
$DRAGMODE
 70
     2
  9
$LTSCALE
 40
1.0
  9
$OSMODE
 70
    37
  9
$ATTMODE
 70
     1
  9
$TEXTSIZE
 40
0.2
  9
$TRACEWID
 40
0.05
  9
$TEXTSTYLE
  7
STANDARD
  9
$CLAYER
  8
0
  9
$CELTYPE
  6
BYLAYER
  9
$CECOLOR
 62
   256
  9
$CELTSCALE
 40
1.0
  9
$DELOBJ
 70
     1
  9
$DISPSILH
 70
     0
  9
$DIMSCALE
 40
1.0
  9
$DIMASZ
 40
0.18
  9
$DIMEXO
 40
0.0625
  9
$DIMDLI
 40
0.38
  9
$DIMRND
 40
0.0
  9
$DIMDLE
 40
0.0
  9
$DIMEXE
 40
0.18
  9
$DIMTP
 40
0.0
  9
$DIMTM
 40
0.0
  9
$DIMTXT
 40
0.18
  9
$DIMCEN
 40
0.09
  9
$DIMTSZ
 40
0.0
  9
$DIMTOL
 70
     0
  9
$DIMLIM
 70
     0
  9
$DIMTIH
 70
     1
  9
$DIMTOH
 70
     1
  9
$DIMSE1
 70
     0
  9
$DIMSE2
 70
     0
  9
$DIMTAD
 70
     0
  9
$DIMZIN
 70
     0
  9
$DIMBLK
  1

  9
$DIMASO
 70
     1
  9
$DIMSHO
 70
     1
  9
$DIMPOST
  1

  9
$DIMAPOST
  1

  9
$DIMALT
 70
     0
  9
$DIMALTD
 70
     2
  9
$DIMALTF
 40
25.4
  9
$DIMLFAC
 40
1.0
  9
$DIMTOFL
 70
     0
  9
$DIMTVP
 40
0.0
  9
$DIMTIX
 70
     0
  9
$DIMSOXD
 70
     0
  9
$DIMSAH
 70
     0
  9
$DIMBLK1
  1

  9
$DIMBLK2
  1

  9
$DIMSTYLE
  2
STANDARD
  9
$DIMCLRD
 70
     0
  9
$DIMCLRE
 70
     0
  9
$DIMCLRT
 70
     0
  9
$DIMTFAC
 40
1.0
  9
$DIMGAP
 40
0.09
  9
$DIMJUST
 70
     0
  9
$DIMSD1
 70
     0
  9
$DIMSD2
 70
     0
  9
$DIMTOLJ
 70
     1
  9
$DIMTZIN
 70
     0
  9
$DIMALTZ
 70
     0
  9
$DIMALTTZ
 70
     0
  9
$DIMFIT
 70
     3
  9
$DIMUPT
 70
     0
  9
$DIMUNIT
 70
     2
  9
$DIMDEC
 70
     4
  9
$DIMTDEC
 70
     4
  9
$DIMALTU
 70
     2
  9
$DIMALTTD
 70
     2
  9
$DIMTXSTY
  7
STANDARD
  9
$DIMAUNIT
 70
     0
  9
$LUNITS
 70
     2
  9
$LUPREC
 70
     4
  9
$SKETCHINC
 40
0.1
  9
$FILLETRAD
 40
0.5
  9
$AUNITS
 70
     0
  9
$AUPREC
 70
     0
  9
$MENU
  1
.
  9
$ELEVATION
 40
0.0
  9
$PELEVATION
 40
0.0
  9
$THICKNESS
 40
0.0
  9
$LIMCHECK
 70
     0
  9
$CHAMFERA
 40
0.5
  9
$CHAMFERB
 40
0.5
  9
$CHAMFERC
 40
1.0
  9
$CHAMFERD
 40
0.0
  9
$SKPOLY
 70
     0
  9
$TDCREATE
 40
2457461.638425069
  9
$TDUPDATE
 40
2457461.638425081
  9
$TDINDWG
 40
0.0000000116
  9
$TDUSRTIMER
 40
0.0000000116
  9
$USRTIMER
 70
     1
  9
$ANGBASE
 50
0.0
  9
$ANGDIR
 70
     0
  9
$PDMODE
 70
     0
  9
$PDSIZE
 40
0.0
  9
$PLINEWID
 40
0.0
  9
$COORDS
 70
     1
  9
$SPLFRAME
 70
     0
  9
$SPLINETYPE
 70
     6
  9
$SPLINESEGS
 70
     8
  9
$ATTDIA
 70
     0
  9
$ATTREQ
 70
     1
  9
$HANDLING
 70
     1
  9
$HANDSEED
  5
1A0
  9
$SURFTAB1
 70
     6
  9
$SURFTAB2
 70
     6
  9
$SURFTYPE
 70
     6
  9
$SURFU
 70
     6
  9
$SURFV
 70
     6
  9
$UCSNAME
  2

  9
$UCSORG
 10
0.0
 20
0.0
 30
0.0
  9
$UCSXDIR
 10
1.0
 20
0.0
 30
0.0
  9
$UCSYDIR
 10
0.0
 20
1.0
 30
0.0
  9
$PUCSNAME
  2

  9
$PUCSORG
 10
0.0
 20
0.0
 30
0.0
  9
$PUCSXDIR
 10
1.0
 20
0.0
 30
0.0
  9
$PUCSYDIR
 10
0.0
 20
1.0
 30
0.0
  9
$USERI1
 70
     0
  9
$USERI2
 70
     0
  9
$USERI3
 70
     0
  9
$USERI4
 70
     0
  9
$USERI5
 70
     0
  9
$USERR1
 40
0.0
  9
$USERR2
 40
0.0
  9
$USERR3
 40
0.0
  9
$USERR4
 40
0.0
  9
$USERR5
 40
0.0
  9
$WORLDVIEW
 70
     1
  9
$SHADEDGE
 70
     3
  9
$SHADEDIF
 70
    70
  9
$TILEMODE
 70
     1
  9
$MAXACTVP
 70
    64
  9
$PINSBASE
 10
0.0
 20
0.0
 30
0.0
  9
$PLIMCHECK
 70
     0
  9
$PEXTMIN
 10
1.000000000000000E+20
 20
1.000000000000000E+20
 30
1.000000000000000E+20
  9
$PEXTMAX
 10
-1.000000000000000E+20
 20
-1.000000000000000E+20
 30
-1.000000000000000E+20
  9
$PLIMMIN
 10
0.0
 20
0.0
  9
$PLIMMAX
 10
12.0
 20
9.0
  9
$UNITMODE
 70
     0
  9
$VISRETAIN
 70
     1
  9
$PLINEGEN
 70
     0
  9
$PSLTSCALE
 70
     1
  9
$TREEDEPTH
 70
  3020
  9
$PICKSTYLE
 70
     1
  9
$CMLSTYLE
  2
STANDARD
  9
$CMLJUST
 70
     0
  9
$CMLSCALE
 40
1.0
  9
$SAVEIMAGES
 70
     1
  0
ENDSEC
  0
SECTION
  2
CLASSES
  0
CLASS
  1
ACDBDICTIONARYWDFLT
  2
AcDbDictionaryWithDefault
  3
ObjectDBX Classes
 90
    32768
280
     0
281
     0
  0
CLASS
  1
VISUALSTYLE
  2
AcDbVisualStyle
  3
ObjectDBX Classes
 90
     4095
280
     0
281
     0
  0
CLASS
  1
XRECORD
  2
AcDbXrecord
  3
AutoCAD 2000
 90
    32768
280
     0
281
     0
  0
CLASS
  1
LWPOLYLINE
  2
AcDbPolyline
  3
AutoCAD 2000
 90
    32768
280
     0
281
     1
  0
CLASS
  1
HATCH
  2
AcDbHatch
  3
AutoCAD 2000
 90
    32768
280
     0
281
     1
  0
CLASS
  1
ACDBPLACEHOLDER
  2
AcDbPlaceHolder
  3
ObjectDBX Classes
 90
        0
280
     0
281
     0
  0
CLASS
  1
LAYOUT
  2
AcDbLayout
  3
ObjectDBX Classes
 90
        0
280
     0
281
     0
  0
ENDSEC
  0
SECTION
  2
TABLES
  0
TABLE
  2
VPORT
  5
8
330
0
100
AcDbSymbolTable
 70
     1
  0
VPORT
  5
29
330
8
100
AcDbSymbolTableRecord
100
AcDbViewportTableRecord
  2
*ACTIVE
 70
     0
 10
0.0
 20
0.0
 11
1.0
 21
1.0
 12
0.0
 22
0.0
 13
0.0
 23
0.0
 14
0.5
 24
0.5
 15
0.5
 25
0.5
 16
0.0
 26
0.0
 36
1.0
 17
449.9997503215279
 27
300.0004651485242
 37
0.0
 40
600.0009302970484
 41
1.499996842000702
 42
50.0
 43
0.0
 44
0.0
 50
0.0
 51
0.0
 71
     0
 72
   100
 73
     1
 74
     3
 75
     0
 76
     0
 77
     0
 78
     0
  0
ENDTAB
  0
TABLE
  2
LTYPE
  5
5
330
0
100
AcDbSymbolTable
 70
     1
  0
LTYPE
  5
14
330
5
100
AcDbSymbolTableRecord
100
AcDbLinetypeTableRecord
  2
BYBLOCK
 70
     0
  3

 72
    65
 73
     0
 40
0.0
  0
LTYPE
  5
15
330
5
100
AcDbSymbolTableRecord
100
AcDbLinetypeTableRecord
  2
BYLAYER
 70
     0
  3

 72
    65
 73
     0
 40
0.0
  0
LTYPE
  5
16
330
5
100
AcDbSymbolTableRecord
100
AcDbLinetypeTableRecord
  2
CONTINUOUS
 70
     0
  3
Solid line
 72
    65
 73
     0
 40
0.0
  0
ENDTAB
  0
TABLE
  2
LAYER
  5
2
330
0
100
AcDbSymbolTable
 70
     1
  0
LAYER
  5
10
330
2
100
AcDbSymbolTableRecord
100
AcDbLayerTableRecord
  2
0
 70
     0
 62
     7
  6
CONTINUOUS
  0
ENDTAB
  0
TABLE
  2
STYLE
  5
3
330
0
100
AcDbSymbolTable
 70
     1
  0
STYLE
  5
11
330
3
100
AcDbSymbolTableRecord
100
AcDbTextStyleTableRecord
  2
STANDARD
 70
     0
 40
0.0
 41
1.0
 50
0.0
 71
     0
 42
0.2
  3
txt
  4

  0
ENDTAB
  0
TABLE
  2
VIEW
  5
6
330
0
100
AcDbSymbolTable
 70
     0
  0
ENDTAB
  0
TABLE
  2
UCS
  5
7
330
0
100
AcDbSymbolTable
 70
     0
  0
ENDTAB
  0
TABLE
  2
APPID
  5
9
330
0
100
AcDbSymbolTable
 70
     1
  0
APPID
  5
12
330
9
100
AcDbSymbolTableRecord
100
AcDbRegAppTableRecord
  2
ACAD
 70
     0
  0
ENDTAB
  0
TABLE
  2
DIMSTYLE
  5
A
330
0
100
AcDbSymbolTable
 70
     1
  0
DIMSTYLE
105
27
330
A
100
AcDbSymbolTableRecord
100
AcDbDimStyleTableRecord
  2
STANDARD
 70
     0
  3

  4

  5

  6

  7

 40
1.0
 41
0.18
 42
0.0625
 43
0.38
 44
0.18
 45
0.0
 46
0.0
 47
0.0
 48
0.0
140
0.18
141
0.09
142
0.0
143
25.4
144
1.0
145
0.0
146
1.0
147
0.09
 71
     0
 72
     0
 73
     1
 74
     1
 75
     0
 76
     0
 77
     0
 78
     0
170
     0
171
     2
172
     0
173
     0
174
     0
175
     0
176
     0
177
     0
178
     0
270
     2
271
     4
272
     4
273
     2
274
     2
340
11
275
     0
280
     0
281
     0
282
     0
283
     1
284
     0
285
     0
286
     0
287
     3
288
     0
  0
ENDTAB
  0
TABLE
  2
BLOCK_RECORD
  5
1
330
0
100
AcDbSymbolTable
 70
     1
  0
BLOCK_RECORD
  5
1F
330
1
100
AcDbSymbolTableRecord
100
AcDbBlockTableRecord
  2
*MODEL_SPACE
  0
BLOCK_RECORD
  5
1B
330
1
100
AcDbSymbolTableRecord
100
AcDbBlockTableRecord
  2
*PAPER_SPACE
  0
ENDTAB
  0
ENDSEC
  0
SECTION
  2
BLOCKS
  0
BLOCK
  5
20
330
1F
100
AcDbEntity
  8
0
100
AcDbBlockBegin
  2
*MODEL_SPACE
 70
     0
 71
     0
 10
0.0
 20
0.0
 30
0.0
  3
*MODEL_SPACE
  1

  0
ENDBLK
  5
21
330
1F
100
AcDbEntity
  8
0
100
AcDbBlockEnd
  0
BLOCK
  5
1C
330
1B
100
AcDbEntity
 67
     1
  8
0
100
AcDbBlockBegin
  2
*PAPER_SPACE
 70
     0
 71
     0
 10
0.0
 20
0.0
 30
0.0
  3
*PAPER_SPACE
  1

  0
ENDBLK
  5
1D
330
1B
100
AcDbEntity
 67
     1
  8
0
100
AcDbBlockEnd
  0
ENDSEC
  0
SECTION
  2
ENTITIES
  0
POLYLINE
  5
3B
330
1F
100
AcDbEntity
  8
0
 62
     7
100
AcDb2dPolyline
 66
     1
 10
0.0
 20
0.0
 30
0.0
  0
VERTEX
  5
3C
330
3B
100
AcDbEntity
  8
0
 62
     7
100
AcDbVertex
100
AcDb2dVertex
 10
520.9108397135224
 20
110.0373833275254
 30
0.0
  0
VERTEX
  5
3D
330
3B
100
AcDbEntity
  8
0
 62
     7
100
AcDbVertex
100
AcDb2dVertex
 10
830.911211272307
 20
110.0373833275254
 30
0.0
  0
SEQEND
  5
3E
330
3B
100
AcDbEntity
  8
0
  0
POLYLINE
  5
3F
330
1F
100
AcDbEntity
  8
0
 62
     7
100
AcDb2dPolyline
 66
     1
 10
0.0
 20
0.0
 30
0.0
  0
VERTEX
  5
40
330
3F
100
AcDbEntity
  8
0
 62
     7
100
AcDbVertex
100
AcDb2dVertex
 10
520.9108397135224
 20
490.0376165224559
 30
0.0
  0
VERTEX
  5
41
330
3F
100
AcDbEntity
  8
0
 62
     7
100
AcDbVertex
100
AcDb2dVertex
 10
520.9108397135224
 20
110.0373833275254
 30
0.0
  0
SEQEND
  5
42
330
3F
100
AcDbEntity
  8
0
  0
POLYLINE
  5
43
330
1F
100
AcDbEntity
  8
0
 62
     7
100
AcDb2dPolyline
 66
     1
 10
0.0
 20
0.0
 30
0.0
  0
VERTEX
  5
44
330
43
100
AcDbEntity
  8
0
 62
     7
100
AcDbVertex
100
AcDb2dVertex
 10
830.911211272307
 20
490.0376165224559
 30
0.0
  0
VERTEX
  5
45
330
43
100
AcDbEntity
  8
0
 62
     7
100
AcDbVertex
100
AcDb2dVertex
 10
520.9108397135224
 20
490.0376165224559
 30
0.0
  0
SEQEND
  5
46
330
43
100
AcDbEntity
  8
0
  0
POLYLINE
  5
47
330
1F
100
AcDbEntity
  8
0
 62
     7
100
AcDb2dPolyline
 66
     1
 10
0.0
 20
0.0
 30
0.0
  0
VERTEX
  5
48
330
47
100
AcDbEntity
  8
0
 62
     7
100
AcDbVertex
100
AcDb2dVertex
 10
830.911211272307
 20
110.0373833275254
 30
0.0
  0
VERTEX
  5
49
330
47
100
AcDbEntity
  8
0
 62
     7
100
AcDbVertex
100
AcDb2dVertex
 10
830.911211272307
 20
490.0376165224559
 30
0.0
  0
SEQEND
  5
4A
330
47
100
AcDbEntity
  8
0
  0
POLYLINE
  5
4B
330
1F
100
AcDbEntity
  8
0
 62
     7
100
AcDb2dPolyline
 66
     1
 10
0.0
 20
0.0
 30
0.0
  0
VERTEX
  5
4C
330
4B
100
AcDbEntity
  8
0
 62
     7
100
AcDbVertex
100
AcDb2dVertex
 10
720.6609210437931
 20
559.0373669392337
 30
0.0
  0
VERTEX
  5
4D
330
4B
100
AcDbEntity
  8
0
 62
     7
100
AcDbVertex
100
AcDb2dVertex
 10
720.6609210437931
 20
565.0376897458934
 30
0.0
  0
SEQEND
  5
4E
330
4B
100
AcDbEntity
  8
0
  0
POLYLINE
  5
4F
330
1F
100
AcDbEntity
  8
0
 62
     7
100
AcDb2dPolyline
 66
     1
 10
0.0
 20
0.0
 30
0.0
  0
VERTEX
  5
50
330
4F
100
AcDbEntity
  8
0
 62
     7
100
AcDbVertex
100
AcDb2dVertex
 10
645.6611923299042
 20
559.0373669392337
 30
0.0
  0
VERTEX
  5
51
330
4F
100
AcDbEntity
  8
0
 62
     7
100
AcDbVertex
100
AcDb2dVertex
 10
720.6609210437931
 20
559.0373669392337
 30
0.0
  0
SEQEND
  5
52
330
4F
100
AcDbEntity
  8
0
  0
POLYLINE
  5
53
330
1F
100
AcDbEntity
  8
0
 62
     7
100
AcDb2dPolyline
 66
     1
 10
0.0
 20
0.0
 30
0.0
  0
VERTEX
  5
54
330
53
100
AcDbEntity
  8
0
 62
     7
100
AcDbVertex
100
AcDb2dVertex
 10
645.6611923299042
 20
565.0376897458934
 30
0.0
  0
VERTEX
  5
55
330
53
100
AcDbEntity
  8
0
 62
     7
100
AcDbVertex
100
AcDb2dVertex
 10
645.6611923299042
 20
559.0373669392337
 30
0.0
  0
SEQEND
  5
56
330
53
100
AcDbEntity
  8
0
  0
POLYLINE
  5
57
330
1F
100
AcDbEntity
  8
0
 62
     7
100
AcDb2dPolyline
 66
     1
 10
0.0
 20
0.0
 30
0.0
  0
VERTEX
  5
58
330
57
100
AcDbEntity
  8
0
 62
     7
100
AcDbVertex
100
AcDb2dVertex
 10
720.6609210437931
 20
565.0376897458934
 30
0.0
  0
VERTEX
  5
59
330
57
100
AcDbEntity
  8
0
 62
     7
100
AcDbVertex
100
AcDb2dVertex
 10
645.6611923299042
 20
565.0376897458934
 30
0.0
  0
SEQEND
  5
5A
330
57
100
AcDbEntity
  8
0
  0
POLYLINE
  5
5B
330
1F
100
AcDbEntity
  8
0
 62
     7
100
AcDb2dPolyline
 66
     1
 10
0.0
 20
0.0
 30
0.0
  0
VERTEX
  5
5C
330
5B
100
AcDbEntity
  8
0
 62
     7
100
AcDbVertex
100
AcDb2dVertex
 10
825.6612302623347
 20
35.03731010408789
 30
0.0
  0
VERTEX
  5
5D
330
5B
100
AcDbEntity
  8
0
 62
     7
100
AcDbVertex
100
AcDb2dVertex
 10
825.6612302623347
 20
41.03728840119901
 30
0.0
  0
SEQEND
  5
5E
330
5B
100
AcDbEntity
  8
0
  0
POLYLINE
  5
5F
330
1F
100
AcDbEntity
  8
0
 62
     7
100
AcDb2dPolyline
 66
     1
 10
0.0
 20
0.0
 30
0.0
  0
VERTEX
  5
60
330
5F
100
AcDbEntity
  8
0
 62
     7
100
AcDbVertex
100
AcDb2dVertex
 10
750.6611570388973
 20
35.03731010408789
 30
0.0
  0
VERTEX
  5
61
330
5F
100
AcDbEntity
  8
0
 62
     7
100
AcDbVertex
100
AcDb2dVertex
 10
825.6612302623347
 20
35.03731010408789
 30
0.0
  0
SEQEND
  5
62
330
5F
100
AcDbEntity
  8
0
  0
POLYLINE
  5
63
330
1F
100
AcDbEntity
  8
0
 62
     7
100
AcDb2dPolyline
 66
     1
 10
0.0
 20
0.0
 30
0.0
  0
VERTEX
  5
64
330
63
100
AcDbEntity
  8
0
 62
     7
100
AcDbVertex
100
AcDb2dVertex
 10
750.6611570388973
 20
41.03728840119901
 30
0.0
  0
VERTEX
  5
65
330
63
100
AcDbEntity
  8
0
 62
     7
100
AcDbVertex
100
AcDb2dVertex
 10
750.6611570388973
 20
35.03731010408789
 30
0.0
  0
SEQEND
  5
66
330
63
100
AcDbEntity
  8
0
  0
POLYLINE
  5
67
330
1F
100
AcDbEntity
  8
0
 62
     7
100
AcDb2dPolyline
 66
     1
 10
0.0
 20
0.0
 30
0.0
  0
VERTEX
  5
68
330
67
100
AcDbEntity
  8
0
 62
     7
100
AcDbVertex
100
AcDb2dVertex
 10
825.6612302623347
 20
41.03728840119901
 30
0.0
  0
VERTEX
  5
69
330
67
100
AcDbEntity
  8
0
 62
     7
100
AcDbVertex
100
AcDb2dVertex
 10
750.6611570388973
 20
41.03728840119901
 30
0.0
  0
SEQEND
  5
6A
330
67
100
AcDbEntity
  8
0
  0
POLYLINE
  5
6B
330
1F
100
AcDbEntity
  8
0
 62
     7
100
AcDb2dPolyline
 66
     1
 10
0.0
 20
0.0
 30
0.0
  0
VERTEX
  5
6C
330
6B
100
AcDbEntity
  8
0
 62
     7
100
AcDbVertex
100
AcDb2dVertex
 10
615.6609563348001
 20
35.03731010408789
 30
0.0
  0
VERTEX
  5
6D
330
6B
100
AcDbEntity
  8
0
 62
     7
100
AcDbVertex
100
AcDb2dVertex
 10
615.6609563348001
 20
41.03728840119901
 30
0.0
  0
SEQEND
  5
6E
330
6B
100
AcDbEntity
  8
0
  0
POLYLINE
  5
6F
330
1F
100
AcDbEntity
  8
0
 62
     7
100
AcDb2dPolyline
 66
     1
 10
0.0
 20
0.0
 30
0.0
  0
VERTEX
  5
70
330
6F
100
AcDbEntity
  8
0
 62
     7
100
AcDbVertex
100
AcDb2dVertex
 10
540.6608831113626
 20
35.03731010408789
 30
0.0
  0
VERTEX
  5
71
330
6F
100
AcDbEntity
  8
0
 62
     7
100
AcDbVertex
100
AcDb2dVertex
 10
615.6609563348001
 20
35.03731010408789
 30
0.0
  0
SEQEND
  5
72
330
6F
100
AcDbEntity
  8
0
  0
POLYLINE
  5
73
330
1F
100
AcDbEntity
  8
0
 62
     7
100
AcDb2dPolyline
 66
     1
 10
0.0
 20
0.0
 30
0.0
  0
VERTEX
  5
74
330
73
100
AcDbEntity
  8
0
 62
     7
100
AcDbVertex
100
AcDb2dVertex
 10
540.6608831113626
 20
41.03728840119901
 30
0.0
  0
VERTEX
  5
75
330
73
100
AcDbEntity
  8
0
 62
     7
100
AcDbVertex
100
AcDb2dVertex
 10
540.6608831113626
 20
35.03731010408789
 30
0.0
  0
SEQEND
  5
76
330
73
100
AcDbEntity
  8
0
  0
POLYLINE
  5
77
330
1F
100
AcDbEntity
  8
0
 62
     7
100
AcDb2dPolyline
 66
     1
 10
0.0
 20
0.0
 30
0.0
  0
VERTEX
  5
78
330
77
100
AcDbEntity
  8
0
 62
     7
100
AcDbVertex
100
AcDb2dVertex
 10
615.6609563348001
 20
41.03728840119901
 30
0.0
  0
VERTEX
  5
79
330
77
100
AcDbEntity
  8
0
 62
     7
100
AcDbVertex
100
AcDb2dVertex
 10
540.6608831113626
 20
41.03728840119901
 30
0.0
  0
SEQEND
  5
7A
330
77
100
AcDbEntity
  8
0
  0
POLYLINE
  5
7B
330
1F
100
AcDbEntity
  8
0
 62
     7
100
AcDb2dPolyline
 66
     1
 10
0.0
 20
0.0
 30
0.0
  0
VERTEX
  5
7C
330
7B
100
AcDbEntity
  8
0
 62
     7
100
AcDbVertex
100
AcDb2dVertex
 10
475.9110024851889
 20
25.03757594860172
 30
0.0
  0
VERTEX
  5
7D
330
7B
100
AcDbEntity
  8
0
 62
     7
100
AcDbVertex
100
AcDb2dVertex
 10
890.4111108885083
 20
25.03757594860172
 30
0.0
  0
SEQEND
  5
7E
330
7B
100
AcDbEntity
  8
0
  0
POLYLINE
  5
7F
330
1F
100
AcDbEntity
  8
0
 62
     7
100
AcDb2dPolyline
 66
     1
 10
0.0
 20
0.0
 30
0.0
  0
VERTEX
  5
80
330
7F
100
AcDbEntity
  8
0
 62
     7
100
AcDbVertex
100
AcDb2dVertex
 10
890.4111108885083
 20
25.03757594860172
 30
0.0
  0
VERTEX
  5
81
330
7F
100
AcDbEntity
  8
0
 62
     7
100
AcDbVertex
100
AcDb2dVertex
 10
890.4111108885083
 20
35.03731010408789
 30
0.0
  0
SEQEND
  5
82
330
7F
100
AcDbEntity
  8
0
  0
POLYLINE
  5
83
330
1F
100
AcDbEntity
  8
0
 62
     7
100
AcDb2dPolyline
 66
     1
 10
0.0
 20
0.0
 30
0.0
  0
VERTEX
  5
84
330
83
100
AcDbEntity
  8
0
 62
     7
100
AcDbVertex
100
AcDb2dVertex
 10
890.4111108885083
 20
35.03731010408789
 30
0.0
  0
VERTEX
  5
85
330
83
100
AcDbEntity
  8
0
 62
     7
100
AcDbVertex
100
AcDb2dVertex
 10
855.6611217478903
 20
35.03731010408789
 30
0.0
  0
SEQEND
  5
86
330
83
100
AcDbEntity
  8
0
  0
POLYLINE
  5
87
330
1F
100
AcDbEntity
  8
0
 62
     7
100
AcDb2dPolyline
 66
     1
 10
0.0
 20
0.0
 30
0.0
  0
VERTEX
  5
88
330
87
100
AcDbEntity
  8
0
 62
     7
100
AcDbVertex
100
AcDb2dVertex
 10
855.6611217478903
 20
35.03731010408789
 30
0.0
  0
VERTEX
  5
89
330
87
100
AcDbEntity
  8
0
 62
     7
100
AcDbVertex
100
AcDb2dVertex
 10
855.6611217478903
 20
41.03728840119901
 30
0.0
  0
SEQEND
  5
8A
330
87
100
AcDbEntity
  8
0
  0
POLYLINE
  5
8B
330
1F
100
AcDbEntity
  8
0
 62
     7
100
AcDb2dPolyline
 66
     1
 10
0.0
 20
0.0
 30
0.0
  0
VERTEX
  5
8C
330
8B
100
AcDbEntity
  8
0
 62
     7
100
AcDbVertex
100
AcDb2dVertex
 10
855.6611217478903
 20
41.03728840119901
 30
0.0
  0
VERTEX
  5
8D
330
8B
100
AcDbEntity
  8
0
 62
     7
100
AcDbVertex
100
AcDb2dVertex
 10
890.4111108885083
 20
41.03728840119901
 30
0.0
  0
SEQEND
  5
8E
330
8B
100
AcDbEntity
  8
0
  0
POLYLINE
  5
8F
330
1F
100
AcDbEntity
  8
0
 62
     7
100
AcDb2dPolyline
 66
     1
 10
0.0
 20
0.0
 30
0.0
  0
VERTEX
  5
90
330
8F
100
AcDbEntity
  8
0
 62
     7
100
AcDbVertex
100
AcDb2dVertex
 10
890.4111108885083
 20
41.03728840119901
 30
0.0
  0
VERTEX
  5
91
330
8F
100
AcDbEntity
  8
0
 62
     7
100
AcDbVertex
100
AcDb2dVertex
 10
890.4111108885083
 20
559.0373669392337
 30
0.0
  0
SEQEND
  5
92
330
8F
100
AcDbEntity
  8
0
  0
POLYLINE
  5
93
330
1F
100
AcDbEntity
  8
0
 62
     7
100
AcDb2dPolyline
 66
     1
 10
0.0
 20
0.0
 30
0.0
  0
VERTEX
  5
94
330
93
100
AcDbEntity
  8
0
 62
     7
100
AcDbVertex
100
AcDb2dVertex
 10
890.4111108885083
 20
559.0373669392337
 30
0.0
  0
VERTEX
  5
95
330
93
100
AcDbEntity
  8
0
 62
     7
100
AcDbVertex
100
AcDb2dVertex
 10
855.6611217478903
 20
559.0373669392337
 30
0.0
  0
SEQEND
  5
96
330
93
100
AcDbEntity
  8
0
  0
POLYLINE
  5
97
330
1F
100
AcDbEntity
  8
0
 62
     7
100
AcDb2dPolyline
 66
     1
 10
0.0
 20
0.0
 30
0.0
  0
VERTEX
  5
98
330
97
100
AcDbEntity
  8
0
 62
     7
100
AcDbVertex
100
AcDb2dVertex
 10
855.6611217478903
 20
559.0373669392337
 30
0.0
  0
VERTEX
  5
99
330
97
100
AcDbEntity
  8
0
 62
     7
100
AcDbVertex
100
AcDb2dVertex
 10
855.6611217478903
 20
565.0376897458934
 30
0.0
  0
SEQEND
  5
9A
330
97
100
AcDbEntity
  8
0
  0
POLYLINE
  5
9B
330
1F
100
AcDbEntity
  8
0
 62
     7
100
AcDb2dPolyline
 66
     1
 10
0.0
 20
0.0
 30
0.0
  0
VERTEX
  5
9C
330
9B
100
AcDbEntity
  8
0
 62
     7
100
AcDbVertex
100
AcDb2dVertex
 10
855.6611217478903
 20
565.0376897458934
 30
0.0
  0
VERTEX
  5
9D
330
9B
100
AcDbEntity
  8
0
 62
     7
100
AcDbVertex
100
AcDb2dVertex
 10
890.4111108885083
 20
565.0376897458934
 30
0.0
  0
SEQEND
  5
9E
330
9B
100
AcDbEntity
  8
0
  0
POLYLINE
  5
9F
330
1F
100
AcDbEntity
  8
0
 62
     7
100
AcDb2dPolyline
 66
     1
 10
0.0
 20
0.0
 30
0.0
  0
VERTEX
  5
A0
330
9F
100
AcDbEntity
  8
0
 62
     7
100
AcDbVertex
100
AcDb2dVertex
 10
890.4111108885083
 20
565.0376897458934
 30
0.0
  0
VERTEX
  5
A1
330
9F
100
AcDbEntity
  8
0
 62
     7
100
AcDbVertex
100
AcDb2dVertex
 10
890.4111108885083
 20
575.0374239013796
 30
0.0
  0
SEQEND
  5
A2
330
9F
100
AcDbEntity
  8
0
  0
POLYLINE
  5
A3
330
1F
100
AcDbEntity
  8
0
 62
     7
100
AcDb2dPolyline
 66
     1
 10
0.0
 20
0.0
 30
0.0
  0
VERTEX
  5
A4
330
A3
100
AcDbEntity
  8
0
 62
     7
100
AcDbVertex
100
AcDb2dVertex
 10
890.4111108885083
 20
575.0374239013796
 30
0.0
  0
VERTEX
  5
A5
330
A3
100
AcDbEntity
  8
0
 62
     7
100
AcDbVertex
100
AcDb2dVertex
 10
475.9110024851889
 20
575.0374239013796
 30
0.0
  0
SEQEND
  5
A6
330
A3
100
AcDbEntity
  8
0
  0
POLYLINE
  5
A7
330
1F
100
AcDbEntity
  8
0
 62
     7
100
AcDb2dPolyline
 66
     1
 10
0.0
 20
0.0
 30
0.0
  0
VERTEX
  5
A8
330
A7
100
AcDbEntity
  8
0
 62
     7
100
AcDbVertex
100
AcDb2dVertex
 10
475.9110024851889
 20
575.0374239013796
 30
0.0
  0
VERTEX
  5
A9
330
A7
100
AcDbEntity
  8
0
 62
     7
100
AcDbVertex
100
AcDb2dVertex
 10
475.9110024851889
 20
565.0376897458934
 30
0.0
  0
SEQEND
  5
AA
330
A7
100
AcDbEntity
  8
0
  0
POLYLINE
  5
AB
330
1F
100
AcDbEntity
  8
0
 62
     7
100
AcDb2dPolyline
 66
     1
 10
0.0
 20
0.0
 30
0.0
  0
VERTEX
  5
AC
330
AB
100
AcDbEntity
  8
0
 62
     7
100
AcDbVertex
100
AcDb2dVertex
 10
475.9110024851889
 20
565.0376897458934
 30
0.0
  0
VERTEX
  5
AD
330
AB
100
AcDbEntity
  8
0
 62
     7
100
AcDbVertex
100
AcDb2dVertex
 10
510.660991625807
 20
565.0376897458934
 30
0.0
  0
SEQEND
  5
AE
330
AB
100
AcDbEntity
  8
0
  0
POLYLINE
  5
AF
330
1F
100
AcDbEntity
  8
0
 62
     7
100
AcDb2dPolyline
 66
     1
 10
0.0
 20
0.0
 30
0.0
  0
VERTEX
  5
B0
330
AF
100
AcDbEntity
  8
0
 62
     7
100
AcDbVertex
100
AcDb2dVertex
 10
510.660991625807
 20
565.0376897458934
 30
0.0
  0
VERTEX
  5
B1
330
AF
100
AcDbEntity
  8
0
 62
     7
100
AcDbVertex
100
AcDb2dVertex
 10
510.660991625807
 20
559.0373669392337
 30
0.0
  0
SEQEND
  5
B2
330
AF
100
AcDbEntity
  8
0
  0
POLYLINE
  5
B3
330
1F
100
AcDbEntity
  8
0
 62
     7
100
AcDb2dPolyline
 66
     1
 10
0.0
 20
0.0
 30
0.0
  0
VERTEX
  5
B4
330
B3
100
AcDbEntity
  8
0
 62
     7
100
AcDbVertex
100
AcDb2dVertex
 10
510.660991625807
 20
559.0373669392337
 30
0.0
  0
VERTEX
  5
B5
330
B3
100
AcDbEntity
  8
0
 62
     7
100
AcDbVertex
100
AcDb2dVertex
 10
475.9110024851889
 20
559.0373669392337
 30
0.0
  0
SEQEND
  5
B6
330
B3
100
AcDbEntity
  8
0
  0
POLYLINE
  5
B7
330
1F
100
AcDbEntity
  8
0
 62
     7
100
AcDb2dPolyline
 66
     1
 10
0.0
 20
0.0
 30
0.0
  0
VERTEX
  5
B8
330
B7
100
AcDbEntity
  8
0
 62
     7
100
AcDbVertex
100
AcDb2dVertex
 10
475.9110024851889
 20
559.0373669392337
 30
0.0
  0
VERTEX
  5
B9
330
B7
100
AcDbEntity
  8
0
 62
     7
100
AcDbVertex
100
AcDb2dVertex
 10
475.9110024851889
 20
41.03728840119901
 30
0.0
  0
SEQEND
  5
BA
330
B7
100
AcDbEntity
  8
0
  0
POLYLINE
  5
BB
330
1F
100
AcDbEntity
  8
0
 62
     7
100
AcDb2dPolyline
 66
     1
 10
0.0
 20
0.0
 30
0.0
  0
VERTEX
  5
BC
330
BB
100
AcDbEntity
  8
0
 62
     7
100
AcDbVertex
100
AcDb2dVertex
 10
475.9110024851889
 20
41.03728840119901
 30
0.0
  0
VERTEX
  5
BD
330
BB
100
AcDbEntity
  8
0
 62
     7
100
AcDbVertex
100
AcDb2dVertex
 10
510.660991625807
 20
41.03728840119901
 30
0.0
  0
SEQEND
  5
BE
330
BB
100
AcDbEntity
  8
0
  0
POLYLINE
  5
BF
330
1F
100
AcDbEntity
  8
0
 62
     7
100
AcDb2dPolyline
 66
     1
 10
0.0
 20
0.0
 30
0.0
  0
VERTEX
  5
C0
330
BF
100
AcDbEntity
  8
0
 62
     7
100
AcDbVertex
100
AcDb2dVertex
 10
510.660991625807
 20
41.03728840119901
 30
0.0
  0
VERTEX
  5
C1
330
BF
100
AcDbEntity
  8
0
 62
     7
100
AcDbVertex
100
AcDb2dVertex
 10
510.660991625807
 20
35.03731010408789
 30
0.0
  0
SEQEND
  5
C2
330
BF
100
AcDbEntity
  8
0
  0
POLYLINE
  5
C3
330
1F
100
AcDbEntity
  8
0
 62
     7
100
AcDb2dPolyline
 66
     1
 10
0.0
 20
0.0
 30
0.0
  0
VERTEX
  5
C4
330
C3
100
AcDbEntity
  8
0
 62
     7
100
AcDbVertex
100
AcDb2dVertex
 10
510.660991625807
 20
35.03731010408789
 30
0.0
  0
VERTEX
  5
C5
330
C3
100
AcDbEntity
  8
0
 62
     7
100
AcDbVertex
100
AcDb2dVertex
 10
475.9110024851889
 20
35.03731010408789
 30
0.0
  0
SEQEND
  5
C6
330
C3
100
AcDbEntity
  8
0
  0
POLYLINE
  5
C7
330
1F
100
AcDbEntity
  8
0
 62
     7
100
AcDb2dPolyline
 66
     1
 10
0.0
 20
0.0
 30
0.0
  0
VERTEX
  5
C8
330
C7
100
AcDbEntity
  8
0
 62
     7
100
AcDbVertex
100
AcDb2dVertex
 10
475.9110024851889
 20
35.03731010408789
 30
0.0
  0
VERTEX
  5
C9
330
C7
100
AcDbEntity
  8
0
 62
     7
100
AcDbVertex
100
AcDb2dVertex
 10
475.9110024851889
 20
25.03757594860172
 30
0.0
  0
SEQEND
  5
CA
330
C7
100
AcDbEntity
  8
0
  0
POLYLINE
  5
CB
330
1F
100
AcDbEntity
  8
0
 62
     7
100
AcDb2dPolyline
 66
     1
 10
0.0
 20
0.0
 30
0.0
  0
VERTEX
  5
CC
330
CB
100
AcDbEntity
  8
0
 62
     7
100
AcDbVertex
100
AcDb2dVertex
 10
720.6609210437931
 20
35.03731010408789
 30
0.0
  0
VERTEX
  5
CD
330
CB
100
AcDbEntity
  8
0
 62
     7
100
AcDbVertex
100
AcDb2dVertex
 10
720.6609210437931
 20
41.03728840119901
 30
0.0
  0
SEQEND
  5
CE
330
CB
100
AcDbEntity
  8
0
  0
POLYLINE
  5
CF
330
1F
100
AcDbEntity
  8
0
 62
     7
100
AcDb2dPolyline
 66
     1
 10
0.0
 20
0.0
 30
0.0
  0
VERTEX
  5
D0
330
CF
100
AcDbEntity
  8
0
 62
     7
100
AcDbVertex
100
AcDb2dVertex
 10
645.6611923299042
 20
35.03731010408789
 30
0.0
  0
VERTEX
  5
D1
330
CF
100
AcDbEntity
  8
0
 62
     7
100
AcDbVertex
100
AcDb2dVertex
 10
720.6609210437931
 20
35.03731010408789
 30
0.0
  0
SEQEND
  5
D2
330
CF
100
AcDbEntity
  8
0
  0
POLYLINE
  5
D3
330
1F
100
AcDbEntity
  8
0
 62
     7
100
AcDb2dPolyline
 66
     1
 10
0.0
 20
0.0
 30
0.0
  0
VERTEX
  5
D4
330
D3
100
AcDbEntity
  8
0
 62
     7
100
AcDbVertex
100
AcDb2dVertex
 10
645.6611923299042
 20
41.03728840119901
 30
0.0
  0
VERTEX
  5
D5
330
D3
100
AcDbEntity
  8
0
 62
     7
100
AcDbVertex
100
AcDb2dVertex
 10
645.6611923299042
 20
35.03731010408789
 30
0.0
  0
SEQEND
  5
D6
330
D3
100
AcDbEntity
  8
0
  0
POLYLINE
  5
D7
330
1F
100
AcDbEntity
  8
0
 62
     7
100
AcDb2dPolyline
 66
     1
 10
0.0
 20
0.0
 30
0.0
  0
VERTEX
  5
D8
330
D7
100
AcDbEntity
  8
0
 62
     7
100
AcDbVertex
100
AcDb2dVertex
 10
720.6609210437931
 20
41.03728840119901
 30
0.0
  0
VERTEX
  5
D9
330
D7
100
AcDbEntity
  8
0
 62
     7
100
AcDbVertex
100
AcDb2dVertex
 10
645.6611923299042
 20
41.03728840119901
 30
0.0
  0
SEQEND
  5
DA
330
D7
100
AcDbEntity
  8
0
  0
POLYLINE
  5
DB
330
1F
100
AcDbEntity
  8
0
 62
     7
100
AcDb2dPolyline
 66
     1
 10
0.0
 20
0.0
 30
0.0
  0
VERTEX
  5
DC
330
DB
100
AcDbEntity
  8
0
 62
     7
100
AcDbVertex
100
AcDb2dVertex
 10
615.6609563348001
 20
559.0373669392337
 30
0.0
  0
VERTEX
  5
DD
330
DB
100
AcDbEntity
  8
0
 62
     7
100
AcDbVertex
100
AcDb2dVertex
 10
615.6609563348001
 20
565.0376897458934
 30
0.0
  0
SEQEND
  5
DE
330
DB
100
AcDbEntity
  8
0
  0
POLYLINE
  5
DF
330
1F
100
AcDbEntity
  8
0
 62
     7
100
AcDb2dPolyline
 66
     1
 10
0.0
 20
0.0
 30
0.0
  0
VERTEX
  5
E0
330
DF
100
AcDbEntity
  8
0
 62
     7
100
AcDbVertex
100
AcDb2dVertex
 10
540.6608831113626
 20
559.0373669392337
 30
0.0
  0
VERTEX
  5
E1
330
DF
100
AcDbEntity
  8
0
 62
     7
100
AcDbVertex
100
AcDb2dVertex
 10
615.6609563348001
 20
559.0373669392337
 30
0.0
  0
SEQEND
  5
E2
330
DF
100
AcDbEntity
  8
0
  0
POLYLINE
  5
E3
330
1F
100
AcDbEntity
  8
0
 62
     7
100
AcDb2dPolyline
 66
     1
 10
0.0
 20
0.0
 30
0.0
  0
VERTEX
  5
E4
330
E3
100
AcDbEntity
  8
0
 62
     7
100
AcDbVertex
100
AcDb2dVertex
 10
540.6608831113626
 20
565.0376897458934
 30
0.0
  0
VERTEX
  5
E5
330
E3
100
AcDbEntity
  8
0
 62
     7
100
AcDbVertex
100
AcDb2dVertex
 10
540.6608831113626
 20
559.0373669392337
 30
0.0
  0
SEQEND
  5
E6
330
E3
100
AcDbEntity
  8
0
  0
POLYLINE
  5
E7
330
1F
100
AcDbEntity
  8
0
 62
     7
100
AcDb2dPolyline
 66
     1
 10
0.0
 20
0.0
 30
0.0
  0
VERTEX
  5
E8
330
E7
100
AcDbEntity
  8
0
 62
     7
100
AcDbVertex
100
AcDb2dVertex
 10
615.6609563348001
 20
565.0376897458934
 30
0.0
  0
VERTEX
  5
E9
330
E7
100
AcDbEntity
  8
0
 62
     7
100
AcDbVertex
100
AcDb2dVertex
 10
540.6608831113626
 20
565.0376897458934
 30
0.0
  0
SEQEND
  5
EA
330
E7
100
AcDbEntity
  8
0
  0
POLYLINE
  5
EB
330
1F
100
AcDbEntity
  8
0
 62
     7
100
AcDb2dPolyline
 66
     1
 10
0.0
 20
0.0
 30
0.0
  0
VERTEX
  5
EC
330
EB
100
AcDbEntity
  8
0
 62
     7
100
AcDbVertex
100
AcDb2dVertex
 10
825.6612302623347
 20
559.0373669392337
 30
0.0
  0
VERTEX
  5
ED
330
EB
100
AcDbEntity
  8
0
 62
     7
100
AcDbVertex
100
AcDb2dVertex
 10
825.6612302623347
 20
565.0376897458934
 30
0.0
  0
SEQEND
  5
EE
330
EB
100
AcDbEntity
  8
0
  0
POLYLINE
  5
EF
330
1F
100
AcDbEntity
  8
0
 62
     7
100
AcDb2dPolyline
 66
     1
 10
0.0
 20
0.0
 30
0.0
  0
VERTEX
  5
F0
330
EF
100
AcDbEntity
  8
0
 62
     7
100
AcDbVertex
100
AcDb2dVertex
 10
750.6611570388973
 20
559.0373669392337
 30
0.0
  0
VERTEX
  5
F1
330
EF
100
AcDbEntity
  8
0
 62
     7
100
AcDbVertex
100
AcDb2dVertex
 10
825.6612302623347
 20
559.0373669392337
 30
0.0
  0
SEQEND
  5
F2
330
EF
100
AcDbEntity
  8
0
  0
POLYLINE
  5
F3
330
1F
100
AcDbEntity
  8
0
 62
     7
100
AcDb2dPolyline
 66
     1
 10
0.0
 20
0.0
 30
0.0
  0
VERTEX
  5
F4
330
F3
100
AcDbEntity
  8
0
 62
     7
100
AcDbVertex
100
AcDb2dVertex
 10
750.6611570388973
 20
565.0376897458934
 30
0.0
  0
VERTEX
  5
F5
330
F3
100
AcDbEntity
  8
0
 62
     7
100
AcDbVertex
100
AcDb2dVertex
 10
750.6611570388973
 20
559.0373669392337
 30
0.0
  0
SEQEND
  5
F6
330
F3
100
AcDbEntity
  8
0
  0
POLYLINE
  5
F7
330
1F
100
AcDbEntity
  8
0
 62
     7
100
AcDb2dPolyline
 66
     1
 10
0.0
 20
0.0
 30
0.0
  0
VERTEX
  5
F8
330
F7
100
AcDbEntity
  8
0
 62
     7
100
AcDbVertex
100
AcDb2dVertex
 10
825.6612302623347
 20
565.0376897458934
 30
0.0
  0
VERTEX
  5
F9
330
F7
100
AcDbEntity
  8
0
 62
     7
100
AcDbVertex
100
AcDb2dVertex
 10
750.6611570388973
 20
565.0376897458934
 30
0.0
  0
SEQEND
  5
FA
330
F7
100
AcDbEntity
  8
0
  0
SPLINE
  5
FB
330
1F
100
AcDbEntity
  8
0
 62
     7
100
AcDbSpline
210
0.0
220
0.0
230
1.0
 70
    11
 71
     3
 72
    20
 73
    16
 74
     0
 42
0.0000000001
 43
0.0000000001
 40
0.0
 40
0.0
 40
0.0
 40
0.0
 40
1.0
 40
1.0
 40
1.0
 40
2.0
 40
2.0
 40
2.0
 40
3.0
 40
3.0
 40
3.0
 40
4.0
 40
4.0
 40
4.0
 40
5.0
 40
5.0
 40
5.0
 40
5.0
 10
366.4243176709808
 20
104.0708224566212
 30
0.0
 10
358.6924898734345
 20
104.0708224566212
 30
0.0
 10
352.424483147571
 20
97.80281573075763
 30
0.0
 10
352.424483147571
 20
90.07098793321143
 30
0.0
 10
352.424483147571
 20
82.33881562611668
 30
0.0
 10
358.6924898734345
 20
76.07080890025314
 30
0.0
 10
366.4243176709808
 20
76.07080890025314
 30
0.0
 10
374.1564899780755
 20
76.07080890025314
 30
0.0
 10
380.424496703939
 20
82.33881562611668
 30
0.0
 10
380.424496703939
 20
90.07098793321143
 30
0.0
 10
380.424496703939
 20
97.80281573075763
 30
0.0
 10
374.1564899780755
 20
104.0708224566212
 30
0.0
 10
366.4243176709808
 20
104.0708224566212
 30
0.0
 10
366.4243176709808
 20
104.0708224566212
 30
0.0
 10
366.4243176709808
 20
104.0708224566212
 30
0.0
 10
366.4243176709808
 20
104.0708224566212
 30
0.0
  0
SPLINE
  5
FC
330
1F
100
AcDbEntity
  8
0
 62
     7
100
AcDbSpline
210
0.0
220
0.0
230
1.0
 70
    11
 71
     3
 72
    20
 73
    16
 74
     0
 42
0.0000000001
 43
0.0000000001
 40
0.0
 40
0.0
 40
0.0
 40
0.0
 40
1.0
 40
1.0
 40
1.0
 40
2.0
 40
2.0
 40
2.0
 40
3.0
 40
3.0
 40
3.0
 40
4.0
 40
4.0
 40
4.0
 40
5.0
 40
5.0
 40
5.0
 40
5.0
 10
366.4243176709808
 20
364.0623602062935
 30
0.0
 10
358.6924898734345
 20
364.0623602062935
 30
0.0
 10
352.424483147571
 20
357.7943534804299
 30
0.0
 10
352.424483147571
 20
350.0621811733351
 30
0.0
 10
352.424483147571
 20
342.3303533757889
 30
0.0
 10
358.6924898734345
 20
336.0623466499254
 30
0.0
 10
366.4243176709808
 20
336.0623466499254
 30
0.0
 10
374.1564899780755
 20
336.0623466499254
 30
0.0
 10
380.424496703939
 20
342.3303533757889
 30
0.0
 10
380.424496703939
 20
350.0621811733351
 30
0.0
 10
380.424496703939
 20
357.7943534804299
 30
0.0
 10
374.1564899780755
 20
364.0623602062935
 30
0.0
 10
366.4243176709808
 20
364.0623602062935
 30
0.0
 10
366.4243176709808
 20
364.0623602062935
 30
0.0
 10
366.4243176709808
 20
364.0623602062935
 30
0.0
 10
366.4243176709808
 20
364.0623602062935
 30
0.0
  0
SPLINE
  5
FD
330
1F
100
AcDbEntity
  8
0
 62
     7
100
AcDbSpline
210
0.0
220
0.0
230
1.0
 70
    11
 71
     3
 72
    20
 73
    16
 74
     0
 42
0.0000000001
 43
0.0000000001
 40
0.0
 40
0.0
 40
0.0
 40
0.0
 40
1.0
 40
1.0
 40
1.0
 40
2.0
 40
2.0
 40
2.0
 40
3.0
 40
3.0
 40
3.0
 40
4.0
 40
4.0
 40
4.0
 40
5.0
 40
5.0
 40
5.0
 40
5.0
 10
366.4243176709808
 20
529.0621078863977
 30
0.0
 10
358.6924898734345
 20
529.0621078863977
 30
0.0
 10
352.424483147571
 20
522.7941011605342
 30
0.0
 10
352.424483147571
 20
515.062273362988
 30
0.0
 10
352.424483147571
 20
507.3301010558932
 30
0.0
 10
358.6924898734345
 20
501.0620943300297
 30
0.0
 10
366.4243176709808
 20
501.0620943300297
 30
0.0
 10
374.1564899780755
 20
501.0620943300297
 30
0.0
 10
380.424496703939
 20
507.3301010558932
 30
0.0
 10
380.424496703939
 20
515.062273362988
 30
0.0
 10
380.424496703939
 20
522.7941011605342
 30
0.0
 10
374.1564899780755
 20
529.0621078863977
 30
0.0
 10
366.4243176709808
 20
529.0621078863977
 30
0.0
 10
366.4243176709808
 20
529.0621078863977
 30
0.0
 10
366.4243176709808
 20
529.0621078863977
 30
0.0
 10
366.4243176709808
 20
529.0621078863977
 30
0.0
  0
SPLINE
  5
FE
330
1F
100
AcDbEntity
  8
0
 62
     7
100
AcDbSpline
210
0.0
220
0.0
230
1.0
 70
    11
 71
     3
 72
    20
 73
    16
 74
     0
 42
0.0000000001
 43
0.0000000001
 40
0.0
 40
0.0
 40
0.0
 40
0.0
 40
1.0
 40
1.0
 40
1.0
 40
2.0
 40
2.0
 40
2.0
 40
3.0
 40
3.0
 40
3.0
 40
4.0
 40
4.0
 40
4.0
 40
5.0
 40
5.0
 40
5.0
 40
5.0
 10
366.4243176709808
 20
493.062238103731
 30
0.0
 10
358.6924898734345
 20
493.062238103731
 30
0.0
 10
352.424483147571
 20
486.7942313778674
 30
0.0
 10
352.424483147571
 20
479.0620590707727
 30
0.0
 10
352.424483147571
 20
471.3302312732265
 30
0.0
 10
358.6924898734345
 20
465.0622245473629
 30
0.0
 10
366.4243176709808
 20
465.0622245473629
 30
0.0
 10
374.1564899780755
 20
465.0622245473629
 30
0.0
 10
380.424496703939
 20
471.3302312732265
 30
0.0
 10
380.424496703939
 20
479.0620590707727
 30
0.0
 10
380.424496703939
 20
486.7942313778674
 30
0.0
 10
374.1564899780755
 20
493.062238103731
 30
0.0
 10
366.4243176709808
 20
493.062238103731
 30
0.0
 10
366.4243176709808
 20
493.062238103731
 30
0.0
 10
366.4243176709808
 20
493.062238103731
 30
0.0
 10
366.4243176709808
 20
493.062238103731
 30
0.0
  0
SPLINE
  5
FF
330
1F
100
AcDbEntity
  8
0
 62
     7
100
AcDbSpline
210
0.0
220
0.0
230
1.0
 70
    11
 71
     3
 72
    20
 73
    16
 74
     0
 42
0.0000000001
 43
0.0000000001
 40
0.0
 40
0.0
 40
0.0
 40
0.0
 40
1.0
 40
1.0
 40
1.0
 40
2.0
 40
2.0
 40
2.0
 40
3.0
 40
3.0
 40
3.0
 40
4.0
 40
4.0
 40
4.0
 40
5.0
 40
5.0
 40
5.0
 40
5.0
 10
383.4244858524946
 20
460.0620129600713
 30
0.0
 10
375.6923135453998
 20
460.0620129600713
 30
0.0
 10
369.4243068195363
 20
453.7940062342078
 30
0.0
 10
369.4243068195363
 20
446.0621784366616
 30
0.0
 10
369.4243068195363
 20
438.3303506391154
 30
0.0
 10
375.6923135453998
 20
432.0623439132518
 30
0.0
 10
383.4244858524946
 20
432.0623439132518
 30
0.0
 10
391.1563136500408
 20
432.0623439132518
 30
0.0
 10
397.4243203759044
 20
438.3303506391154
 30
0.0
 10
397.4243203759044
 20
446.0621784366616
 30
0.0
 10
397.4243203759044
 20
453.7940062342078
 30
0.0
 10
391.1563136500408
 20
460.0620129600713
 30
0.0
 10
383.4244858524946
 20
460.0620129600713
 30
0.0
 10
383.4244858524946
 20
460.0620129600713
 30
0.0
 10
383.4244858524946
 20
460.0620129600713
 30
0.0
 10
383.4244858524946
 20
460.0620129600713
 30
0.0
  0
SPLINE
  5
100
330
1F
100
AcDbEntity
  8
0
 62
     7
100
AcDbSpline
210
0.0
220
0.0
230
1.0
 70
    11
 71
     3
 72
    20
 73
    16
 74
     0
 42
0.0000000001
 43
0.0000000001
 40
0.0
 40
0.0
 40
0.0
 40
0.0
 40
1.0
 40
1.0
 40
1.0
 40
2.0
 40
2.0
 40
2.0
 40
3.0
 40
3.0
 40
3.0
 40
4.0
 40
4.0
 40
4.0
 40
5.0
 40
5.0
 40
5.0
 40
5.0
 10
397.4243203759044
 20
427.0621323259602
 30
0.0
 10
389.6924925783582
 20
427.0621323259602
 30
0.0
 10
383.4244858524946
 20
420.7941256000966
 30
0.0
 10
383.4244858524946
 20
413.0622978025504
 30
0.0
 10
383.4244858524946
 20
405.3301254954557
 30
0.0
 10
389.6924925783582
 20
399.0621187695921
 30
0.0
 10
397.4243203759044
 20
399.0621187695921
 30
0.0
 10
405.1564926829991
 20
399.0621187695921
 30
0.0
 10
411.4244994088626
 20
405.3301254954557
 30
0.0
 10
411.4244994088626
 20
413.0622978025504
 30
0.0
 10
411.4244994088626
 20
420.7941256000966
 30
0.0
 10
405.1564926829991
 20
427.0621323259602
 30
0.0
 10
397.4243203759044
 20
427.0621323259602
 30
0.0
 10
397.4243203759044
 20
427.0621323259602
 30
0.0
 10
397.4243203759044
 20
427.0621323259602
 30
0.0
 10
397.4243203759044
 20
427.0621323259602
 30
0.0
  0
SPLINE
  5
101
330
1F
100
AcDbEntity
  8
0
 62
     7
100
AcDbSpline
210
0.0
220
0.0
230
1.0
 70
    11
 71
     3
 72
    20
 73
    16
 74
     0
 42
0.0000000001
 43
0.0000000001
 40
0.0
 40
0.0
 40
0.0
 40
0.0
 40
1.0
 40
1.0
 40
1.0
 40
2.0
 40
2.0
 40
2.0
 40
3.0
 40
3.0
 40
3.0
 40
4.0
 40
4.0
 40
4.0
 40
5.0
 40
5.0
 40
5.0
 40
5.0
 10
330.424447888314
 20
529.0621078863977
 30
0.0
 10
322.6926200907678
 20
529.0621078863977
 30
0.0
 10
316.4246133649043
 20
522.7941011605342
 30
0.0
 10
316.4246133649043
 20
515.062273362988
 30
0.0
 10
316.4246133649043
 20
507.3301010558932
 30
0.0
 10
322.6926200907678
 20
501.0620943300297
 30
0.0
 10
330.424447888314
 20
501.0620943300297
 30
0.0
 10
338.1562756858602
 20
501.0620943300297
 30
0.0
 10
344.4242824117238
 20
507.3301010558932
 30
0.0
 10
344.4242824117238
 20
515.062273362988
 30
0.0
 10
344.4242824117238
 20
522.7941011605342
 30
0.0
 10
338.1562756858602
 20
529.0621078863977
 30
0.0
 10
330.424447888314
 20
529.0621078863977
 30
0.0
 10
330.424447888314
 20
529.0621078863977
 30
0.0
 10
330.424447888314
 20
529.0621078863977
 30
0.0
 10
330.424447888314
 20
529.0621078863977
 30
0.0
  0
SPLINE
  5
102
330
1F
100
AcDbEntity
  8
0
 62
     7
100
AcDbSpline
210
0.0
220
0.0
230
1.0
 70
    11
 71
     3
 72
    20
 73
    16
 74
     0
 42
0.0000000001
 43
0.0000000001
 40
0.0
 40
0.0
 40
0.0
 40
0.0
 40
1.0
 40
1.0
 40
1.0
 40
2.0
 40
2.0
 40
2.0
 40
3.0
 40
3.0
 40
3.0
 40
4.0
 40
4.0
 40
4.0
 40
5.0
 40
5.0
 40
5.0
 40
5.0
 10
330.424447888314
 20
493.062238103731
 30
0.0
 10
322.6926200907678
 20
493.062238103731
 30
0.0
 10
316.4246133649043
 20
486.7942313778674
 30
0.0
 10
316.4246133649043
 20
479.0620590707727
 30
0.0
 10
316.4246133649043
 20
471.3302312732265
 30
0.0
 10
322.6926200907678
 20
465.0622245473629
 30
0.0
 10
330.424447888314
 20
465.0622245473629
 30
0.0
 10
338.1562756858602
 20
465.0622245473629
 30
0.0
 10
344.4242824117238
 20
471.3302312732265
 30
0.0
 10
344.4242824117238
 20
479.0620590707727
 30
0.0
 10
344.4242824117238
 20
486.7942313778674
 30
0.0
 10
338.1562756858602
 20
493.062238103731
 30
0.0
 10
330.424447888314
 20
493.062238103731
 30
0.0
 10
330.424447888314
 20
493.062238103731
 30
0.0
 10
330.424447888314
 20
493.062238103731
 30
0.0
 10
330.424447888314
 20
493.062238103731
 30
0.0
  0
SPLINE
  5
103
330
1F
100
AcDbEntity
  8
0
 62
     7
100
AcDbSpline
210
0.0
220
0.0
230
1.0
 70
    11
 71
     3
 72
    20
 73
    16
 74
     0
 42
0.0000000001
 43
0.0000000001
 40
0.0
 40
0.0
 40
0.0
 40
0.0
 40
1.0
 40
1.0
 40
1.0
 40
2.0
 40
2.0
 40
2.0
 40
3.0
 40
3.0
 40
3.0
 40
4.0
 40
4.0
 40
4.0
 40
5.0
 40
5.0
 40
5.0
 40
5.0
 10
344.4242824117238
 20
460.0620129600713
 30
0.0
 10
336.6924546141776
 20
460.0620129600713
 30
0.0
 10
330.424447888314
 20
453.7940062342078
 30
0.0
 10
330.424447888314
 20
446.0621784366616
 30
0.0
 10
330.424447888314
 20
438.3303506391154
 30
0.0
 10
336.6924546141776
 20
432.0623439132518
 30
0.0
 10
344.4242824117238
 20
432.0623439132518
 30
0.0
 10
352.1564547188186
 20
432.0623439132518
 30
0.0
 10
358.4244614446821
 20
438.3303506391154
 30
0.0
 10
358.4244614446821
 20
446.0621784366616
 30
0.0
 10
358.4244614446821
 20
453.7940062342078
 30
0.0
 10
352.1564547188186
 20
460.0620129600713
 30
0.0
 10
344.4242824117238
 20
460.0620129600713
 30
0.0
 10
344.4242824117238
 20
460.0620129600713
 30
0.0
 10
344.4242824117238
 20
460.0620129600713
 30
0.0
 10
344.4242824117238
 20
460.0620129600713
 30
0.0
  0
SPLINE
  5
104
330
1F
100
AcDbEntity
  8
0
 62
     7
100
AcDbSpline
210
0.0
220
0.0
230
1.0
 70
    11
 71
     3
 72
    20
 73
    16
 74
     0
 42
0.0000000001
 43
0.0000000001
 40
0.0
 40
0.0
 40
0.0
 40
0.0
 40
1.0
 40
1.0
 40
1.0
 40
2.0
 40
2.0
 40
2.0
 40
3.0
 40
3.0
 40
3.0
 40
4.0
 40
4.0
 40
4.0
 40
5.0
 40
5.0
 40
5.0
 40
5.0
 10
358.4244614446821
 20
427.0621323259602
 30
0.0
 10
350.6922891375874
 20
427.0621323259602
 30
0.0
 10
344.4242824117238
 20
420.7941256000966
 30
0.0
 10
344.4242824117238
 20
413.0622978025504
 30
0.0
 10
344.4242824117238
 20
405.3301254954557
 30
0.0
 10
350.6922891375874
 20
399.0621187695921
 30
0.0
 10
358.4244614446821
 20
399.0621187695921
 30
0.0
 10
366.1562892422283
 20
399.0621187695921
 30
0.0
 10
372.4242959680919
 20
405.3301254954557
 30
0.0
 10
372.4242959680919
 20
413.0622978025504
 30
0.0
 10
372.4242959680919
 20
420.7941256000966
 30
0.0
 10
366.1562892422283
 20
427.0621323259602
 30
0.0
 10
358.4244614446821
 20
427.0621323259602
 30
0.0
 10
358.4244614446821
 20
427.0621323259602
 30
0.0
 10
358.4244614446821
 20
427.0621323259602
 30
0.0
 10
358.4244614446821
 20
427.0621323259602
 30
0.0
  0
SPLINE
  5
105
330
1F
100
AcDbEntity
  8
0
 62
     7
100
AcDbSpline
210
0.0
220
0.0
230
1.0
 70
    11
 71
     3
 72
    20
 73
    16
 74
     0
 42
0.0000000001
 43
0.0000000001
 40
0.0
 40
0.0
 40
0.0
 40
0.0
 40
1.0
 40
1.0
 40
1.0
 40
2.0
 40
2.0
 40
2.0
 40
3.0
 40
3.0
 40
3.0
 40
4.0
 40
4.0
 40
4.0
 40
5.0
 40
5.0
 40
5.0
 40
5.0
 10
366.4243176709808
 20
269.0709146462739
 30
0.0
 10
358.6924898734345
 20
269.0709146462739
 30
0.0
 10
352.424483147571
 20
262.8029079204104
 30
0.0
 10
352.424483147571
 20
255.0707356133157
 30
0.0
 10
352.424483147571
 20
247.339252325318
 30
0.0
 10
358.6924898734345
 20
241.0712455994544
 30
0.0
 10
366.4243176709808
 20
241.0712455994544
 30
0.0
 10
374.1564899780755
 20
241.0712455994544
 30
0.0
 10
380.424496703939
 20
247.339252325318
 30
0.0
 10
380.424496703939
 20
255.0707356133157
 30
0.0
 10
380.424496703939
 20
262.8029079204104
 30
0.0
 10
374.1564899780755
 20
269.0709146462739
 30
0.0
 10
366.4243176709808
 20
269.0709146462739
 30
0.0
 10
366.4243176709808
 20
269.0709146462739
 30
0.0
 10
366.4243176709808
 20
269.0709146462739
 30
0.0
 10
366.4243176709808
 20
269.0709146462739
 30
0.0
  0
SPLINE
  5
106
330
1F
100
AcDbEntity
  8
0
 62
     7
100
AcDbSpline
210
0.0
220
0.0
230
1.0
 70
    11
 71
     3
 72
    20
 73
    16
 74
     0
 42
0.0000000001
 43
0.0000000001
 40
0.0
 40
0.0
 40
0.0
 40
0.0
 40
1.0
 40
1.0
 40
1.0
 40
2.0
 40
2.0
 40
2.0
 40
3.0
 40
3.0
 40
3.0
 40
4.0
 40
4.0
 40
4.0
 40
5.0
 40
5.0
 40
5.0
 40
5.0
 10
366.4243176709808
 20
233.0710448636073
 30
0.0
 10
358.6924898734345
 20
233.0710448636073
 30
0.0
 10
352.424483147571
 20
226.8030381377437
 30
0.0
 10
352.424483147571
 20
219.070865830649
 30
0.0
 10
352.424483147571
 20
211.3390380331028
 30
0.0
 10
358.6924898734345
 20
205.0710313072392
 30
0.0
 10
366.4243176709808
 20
205.0710313072392
 30
0.0
 10
374.1564899780755
 20
205.0710313072392
 30
0.0
 10
380.424496703939
 20
211.3390380331028
 30
0.0
 10
380.424496703939
 20
219.070865830649
 30
0.0
 10
380.424496703939
 20
226.8030381377437
 30
0.0
 10
374.1564899780755
 20
233.0710448636073
 30
0.0
 10
366.4243176709808
 20
233.0710448636073
 30
0.0
 10
366.4243176709808
 20
233.0710448636073
 30
0.0
 10
366.4243176709808
 20
233.0710448636073
 30
0.0
 10
366.4243176709808
 20
233.0710448636073
 30
0.0
  0
SPLINE
  5
107
330
1F
100
AcDbEntity
  8
0
 62
     7
100
AcDbSpline
210
0.0
220
0.0
230
1.0
 70
    11
 71
     3
 72
    20
 73
    16
 74
     0
 42
0.0000000001
 43
0.0000000001
 40
0.0
 40
0.0
 40
0.0
 40
0.0
 40
1.0
 40
1.0
 40
1.0
 40
2.0
 40
2.0
 40
2.0
 40
3.0
 40
3.0
 40
3.0
 40
4.0
 40
4.0
 40
4.0
 40
5.0
 40
5.0
 40
5.0
 40
5.0
 10
383.4244858524946
 20
200.0708197199476
 30
0.0
 10
375.6923135453998
 20
200.0708197199476
 30
0.0
 10
369.4243068195363
 20
193.802812994084
 30
0.0
 10
369.4243068195363
 20
186.0709851965378
 30
0.0
 10
369.4243068195363
 20
178.3388128894431
 30
0.0
 10
375.6923135453998
 20
172.0708061635795
 30
0.0
 10
383.4244858524946
 20
172.0708061635795
 30
0.0
 10
391.1563136500408
 20
172.0708061635795
 30
0.0
 10
397.4243203759044
 20
178.3388128894431
 30
0.0
 10
397.4243203759044
 20
186.0709851965378
 30
0.0
 10
397.4243203759044
 20
193.802812994084
 30
0.0
 10
391.1563136500408
 20
200.0708197199476
 30
0.0
 10
383.4244858524946
 20
200.0708197199476
 30
0.0
 10
383.4244858524946
 20
200.0708197199476
 30
0.0
 10
383.4244858524946
 20
200.0708197199476
 30
0.0
 10
383.4244858524946
 20
200.0708197199476
 30
0.0
  0
SPLINE
  5
108
330
1F
100
AcDbEntity
  8
0
 62
     7
100
AcDbSpline
210
0.0
220
0.0
230
1.0
 70
    11
 71
     3
 72
    20
 73
    16
 74
     0
 42
0.0000000001
 43
0.0000000001
 40
0.0
 40
0.0
 40
0.0
 40
0.0
 40
1.0
 40
1.0
 40
1.0
 40
2.0
 40
2.0
 40
2.0
 40
3.0
 40
3.0
 40
3.0
 40
4.0
 40
4.0
 40
4.0
 40
5.0
 40
5.0
 40
5.0
 40
5.0
 10
397.4243203759044
 20
167.0709390858364
 30
0.0
 10
389.6924925783582
 20
167.0709390858364
 30
0.0
 10
383.4244858524946
 20
160.8029323599729
 30
0.0
 10
383.4244858524946
 20
153.0707600528781
 30
0.0
 10
383.4244858524946
 20
145.3389322553319
 30
0.0
 10
389.6924925783582
 20
139.0709255294684
 30
0.0
 10
397.4243203759044
 20
139.0709255294684
 30
0.0
 10
405.1564926829991
 20
139.0709255294684
 30
0.0
 10
411.4244994088626
 20
145.3389322553319
 30
0.0
 10
411.4244994088626
 20
153.0707600528781
 30
0.0
 10
411.4244994088626
 20
160.8029323599729
 30
0.0
 10
405.1564926829991
 20
167.0709390858364
 30
0.0
 10
397.4243203759044
 20
167.0709390858364
 30
0.0
 10
397.4243203759044
 20
167.0709390858364
 30
0.0
 10
397.4243203759044
 20
167.0709390858364
 30
0.0
 10
397.4243203759044
 20
167.0709390858364
 30
0.0
  0
SPLINE
  5
109
330
1F
100
AcDbEntity
  8
0
 62
     7
100
AcDbSpline
210
0.0
220
0.0
230
1.0
 70
    11
 71
     3
 72
    20
 73
    16
 74
     0
 42
0.0000000001
 43
0.0000000001
 40
0.0
 40
0.0
 40
0.0
 40
0.0
 40
1.0
 40
1.0
 40
1.0
 40
2.0
 40
2.0
 40
2.0
 40
3.0
 40
3.0
 40
3.0
 40
4.0
 40
4.0
 40
4.0
 40
5.0
 40
5.0
 40
5.0
 40
5.0
 10
330.424447888314
 20
269.0709146462739
 30
0.0
 10
322.6926200907678
 20
269.0709146462739
 30
0.0
 10
316.4246133649043
 20
262.8029079204104
 30
0.0
 10
316.4246133649043
 20
255.0707356133157
 30
0.0
 10
316.4246133649043
 20
247.339252325318
 30
0.0
 10
322.6926200907678
 20
241.0712455994544
 30
0.0
 10
330.424447888314
 20
241.0712455994544
 30
0.0
 10
338.1562756858602
 20
241.0712455994544
 30
0.0
 10
344.4242824117238
 20
247.339252325318
 30
0.0
 10
344.4242824117238
 20
255.0707356133157
 30
0.0
 10
344.4242824117238
 20
262.8029079204104
 30
0.0
 10
338.1562756858602
 20
269.0709146462739
 30
0.0
 10
330.424447888314
 20
269.0709146462739
 30
0.0
 10
330.424447888314
 20
269.0709146462739
 30
0.0
 10
330.424447888314
 20
269.0709146462739
 30
0.0
 10
330.424447888314
 20
269.0709146462739
 30
0.0
  0
SPLINE
  5
10A
330
1F
100
AcDbEntity
  8
0
 62
     7
100
AcDbSpline
210
0.0
220
0.0
230
1.0
 70
    11
 71
     3
 72
    20
 73
    16
 74
     0
 42
0.0000000001
 43
0.0000000001
 40
0.0
 40
0.0
 40
0.0
 40
0.0
 40
1.0
 40
1.0
 40
1.0
 40
2.0
 40
2.0
 40
2.0
 40
3.0
 40
3.0
 40
3.0
 40
4.0
 40
4.0
 40
4.0
 40
5.0
 40
5.0
 40
5.0
 40
5.0
 10
330.424447888314
 20
233.0710448636073
 30
0.0
 10
322.6926200907678
 20
233.0710448636073
 30
0.0
 10
316.4246133649043
 20
226.8030381377437
 30
0.0
 10
316.4246133649043
 20
219.070865830649
 30
0.0
 10
316.4246133649043
 20
211.3390380331028
 30
0.0
 10
322.6926200907678
 20
205.0710313072392
 30
0.0
 10
330.424447888314
 20
205.0710313072392
 30
0.0
 10
338.1562756858602
 20
205.0710313072392
 30
0.0
 10
344.4242824117238
 20
211.3390380331028
 30
0.0
 10
344.4242824117238
 20
219.070865830649
 30
0.0
 10
344.4242824117238
 20
226.8030381377437
 30
0.0
 10
338.1562756858602
 20
233.0710448636073
 30
0.0
 10
330.424447888314
 20
233.0710448636073
 30
0.0
 10
330.424447888314
 20
233.0710448636073
 30
0.0
 10
330.424447888314
 20
233.0710448636073
 30
0.0
 10
330.424447888314
 20
233.0710448636073
 30
0.0
  0
SPLINE
  5
10B
330
1F
100
AcDbEntity
  8
0
 62
     7
100
AcDbSpline
210
0.0
220
0.0
230
1.0
 70
    11
 71
     3
 72
    20
 73
    16
 74
     0
 42
0.0000000001
 43
0.0000000001
 40
0.0
 40
0.0
 40
0.0
 40
0.0
 40
1.0
 40
1.0
 40
1.0
 40
2.0
 40
2.0
 40
2.0
 40
3.0
 40
3.0
 40
3.0
 40
4.0
 40
4.0
 40
4.0
 40
5.0
 40
5.0
 40
5.0
 40
5.0
 10
344.4242824117238
 20
200.0708197199476
 30
0.0
 10
336.6924546141776
 20
200.0708197199476
 30
0.0
 10
330.424447888314
 20
193.802812994084
 30
0.0
 10
330.424447888314
 20
186.0709851965378
 30
0.0
 10
330.424447888314
 20
178.3388128894431
 30
0.0
 10
336.6924546141776
 20
172.0708061635795
 30
0.0
 10
344.4242824117238
 20
172.0708061635795
 30
0.0
 10
352.1564547188186
 20
172.0708061635795
 30
0.0
 10
358.4244614446821
 20
178.3388128894431
 30
0.0
 10
358.4244614446821
 20
186.0709851965378
 30
0.0
 10
358.4244614446821
 20
193.802812994084
 30
0.0
 10
352.1564547188186
 20
200.0708197199476
 30
0.0
 10
344.4242824117238
 20
200.0708197199476
 30
0.0
 10
344.4242824117238
 20
200.0708197199476
 30
0.0
 10
344.4242824117238
 20
200.0708197199476
 30
0.0
 10
344.4242824117238
 20
200.0708197199476
 30
0.0
  0
SPLINE
  5
10C
330
1F
100
AcDbEntity
  8
0
 62
     7
100
AcDbSpline
210
0.0
220
0.0
230
1.0
 70
    11
 71
     3
 72
    20
 73
    16
 74
     0
 42
0.0000000001
 43
0.0000000001
 40
0.0
 40
0.0
 40
0.0
 40
0.0
 40
1.0
 40
1.0
 40
1.0
 40
2.0
 40
2.0
 40
2.0
 40
3.0
 40
3.0
 40
3.0
 40
4.0
 40
4.0
 40
4.0
 40
5.0
 40
5.0
 40
5.0
 40
5.0
 10
358.4244614446821
 20
167.0709390858364
 30
0.0
 10
350.6922891375874
 20
167.0709390858364
 30
0.0
 10
344.4242824117238
 20
160.8029323599729
 30
0.0
 10
344.4242824117238
 20
153.0707600528781
 30
0.0
 10
344.4242824117238
 20
145.3389322553319
 30
0.0
 10
350.6922891375874
 20
139.0709255294684
 30
0.0
 10
358.4244614446821
 20
139.0709255294684
 30
0.0
 10
366.1562892422283
 20
139.0709255294684
 30
0.0
 10
372.4242959680919
 20
145.3389322553319
 30
0.0
 10
372.4242959680919
 20
153.0707600528781
 30
0.0
 10
372.4242959680919
 20
160.8029323599729
 30
0.0
 10
366.1562892422283
 20
167.0709390858364
 30
0.0
 10
358.4244614446821
 20
167.0709390858364
 30
0.0
 10
358.4244614446821
 20
167.0709390858364
 30
0.0
 10
358.4244614446821
 20
167.0709390858364
 30
0.0
 10
358.4244614446821
 20
167.0709390858364
 30
0.0
  0
SPLINE
  5
10D
330
1F
100
AcDbEntity
  8
0
 62
     7
100
AcDbSpline
210
0.0
220
0.0
230
1.0
 70
    11
 71
     3
 72
    20
 73
    16
 74
     0
 42
0.0000000001
 43
0.0000000001
 40
0.0
 40
0.0
 40
0.0
 40
0.0
 40
1.0
 40
1.0
 40
1.0
 40
2.0
 40
2.0
 40
2.0
 40
3.0
 40
3.0
 40
3.0
 40
4.0
 40
4.0
 40
4.0
 40
5.0
 40
5.0
 40
5.0
 40
5.0
 10
265.8998765068757
 20
368.5544202095107
 30
0.0
 10
258.1680487093295
 20
368.5544202095107
 30
0.0
 10
251.8998697286917
 20
362.2864134836472
 30
0.0
 10
251.8998697286917
 20
354.5545856861009
 30
0.0
 10
251.8998697286917
 20
346.8224133790062
 30
0.0
 10
258.1680487093295
 20
340.5544066531427
 30
0.0
 10
265.8998765068757
 20
340.5544066531427
 30
0.0
 10
273.6317043044219
 20
340.5544066531427
 30
0.0
 10
279.8997110302855
 20
346.8224133790062
 30
0.0
 10
279.8997110302855
 20
354.5545856861009
 30
0.0
 10
279.8997110302855
 20
362.2864134836472
 30
0.0
 10
273.6317043044219
 20
368.5544202095107
 30
0.0
 10
265.8998765068757
 20
368.5544202095107
 30
0.0
 10
265.8998765068757
 20
368.5544202095107
 30
0.0
 10
265.8998765068757
 20
368.5544202095107
 30
0.0
 10
265.8998765068757
 20
368.5544202095107
 30
0.0
  0
SPLINE
  5
10E
330
1F
100
AcDbEntity
  8
0
 62
     7
100
AcDbSpline
210
0.0
220
0.0
230
1.0
 70
    11
 71
     3
 72
    20
 73
    16
 74
     0
 42
0.0000000001
 43
0.0000000001
 40
0.0
 40
0.0
 40
0.0
 40
0.0
 40
1.0
 40
1.0
 40
1.0
 40
2.0
 40
2.0
 40
2.0
 40
3.0
 40
3.0
 40
3.0
 40
4.0
 40
4.0
 40
4.0
 40
5.0
 40
5.0
 40
5.0
 40
5.0
 10
265.8998765068757
 20
268.554494833035
 30
0.0
 10
258.1680487093295
 20
268.554494833035
 30
0.0
 10
251.8998697286917
 20
262.2864881071715
 30
0.0
 10
251.8998697286917
 20
254.5546603096252
 30
0.0
 10
251.8998697286917
 20
246.8224880025305
 30
0.0
 10
258.1680487093295
 20
240.5544812766669
 30
0.0
 10
265.8998765068757
 20
240.5544812766669
 30
0.0
 10
273.6317043044219
 20
240.5544812766669
 30
0.0
 10
279.8997110302855
 20
246.8224880025305
 30
0.0
 10
279.8997110302855
 20
254.5546603096252
 30
0.0
 10
279.8997110302855
 20
262.2864881071715
 30
0.0
 10
273.6317043044219
 20
268.554494833035
 30
0.0
 10
265.8998765068757
 20
268.554494833035
 30
0.0
 10
265.8998765068757
 20
268.554494833035
 30
0.0
 10
265.8998765068757
 20
268.554494833035
 30
0.0
 10
265.8998765068757
 20
268.554494833035
 30
0.0
  0
POLYLINE
  5
10F
330
1F
100
AcDbEntity
  8
0
 62
     7
100
AcDb2dPolyline
 66
     1
 10
0.0
 20
0.0
 30
0.0
  0
VERTEX
  5
110
330
10F
100
AcDbEntity
  8
0
 62
     7
100
AcDbVertex
100
AcDb2dVertex
 10
343.8999388788688
 20
563.554403884719
 30
0.0
  0
VERTEX
  5
111
330
10F
100
AcDbEntity
  8
0
 62
     7
100
AcDbVertex
100
AcDb2dVertex
 10
343.8999388788688
 20
569.5547266913787
 30
0.0
  0
SEQEND
  5
112
330
10F
100
AcDbEntity
  8
0
  0
POLYLINE
  5
113
330
1F
100
AcDbEntity
  8
0
 62
     7
100
AcDb2dPolyline
 66
     1
 10
0.0
 20
0.0
 30
0.0
  0
VERTEX
  5
114
330
113
100
AcDbEntity
  8
0
 62
     7
100
AcDbVertex
100
AcDb2dVertex
 10
298.9001016505354
 20
563.554403884719
 30
0.0
  0
VERTEX
  5
115
330
113
100
AcDbEntity
  8
0
 62
     7
100
AcDbVertex
100
AcDb2dVertex
 10
343.8999388788688
 20
563.554403884719
 30
0.0
  0
SEQEND
  5
116
330
113
100
AcDbEntity
  8
0
  0
POLYLINE
  5
117
330
1F
100
AcDbEntity
  8
0
 62
     7
100
AcDb2dPolyline
 66
     1
 10
0.0
 20
0.0
 30
0.0
  0
VERTEX
  5
118
330
117
100
AcDbEntity
  8
0
 62
     7
100
AcDbVertex
100
AcDb2dVertex
 10
298.9001016505354
 20
569.5547266913787
 30
0.0
  0
VERTEX
  5
119
330
117
100
AcDbEntity
  8
0
 62
     7
100
AcDbVertex
100
AcDb2dVertex
 10
298.9001016505354
 20
563.554403884719
 30
0.0
  0
SEQEND
  5
11A
330
117
100
AcDbEntity
  8
0
  0
POLYLINE
  5
11B
330
1F
100
AcDbEntity
  8
0
 62
     7
100
AcDb2dPolyline
 66
     1
 10
0.0
 20
0.0
 30
0.0
  0
VERTEX
  5
11C
330
11B
100
AcDbEntity
  8
0
 62
     7
100
AcDbVertex
100
AcDb2dVertex
 10
343.8999388788688
 20
569.5547266913787
 30
0.0
  0
VERTEX
  5
11D
330
11B
100
AcDbEntity
  8
0
 62
     7
100
AcDbVertex
100
AcDb2dVertex
 10
298.9001016505354
 20
569.5547266913787
 30
0.0
  0
SEQEND
  5
11E
330
11B
100
AcDbEntity
  8
0
  0
POLYLINE
  5
11F
330
1F
100
AcDbEntity
  8
0
 62
     7
100
AcDb2dPolyline
 66
     1
 10
0.0
 20
0.0
 30
0.0
  0
VERTEX
  5
120
330
11F
100
AcDbEntity
  8
0
 62
     7
100
AcDbVertex
100
AcDb2dVertex
 10
406.3998276436258
 20
39.55451930434748
 30
0.0
  0
VERTEX
  5
121
330
11F
100
AcDbEntity
  8
0
 62
     7
100
AcDbVertex
100
AcDb2dVertex
 10
406.3998276436258
 20
45.5544976014586
 30
0.0
  0
SEQEND
  5
122
330
11F
100
AcDbEntity
  8
0
  0
POLYLINE
  5
123
330
1F
100
AcDbEntity
  8
0
 62
     7
100
AcDb2dPolyline
 66
     1
 10
0.0
 20
0.0
 30
0.0
  0
VERTEX
  5
124
330
123
100
AcDbEntity
  8
0
 62
     7
100
AcDbVertex
100
AcDb2dVertex
 10
361.3999904152924
 20
39.55451930434748
 30
0.0
  0
VERTEX
  5
125
330
123
100
AcDbEntity
  8
0
 62
     7
100
AcDbVertex
100
AcDb2dVertex
 10
406.3998276436258
 20
39.55451930434748
 30
0.0
  0
SEQEND
  5
126
330
123
100
AcDbEntity
  8
0
  0
POLYLINE
  5
127
330
1F
100
AcDbEntity
  8
0
 62
     7
100
AcDb2dPolyline
 66
     1
 10
0.0
 20
0.0
 30
0.0
  0
VERTEX
  5
128
330
127
100
AcDbEntity
  8
0
 62
     7
100
AcDbVertex
100
AcDb2dVertex
 10
361.3999904152924
 20
45.5544976014586
 30
0.0
  0
VERTEX
  5
129
330
127
100
AcDbEntity
  8
0
 62
     7
100
AcDbVertex
100
AcDb2dVertex
 10
361.3999904152924
 20
39.55451930434748
 30
0.0
  0
SEQEND
  5
12A
330
127
100
AcDbEntity
  8
0
  0
POLYLINE
  5
12B
330
1F
100
AcDbEntity
  8
0
 62
     7
100
AcDb2dPolyline
 66
     1
 10
0.0
 20
0.0
 30
0.0
  0
VERTEX
  5
12C
330
12B
100
AcDbEntity
  8
0
 62
     7
100
AcDbVertex
100
AcDb2dVertex
 10
406.3998276436258
 20
45.5544976014586
 30
0.0
  0
VERTEX
  5
12D
330
12B
100
AcDbEntity
  8
0
 62
     7
100
AcDbVertex
100
AcDb2dVertex
 10
361.3999904152924
 20
45.5544976014586
 30
0.0
  0
SEQEND
  5
12E
330
12B
100
AcDbEntity
  8
0
  0
POLYLINE
  5
12F
330
1F
100
AcDbEntity
  8
0
 62
     7
100
AcDb2dPolyline
 66
     1
 10
0.0
 20
0.0
 30
0.0
  0
VERTEX
  5
130
330
12F
100
AcDbEntity
  8
0
 62
     7
100
AcDbVertex
100
AcDb2dVertex
 10
235.8999850213202
 20
29.55444063931278
 30
0.0
  0
VERTEX
  5
131
330
12F
100
AcDbEntity
  8
0
 62
     7
100
AcDbVertex
100
AcDb2dVertex
 10
463.9000215854139
 20
29.55444063931278
 30
0.0
  0
SEQEND
  5
132
330
12F
100
AcDbEntity
  8
0
  0
POLYLINE
  5
133
330
1F
100
AcDbEntity
  8
0
 62
     7
100
AcDb2dPolyline
 66
     1
 10
0.0
 20
0.0
 30
0.0
  0
VERTEX
  5
134
330
133
100
AcDbEntity
  8
0
 62
     7
100
AcDbVertex
100
AcDb2dVertex
 10
463.9000215854139
 20
29.55444063931278
 30
0.0
  0
VERTEX
  5
135
330
133
100
AcDbEntity
  8
0
 62
     7
100
AcDbVertex
100
AcDb2dVertex
 10
463.9000215854139
 20
39.55451930434748
 30
0.0
  0
SEQEND
  5
136
330
133
100
AcDbEntity
  8
0
  0
POLYLINE
  5
137
330
1F
100
AcDbEntity
  8
0
 62
     7
100
AcDb2dPolyline
 66
     1
 10
0.0
 20
0.0
 30
0.0
  0
VERTEX
  5
138
330
137
100
AcDbEntity
  8
0
 62
     7
100
AcDbVertex
100
AcDb2dVertex
 10
463.9000215854139
 20
39.55451930434748
 30
0.0
  0
VERTEX
  5
139
330
137
100
AcDbEntity
  8
0
 62
     7
100
AcDbVertex
100
AcDb2dVertex
 10
423.8998791800494
 20
39.55451930434748
 30
0.0
  0
SEQEND
  5
13A
330
137
100
AcDbEntity
  8
0
  0
POLYLINE
  5
13B
330
1F
100
AcDbEntity
  8
0
 62
     7
100
AcDb2dPolyline
 66
     1
 10
0.0
 20
0.0
 30
0.0
  0
VERTEX
  5
13C
330
13B
100
AcDbEntity
  8
0
 62
     7
100
AcDbVertex
100
AcDb2dVertex
 10
423.8998791800494
 20
39.55451930434748
 30
0.0
  0
VERTEX
  5
13D
330
13B
100
AcDbEntity
  8
0
 62
     7
100
AcDbVertex
100
AcDb2dVertex
 10
423.8998791800494
 20
45.5544976014586
 30
0.0
  0
SEQEND
  5
13E
330
13B
100
AcDbEntity
  8
0
  0
POLYLINE
  5
13F
330
1F
100
AcDbEntity
  8
0
 62
     7
100
AcDb2dPolyline
 66
     1
 10
0.0
 20
0.0
 30
0.0
  0
VERTEX
  5
140
330
13F
100
AcDbEntity
  8
0
 62
     7
100
AcDbVertex
100
AcDb2dVertex
 10
423.8998791800494
 20
45.5544976014586
 30
0.0
  0
VERTEX
  5
141
330
13F
100
AcDbEntity
  8
0
 62
     7
100
AcDbVertex
100
AcDb2dVertex
 10
463.9000215854139
 20
45.5544976014586
 30
0.0
  0
SEQEND
  5
142
330
13F
100
AcDbEntity
  8
0
  0
POLYLINE
  5
143
330
1F
100
AcDbEntity
  8
0
 62
     7
100
AcDb2dPolyline
 66
     1
 10
0.0
 20
0.0
 30
0.0
  0
VERTEX
  5
144
330
143
100
AcDbEntity
  8
0
 62
     7
100
AcDbVertex
100
AcDb2dVertex
 10
463.9000215854139
 20
45.5544976014586
 30
0.0
  0
VERTEX
  5
145
330
143
100
AcDbEntity
  8
0
 62
     7
100
AcDbVertex
100
AcDb2dVertex
 10
463.9000215854139
 20
563.554403884719
 30
0.0
  0
SEQEND
  5
146
330
143
100
AcDbEntity
  8
0
  0
POLYLINE
  5
147
330
1F
100
AcDbEntity
  8
0
 62
     7
100
AcDb2dPolyline
 66
     1
 10
0.0
 20
0.0
 30
0.0
  0
VERTEX
  5
148
330
147
100
AcDbEntity
  8
0
 62
     7
100
AcDbVertex
100
AcDb2dVertex
 10
463.9000215854139
 20
563.554403884719
 30
0.0
  0
VERTEX
  5
149
330
147
100
AcDbEntity
  8
0
 62
     7
100
AcDbVertex
100
AcDb2dVertex
 10
423.8998791800494
 20
563.554403884719
 30
0.0
  0
SEQEND
  5
14A
330
147
100
AcDbEntity
  8
0
  0
POLYLINE
  5
14B
330
1F
100
AcDbEntity
  8
0
 62
     7
100
AcDb2dPolyline
 66
     1
 10
0.0
 20
0.0
 30
0.0
  0
VERTEX
  5
14C
330
14B
100
AcDbEntity
  8
0
 62
     7
100
AcDbVertex
100
AcDb2dVertex
 10
423.8998791800494
 20
563.554403884719
 30
0.0
  0
VERTEX
  5
14D
330
14B
100
AcDbEntity
  8
0
 62
     7
100
AcDbVertex
100
AcDb2dVertex
 10
423.8998791800494
 20
569.5547266913787
 30
0.0
  0
SEQEND
  5
14E
330
14B
100
AcDbEntity
  8
0
  0
POLYLINE
  5
14F
330
1F
100
AcDbEntity
  8
0
 62
     7
100
AcDb2dPolyline
 66
     1
 10
0.0
 20
0.0
 30
0.0
  0
VERTEX
  5
150
330
14F
100
AcDbEntity
  8
0
 62
     7
100
AcDbVertex
100
AcDb2dVertex
 10
423.8998791800494
 20
569.5547266913787
 30
0.0
  0
VERTEX
  5
151
330
14F
100
AcDbEntity
  8
0
 62
     7
100
AcDbVertex
100
AcDb2dVertex
 10
463.9000215854139
 20
569.5547266913787
 30
0.0
  0
SEQEND
  5
152
330
14F
100
AcDbEntity
  8
0
  0
POLYLINE
  5
153
330
1F
100
AcDbEntity
  8
0
 62
     7
100
AcDb2dPolyline
 66
     1
 10
0.0
 20
0.0
 30
0.0
  0
VERTEX
  5
154
330
153
100
AcDbEntity
  8
0
 62
     7
100
AcDbVertex
100
AcDb2dVertex
 10
463.9000215854139
 20
569.5547266913787
 30
0.0
  0
VERTEX
  5
155
330
153
100
AcDbEntity
  8
0
 62
     7
100
AcDbVertex
100
AcDb2dVertex
 10
463.9000215854139
 20
579.5544608468649
 30
0.0
  0
SEQEND
  5
156
330
153
100
AcDbEntity
  8
0
  0
POLYLINE
  5
157
330
1F
100
AcDbEntity
  8
0
 62
     7
100
AcDb2dPolyline
 66
     1
 10
0.0
 20
0.0
 30
0.0
  0
VERTEX
  5
158
330
157
100
AcDbEntity
  8
0
 62
     7
100
AcDbVertex
100
AcDb2dVertex
 10
463.9000215854139
 20
579.5544608468649
 30
0.0
  0
VERTEX
  5
159
330
157
100
AcDbEntity
  8
0
 62
     7
100
AcDbVertex
100
AcDb2dVertex
 10
235.8999850213202
 20
579.5544608468649
 30
0.0
  0
SEQEND
  5
15A
330
157
100
AcDbEntity
  8
0
  0
POLYLINE
  5
15B
330
1F
100
AcDbEntity
  8
0
 62
     7
100
AcDb2dPolyline
 66
     1
 10
0.0
 20
0.0
 30
0.0
  0
VERTEX
  5
15C
330
15B
100
AcDbEntity
  8
0
 62
     7
100
AcDbVertex
100
AcDb2dVertex
 10
235.8999850213202
 20
579.5544608468649
 30
0.0
  0
VERTEX
  5
15D
330
15B
100
AcDbEntity
  8
0
 62
     7
100
AcDbVertex
100
AcDb2dVertex
 10
235.8999850213202
 20
569.5547266913787
 30
0.0
  0
SEQEND
  5
15E
330
15B
100
AcDbEntity
  8
0
  0
POLYLINE
  5
15F
330
1F
100
AcDbEntity
  8
0
 62
     7
100
AcDb2dPolyline
 66
     1
 10
0.0
 20
0.0
 30
0.0
  0
VERTEX
  5
160
330
15F
100
AcDbEntity
  8
0
 62
     7
100
AcDbVertex
100
AcDb2dVertex
 10
235.8999850213202
 20
569.5547266913787
 30
0.0
  0
VERTEX
  5
161
330
15F
100
AcDbEntity
  8
0
 62
     7
100
AcDbVertex
100
AcDb2dVertex
 10
281.3997056045633
 20
569.5547266913787
 30
0.0
  0
SEQEND
  5
162
330
15F
100
AcDbEntity
  8
0
  0
POLYLINE
  5
163
330
1F
100
AcDbEntity
  8
0
 62
     7
100
AcDb2dPolyline
 66
     1
 10
0.0
 20
0.0
 30
0.0
  0
VERTEX
  5
164
330
163
100
AcDbEntity
  8
0
 62
     7
100
AcDbVertex
100
AcDb2dVertex
 10
281.3997056045633
 20
569.5547266913787
 30
0.0
  0
VERTEX
  5
165
330
163
100
AcDbEntity
  8
0
 62
     7
100
AcDbVertex
100
AcDb2dVertex
 10
281.3997056045633
 20
563.554403884719
 30
0.0
  0
SEQEND
  5
166
330
163
100
AcDbEntity
  8
0
  0
POLYLINE
  5
167
330
1F
100
AcDbEntity
  8
0
 62
     7
100
AcDb2dPolyline
 66
     1
 10
0.0
 20
0.0
 30
0.0
  0
VERTEX
  5
168
330
167
100
AcDbEntity
  8
0
 62
     7
100
AcDbVertex
100
AcDb2dVertex
 10
281.3997056045633
 20
563.554403884719
 30
0.0
  0
VERTEX
  5
169
330
167
100
AcDbEntity
  8
0
 62
     7
100
AcDbVertex
100
AcDb2dVertex
 10
235.8999850213202
 20
563.554403884719
 30
0.0
  0
SEQEND
  5
16A
330
167
100
AcDbEntity
  8
0
  0
POLYLINE
  5
16B
330
1F
100
AcDbEntity
  8
0
 62
     7
100
AcDb2dPolyline
 66
     1
 10
0.0
 20
0.0
 30
0.0
  0
VERTEX
  5
16C
330
16B
100
AcDbEntity
  8
0
 62
     7
100
AcDbVertex
100
AcDb2dVertex
 10
235.8999850213202
 20
563.554403884719
 30
0.0
  0
VERTEX
  5
16D
330
16B
100
AcDbEntity
  8
0
 62
     7
100
AcDbVertex
100
AcDb2dVertex
 10
235.8999850213202
 20
45.5544976014586
 30
0.0
  0
SEQEND
  5
16E
330
16B
100
AcDbEntity
  8
0
  0
POLYLINE
  5
16F
330
1F
100
AcDbEntity
  8
0
 62
     7
100
AcDb2dPolyline
 66
     1
 10
0.0
 20
0.0
 30
0.0
  0
VERTEX
  5
170
330
16F
100
AcDbEntity
  8
0
 62
     7
100
AcDbVertex
100
AcDb2dVertex
 10
235.8999850213202
 20
45.5544976014586
 30
0.0
  0
VERTEX
  5
171
330
16F
100
AcDbEntity
  8
0
 62
     7
100
AcDbVertex
100
AcDb2dVertex
 10
281.3997056045633
 20
45.5544976014586
 30
0.0
  0
SEQEND
  5
172
330
16F
100
AcDbEntity
  8
0
  0
POLYLINE
  5
173
330
1F
100
AcDbEntity
  8
0
 62
     7
100
AcDb2dPolyline
 66
     1
 10
0.0
 20
0.0
 30
0.0
  0
VERTEX
  5
174
330
173
100
AcDbEntity
  8
0
 62
     7
100
AcDbVertex
100
AcDb2dVertex
 10
281.3997056045633
 20
45.5544976014586
 30
0.0
  0
VERTEX
  5
175
330
173
100
AcDbEntity
  8
0
 62
     7
100
AcDbVertex
100
AcDb2dVertex
 10
281.3997056045633
 20
39.55451930434748
 30
0.0
  0
SEQEND
  5
176
330
173
100
AcDbEntity
  8
0
  0
POLYLINE
  5
177
330
1F
100
AcDbEntity
  8
0
 62
     7
100
AcDb2dPolyline
 66
     1
 10
0.0
 20
0.0
 30
0.0
  0
VERTEX
  5
178
330
177
100
AcDbEntity
  8
0
 62
     7
100
AcDbVertex
100
AcDb2dVertex
 10
281.3997056045633
 20
39.55451930434748
 30
0.0
  0
VERTEX
  5
179
330
177
100
AcDbEntity
  8
0
 62
     7
100
AcDbVertex
100
AcDb2dVertex
 10
235.8999850213202
 20
39.55451930434748
 30
0.0
  0
SEQEND
  5
17A
330
177
100
AcDbEntity
  8
0
  0
POLYLINE
  5
17B
330
1F
100
AcDbEntity
  8
0
 62
     7
100
AcDb2dPolyline
 66
     1
 10
0.0
 20
0.0
 30
0.0
  0
VERTEX
  5
17C
330
17B
100
AcDbEntity
  8
0
 62
     7
100
AcDbVertex
100
AcDb2dVertex
 10
235.8999850213202
 20
39.55451930434748
 30
0.0
  0
VERTEX
  5
17D
330
17B
100
AcDbEntity
  8
0
 62
     7
100
AcDbVertex
100
AcDb2dVertex
 10
235.8999850213202
 20
29.55444063931278
 30
0.0
  0
SEQEND
  5
17E
330
17B
100
AcDbEntity
  8
0
  0
POLYLINE
  5
17F
330
1F
100
AcDbEntity
  8
0
 62
     7
100
AcDb2dPolyline
 66
     1
 10
0.0
 20
0.0
 30
0.0
  0
VERTEX
  5
180
330
17F
100
AcDbEntity
  8
0
 62
     7
100
AcDbVertex
100
AcDb2dVertex
 10
343.8999388788688
 20
39.55451930434748
 30
0.0
  0
VERTEX
  5
181
330
17F
100
AcDbEntity
  8
0
 62
     7
100
AcDbVertex
100
AcDb2dVertex
 10
343.8999388788688
 20
45.5544976014586
 30
0.0
  0
SEQEND
  5
182
330
17F
100
AcDbEntity
  8
0
  0
POLYLINE
  5
183
330
1F
100
AcDbEntity
  8
0
 62
     7
100
AcDb2dPolyline
 66
     1
 10
0.0
 20
0.0
 30
0.0
  0
VERTEX
  5
184
330
183
100
AcDbEntity
  8
0
 62
     7
100
AcDbVertex
100
AcDb2dVertex
 10
298.9001016505354
 20
39.55451930434748
 30
0.0
  0
VERTEX
  5
185
330
183
100
AcDbEntity
  8
0
 62
     7
100
AcDbVertex
100
AcDb2dVertex
 10
343.8999388788688
 20
39.55451930434748
 30
0.0
  0
SEQEND
  5
186
330
183
100
AcDbEntity
  8
0
  0
POLYLINE
  5
187
330
1F
100
AcDbEntity
  8
0
 62
     7
100
AcDb2dPolyline
 66
     1
 10
0.0
 20
0.0
 30
0.0
  0
VERTEX
  5
188
330
187
100
AcDbEntity
  8
0
 62
     7
100
AcDbVertex
100
AcDb2dVertex
 10
298.9001016505354
 20
45.5544976014586
 30
0.0
  0
VERTEX
  5
189
330
187
100
AcDbEntity
  8
0
 62
     7
100
AcDbVertex
100
AcDb2dVertex
 10
298.9001016505354
 20
39.55451930434748
 30
0.0
  0
SEQEND
  5
18A
330
187
100
AcDbEntity
  8
0
  0
POLYLINE
  5
18B
330
1F
100
AcDbEntity
  8
0
 62
     7
100
AcDb2dPolyline
 66
     1
 10
0.0
 20
0.0
 30
0.0
  0
VERTEX
  5
18C
330
18B
100
AcDbEntity
  8
0
 62
     7
100
AcDbVertex
100
AcDb2dVertex
 10
343.8999388788688
 20
45.5544976014586
 30
0.0
  0
VERTEX
  5
18D
330
18B
100
AcDbEntity
  8
0
 62
     7
100
AcDbVertex
100
AcDb2dVertex
 10
298.9001016505354
 20
45.5544976014586
 30
0.0
  0
SEQEND
  5
18E
330
18B
100
AcDbEntity
  8
0
  0
POLYLINE
  5
18F
330
1F
100
AcDbEntity
  8
0
 62
     7
100
AcDb2dPolyline
 66
     1
 10
0.0
 20
0.0
 30
0.0
  0
VERTEX
  5
190
330
18F
100
AcDbEntity
  8
0
 62
     7
100
AcDbVertex
100
AcDb2dVertex
 10
406.3998276436258
 20
563.554403884719
 30
0.0
  0
VERTEX
  5
191
330
18F
100
AcDbEntity
  8
0
 62
     7
100
AcDbVertex
100
AcDb2dVertex
 10
406.3998276436258
 20
569.5547266913787
 30
0.0
  0
SEQEND
  5
192
330
18F
100
AcDbEntity
  8
0
  0
POLYLINE
  5
193
330
1F
100
AcDbEntity
  8
0
 62
     7
100
AcDb2dPolyline
 66
     1
 10
0.0
 20
0.0
 30
0.0
  0
VERTEX
  5
194
330
193
100
AcDbEntity
  8
0
 62
     7
100
AcDbVertex
100
AcDb2dVertex
 10
361.3999904152924
 20
563.554403884719
 30
0.0
  0
VERTEX
  5
195
330
193
100
AcDbEntity
  8
0
 62
     7
100
AcDbVertex
100
AcDb2dVertex
 10
406.3998276436258
 20
563.554403884719
 30
0.0
  0
SEQEND
  5
196
330
193
100
AcDbEntity
  8
0
  0
POLYLINE
  5
197
330
1F
100
AcDbEntity
  8
0
 62
     7
100
AcDb2dPolyline
 66
     1
 10
0.0
 20
0.0
 30
0.0
  0
VERTEX
  5
198
330
197
100
AcDbEntity
  8
0
 62
     7
100
AcDbVertex
100
AcDb2dVertex
 10
361.3999904152924
 20
569.5547266913787
 30
0.0
  0
VERTEX
  5
199
330
197
100
AcDbEntity
  8
0
 62
     7
100
AcDbVertex
100
AcDb2dVertex
 10
361.3999904152924
 20
563.554403884719
 30
0.0
  0
SEQEND
  5
19A
330
197
100
AcDbEntity
  8
0
  0
POLYLINE
  5
19B
330
1F
100
AcDbEntity
  8
0
 62
     7
100
AcDb2dPolyline
 66
     1
 10
0.0
 20
0.0
 30
0.0
  0
VERTEX
  5
19C
330
19B
100
AcDbEntity
  8
0
 62
     7
100
AcDbVertex
100
AcDb2dVertex
 10
406.3998276436258
 20
569.5547266913787
 30
0.0
  0
VERTEX
  5
19D
330
19B
100
AcDbEntity
  8
0
 62
     7
100
AcDbVertex
100
AcDb2dVertex
 10
361.3999904152924
 20
569.5547266913787
 30
0.0
  0
SEQEND
  5
19E
330
19B
100
AcDbEntity
  8
0
  0
ENDSEC
  0
SECTION
  2
OBJECTS
  0
DICTIONARY
  5
C
330
0
100
AcDbDictionary
  3
ACAD_GROUP
350
D
  3
ACAD_LAYOUT
350
1A
  3
ACAD_MLINESTYLE
350
17
  3
ACAD_PLOTSETTINGS
350
19
  3
ACAD_TABLESTYLE
350
19F
  3
ACAD_VISUALSTYLE
350
2A
1001
ACAD
1000
TREAT_AS_HARD
1070
     0
  0
DICTIONARY
  5
D
102
{ACAD_REACTORS
330
C
102
}
330
C
100
AcDbDictionary
1001
ACAD
1000
TREAT_AS_HARD
1070
     0
  0
DICTIONARY
  5
1A
102
{ACAD_REACTORS
330
C
102
}
330
C
100
AcDbDictionary
1001
ACAD
1000
TREAT_AS_HARD
1070
     0
  0
DICTIONARY
  5
17
102
{ACAD_REACTORS
330
C
102
}
330
C
100
AcDbDictionary
  3
STANDARD
350
18
1001
ACAD
1000
TREAT_AS_HARD
1070
     0
  0
DICTIONARY
  5
19
102
{ACAD_REACTORS
330
C
102
}
330
C
100
AcDbDictionary
1001
ACAD
1000
TREAT_AS_HARD
1070
     0
  0
DICTIONARY
  5
19F
102
{ACAD_REACTORS
330
C
102
}
330
C
100
AcDbDictionary
1001
ACAD
1000
TREAT_AS_HARD
1070
     0
  0
DICTIONARY
  5
2A
102
{ACAD_REACTORS
330
C
102
}
330
C
100
AcDbDictionary
  3
2DWIREFRAME
350
2F
  3
3D_HIDDEN
350
31
  3
3DWIREFRAME
350
30
  3
BASIC
350
32
  3
BRIGHTEN
350
36
  3
COLORCHANGE
350
3A
  3
CONCEPTUAL
350
34
  3
DIM
350
35
  3
FACEPATTERN
350
39
  3
FLAT
350
2B
  3
FLATWITHEDGES
350
2C
  3
GOURAUD
350
2D
  3
GOURAUDWITHEDGES
350
2E
  3
LINEPATTERN
350
38
  3
REALISTIC
350
33
  3
THICKEN
350
37
1001
ACAD
1000
TREAT_AS_HARD
1070
     0
  0
MLINESTYLE
  5
18
102
{ACAD_REACTORS
330
17
102
}
330
17
100
AcDbMlineStyle
  2
Standard
 70
     0
  3

 62
   256
 51
90.0
 52
90.0
 71
     2
 49
0.5
 62
   256
  6
BYLAYER
 49
-0.5
 62
   256
  6
BYLAYER
  0
VISUALSTYLE
  5
2F
102
{ACAD_REACTORS
330
2A
102
}
330
2A
100
AcDbVisualStyle
  2
2dWireframe
 70
     4
 71
     0
 72
     2
 73
     0
 90
        0
 40
-0.6
 41
-30.0
 62
     5
 63
     7
 74
     1
 91
        4
 64
     7
 65
   257
 75
     1
175
     1
 42
1.0
 92
        0
 66
   257
 43
1.0
 76
     1
 77
     6
 78
     2
 67
     7
 79
     5
170
     0
171
     0
290
     0
174
     0
 93
        1
 44
0.0
173
     0
291
     0
 45
0.0
1001
ACAD
1000
AcDbSavedByObjectVersion
1070
     0
  0
VISUALSTYLE
  5
31
102
{ACAD_REACTORS
330
2A
102
}
330
2A
100
AcDbVisualStyle
  2
3D Hidden
 70
     6
 71
     1
 72
     2
 73
     2
 90
        0
 40
-0.6
 41
-30.0
 62
     5
 63
     7
 74
     2
 91
        2
 64
     7
 65
   257
 75
     2
175
     1
 42
40.0
 92
        0
 66
   257
 43
1.0
 76
     1
 77
     6
 78
     2
 67
     7
 79
     3
170
     0
171
     0
290
     0
174
     0
 93
        1
 44
0.0
173
     0
291
     0
 45
0.0
1001
ACAD
1000
AcDbSavedByObjectVersion
1070
     0
  0
VISUALSTYLE
  5
30
102
{ACAD_REACTORS
330
2A
102
}
330
2A
100
AcDbVisualStyle
  2
3dWireframe
 70
     5
 71
     0
 72
     2
 73
     0
 90
        0
 40
-0.6
 41
-30.0
 62
     5
 63
     7
 74
     1
 91
        4
 64
     7
 65
   257
 75
     1
175
     1
 42
1.0
 92
        0
 66
   257
 43
1.0
 76
     1
 77
     6
 78
     2
 67
     7
 79
     5
170
     0
171
     0
290
     0
174
     0
 93
        1
 44
0.0
173
     0
291
     0
 45
0.0
1001
ACAD
1000
AcDbSavedByObjectVersion
1070
     0
  0
VISUALSTYLE
  5
32
102
{ACAD_REACTORS
330
2A
102
}
330
2A
100
AcDbVisualStyle
  2
Basic
 70
     7
 71
     1
 72
     0
 73
     1
 90
        0
 40
-0.6
 41
-30.0
 62
     5
 63
     7
 74
     0
 91
        4
 64
     7
 65
   257
 75
     1
175
     1
 42
1.0
 92
        8
 66
     7
 43
1.0
 76
     1
 77
     6
 78
     2
 67
     7
 79
     5
170
     0
171
     0
290
     0
174
     0
 93
        1
 44
0.0
173
     0
291
     1
 45
0.0
1001
ACAD
1000
AcDbSavedByObjectVersion
1070
     0
  0
VISUALSTYLE
  5
36
102
{ACAD_REACTORS
330
2A
102
}
330
2A
100
AcDbVisualStyle
  2
Brighten
 70
    12
 71
     2
 72
     2
 73
     0
 90
        0
 40
-0.6
 41
-30.0
 62
     5
 63
     7
 74
     1
 91
        4
 64
     7
 65
   257
 75
     1
175
     1
 42
1.0
 92
        8
 66
     7
 43
1.0
 76
     1
 77
     6
 78
     2
 67
     7
 79
     5
170
     0
171
     0
290
     0
174
     0
 93
        1
 44
50.0
173
     0
291
     1
 45
0.0
1001
ACAD
1000
AcDbSavedByObjectVersion
1070
     0
  0
VISUALSTYLE
  5
3A
102
{ACAD_REACTORS
330
2A
102
}
330
2A
100
AcDbVisualStyle
  2
ColorChange
 70
    16
 71
     2
 72
     2
 73
     3
 90
        0
 40
-0.6
 41
-30.0
 62
     5
 63
     8
 74
     1
 91
        4
 64
     7
 65
   257
 75
     1
175
     1
 42
1.0
 92
        8
 66
     8
 43
1.0
 76
     1
 77
     6
 78
     2
 67
     7
 79
     5
170
     0
171
     0
290
     0
174
     0
 93
        1
 44
0.0
173
     0
291
     1
 45
0.0
1001
ACAD
1000
AcDbSavedByObjectVersion
1070
     0
  0
VISUALSTYLE
  5
34
102
{ACAD_REACTORS
330
2A
102
}
330
2A
100
AcDbVisualStyle
  2
Conceptual
 70
     9
 71
     3
 72
     2
 73
     0
 90
        0
 40
-0.6
 41
-30.0
 62
     5
 63
     7
 74
     2
 91
        2
 64
     7
 65
   257
 75
     1
175
     1
 42
40.0
 92
        8
 66
     7
 43
1.0
 76
     1
 77
     6
 78
     2
 67
     7
 79
     3
170
     0
171
     0
290
     0
174
     0
 93
        1
 44
0.0
173
     0
291
     0
 45
0.0
1001
ACAD
1000
AcDbSavedByObjectVersion
1070
     0
  0
VISUALSTYLE
  5
35
102
{ACAD_REACTORS
330
2A
102
}
330
2A
100
AcDbVisualStyle
  2
Dim
 70
    11
 71
     2
 72
     2
 73
     0
 90
        0
 40
-0.6
 41
-30.0
 62
     5
 63
     7
 74
     1
 91
        4
 64
     7
 65
   257
 75
     1
175
     1
 42
1.0
 92
        8
 66
     7
 43
1.0
 76
     1
 77
     6
 78
     2
 67
     7
 79
     5
170
     0
171
     0
290
     0
174
     0
 93
        1
 44
-50.0
173
     0
291
     1
 45
0.0
1001
ACAD
1000
AcDbSavedByObjectVersion
1070
     0
  0
VISUALSTYLE
  5
39
102
{ACAD_REACTORS
330
2A
102
}
330
2A
100
AcDbVisualStyle
  2
Facepattern
 70
    15
 71
     2
 72
     2
 73
     0
 90
        0
 40
-0.6
 41
-30.0
 62
     5
 63
     7
 74
     1
 91
        4
 64
     7
 65
   257
 75
     1
175
     1
 42
1.0
 92
        8
 66
     7
 43
1.0
 76
     1
 77
     6
 78
     2
 67
     7
 79
     5
170
     0
171
     0
290
     0
174
     0
 93
        1
 44
0.0
173
     0
291
     1
 45
0.0
1001
ACAD
1000
AcDbSavedByObjectVersion
1070
     0
  0
VISUALSTYLE
  5
2B
102
{ACAD_REACTORS
330
2A
102
}
330
2A
100
AcDbVisualStyle
  2
Flat
 70
     0
 71
     2
 72
     1
 73
     1
 90
        2
 40
-0.6
 41
30.0
 62
     5
 63
     7
 74
     0
 91
        4
 64
     7
 65
   257
 75
     1
175
     1
 42
1.0
 92
        8
 66
     7
 43
1.0
 76
     1
 77
     6
 78
     2
 67
     7
 79
     5
170
     0
171
     0
290
     0
174
     0
 93
       13
 44
0.0
173
     0
291
     1
 45
0.0
1001
ACAD
1000
AcDbSavedByObjectVersion
1070
     0
  0
VISUALSTYLE
  5
2C
102
{ACAD_REACTORS
330
2A
102
}
330
2A
100
AcDbVisualStyle
  2
FlatWithEdges
 70
     1
 71
     2
 72
     1
 73
     1
 90
        2
 40
-0.6
 41
30.0
 62
     5
 63
     7
 74
     1
 91
        4
 64
     7
 65
   257
 75
     1
175
     1
 42
1.0
 92
        0
 66
   257
 43
1.0
 76
     1
 77
     6
 78
     2
 67
     7
 79
     5
170
     0
171
     0
290
     0
174
     0
 93
       13
 44
0.0
173
     0
291
     1
 45
0.0
1001
ACAD
1000
AcDbSavedByObjectVersion
1070
     0
  0
VISUALSTYLE
  5
2D
102
{ACAD_REACTORS
330
2A
102
}
330
2A
100
AcDbVisualStyle
  2
Gouraud
 70
     2
 71
     2
 72
     2
 73
     1
 90
        2
 40
-0.6
 41
30.0
 62
     5
 63
     7
 74
     0
 91
        4
 64
     7
 65
   257
 75
     1
175
     1
 42
1.0
 92
        0
 66
     7
 43
1.0
 76
     1
 77
     6
 78
     2
 67
     7
 79
     5
170
     0
171
     0
290
     0
174
     0
 93
       13
 44
0.0
173
     0
291
     1
 45
0.0
1001
ACAD
1000
AcDbSavedByObjectVersion
1070
     0
  0
VISUALSTYLE
  5
2E
102
{ACAD_REACTORS
330
2A
102
}
330
2A
100
AcDbVisualStyle
  2
GouraudWithEdges
 70
     3
 71
     2
 72
     2
 73
     1
 90
        2
 40
-0.6
 41
30.0
 62
     5
 63
     7
 74
     1
 91
        4
 64
     7
 65
   257
 75
     1
175
     1
 42
1.0
 92
        0
 66
   257
 43
1.0
 76
     1
 77
     6
 78
     2
 67
     7
 79
     5
170
     0
171
     0
290
     0
174
     0
 93
       13
 44
0.0
173
     0
291
     1
 45
0.0
1001
ACAD
1000
AcDbSavedByObjectVersion
1070
     0
  0
VISUALSTYLE
  5
38
102
{ACAD_REACTORS
330
2A
102
}
330
2A
100
AcDbVisualStyle
  2
Linepattern
 70
    14
 71
     2
 72
     2
 73
     0
 90
        0
 40
-0.6
 41
-30.0
 62
     5
 63
     7
 74
     1
 91
        4
 64
     7
 65
   257
 75
     7
175
     7
 42
1.0
 92
        8
 66
     7
 43
1.0
 76
     1
 77
     6
 78
     2
 67
     7
 79
     5
170
     0
171
     0
290
     0
174
     0
 93
        1
 44
0.0
173
     0
291
     1
 45
0.0
1001
ACAD
1000
AcDbSavedByObjectVersion
1070
     0
  0
VISUALSTYLE
  5
33
102
{ACAD_REACTORS
330
2A
102
}
330
2A
100
AcDbVisualStyle
  2
Realistic
 70
     8
 71
     2
 72
     2
 73
     0
 90
        0
 40
-0.6
 41
-30.0
 62
     5
 63
     7
 74
     1
 91
        0
 64
     7
 65
   257
 75
     1
175
     1
 42
1.0
 92
        8
 66
     8
 43
1.0
 76
     1
 77
     6
 78
     2
 67
     7
 79
     5
170
     0
171
     0
290
     0
174
     0
 93
       13
 44
0.0
173
     0
291
     0
 45
0.0
1001
ACAD
1000
AcDbSavedByObjectVersion
1070
     0
  0
VISUALSTYLE
  5
37
102
{ACAD_REACTORS
330
2A
102
}
330
2A
100
AcDbVisualStyle
  2
Thicken
 70
    13
 71
     2
 72
     2
 73
     0
 90
        0
 40
-0.6
 41
-30.0
 62
     5
 63
     7
 74
     1
 91
        4
 64
     7
 65
   257
 75
     1
175
     1
 42
1.0
 92
       12
 66
     7
 43
1.0
 76
     1
 77
     6
 78
     2
 67
     7
 79
     5
170
     0
171
     0
290
     0
174
     0
 93
        1
 44
0.0
173
     0
291
     1
 45
0.0
1001
ACAD
1000
AcDbSavedByObjectVersion
1070
     0
  0
ENDSEC
  0
EOF
